<svg xmlns="http://www.w3.org/2000/svg" xml:space="preserve" width="134" height="86"><ellipse cx="67" cy="43" rx="66" ry="32.5"/><path fill="#fff" stroke="#000" stroke-linecap="round" stroke-linejoin="round" stroke-miterlimit="2" stroke-width="6" d="M67 83c.1-.19.11-.4.15-.61.17-1.1.23-2.22.32-3.33.2-2.96.34-5.92.53-8.87.32-4.84.68-9.68 1.38-14.48.35-2.26.76-4.53 1.46-6.71a83.8 83.8 0 0 0 2.77-.24c.46 1.34.69 2.74.92 4.13.21 1.3.39 2.6.55 3.9.63 5.1 1.06 10.22 1.54 15.33.1 1.06.18 2.12.35 3.16.1-.22.11-.47.15-.7.1-.72.18-1.44.26-2.16.5-4.78.93-9.57 1.55-14.33.28-2.19.6-4.38 1.02-6.54.28-1.42.59-2.84 1.1-4.2.85-.25 1.7-.54 2.53-.89.26.59.46 1.2.64 1.82.46 1.59.78 3.22 1.06 4.85.6 3.53.95 7.09 1.42 10.63.13.81.21 1.63.47 2.41.13-.33.16-.69.22-1.04.23-1.6.38-3.2.55-4.82.16-1.74.34-3.49.47-5.24l.02.08a1174.75 1174.75 0 0 0 1.07-13.38c-2.42-.9-4.7-2.15-6.8-3.65a32.44 32.44 0 0 1-7.25-7.3 37.1 37.1 0 0 1-4.97-9.47A56.48 56.48 0 0 1 67.67 8.2c-.15-1.37-.24-2.75-.38-4.12-.05-.36-.06-.75-.24-1.08h-.09c-.16.25-.17.55-.22.83-.1.91-.17 1.83-.25 2.74a71.85 71.85 0 0 1-.98 7.33 45.22 45.22 0 0 1-3.7 11.52c-2.05 4.17-4.88 8-8.42 11.05a29.63 29.63 0 0 1-8.89 5.3c.45 5.88.92 11.74 1.48 17.6.18 1.91.36 3.81.62 5.7.06.35.1.7.2 1.04l.06-.01c.22-.69.3-1.4.4-2.11.38-2.74.67-5.5 1.06-8.23.31-2.2.67-4.39 1.21-6.54.24-.94.5-1.87.9-2.76.82.35 1.67.63 2.53.9.32.84.55 1.71.76 2.59.31 1.36.56 2.74.78 4.12.9 5.69 1.42 11.43 2 17.16.11 1.03.22 2.07.35 3.1.05.32.08.65.19.97.11-.72.18-1.45.25-2.17.46-4.87.87-9.74 1.43-14.6.27-2.3.56-4.61.97-6.9.19-.97.37-1.94.7-2.87.93.08 1.85.17 2.78.23.69 2.15 1.1 4.39 1.44 6.62.38 2.5.65 5.01.87 7.53.38 4.3.63 8.6.87 12.9.13 1.9.22 3.8.42 5.7.05.42.1.85.22 1.26z" clip-rule="evenodd" paint-order="markers stroke fill"/></svg>