<?xml version="1.0" encoding="UTF-8"?><svg id="Layer_2" xmlns="http://www.w3.org/2000/svg" width="240.00099" height="170.45501" viewBox="0 0 240.00099 170.45501"><g id="svg8"><g id="g1"><path id="path1" d="M61.63,120.53l18.524,18.826c-9.467,1.071-13.859,9.017-13.859,15.379,0,5.98399,2.808,8.91499,2.808,8.91499C69.103,163.64999,23.197,149.485,0,107.24299l29.301,10.01301,31.513-32.028-31.513-32.029L0,63.211C23.197,20.967,69.103,6.805,69.103,6.805c0,0-2.808,2.931-2.808,8.913,0,6.362,4.392,14.31,13.859,15.379l-18.524,18.828,34.733,35.303-34.733,35.302ZM178.366,120.53l-18.521,18.826c9.47,1.071,13.85899,9.017,13.85899,15.379,0,5.98399-2.811,8.91499-2.811,8.91499,0,0,45.907-14.16499,69.10699-56.407l-29.30598,10.01301-31.511-32.028,31.51199-32.029,29.306,10.012C216.801,20.967,170.894,6.805,170.894,6.805c0,0,2.811,2.931,2.811,8.913,0,6.362-4.39,14.31-13.85899,15.379l18.521,18.829-34.73199,35.302,34.73099,35.30199ZM124.622,104.549l15.72299,15.981-20.345,20.678-20.347-20.678,69.468-70.605L119.99999,0l-49.122,49.925,30.11,30.604,14.387-14.625-15.722-15.979,20.347-20.68,20.345,20.68-69.466,70.60501,49.122,49.925,49.12099-49.925-30.10799-30.60401-14.392,14.623Z"/></g></g></svg>