<?xml version="1.0" encoding="UTF-8"?><svg id="Layer_2" xmlns="http://www.w3.org/2000/svg" width="295.23501" height="206.70799" xmlns:xlink="http://www.w3.org/1999/xlink" viewBox="0 0 295.23501 206.70799"><defs><style>.cls-1{fill:url(#radial-gradient);}.cls-2{fill-rule:evenodd;}</style><radialGradient id="radial-gradient" cx="-156.32799" cy="498.60525" fx="-156.32799" fy="498.60525" r="1.00002" gradientTransform="translate(23223.57957 73703.62366) scale(147.61248 -147.61248)" gradientUnits="userSpaceOnUse"><stop offset="0" stop-color="#f9991c"/><stop offset=".5" stop-color="#d3641c"/><stop offset="1" stop-color="#bf331c"/></radialGradient></defs><g id="Layer_1-2"><path class="cls-2" d="M111.012,37.19l-5.169-.37901c-2.132-.157-4.2-1.13599-5.607-2.749l-.031-.036c-1.933-2.163-2.637-5.276-1.873-8.025l.023-.084c.323-1.265.956-2.324,1.673-3.306L116.346.249l-25.731,10.21c-12.224,4.851-24.156,10.546-35.088,17.902-18.326,12.137-33.859,28.533-44.847,47.608L.059,94.409l20.138-6.87599c9.144-3.121,18.264-6.30801,27.41-9.424,8.248,8.394,16.511,16.773,24.765,25.161-8.259,8.386-16.518,16.767-24.763,25.162-9.145-3.106-18.264-6.298-27.413-9.42001L0,112.123l10.689,18.468c5.535,9.564,12.18,18.48199,19.764,26.504,9.011,9.54399,19.376,17.795,30.594,24.59999,9.366,5.73901,19.376,10.31001,29.554,14.38301l26.563,10.62999-17.197-22.866c-1.161-1.543-1.92-3.424-1.92-5.364v-.061c-.043-2.795,1.328-5.48499,3.532-7.09299l.036-.026c1.25401-.93701,2.73701-1.46001,4.25201-1.57001l5.156-.373,30.899,31.386,5.702,5.78801,5.69901-5.791,30.892-31.38301,5.15199.373c1.515.11,2.998.633,4.21701,1.543l.036.02701c2.24001,1.634,3.61,4.32399,3.56799,7.058l-.00099.06099c0,2.00101-.759,3.882-1.92,5.425l-17.196,22.866,26.562-10.62999c10.179-4.073,20.189-8.644,29.55499-14.38301,11.218-6.80499,21.58202-15.056,30.59401-24.59999,7.58301-8.022,14.229-16.94,19.76401-26.504l10.689-18.468-20.19601,6.88899c-9.14899,3.12201-18.26801,6.31401-27.41399,9.42001-8.244-8.395-16.50401-16.776-24.76201-25.162,8.254-8.388,16.51601-16.767,24.76401-25.161,9.147,3.116,18.267,6.303,27.41,9.424l20.138,6.87599-10.621-18.43999c-10.987-19.075-26.52002-35.471-44.87001-47.624-10.92599-7.348-22.84999-13.039-35.064-17.886L178.889.249l16.31801,22.362c.717.982,1.34999,2.041,1.65099,3.222l.02101.084c.787,2.833.084,5.946-1.817,8.074l-.032.035c-1.438,1.649-3.50601,2.628-5.638,2.785l-5.168.37901c-10.3-10.468-20.60501-20.934-30.91-31.4l-5.702-5.79-5.70001,5.792c-10.29999,10.465-20.59699,20.933-30.89999,31.398ZM147.63399,130.76801l-10.209,10.37c3.39601,3.455,6.793,6.909,10.19501,10.35899,3.39999-3.455,6.802-6.909,10.20399-10.364l-10.19-10.36499ZM147.62,75.75l10.198-10.357c-3.397-3.455-6.795-6.908-10.19499-10.361-3.399,3.453-6.79501,6.90701-10.194,10.36l10.19099,10.358Z"/><path class="cls-1" d="M94.47555,65.3861c17.72072-17.98072,35.42518-35.98581,53.13776-53.98277,17.72072,17.99696,35.44143,35.99393,53.1459,53.99902-24.8545,25.24449-49.709,50.48087-74.55537,75.73349,7.13378,7.25567,14.26757,14.51945,21.42572,21.75887,7.13379-7.25567,14.2757-14.5032,21.4176-21.75887-5.55753-5.6469-11.10692-11.30192-16.66445-16.94882,5.28127-5.37066,10.57067-10.73319,15.85195-16.11197,10.84692,11.01756,21.69386,22.03512,32.53266,33.06079-17.71259,18.0051-35.4333,35.99393-53.14589,53.99089-17.72071-17.98884-35.42517-35.99393-53.14589-53.98276,24.83825-25.26888,49.71712-50.489,74.56349-75.74976-7.13379-7.25566-14.26757-14.51132-21.4176-21.75885-7.15004,7.24754-14.2757,14.51132-21.42573,21.75885,5.57378,5.63878,11.12318,11.30193,16.68883,16.94884-5.2894,5.37065-10.58692,10.7413-15.87632,16.10382-10.83881-11.02567-21.70199-22.02698-32.53267-33.06078ZM201.66921,17.89523c1.31625,1.80376,2.38875,3.79439,2.94126,5.96378,1.47875,5.3219.09749,11.34256-3.58314,15.46195-2.77876,3.18502-6.84128,5.1594-11.05006,5.46815,6.74378,6.8819,13.52008,13.73131,20.26386,20.61322-12.4232,12.62631-24.8545,25.23637-37.26144,37.87081,12.42318,12.62632,24.84638,25.2445,37.27768,37.86269-6.76816,6.86567-13.53632,13.73944-20.3126,20.61323,3.03065.21938,5.98815,1.29188,8.42567,3.11189,4.26564,3.1119,6.89815,8.32818,6.8169,13.61757,0,3.66439-1.3325,7.25566-3.52627,10.17256,9.76631-3.90815,19.37822-8.27942,28.36452-13.7882,10.6113-6.43503,20.41823-14.23508,28.94139-23.262,7.15815-7.57253,13.43069-15.99007,18.65509-25.01699-10.74131,3.66438-21.44198,7.42628-32.19141,11.0338-11.24506-11.46444-22.52261-22.89637-33.79204-34.34455,11.2613-11.45631,22.54698-22.88823,33.80017-34.35267,10.74943,3.62377,21.45012,7.37754,32.18329,11.04193-10.37568-18.01321-25.0495-33.49141-42.38021-44.96397-10.45693-7.03629-21.88074-12.46381-33.57267-17.10321ZM93.56555,17.89523c-1.31625,1.80376-2.38876,3.79439-2.94127,5.96378-1.47875,5.3219-.0975,11.34256,3.58314,15.46195,2.77876,3.18502,6.84128,5.1594,11.05006,5.46815-6.74378,6.8819-13.52007,13.73131-20.26385,20.61322,12.42319,12.62631,24.8545,25.23637,37.26144,37.87081-12.42319,12.62632-24.84638,25.2445-37.27769,37.86269,6.76816,6.86567,13.53632,13.73944,20.3126,20.61323-3.03064.21938-5.98815,1.29188-8.42566,3.11189-4.26565,3.1119-6.89816,8.32818-6.81691,13.61757,0,3.66439,1.33251,7.25566,3.52627,10.17256-9.7663-3.90815-19.37822-8.27942-28.36451-13.7882-10.6113-6.43503-20.41822-14.23508-28.94139-23.262-7.15816-7.57253-13.43069-15.99007-18.65509-25.01699,10.7413,3.66438,21.44198,7.42628,32.19141,11.0338,11.24505-11.46444,22.52261-22.89637,33.79204-34.34455-11.2613-11.45631-22.54699-22.88823-33.80017-34.35267-10.74943,3.62377-21.45011,7.37754-32.18328,11.04193,10.37568-18.01321,25.0495-33.49141,42.38021-44.96397,10.45692-7.03629,21.88073-12.46381,33.57267-17.10321ZM94.47555,65.3861h0v-.00813.00813Z"/></g></svg>