<?xml version="1.0" encoding="UTF-8"?>
<svg id="Layer_1" xmlns="http://www.w3.org/2000/svg" version="1.1" xmlns:svg="http://www.w3.org/2000/svg" viewBox="0 0 150 137.2">
  <!-- Generator: Adobe Illustrator 29.2.1, SVG Export Plug-In . SVG Version: 2.1.0 Build 116)  -->
  <defs>
    <style>
      .st0 {
        fill: #fff;
      }
    </style>
  </defs>
  <g id="g3">
    <path id="path1" class="st0" d="M127.5,21.8v-11.4L99.4,0s-5,18.4-24.4,18.4S50.6,0,50.6,0l-28.1,10.4v11.4L0,30s7.5,13.8,9.7,22.7c2.8,10.9,3.6,24.3,3.6,24.3l18,6.5v9.9l43.7,43.9,43.7-43.9v-9.9l18-6.5s.8-13.4,3.6-24.3c2.2-8.8,9.7-22.7,9.7-22.7l-22.5-8.3Z"/>
    <path id="path2" d="M31.3,50.2v27l-12.5-4.5c-.5-4.9-1.5-13.7-3.4-21.5-1.4-5.6-4.7-12.9-7.2-18l14.2-5.2v16.3l8.8,5.9ZM127.5,28v16.3l-8.8,5.9v27l12.5-4.5c.5-4.9,1.5-13.7,3.4-21.5,1.4-5.6,4.7-12.9,7.2-18l-14.2-5.2Z"/>
    <polygon id="polygon2" points="53.5 65.1 37.2 54.2 37.2 90.9 75 128.9 112.8 90.9 112.8 54.2 96.5 65.1 96.5 93.5 75 115.3 53.5 93.5 53.5 65.1"/>
    <path id="path3" d="M75,29l21.5,21.7v7.3l25.1-16.8V14.5l-19-7c-4.1,7.7-12.9,16.8-27.6,16.8s-23.5-9.1-27.6-16.8l-19,7v26.7l25.1,16.8v-7.3l21.5-21.7Z"/>
    <polygon id="polygon3" class="st0" points="90.6 53.2 75 37.4 59.4 53.2 59.4 91.1 75 106.9 90.6 91.1 90.6 53.2"/>
  </g>
</svg>