<?xml version="1.0" encoding="UTF-8"?><svg id="Layer_2" xmlns="http://www.w3.org/2000/svg" width="593.41996" height="281.78525" xmlns:xlink="http://www.w3.org/1999/xlink" viewBox="0 0 593.41996 281.78525"><defs><style>.cls-1{fill:#fff;}.cls-1,.cls-2,.cls-3,.cls-4,.cls-5,.cls-6,.cls-7{fill-rule:evenodd;}.cls-2{fill:url(#linear-gradient-3);}.cls-3{fill:url(#linear-gradient-5);}.cls-4{fill:url(#linear-gradient-2);}.cls-5{fill:url(#linear-gradient-4);}.cls-6{fill:#612c75;}.cls-7{fill:url(#linear-gradient);}</style><linearGradient id="linear-gradient" x1="-8.75476" y1="-180.13278" x2="-7.75476" y2="-180.13278" gradientTransform="translate(-45024.03248 90645.76464) rotate(29.21) scale(561.18)" gradientUnits="userSpaceOnUse"><stop offset="0" stop-color="#612c75"/><stop offset="0" stop-color="#653179"/><stop offset=".11" stop-color="#855693"/><stop offset=".21" stop-color="#9e73a8"/><stop offset=".31" stop-color="#b088b7"/><stop offset=".41" stop-color="#bb94c0"/><stop offset=".5" stop-color="#bf99c3"/><stop offset=".59" stop-color="#bb94c0"/><stop offset=".69" stop-color="#b088b7"/><stop offset=".79" stop-color="#9e73a8"/><stop offset=".89" stop-color="#855693"/><stop offset=".99" stop-color="#653179"/><stop offset="1" stop-color="#612c75"/></linearGradient><linearGradient id="linear-gradient-2" x1="-8.77653" y1="-180.12059" x2="-7.77653" y2="-180.12059" gradientTransform="translate(45601.53347 90645.78187) rotate(150.78999) scale(561.18002 -561.18002)" xlink:href="#linear-gradient"/><linearGradient id="linear-gradient-3" x1="-9.22104" y1="-180.30092" x2="-8.22104" y2="-180.30092" gradientTransform="translate(47424.81052 -1875.63426) rotate(-89.74) scale(261.34)" xlink:href="#linear-gradient"/><linearGradient id="linear-gradient-4" x1="-8.6108" y1="-180.75165" x2="-7.6108" y2="-180.75165" gradientTransform="translate(-23659.56048 -30063.83983) rotate(144.28999) scale(212.92999)" xlink:href="#linear-gradient"/><linearGradient id="linear-gradient-5" x1="-8.55741" y1="-180.71325" x2="-7.55741" y2="-180.71325" gradientTransform="translate(24237.13446 -30063.83175) rotate(35.71) scale(212.92999 -212.92999)" xlink:href="#linear-gradient"/></defs><g id="Layer_2-2"><g id="Layer_1-2"><g id="M"><path class="cls-1" d="M113.39,178.53522S147.65999,49.85523,0,43.64524C0,43.64524,33.65-1.21476,91.99.02524s117.3,45.7,121.39999,47.89999c4.10001,2.21001,19.23,14.50999,66.53,19.55,0,0,4.54999-14.55,15.85999-19.55,0,0,8.54999,2.10001,16.04001,19.59,0,0,45.20999-1.24001,73.06-23.02S464.85999.17524,501.62998.01523c36.78003-.14999,61.96002,15.2,91.78998,42.33,0,0-144.14001.55-114.04001,136.38002,0,0-42.63998-23.23999-53.57001-20.10999,0,0,40.22,63.10999-22.26001,123.16,0,0-11.32001-34.04999-16.39999-37.17001,0,0-5.45999-14.06-32.41-32.01999-26.94-17.95999-49.57001-36.31-58.95999-53.10001,0,0-25.39001,35.14001-55.84,50.37,0,0-19.53,12.10001-34.75,31.63-15.23,19.51999-16.00999,40.29999-16.00999,40.29999,0,0-63.65-50.84-23.03999-122.69,0,0-21.16-.56-52.75,19.44l.00004-.00003Z"/><path class="cls-7" d="M130.12,154.42524s18.52-94.7-96.44-122.20999c0,0,56.91-50.48,155.28,17.27,0,0,34.07001,27.94,82.67999,30.62,0,0-10.82999,15.69-8.54001,35.59999-1.20999-.73001-.73999,22.82999-18.5,26.92001,0,0-92.04001-8.69-114.47,11.81l-.00998-.01001ZM105.68,42.66523s30.5,10.07001,28.99001,38.33c0,0,30.38,48.52,111.83,43.52,0,0-19.98-3.82001-44.09-40.24001,0,0-18.41-36.8-96.73001-41.61Z"/><path class="cls-6" d="M145.57999,65.98523s9.06,33.23,58.3,43.19c0,0-12.99001-18.38-19.94-24.89999-6.95-6.50999-14.8-14.67-38.36-18.3v.00999Z"/><path class="cls-4" d="M461.43,154.42524s-18.51999-94.7,96.43997-122.20999c0,0-56.91-50.48-155.28,17.27,0,0-34.07001,27.94-82.67999,30.62,0,0,10.82999,15.69,8.54001,35.59999,1.20999-.73001.73999,22.82999,18.5,26.92001,0,0,92.04001-8.69,114.47,11.81l.01001-.01001ZM485.88001,42.66523s-30.5,10.07001-28.98999,38.33c0,0-30.38,48.52-111.82999,43.52,0,0,19.98001-3.82001,44.09-40.24001,0,0,18.41-36.8,96.73001-41.61h-.00003Z"/><path class="cls-6" d="M445.97001,65.98523s-9.06,33.23-58.29999,43.19c0,0,12.98999-18.38,19.94-24.89999,6.95001-6.50999,14.79999-14.67,38.35999-18.3v.00999Z"/><path class="cls-2" d="M276.85001,101.18524s5.44-29.64999,18.94-39.77c0,0,12.45001,7.33,18.38,40.12001,0,0-13.73999,13.26001-18.38,43.26001,0,0-6.73001-33.14001-18.94-43.60999v-.00003Z"/><path class="cls-5" d="M188.18999,156.50522s-4.42999,16.89999,3.59,38.44c0,0,23.44-11.82999,50.90001-5.91,0,0,61.66-31.26001,30.73001-73.03,0,0,6.14999,28.54001-25.85001,40.56l-59.36-.04999-.01001-.01001Z"/><path class="cls-3" d="M403.38001,156.50522s4.42999,16.89999-3.59,38.44c0,0-23.44-11.82999-50.89999-5.91,0,0-61.66-31.26001-30.73001-73.03,0,0-6.14999,28.54001,25.85001,40.56l59.36002-.04999.00998-.01001Z"/><path class="cls-6" d="M183.93,255.02524s-34.14999-35.14001-6.39999-87.51001c0,0-.59,22.60001,9.44,41.01001,0,0,11.36-10.73001,44.95999-11.32001,0,0-45.95999,34.66-48,57.83002v-.01001Z"/><path class="cls-6" d="M407.65,255.02524s34.14999-35.14001,6.39999-87.51001c0,0,.59,22.60001-9.44,41.01001,0,0-11.35999-10.73001-44.95999-11.32001,0,0,45.95999,34.66,48,57.83002v-.01001Z"/></g></g></g></svg>