<?xml version="1.0" encoding="UTF-8"?><svg id="Layer_2" xmlns="http://www.w3.org/2000/svg" width="610.0966" height="289.70617" viewBox="0 0 610.0966 289.70617"><defs><style>.cls-1{fill:#fff;}.cls-1,.cls-2{fill-rule:evenodd;}</style></defs><g id="Layer_1-2"><g id="C"><path class="cls-1" d="M116.57375,183.55906S151.80648,51.25568,0,44.87069C0,44.87069,34.59623-1.24474,94.57223.02578c59.976,1.27112,120.59463,46.9814,124.81139,49.2507,4.21661,2.26928,19.77361,14.91259,68.40325,20.09929,0,0,4.68174-14.96339,16.30974-20.09929,0,0,8.79451,2.16219,16.49352,20.13786,0,0,46.48122-1.27359,75.11075-23.6636C424.33638,23.36073,477.92283.18244,515.72609.02578c37.80953-.15606,63.69701,15.62681,94.37052,43.52299,0,0-148.18976.56548-117.24701,140.21226,0,0-43.83749-23.88881-55.08-20.67704,0,0,41.34676,64.88119-22.88276,126.62218,0,0-11.64025-35.007-16.86048-38.21817,0,0-5.61827-14.45237-33.31724-32.91823-27.69927-18.46649-50.96753-37.33446-60.6125-54.59653,0,0-26.10174,36.13004-57.41175,51.7862,0,0-20.07363,12.4444-35.72849,32.5168-15.66113,20.07176-16.46289,41.42994-16.46289,41.42994,0,0-65.43499-52.26907-23.68437-126.13442,0,0-21.75663-.57099-54.23536,19.98731Z"/><path class="cls-2" d="M133.77308,158.76634s19.03939-97.36125-99.15012-125.64789c0,0,58.50726-51.8976,159.64026,17.75596,0,0,35.02475,28.72728,85.00061,31.48188,0,0-11.13837,16.13416-8.78211,36.59761-1.24238-.74726-.75887,23.4751-19.02101,27.67219,0,0-94.62751-8.93276-117.68763,12.14025ZM108.64432,43.87006s31.35887,10.34954,29.80452,39.41158c0,0,31.23635,49.87983,114.97636,44.74393,0,0-20.54488-3.92475-45.33088-41.37548,0,0-18.92299-37.83752-99.45-42.78003Z"/><path class="cls-2" d="M149.6667,67.84088s9.31462,34.16001,59.93327,44.40795c0,0-13.35388-18.90101-20.49587-25.59874-7.14214-6.69773-15.21439-15.08275-39.43739-18.80921Z"/><path class="cls-2" d="M474.38984,158.76634s-19.03939-97.36125,99.15012-125.64789c0,0-58.50726-51.8976-159.64026,17.75596,0,0-35.02475,28.72728-85.00061,31.48188,0,0,11.13837,16.13416,8.78211,36.59761,1.24238-.74726.75887,23.4751,19.02101,27.67219,0,0,94.62751-8.93276,117.68763,12.14025ZM499.5186,43.87006s-31.35887,10.34954-29.80452,39.41158c0,0-31.23635,49.87983-114.97636,44.74393,0,0,20.54488-3.92475,45.33088-41.37548,0,0,18.92299-37.83752,99.45-42.78003Z"/><path class="cls-2" d="M458.49622,67.84088s-9.31462,34.16001-59.93327,44.40795c0,0,13.35388-18.90101,20.49587-25.59874,7.14214-6.69773,15.21439-15.08275,39.43739-18.80921Z"/><path class="cls-2" d="M284.62273,104.03457s5.59361-30.48495,19.47388-40.88589c0,0,12.80299,7.53189,18.89849,41.24452,0,0-14.12501,13.628-18.89849,44.47158,0,0-6.92176-34.07126-19.47388-44.83021Z"/><path class="cls-2" d="M193.47761,160.9077s-4.55937,17.37039,3.69038,39.51748c0,0,24.10049-12.15924,52.326-6.07962,0,0,63.39086-32.14042,31.59136-75.08445,0,0,6.32201,29.34664-26.57912,41.69922l-61.02862-.05263Z"/><path class="cls-2" d="M414.70337,160.9077s4.55937,17.37039-3.69038,39.51748c0,0-24.10049-12.15924-52.326-6.07962,0,0-63.39086-32.14042-31.59136-75.08445,0,0-6.32201,29.34664,26.57912,41.69922l61.02862-.05263Z"/><path class="cls-2" d="M189.08962,262.1974s-35.10439-36.12391-6.579-89.9677c0,0-.60587,23.23277,9.70624,42.15886,0,0,11.67701-11.03374,46.21825-11.64268,0,0-47.2525,35.63185-49.34549,59.45152Z"/><path class="cls-2" d="M419.09747,262.1974s35.10439-36.12391,6.579-89.9677c0,0,.60587,23.23277-9.70624,42.15886,0,0-11.67701-11.03374-46.21825-11.64268,0,0,47.2525,35.63185,49.34549,59.45152Z"/></g></g></svg>