<?xml version="1.0" encoding="UTF-8"?><svg id="Layer_2" xmlns="http://www.w3.org/2000/svg" width="538.91677" height="247.66381" viewBox="0 0 538.91677 247.66381"><defs><style>.cls-1{fill-rule:evenodd;}</style></defs><g id="Layer_1-2"><g id="WM"><path class="cls-1" d="M99.15012,144.23275S118.18951,46.87151,0,18.58487c0,0,58.50726-51.8976,159.64026,17.75596,0,0,35.02475,28.72728,85.00061,31.48188,0,0-11.13837,16.13416-8.78211,36.59761-1.24238-.74726-.75887,23.4751-19.02101,27.67219,0,0-94.62751-8.93276-117.68763,12.14025ZM74.02137,29.33648s31.35887,10.34954,29.80452,39.41158c0,0,31.23635,49.87983,114.97636,44.74393,0,0-20.54488-3.92475-45.33088-41.37548,0,0-18.92299-37.83752-99.45-42.78003Z"/><path class="cls-1" d="M115.04375,53.30729s9.31462,34.16001,59.93327,44.40795c0,0-13.35388-18.90101-20.49587-25.59874-7.14214-6.69773-15.21439-15.08275-39.43739-18.80921Z"/><path class="cls-1" d="M439.76665,144.23275s-19.03939-97.36125,99.15012-125.64789c0,0-58.50726-51.8976-159.64026,17.75596,0,0-35.02475,28.72728-85.00061,31.48188,0,0,11.13837,16.13416,8.78211,36.59761,1.24238-.74726.75887,23.4751,19.02101,27.67219,0,0,94.62751-8.93276,117.68763,12.14025ZM464.8954,29.33648s-31.35887,10.34954-29.80452,39.41158c0,0-31.23635,49.87983-114.97636,44.74393,0,0,20.54488-3.92475,45.33088-41.37548,0,0,18.92299-37.83752,99.45-42.78003Z"/><path class="cls-1" d="M423.87302,53.30729s-9.31462,34.16001-59.93327,44.40795c0,0,13.35388-18.90101,20.49587-25.59874,7.14214-6.69773,15.21439-15.08275,39.43739-18.80921Z"/><path class="cls-1" d="M249.99367,89.50098s5.59361-30.48495,19.47388-40.88589c0,0,12.80299,7.53189,18.89849,41.24452,0,0-14.12501,13.628-18.89849,44.47158,0,0-6.92176-34.07126-19.47388-44.83021Z"/><path class="cls-1" d="M158.84856,146.37412s-4.55937,17.37039,3.69038,39.51748c0,0,24.10049-12.15924,52.326-6.07962,0,0,63.39086-32.14042,31.59136-75.08445,0,0,6.32201,29.34664-26.57912,41.69922l-61.02862-.05263Z"/><path class="cls-1" d="M380.08067,146.37412s4.55937,17.37039-3.69038,39.51748c0,0-24.10049-12.15924-52.326-6.07962,0,0-63.39086-32.14042-31.59136-75.08445,0,0-6.32201,29.34664,26.57912,41.69922l61.02862-.05263Z"/><path class="cls-1" d="M154.46056,247.66381s-35.10439-36.12391-6.579-89.9677c0,0-.60587,23.23277,9.70624,42.15886,0,0,11.67701-11.03374,46.21825-11.64268,0,0-47.2525,35.63185-49.34549,59.45152Z"/><path class="cls-1" d="M384.46866,247.66381s35.10439-36.12391,6.579-89.9677c0,0,.60587,23.23277-9.70624,42.15886,0,0-11.67701-11.03374-46.21825-11.64268,0,0,47.2525,35.63185,49.34549,59.45152Z"/></g></g></svg>