<?xml version="1.0" encoding="UTF-8"?><svg id="Layer_1" xmlns="http://www.w3.org/2000/svg" width="217" height="146.57091" viewBox="0 0 217 146.57091"><defs><style>.cls-1{fill:#fff;stroke:#fff;stroke-miterlimit:10;}</style></defs><path class="cls-1" d="M.5,70.37302l45.11937-12.72287c-3.36468-5.7228-9.75486-9.94065-16.55937-9.59713V.77302l44.29806,19.91726L108.3969,1.24492l35.24503,19.44536L187.94.77302v47.28c-6.80451-.34351-13.19469,3.87434-16.55937,9.59713l45.11937,12.72287v.48l-48.00071,16.08232c1.33446,4.278,3.41103,8.42101,6.14119,11.97719.63939.83284,2.54876,2.56513,2.85981,3.14189.11156.20685.21264.47737.08953.69011l-68.98693,43.23653-69.19273-43.23653c-.12311-.21273-.02202-.48326.08953-.69011.31103-.57674,2.22043-2.30906,2.85981-3.14189,2.73016-3.55618,4.80674-7.69919,6.14119-11.97719L.5,70.85302v-.48ZM182.9,7.97302l-40.20481,18.49914L108.56045,7.52702l-34.27998,18.92361L34.1,7.97302v35.52c8.75667,1.73407,15.41871,8.52602,18.4189,16.7411,1.12766,3.08773,1.59453,6.33368,2.21027,9.54973l13.2116,2.51023c.72559-25.85189,25.04271-44.91818,50.5005-38.38232,17.48557,4.48912,29.86913,20.67056,30.50188,38.62464l13.52429-2.91583c.66936-10.55902,6.4024-20.83772,16.37994-25.02019,1.31622-.55174,2.86321-.75515,4.05263-1.46737V7.97302ZM47.99687,62.47385l-30.4551,8.61617,90.84598,30.73507,90.83047-30.73507-30.08765-8.61764c-.95415.2831-2.00688,8.47321-2.09088,9.80091l-58.6597,11.73089-58.27186-11.70674-2.11127-9.82358ZM163.69869,88.6124l-20.81347,6.90584c-16.04285,25.65993-53.21031,25.70988-69.20169-.04874l-20.2452-6.86378c-1.54654,4.48196-3.65781,8.69671-6.33101,12.61021l61.47499,38.7092,61.35324-38.7116c-2.72814-3.75493-5.10392-8.06679-6.23685-12.60112Z"/><path d="M182.9,7.97302v35.16c-1.18943.71221-2.73641.91562-4.05263,1.46737-9.97754,4.18246-15.71058,14.46116-16.37994,25.02019l-13.52429,2.91583c-.63275-17.95408-13.01631-34.13551-30.50188-38.62464-25.45778-6.53586-49.77491,12.53043-50.5005,38.38232l-13.2116-2.51023c-.61574-3.21605-1.08261-6.462-2.21027-9.54973-3.00019-8.21508-9.66222-15.00703-18.4189-16.7411V7.97302l40.18047,18.4776L108.56045,7.52702l34.13474,18.94515,40.20481-18.49914Z"/><path d="M163.69869,88.6124c1.13293,4.53433,3.50871,8.84619,6.23685,12.60112l-61.35324,38.7116-61.47499-38.7092c2.6732-3.91349,4.78447-8.12825,6.33101-12.61021l20.2452,6.86378c15.99138,25.75861,53.15884,25.70867,69.20169.04874l20.81347-6.90584Z"/><path d="M47.99687,62.47385l2.11127,9.82358,58.27186,11.70674,58.6597-11.73089c.084-1.32769,1.13674-9.5178,2.09088-9.80091l30.08765,8.61764-90.83047,30.73507-90.84598-30.73507,30.4551-8.61617Z"/></svg>