<?xml version="1.0" encoding="UTF-8"?><svg id="Layer_1" xmlns="http://www.w3.org/2000/svg" width="215.57045" height="144.97005" xmlns:xlink="http://www.w3.org/1999/xlink" viewBox="0 0 215.57045 144.97005"><defs><style>.cls-1{fill:url(#linear-gradient-2);}.cls-2{fill:url(#linear-gradient-3);}.cls-3{fill:#09151a;}.cls-4{fill:#fefefe;}.cls-5{fill:url(#linear-gradient);}</style><linearGradient id="linear-gradient" x1="506.50758" y1="-1832.12087" x2="1242.5075" y2="-1832.28871" gradientTransform="translate(-102.36322 -358.3952) scale(.24 -.24)" gradientUnits="userSpaceOnUse"><stop offset="0" stop-color="#61737e"/><stop offset=".30299" stop-color="#b3c8d4"/><stop offset=".51359" stop-color="#cbe1ed"/><stop offset=".73098" stop-color="#b3c9d6"/><stop offset="1" stop-color="#566771"/></linearGradient><linearGradient id="linear-gradient-2" x1="1124.63117" y1="-1966.14581" x2="622.63117" y2="-1966.14902" gradientTransform="translate(-102.36322 -358.3952) scale(.24 -.24)" gradientUnits="userSpaceOnUse"><stop offset="0" stop-color="#93a7b4"/><stop offset=".23904" stop-color="#bed4e0"/><stop offset=".4761" stop-color="#cbe1ed"/><stop offset=".70319" stop-color="#bed4e0"/><stop offset="1" stop-color="#8da2ae"/></linearGradient><linearGradient id="linear-gradient-3" x1="567.57143" y1="-1655.39099" x2="1182.57142" y2="-1655.48456" gradientTransform="translate(-102.36322 -358.3952) scale(.24 -.24)" gradientUnits="userSpaceOnUse"><stop offset="0" stop-color="#798c97"/><stop offset=".30081" stop-color="#b9cedb"/><stop offset=".5252" stop-color="#cbe1ed"/><stop offset=".73984" stop-color="#bacfdc"/><stop offset="1" stop-color="#788a96"/></linearGradient></defs><path class="cls-5" d="M44.18524,62.4c.93377-.23699,1.87839-.44688,2.81706-.67446l.42092.1873c1.02689,3.05689,1.42308,6.2599,1.78904,9.45329.17347.35383.7083.0781.97299.15387,2.39825.68656,4.77704.94489,7.2,1.44,2.79493.57112,5.60424,1.11055,8.4,1.68,2.71574.55315,5.43912,1.1282,8.16,1.68,3.19748.64845,6.39737,1.28204,9.6,1.92,5.60163,1.11584,11.18291,2.28472,16.8,3.36,2.51263.48099,5.01259,1.26985,7.56,1.63114,4.07976-.64074,8.08165-1.79357,12.12-2.59114,6.15617-1.21585,12.32903-2.35864,18.48-3.6,2.31972-.46815,4.64337-.97306,6.96001-1.44,3.19603-.64419,6.40524-1.27491,9.60001-1.92,2.73077-.5514,5.43828-1.08845,8.16-1.68.59674-.1297,2.83711-.18168,3.12633-.64857.24934-1.88352.47293-3.76441.78461-5.64049.19096-1.14948.89609-2.71269.88907-3.79093.23512-.44549.84109-.2148,1.20982-.13312,1.25052.27703,2.80637.73816,4.07018,1.09312,1.59552.44812,3.19637.98432,4.8,1.44,1.19263.33889,2.41359.62183,3.60001.96,2.24519.63996,4.4868,1.50655,6.72,2.16,2.12079.62056,4.36205.99157,6.48,1.68,1.01865.33111,1.9691.95218,3.12029.96231.09569.61429-.05414.37279-.33737.50066-.67467.30457-1.79492.67038-2.54291.93703-2.22743.79403-4.49437,1.6324-6.72,2.4-2.21088.76252-4.49808,1.4022-6.72,2.16-1.19394.4072-2.40509.79276-3.60001,1.2-1.60268.54621-3.19824,1.13518-4.8,1.68-1.67319.56911-3.36601,1.1111-5.03999,1.68-1.91261.65-3.84639,1.27004-5.75999,1.92-2.48257.84321-4.99136,1.80869-7.44,2.64-3.13213,1.06336-6.4222,2.04627-9.60001,3.12-8.48077,2.86552-16.94862,5.80541-25.44,8.64-4.0447,1.3502-8.06848,2.78791-12.14048,4.06769-2.33884-.73713-4.7319-1.3885-7.05952-2.14769-5.538-1.8063-11.03259-3.89679-16.56-5.76-2.39432-.80709-4.80615-1.59161-7.2-2.4-.95632-.32294-1.92379-.63707-2.88-.96-2.63355-.88939-5.28677-1.75021-7.92-2.64-2.96162-1.00076-5.91562-2.11421-8.88-3.12-2.2205-.7534-4.50127-1.4069-6.72-2.16-2.15362-.731-4.32806-1.42925-6.48-2.16-2.00073-.67941-3.99362-1.47797-6-2.16-1.5076-.51248-3.06209-.93064-4.56-1.44-2.96062-1.00676-5.92079-2.09901-8.88-3.12-1.19049-.41074-2.41359-.78343-3.6-1.2-1.07082-.37599-2.51922-.74435-3.48768-1.1923-.2379-.11004-.56357-.13941-.59225-.4853,1.43003-.05663,2.73342-.80284,4.07993-1.2024.86623-.25705,1.94627-.4495,2.88-.72,3.11088-.90121,6.2417-1.76416,9.36-2.64,1.60723-.45142,3.19922-.99515,4.8-1.44,1.98884-.55269,4.00718-1.17422,6-1.68h-.00003Z"/><path class="cls-1" d="M57.38524,89.28c2.85581.96258,5.80949,1.86997,8.64,2.88.82825.29555,1.70983.76375,2.58063,1.02049,1.30389,3.02236,3.26586,5.58512,5.33937,8.09951,1.23624,1.49909,2.01187,2.28086,3.36,3.6,2.3664,2.31552,3.90035,3.68675,6.72,5.52,5.37465,3.49444,10.43107,5.48574,16.8,6.48,7.25645,1.13281,12.67156.7496,19.68-1.44,11.45728-3.57953,19.02952-10.26952,25.2-20.4.28224-.46338.73766-1.68594,1.1469-1.91451,2.88817-.73988,5.63901-1.94622,8.45309-2.88549,2.39522-.79946,4.8569-1.44338,7.2-2.4l.47311.17367c.49942,1.64542,1.06834,3.34106,1.76163,4.91158.94888,2.14957,2.20264,4.2683,3.52525,6.19475.02065.90262.66647,1.5576-.48,2.4-.23662.17386-.91238.2887-1.23502.5116-1.34222.92735-2.66997,1.96077-4.04498,2.8484-2.43581,1.57239-4.96996,2.99208-7.44,4.56-2.33656,1.4832-4.62776,3.08638-6.96001,4.56-.74365.46987-1.61205.94213-2.39999,1.44-2.39124,1.51091-4.83801,3.07403-7.2,4.56-6.13976,3.86265-12.3332,7.66688-18.48,11.52-4.05509,2.54193-8.12225,5.07433-12.16361,7.64236-2.37722-1.36777-4.70842-2.83539-7.03639-4.28236-5.51741-3.4294-11.05785-6.86565-16.56-10.32-2.33432-1.46553-4.61788-3.08863-6.96-4.56-.93686-.58855-1.95369-1.09633-2.88-1.68-2.73363-1.72246-5.42319-3.55479-8.16-5.28-2.94524-1.85659-5.91387-3.69658-8.88-5.52l-6.24-3.84-4.7855-3.23634c1.59068-2.37777,3.1578-4.7964,4.35944-7.40098.15175-.32892.10994-.71035.18606-.88268.60732-1.37485,1.57872-2.72396,1.68135-4.32059.18566-.16819,4.19087,1.23573,4.79865,1.44059Z"/><path class="cls-2" d="M120.02524,13.44c6.16697,3.4261,12.26672,6.9638,18.48,10.32,1.15652.62471,2.17097,1.58108,3.49828,1.91754,1.30661-.24083,2.54153-1.16084,3.70174-1.67754,3.14775-1.40186,6.23601-2.8806,9.36-4.32,2.56754-1.18301,5.11932-2.41573,7.67999-3.6,1.7496-.80916,3.5274-1.59214,5.28-2.4,1.8474-.85156,3.69069-1.798,5.52-2.64,1.38406-.63706,2.89742-1.27822,4.32001-1.92,1.36298-.61488,2.85991-1.01221,4.08-1.92h.24001l-.24001,35.52c-.07765.01357-.16258-.01405-.24001,0-1.71693.31155-2.34998.77967-3.84,1.44-1.79605.79595-2.88676,1.21544-4.56,2.4-2.30615,1.63263-3.8477,3.26711-5.52,5.52-2.42049,3.26082-4.99751,8.10389-5.28,12.24l-1.00227,4.75976c-2.17043.27112-4.2962.8263-6.43773,1.24024-1.19936.23183-2.4113.4288-3.59839.71917-.21252-4.5856-1.09616-9.1226-2.64162-13.43917-.82907-2.31565-1.92303-4.58212-3.12-6.72-2.01482-3.59864-4.12024-6.19419-6.96001-9.12-5.53802-5.70585-10.88164-8.98827-18.48-11.28-6.78318-2.04587-12.37759-2.49375-19.44-1.44-6.14913.91749-11.62476,3.10061-16.8,6.48-4.03161,2.63261-6.78312,5.21608-9.84,8.88-3.82599,4.58576-6.33202,8.88712-8.16,14.64-1.23128,3.875-2.07128,7.91254-2.16236,11.99987-2.21323-.57634-4.48244-.95894-6.71764-1.43987-.51163-.11009-3.03266-.45997-3.148-.61976-.52877-4.33833-1.49742-8.15876-3.332-12.10024-1.76038-3.78206-3.37178-5.90322-6.48-8.64-2.18155-1.92085-3.52992-2.87107-6.24-4.08-1.37436-.61309-2.77634-1.36831-4.32-1.44-.36151-11.74534-.2281-23.60072-.24116-35.39914.34281.03474.86748.22736,1.20116.35914,2.96823,1.17221,6.38613,2.94875,9.36,4.32,2.23786,1.03188,4.48081,2.08478,6.72,3.12,2.07678.96014,4.16039,1.92206,6.24,2.88,3.11979,1.43709,6.23162,2.89271,9.36,4.32,2.31114,1.05443,4.54283,2.35018,6.90158,3.32373.57819.24151.88853-.29591,1.25842-.44373,1.07714-.43047,1.87509-.90751,2.88-1.44,2.37009-1.2559,4.62407-2.7859,6.96-4.08,5.48532-3.03886,11.04853-6.0834,16.56-9.12.96766-.53314,6.53428-3.82998,7.04064-3.78637,4.05245,2.22019,8.12215,4.42347,12.15936,6.66636Z"/><path class="cls-3" d="M195.38524,64.08c6.69864,1.89661,13.43254,3.72481,20.16,5.52.13966.64791-.32918.46123-.71213.59561-6.60413,2.31737-13.30382,4.36023-19.92787,6.60439.1268-1.72243-.28403-3.62805.24001-5.28.74799-.26664,1.86826-.63245,2.54291-.93703.28323-.12787.43306.11363.33737-.50066-1.15118-.01014-2.10162-.63121-3.12029-.96231.03377-1.39871-.04688-2.81016-.00006-4.2109.01546-.46217-.24458-.96309.48006-.8291ZM50.66524,81.84c-.32167,3.35617-.55755,7.02433.24,10.32-.07612.17233-.03431.55376-.18606.88268-1.20163,2.60458-2.76875,5.02322-4.35944,7.40098l4.7855,3.23634c-.14559,1.78273.30887,3.81483-.24,5.52-2.26943-1.43516-4.66225-2.85641-6.96-4.32v-9.84c1.70587-2.77861,2.97644-5.81546,4.0808-8.87637-1.42119-.28236-2.72974-.98262-4.0808-1.44363.54808-1.5382.09594-3.42013.24-5.04,2.15194.73075,4.32638,1.429,6.48,2.16ZM120.02524,137.28c-.47901.29944-1.09678.92349-1.70008,1.2998-3.45777,2.15683-6.87452,4.39285-10.43649,6.37973-.28473.05-.5057-.0894-.7547-.18404-1.76517-.67084-4.57459-3.0592-6.30873-4.13551v-5.75999c2.32797,1.44698,4.65917,2.9146,7.03639,4.28236,4.04136-2.56802,8.10852-5.10043,12.16361-7.64236v5.76001ZM138.50523,120c.14558,1.78273-.30887,3.81483.24001,5.52-6.21159,3.90264-12.47937,7.85882-18.72,11.76v-5.75999c6.1468-3.85312,12.34026-7.65735,18.48-11.52ZM100.82524,134.88v5.75999c-5.61998-3.48808-11.2329-7.06488-16.8-10.56.54887-1.70517.09441-3.73727.24-5.52,5.50215,3.45435,11.04259,6.89062,16.56001,10.32ZM168.26524,107.04c-.72462.13399-.46461-.36689-.48006-.82911-.05212-1.56033.03789-3.13253.00006-4.69089,1.14647-.8424.50064-1.49738.48-2.4-.06831-2.98695-.03545-6.01263-.00417-9.00344.00424-.40523-.15343-1.06663.24417-1.31656,1.83771,4.70126,4.79495,9.3083,8.39543,12.84004-2.8143,1.89905-5.76965,3.58798-8.63544,5.39996ZM168.26524,80.64c.03989,1.39788-.05537,2.81136-.00006,4.2109.01826.46215-.24686.9629.48006.8291-.33138.11798-.71661.54254-1.20076.48369.3719.85479.62202,1.76972.96075,2.63631-.39758.24993-.23994.91133-.24417,1.31656-.03127,2.99081-.06413,6.01649.00417,9.00344-1.32262-1.92645-2.57635-4.04518-3.52525-6.19475-.69328-1.57053-1.26221-3.26616-1.76163-4.91158l-.47311-.17367v-5.28c1.9136-.64996,3.8474-1.27,5.75999-1.92h.00002ZM21.14524,63.84v5.04c-1.34651.39957-2.6499,1.14577-4.07993,1.2024.02868.34589.35434.37526.59225.4853.96846.44795,2.41686.81631,3.48768,1.1923-.03989,1.39788.05537,2.81136.00006,4.2109-.01827.46215.24686.9629-.48006.8291-1.91367-.64853-3.84507-1.27018-5.76-1.92-.06808-2.7561.09224-5.53339.00006-8.29089-.01546-.46246.24452-.96309-.48006-.82911,2.2045-.62552,4.48829-1.28618,6.72-1.92ZM66.26524,113.04c-.1462,1.86413.30918,3.97163-.24,5.76-2.88459-1.81799-5.78028-3.71699-8.64-5.52v-5.76c2.96613,1.82342,5.93476,3.66341,8.88,5.52ZM33.62524,76.08c-.14406,1.61987.30808,3.5018-.24,5.04-3.10735-1.05882-6.24894-2.0651-9.36-3.12.72709.13379.46164-.36715.48006-.82911.05597-1.40386-.18929-2.85597.23994-4.21089,2.95921,1.02099,5.91938,2.11324,8.88,3.12ZM11.78524,66.48c.55047,2.36593.09108,5.0073.24,7.44-3.74926-1.26657-7.55468-2.40172-11.28787-3.72439-.38198-.13533-.85203.0533-.71213-.59561,3.92217-1.00373,7.86521-2.01953,11.76-3.12ZM74.42524,118.32c-.57022,1.35652.01096,3.11538-.23885,4.44044-.11498.60993-.42686.63529-.96115.59956-2.40329-1.51169-4.79958-3.04715-7.2-4.56.54918-1.78837.0938-3.89587.24-5.76,2.73681,1.72521,5.42637,3.55754,8.16,5.28ZM162.50523,104.88c.14558,1.78273-.30887,3.81483.24001,5.52-2.464,1.55505-4.94881,3.23003-7.44,4.8-.54918-1.78837-.0938-3.89587-.24001-5.76,2.47005-1.56792,5.0042-2.98761,7.44-4.56ZM145.70524,115.44c-.38341,1.73691-.41486,4.02678,0,5.76-2.31023,1.45561-4.65105,2.86932-6.96001,4.32-.54887-1.70517-.09441-3.73727-.24001-5.52,2.36198-1.48597,4.80876-3.04909,7.2-4.56h.00002ZM84.26524,124.56c-.14559,1.78273.30887,3.81483-.24,5.52-2.30906-1.44968-4.64933-2.86849-6.96-4.32.54918-1.78837.0938-3.89587.24-5.76,2.34212,1.47137,4.62568,3.09447,6.96,4.56ZM155.30524,115.2c-2.3085,1.45483-4.6541,2.86706-6.96001,4.32-.54887-1.70517-.09441-3.73727-.24001-5.52,2.33224-1.47362,4.62343-3.0768,6.96001-4.56.14619,1.86413-.30917,3.97163.24001,5.75999ZM57.38524,107.52v5.76c-2.12095-1.33723-4.33437-2.72313-6.48-4.08.54887-1.70517.09441-3.73727.24-5.52l6.24,3.84ZM188.42525,73.92c.14406,1.61987-.30807,3.5018.24001,5.04-2.15327.73211-4.3297,1.42718-6.48,2.16-.72691.1338-.46179-.36695-.48006-.8291-.05531-1.39954.03995-2.81302.00006-4.2109,2.22192-.7578,4.50912-1.39748,6.72-2.16h-.00002ZM195.14523,71.52c-.52402,1.65195-.1132,3.55757-.24001,5.28-2.07841.70415-4.15508,1.45113-6.24001,2.16-.54808-1.5382-.09595-3.42013-.24001-5.04,2.22563-.7676,4.49257-1.60597,6.72-2.4h.00002ZM44.18524,79.68c-.14406,1.61987.30808,3.5018-.24,5.04-2.07488-.70799-4.18124-1.45721-6.24-2.16.72691.1338.46179-.36695.48006-.8291.05532-1.39954-.03995-2.81302-.00006-4.2109,2.00638.68203,3.99927,1.48059,6,2.16ZM167.78523,101.52c.03783,1.55836-.05219,3.13055-.00006,4.69089.01544.46223-.24457.9631.48006.82911-1.81453,1.1473-3.73975,2.23647-5.52,3.36-.54887-1.70517-.09441-3.73727-.24001-5.52,1.37503-.88763,2.70277-1.92105,4.04498-2.8484.32263-.2229.99838-.33774,1.23502-.5116h.00002ZM43.94524,104.88c-1.73147-1.10288-3.60859-2.02327-5.27543-3.23996,2.00385-1.97085,3.80505-4.20502,5.27543-6.60004,0,0,0,9.84,0,9.84ZM173.30524,78.96c.03989,1.39788-.05537,2.81136-.00006,4.2109.01826.46215-.24686.9629.48006.8291-1.66489.57302-3.39088,1.09286-5.03999,1.68-.72691.1338-.46179-.36695-.48006-.8291-.05531-1.39954.03995-2.81302.00006-4.2109,1.67398-.5689,3.36681-1.11089,5.03999-1.68ZM14.42524,65.76c.72457-.13398.4646.36665.48006.82911.09218,2.7575-.06814,5.53479-.00006,8.29089-.95411-.32377-1.92429-.63714-2.88-.96-.14892-2.4327.31047-5.07407-.24-7.44.87625-.24758,1.7688-.4728,2.64-.72ZM178.10524,77.28c-.52402,1.65195-.1132,3.55757-.24001,5.28-1.33716.45673-2.72861.97487-4.08,1.44-.72691.1338-.46179-.36695-.48006-.8291-.05531-1.39954.03995-2.81302.00006-4.2109,1.60176-.54482,3.19733-1.13379,4.8-1.68ZM38.18524,77.52c-.03989,1.39788.05537,2.81136.00006,4.2109-.01827.46215.24686.9629-.48006.8291-1.43184-.48878-2.88498-.95102-4.32-1.44.54808-1.5382.09594-3.42013.24-5.04,1.49791.50936,3.0524.92752,4.56,1.44ZM181.70524,76.08c.03989,1.39788-.05537,2.81136-.00006,4.2109.01826.46215-.24686.9629.48006.8291-1.43491.48901-2.88844.95102-4.32001,1.44.1268-1.72243-.28403-3.62805.24001-5.28,1.19492-.40724,2.40607-.7928,3.60001-1.2ZM77.30524,120c-.1462,1.86413.30918,3.97163-.24,5.76-1.27592-.8015-2.56426-1.59755-3.84-2.4.5343.03573.84617.01037.96115-.59956.2498-1.32506-.33137-3.08392.23885-4.44044.92631.58367,1.94314,1.09145,2.87999,1.68ZM24.74524,72.96c-.42924,1.35492-.18397,2.80703-.23994,4.21089-.01842.46196.24703.9629-.48006.82911-1.1257-.3817-2.2446-.822-3.36-1.2.72691.1338.46179-.36695.48006-.8291.05532-1.39954-.03995-2.81302-.00006-4.2109,1.18641.41657,2.40951.78926,3.6,1.2ZM148.10524,114c.14558,1.78273-.30887,3.81483.24001,5.52-.87856.55358-1.758,1.12427-2.64,1.68-.41486-1.73322-.38341-4.02309,0-5.76.78796-.49787,1.65636-.97013,2.39999-1.43999ZM35.06524,3.12c-.03504,1.23835.04904,2.49078.00006,3.73088-.01825.46209.24686.96292-.48006.82912-.33368-.13178-.85835-.32439-1.20116-.35914.01306,11.79842-.12035,23.6538.24116,35.39914.04021,1.30653.04369,2.66205.00006,3.9709-.01539.46158.24468.96309-.48006.8291-1.43147-.33036-3.30622-.25844-4.8-.48V0c2.28386.93991,4.47036,2.10892,6.72,3.12ZM185.30524.96l.24187,46.08125c-.61366-.19636-1.04863.14514-1.44186.23875-.79193.18852-1.62659.24035-2.39999.48v-5.04c.07742-.01405.16235.01357.24001,0,.17245-.03015.51306.12423.48454-.14561l-.24454-35.37439h-.24001c-.54688-1.37046-.09807-3.10291-.24001-4.56,1.19801-.54043,2.38657-1.1391,3.60001-1.68h-.00002ZM120.26524,7.68c-.54918,1.78837-.0938,3.89587-.24,5.76-4.03721-2.2429-8.10691-4.44618-12.15936-6.66637-.50636-.04361-6.07298,3.25322-7.04064,3.78637-.03985-1.6382.05484-3.29075.00006-4.93089-.01544-.46225.24456-.9631-.48006-.82911,1.21135-.67241,6.69504-4.12413,7.5413-4.07657,4.264,2.0698,8.25306,4.65101,12.3787,6.95657ZM138.50523,18v5.76c-6.21329-3.3562-12.31303-6.8939-18.48-10.32.1462-1.86413-.30918-3.97163.24-5.76,6.07776,3.39649,12.17432,7.00907,18.24,10.32ZM100.34524,4.8c.72461-.13399.46461.36686.48006.82911.05479,1.64014-.03991,3.29269-.00006,4.93089-5.51147,3.0366-11.07468,6.08114-16.56,9.12v-5.76c5.37461-3.00119,10.69256-6.12946,16.08-9.12ZM50.66524,56.88l-.48,14.64c-.26469-.07577-.79952.19995-.97299-.15387-.36596-3.19339-.76215-6.3964-1.78904-9.45329l-.42092-.1873c-.93867.22758-1.88329.43747-2.81706.67446-.14406-1.61987.30808-3.5018-.24-5.04.31491-.10367.72465-.55255,1.19949-.48291-.4833-.55648-.77211-1.35097-1.19949-1.91709.55003-2.11933.09201-4.53067.24-6.72,3.10822,2.73678,4.71962,4.85794,6.48001,8.64ZM185.30524.96c.57298-.25541,1.26878-.75693,1.92-.96v47.04l-3.12.24c.39322-.09361.82819-.43511,1.44186-.23875,0,0-.24187-46.08125-.24187-46.08125ZM173.54524,52.8c-1.18042,1.20036-2.10362,2.62597-3.11868,3.96145.896.32785,1.98746.80971,2.87869,1.07855v5.04c-1.26381-.35496-2.81966-.81609-4.07018-1.09312-.36871-.08168-.9747-.31238-1.20982.13312-.00027-.04257-.26224-.3703-.25757-.81152.03188-3.00982.01283-6.02166.01756-9.02848,1.6723-2.25289,3.21385-3.88737,5.52-5.52.1472,2.02683-.30966,4.28581.24001,6.24h-.00002ZM32.90524,60.48c.83914-.0294.66266-.14843.7206.58826.10621,1.35038.10673,3.15901-.2406,4.45174-3.1183.87584-6.24912,1.73879-9.36,2.64-.03377-1.39871.04687-2.81016.00006-4.2109-.01545-.46217.24458-.96309-.48006-.8291,3.11291-.88685,6.2481-1.74837,9.36-2.64ZM155.06525,14.64v5.04c-3.12399,1.4394-6.21225,2.91814-9.36,4.32-.54808-1.5382-.09595-3.42013-.24001-5.04,3.20865-1.39289,6.40759-2.88338,9.60001-4.32ZM66.26524,17.28v5.04c-3.12838-1.42729-6.24021-2.88291-9.36-4.32.72692.1338.46179-.36698.48006-.8291.05217-1.31982-.03754-2.65279-.00006-3.9709,2.96411,1.33604,5.91222,2.76529,8.88,4.08ZM44.18524,7.2c-.14309,1.53845.30755,3.34558-.24,4.8-2.97387-1.37125-6.39177-3.14779-9.36-4.32.72692.1338.4618-.36703.48006-.82912.04898-1.2401-.0351-2.49252-.00006-3.73088,3.03565,1.36435,6.08712,2.70966,9.12,4.08ZM73.46524,19.92c.59294-.13355.64559.45438.6956.85732.1793,1.44464-.26553,3.0498.2644,4.42268-.36989.14782-.68023.68524-1.25842.44373-2.35875-.97356-4.59044-2.26931-6.90158-3.32373v-5.04c2.07877.92088,4.23172,1.69982,6.24279,2.77911.40086.19605.62283.01559.95721-.13911ZM84.26524,13.92v5.76c-2.33593,1.2941-4.58991,2.8241-6.96,4.08-.1462-1.86413.30918-3.97163-.24-5.76,2.34935-1.28357,4.81284-2.747,7.2-4.08ZM145.46524,18.96c.14406,1.61987-.30807,3.5018.24001,5.04-1.16019.5167-2.39513,1.4367-3.70174,1.67754-1.32729-.33646-2.34175-1.29282-3.49828-1.91754v-5.76c1.35544.73986,2.87073,1.32575,4.19682,2.15014.92238-.39224,1.8457-.79186,2.76317-1.19014h.00002ZM162.50523,11.28c.1431,1.53845-.30756,3.34558.24001,4.8-2.56068,1.18427-5.11246,2.41699-7.67999,3.6v-5.04c2.47729-1.11481,4.96272-2.24144,7.44-3.36h-.00002ZM44.18524,48.24c-.14799,2.18933.31003,4.60067-.24,6.72-1.399-1.85315-4.21365-4.3965-6.24-5.52.72461.13399.46469-.36707.48005-.8291.04706-1.41549.15214-3.11188-.24005-4.4509,2.71008,1.20893,4.05845,2.15915,6.24001,4.08ZM188.66524,62.16c-.54852,1.62179-.09511,3.5787-.24001,5.28-2.2332-.65345-4.47479-1.52004-6.72-2.16v-5.04c2.38399.41284,4.64856,1.26105,6.96001,1.92ZM44.18524,7.2c2.24825,1.01582,4.4855,2.11069,6.72,3.12.3864,1.17894.28926,2.71497.24005,3.9709-.0181.46196.24677.96291-.48005.8291-2.23919-1.03522-4.48214-2.08812-6.72-3.12.54755-1.45442.09691-3.26155.24-4.8ZM195.38524,64.08c-.72462-.13399-.46461.36693-.48006.8291-.04681,1.40074.03381,2.81219.00006,4.2109-2.11795-.68843-4.35921-1.05944-6.48-1.68.1449-1.7013-.30852-3.65821.24001-5.28,2.23669.63763,4.48584,1.28744,6.72,1.92h-.00002ZM57.38524,13.2c-.03748,1.31812.05222,2.65108.00006,3.9709-.01827.46212.24686.9629-.48006.8291-2.07961-.95794-4.16322-1.91986-6.24-2.88.72683.13381.46195-.36714.48005-.8291.04921-1.25593.14635-2.79196-.24005-3.9709,2.14996.97112,4.32814,1.91007,6.48,2.88ZM43.94524,57.36c.54808,1.5382.09594,3.42013.24,5.04-1.99282.50578-4.01116,1.12731-6,1.68-.14406-1.61987.30808-3.5018-.24-5.04,1.9074-.54948,4.18853-1.08366,6-1.68ZM173.54524,6.24c-.37328,1.40733-.42455,3.3814,0,4.8-1.82932.842-3.67261,1.78844-5.52,2.64-.54755-1.45442-.09691-3.26155-.24001-4.8,1.92001-.86921,3.83601-1.77126,5.75999-2.64h.00002ZM177.86523,44.16c.14406,1.61987-.30807,3.5018.24001,5.04-1.24307.6559-3.54152,2.56432-4.56,3.6-.54967-1.95419-.0928-4.21317-.24001-6.24,1.67323-1.18456,2.76395-1.60405,4.56-2.4ZM167.78523,8.88c.1431,1.53845-.30756,3.34558.24001,4.8-1.75259.80786-3.5304,1.59084-5.28,2.4-.54755-1.45442-.09691-3.26155-.24001-4.8,1.75752-.79357,3.52107-1.60371,5.28-2.4ZM37.94524,59.04c.54808,1.5382.09594,3.42013.24,5.04-1.60078.44485-3.19277.98858-4.8,1.44.34733-1.29272.34681-3.10135.2406-4.45174-.05794-.7367.11854-.61766-.7206-.58826,1.67455-.4798,3.36447-.95732,5.04-1.44ZM37.94524,44.16c.39218,1.33901.2871,3.03541.24005,4.4509-.01536.46204.24456.9631-.48005.8291-.98111-.54397-3.5383-1.68421-4.56-1.92.72474.134.46467-.36752.48006-.8291.04363-1.30885.04016-2.66437-.00006-3.9709,1.54366.07169,2.94564.82691,4.32,1.44ZM178.34524,59.28c-.72458-.134-.46474.36709-.48004.8291-.04434,1.33864-.15227,2.94991.24004,4.2109-1.60362-.45568-3.20448-.99188-4.8-1.44v-5.04c1.64178.49526,3.40823.96702,5.03999,1.44h.00002ZM177.86523,4.32v4.8c-1.42259.64178-2.93593,1.28294-4.32001,1.92-.42455-1.4186-.37328-3.39267,0-4.8,1.43407-.64753,2.88673-1.27323,4.32001-1.92ZM181.70524,42.72v5.04c-.81282.25186-2.86835,1.05396-3.60001,1.44-.54808-1.5382-.09595-3.42013-.24001-5.04,1.49002-.66033,2.12308-1.12845,3.84-1.44h.00002ZM178.34524,59.28c.76248.22101,1.85715.26741,2.65714.59383l.70287.36617v5.04c-1.18642-.33817-2.40736-.62111-3.60001-.96-.39232-1.261-.28438-2.87226-.24004-4.2109.0153-.46201-.24454-.96309.48004-.8291ZM181.70524,2.64c.14194,1.45709-.30688,3.18954.24001,4.56-1.22009.90779-2.71703,1.30512-4.08,1.92v-4.8c1.27185-.57393,2.57388-1.10885,3.84-1.68ZM77.06524,18c.54918,1.78837.0938,3.89587.24,5.76-1.00491.53249-1.80286,1.00953-2.88,1.44-.52993-1.37287-.08509-2.97804-.2644-4.42268-.05001-.40294-.10266-.99088-.6956-.85732,1.00677-.46578,2.56059-1.35212,3.6-1.92ZM23.54524,63.12c.72463-.13399.46461.36693.48006.8291.04681,1.40074-.03382,2.81219-.00006,4.2109-.93373.2705-2.01377.46295-2.88.72v-5.04c.78998-.22436,1.59509-.49069,2.4-.72001ZM57.38524,84v5.28c-.60778-.20486-4.61299-1.60878-4.79865-1.44059-.10263,1.59663-1.07403,2.94574-1.68135,4.32059-.79755-3.29567-.56167-6.96383-.24-10.32,2.21873.7531,4.4995,1.4066,6.72,2.16ZM162.50523,87.84c-2.34309.95662-4.80478,1.60054-7.2,2.4-.54808-1.5382-.09595-3.42013-.24001-5.04,2.44862-.83131,4.95741-1.79679,7.44-2.64v5.28ZM182.18524,7.2l.24454,35.37439c.0285.26984-.3121.11546-.48454.14561,0,0,.24001-35.52.24001-35.52ZM50.66524,56.88c1.83458,3.94147,2.80324,7.76191,3.332,12.10024.11534.15979,2.63636.50968,3.148.61976.47578,1.01955.15305,2.25594.24,3.36-2.42296-.49511-4.80175-.75344-7.2-1.44,0,0,.48-14.64.48-14.64ZM168.02524,61.92c.00702,1.07825-.6981,2.64145-.88907,3.79093-.31168,1.87608-.53526,3.75697-.78461,5.64049-.28922.46689-2.5296.51888-3.12633.64857-.83899.02937-.66272.14853-.72061-.58827-.15738-2.00305-.13689-5.07853.00061-7.09173.28249-4.13611,2.85951-8.97918,5.28-12.24-.00475,3.00681.01431,6.01866-.01756,9.02848-.00467.44122.25729.76895.25757.81152h0ZM145.70524,95.04c-6.17049,10.13048-13.74271,16.82047-25.2,20.4l-.47956.00186c.08502-1.10434-.23498-2.34197.23956-3.36186,9.00806-2.9736,16.34776-9.12383,21.59876-16.92122-.09399-.29478-.51482-.05555-.72708-.00724-6.14172,1.39788-14.3918,4.76251-20.63168,6.84845-.72691.1338-.46179-.36695-.48006-.8291-.05532-1.39954.03995-2.81302.00006-4.2109,8.49138-2.83459,16.95921-5.77448,25.44-8.64.14799,2.18933-.31003,4.60067.24001,6.72h-.00002ZM120.02524,96.96c.03989,1.39788-.05537,2.81136-.00006,4.2109.01827.46215-.24686.9629.48006.8291-.44489.14872-1.00448.53931-1.55731.72374-3.67521,1.22612-7.33739,2.49476-11.05045,3.60832-2.54932-.44743-4.8862-1.61491-7.31224-2.41206.54808-1.5382.09594-3.42013.24-5.04,2.32762.75919,4.72067,1.41056,7.05952,2.14769,4.072-1.27978,8.09578-2.71749,12.14048-4.06769h.00002ZM74.42524,49.2c-.13374.83213-2.43806,4.11462-3.00682,5.27318-2.59104,5.27788-4.13941,11.38922-4.19122,17.28477,2.45944.15761,4.80948.95786,7.19804,1.44205l-.00044,3.12186-.47956-.00186c-2.72088-.5518-5.44426-1.12685-8.16-1.68.72683.13379.46176-.36654.48006-.82911.17302-4.37367.05038-9.05627.00412-13.45433-.00427-.40591.15321-1.06756-.24417-1.31656,1.82798-5.75288,4.33401-10.05424,8.16-14.64.39804.24978.23916.91077.24417,1.31662.01229.99555.14002,2.58619-.00417,3.48339ZM100.82524,98.88c-.14406,1.61987.30808,3.5018-.24,5.04-5.46044-1.7942-10.87718-3.68961-16.32-5.52v-5.28c5.52741,1.86321,11.022,3.9537,16.56,5.75999ZM120.50524,77.28c-.9774.56078-.284,2.31486-.48,3.36-4.03835.79758-8.04024,1.9504-12.12,2.59114-2.54741-.36129-5.04737-1.15015-7.56-1.63114l.47956.00186.00044-3.12186c2.41828.45939,4.8822.8491,7.32136,1.2156,4.12615-.77485,8.24067-1.61427,12.35864-2.4156ZM74.18524,89.76c.52402,1.65195.1132,3.55757.24,5.28-.27052-.05969-.66018.03858-.95998.00241.46021.44082.67094,1.25605.95998,1.67759-.03504,1.23835.04904,2.49078.00006,3.73088-.01825.46209.24686.96292-.48006.82912-2.07351-2.5144-4.03548-5.07716-5.33937-8.09951-.8708-.25674-1.75238-.72494-2.58063-1.02049.54808-1.5382.09594-3.42013.24-5.04,2.63323.88979,5.28645,1.75061,7.92001,2.64001ZM138.50523,73.68v3.36c-6.15097,1.24136-12.32383,2.38415-18.48,3.6.196-1.04514-.4974-2.79922.48-3.36,5.99821-1.16721,12.01258-2.3736,18.00001-3.6h-.00002ZM148.82524,57.6c1.54546,4.31657,2.42908,8.85357,2.64162,13.43917,1.18709-.29037,2.39903-.48734,3.59839-.71917v3.36c-3.19475.64509-6.40398,1.27581-9.60001,1.92v-3.36c.86964-.17941,1.7421-.40496,2.62894-.49043.05324-.87175-.02731-1.75783.01106-2.62957.05862-1.3313.45137-1.42183.49895-1.78374.3055-2.32364-.04939-5.91524-.02312-8.4197.00426-.40556-.15332-1.06708.24417-1.31656ZM100.82524,78.48l-.00044,3.12186-.47956-.00186c-5.61709-1.07528-11.19837-2.24416-16.8-3.36l.72051.00145-.00051-3.12145c5.50932,1.10774,11.04779,2.31287,16.56,3.36001ZM155.06525,85.2c.14406,1.61987-.30807,3.5018.24001,5.04-2.81412.93927-5.56494,2.14561-8.45309,2.88549-.40924.22857-.86465,1.45113-1.1469,1.91451-.55003-2.11933-.09201-4.53067-.24001-6.72,3.1778-1.07373,6.46786-2.05664,9.60001-3.12h-.00002ZM66.02524,59.04c.39739.249.2399.91065.24417,1.31656.04627,4.39806.1689,9.08066-.00412,13.45433-.0183.46257.24678.9629-.48006.82911-2.79576-.56945-5.60507-1.10888-8.4-1.68-.08695-1.10406.23578-2.34045-.24-3.36,2.2352.48094,4.50441.86354,6.71764,1.43987.09108-4.08733.93108-8.12488,2.16237-11.99987ZM66.26524,87.12c-.14406,1.61987.30808,3.5018-.24,5.04-2.83051-1.01003-5.78419-1.91742-8.64-2.88v-5.28c2.96438,1.00579,5.91838,2.11924,8.88,3.12ZM84.26524,93.12v5.28c-2.31647-.77902-4.64467-1.65462-6.96-2.4-.1268-1.72243.28402-3.62805-.24-5.28,2.39385.80839,4.80568,1.59291,7.2,2.4ZM84.26524,75.12l.00051,3.12145-.72051-.00145c-3.20263-.63796-6.40252-1.27155-9.6-1.92l.47956.00186.00044-3.12186c3.26949.66277,6.56816,1.26214,9.84,1.91999ZM162.50523,64.32c-.1375,2.0132-.15797,5.08868-.00061,7.09173.05789.73679-.11838.61764.72061.58827-2.72173.59155-5.42921,1.1286-8.16,1.68v-3.36c2.14151-.41395,4.2673-.96912,6.43773-1.24024l1.00227-4.75976ZM145.46524,72.24v3.36c-2.31664.46694-4.64027.97185-6.96001,1.44v-3.36c2.31544-.47427,4.6432-.96203,6.96001-1.44ZM77.06524,90.72c.52402,1.65195.1132,3.55757.24,5.28-.77301-.24886-2.26259-.82376-2.88-.96-.1268-1.72243.28402-3.62805-.24-5.28.95621.32293,1.92368.63706,2.88.96ZM120.26524,112.08c-.47454,1.01989-.15454,2.25751-.23956,3.36186l.47956-.00186c-7.00844,2.1896-12.42355,2.57281-19.68,1.44-.08695-1.10406.23578-2.34045-.24-3.36,6.60598,1.14002,13.31722.66038,19.68-1.44ZM100.58524,113.52c.47578,1.01955.15305,2.25594.24,3.36-6.36893-.99426-11.42535-2.98556-16.8-6.48.54168-1.08363.10465-2.61815.24-3.84,4.76082,3.42719,10.51495,5.9582,16.32001,6.96ZM84.26524,106.56c-.13535,1.22185.30168,2.75637-.24,3.84-2.81965-1.83325-4.3536-3.20448-6.72-5.52v-4.56c2.02795,2.30879,4.46217,4.44187,6.96,6.24ZM77.30524,100.32v4.56c-1.34813-1.31914-2.12376-2.10091-3.36-3.6.72692.1338.4618-.36703.48006-.82912.04898-1.2401-.0351-2.49252-.00006-3.73088.70648,1.03031,2.03544,2.63848,2.88,3.6ZM138.74524,41.76c-.54688,1.37046-.09807,3.10291-.24001,4.56-4.71449-5.58445-11.26201-10.20649-18.24-12.48-.34285-.92035-.44953-2.46441,0-3.36,7.59836,2.29173,12.94196,5.57415,18.48,11.28ZM120.26524,30.48c-.44953.89559-.34285,2.43965,0,3.36-6.16339-2.0081-13.0453-2.51005-19.44-1.44v-3.36c7.06241-1.05375,12.65682-.60587,19.44,1.44ZM100.82524,29.04v3.36c-5.81403.97288-11.7896,3.53189-16.56,6.96-.13535-1.22185.30168-2.75637-.24-3.84,5.17524-3.37939,10.65087-5.56251,16.8-6.48ZM84.26524,39.36c-3.79137,2.72455-6.8797,6.26799-9.84,9.84.14419-.8972.01646-2.48783.00417-3.48338-.00501-.40585.15387-1.06684-.24417-1.31662,3.05688-3.66392,5.80839-6.24739,9.84-8.88.54168,1.08363.10465,2.61815.23999,3.84ZM145.70524,50.88c-.39748.24939-.23991.91093-.24417,1.31656-.01823,1.73807-.16409,3.97541.00417,5.64344-1.9409-4.0701-4.03568-8.05604-6.96001-11.52.14194-1.45709-.30688-3.18954.24001-4.56,2.83977,2.92581,4.94519,5.52136,6.96001,9.12ZM148.82524,57.6c-.39749.24948-.23991.911-.24417,1.31656-.02628,2.50447.32861,6.09607.02312,8.4197-.04758.3619-.44032.45244-.49895,1.78374-.40854-1.57237-.50294-3.20579-.83775-4.80225-.42525-2.02767-1.61749-4.64623-1.80225-6.47775-.16826-1.66803-.02242-3.90537-.00417-5.64344.00426-.40563-.15331-1.06717.24417-1.31656,1.19696,2.13788,2.29092,4.40435,3.12,6.72Z"/><path class="cls-4" d="M74.42524,95.04c.61741.13624,2.10699.71114,2.88.96,2.31533.74538,4.64353,1.62098,6.96,2.4,5.44282,1.83039,10.85956,3.7258,16.32,5.52,2.42604.79715,4.76292,1.96464,7.31224,2.41206,3.71306-1.11356,7.37523-2.38221,11.05045-3.60832.55283-.18443,1.11242-.57502,1.55731-.72374,6.23989-2.08594,14.48995-5.45057,20.63168-6.84845.21228-.04831.6331-.28754.72708.00724-5.25102,7.79738-12.59071,13.94761-21.59877,16.92122-6.36278,2.10038-13.07402,2.58002-19.68,1.44-5.80505-1.0018-11.55918-3.53281-16.32-6.96-2.49783-1.79813-4.93205-3.93121-6.96-6.24-.84456-.96152-2.17352-2.56969-2.88-3.6-.28905-.42154-.49977-1.23677-.95998-1.67759.2998.03617.68947-.0621.95998-.00241v-.00002Z"/><path class="cls-4" d="M120.26524,33.84c6.97799,2.27351,13.52551,6.89555,18.24001,12.48,2.92433,3.46396,5.0191,7.4499,6.96001,11.52.18475,1.83152,1.377,4.45008,1.80225,6.47775.33482,1.59646.42921,3.22988.83775,4.80225-.03838.87173.04218,1.75782-.01106,2.62957-.88684.08548-1.75928.31102-2.62894.49043-2.31679.47797-4.64456.96573-6.96001,1.44-5.98743,1.2264-12.00179,2.43279-18,3.6-4.11797.80133-8.2325,1.64075-12.35864,2.4156-2.43916-.3665-4.90308-.75621-7.32136-1.2156-5.51221-1.04713-11.05068-2.25226-16.56-3.36-3.27184-.65786-6.57051-1.25723-9.84-1.92-2.38856-.48419-4.73861-1.28444-7.19804-1.44205.05181-5.89555,1.60018-12.0069,4.19122-17.28477.56876-1.15856,2.87309-4.44104,3.00682-5.27318,2.9603-3.57201,6.04863-7.11545,9.84-9.84,4.7704-3.42811,10.74597-5.98712,16.56-6.96,6.3947-1.07005,13.27661-.5681,19.44,1.44h0Z"/></svg>