<?xml version="1.0" encoding="UTF-8"?><svg id="Layer_1" xmlns="http://www.w3.org/2000/svg" width="215.57045" height="144.96109" xmlns:xlink="http://www.w3.org/1999/xlink" viewBox="0 0 215.57045 144.96109"><defs><style>.cls-1{fill:url(#linear-gradient-2);}.cls-2{fill:url(#linear-gradient-3);}.cls-3{fill:#1c1a00;}.cls-4{fill:#fefefe;}.cls-5{fill:url(#linear-gradient);}</style><linearGradient id="linear-gradient" x1="506.54644" y1="-1832.1962" x2="1242.54643" y2="-1832.30527" gradientTransform="translate(-102.36322 -358.3952) scale(.24 -.24)" gradientUnits="userSpaceOnUse"><stop offset="0" stop-color="#887a49"/><stop offset=".24185" stop-color="#bca96e"/><stop offset=".49728" stop-color="#d7c280"/><stop offset=".74592" stop-color="#c4b174"/><stop offset="1" stop-color="#7f7043"/></linearGradient><linearGradient id="linear-gradient-2" x1="623.53948" y1="-1966.1683" x2="1126.53948" y2="-1966.23239" gradientTransform="translate(-102.36322 -358.3952) scale(.24 -.24)" gradientUnits="userSpaceOnUse"><stop offset="0" stop-color="#ac9a62"/><stop offset=".44533" stop-color="#d7c280"/><stop offset=".69384" stop-color="#d3be7e"/><stop offset="1" stop-color="#b09d65"/></linearGradient><linearGradient id="linear-gradient-3" x1="1181.63932" y1="-1655.30888" x2="566.63932" y2="-1655.31658" gradientTransform="translate(-102.36322 -358.3952) scale(.24 -.24)" gradientUnits="userSpaceOnUse"><stop offset="0" stop-color="#9b8a56"/><stop offset=".2065" stop-color="#c4b174"/><stop offset=".43902" stop-color="#d7c280"/><stop offset=".69431" stop-color="#ccb779"/><stop offset="1" stop-color="#9b8b57"/></linearGradient></defs><path class="cls-5" d="M42.50524,62.88c.99243-.27193,3.44492-1.15713,4.22632-1.19815.31007-.01628.48124-.02863.69667.2354.23186.28417.8843,3.17953,1.00608,3.79368.37849,1.90889.46735,3.85917.83634,5.76447,3.46965.79614,7.02971,1.25928,10.51459,1.96459,1.59447.32271,3.20449.63538,4.8.96.79688.16213,1.60201.31783,2.4.48,3.06667.62322,6.03724,1.29546,9.12,1.92,4.87505.98764,9.75939,1.91543,14.64,2.88,1.40135.27695,2.88975.70029,4.25629,1.14371l12.90371,2.40743c8.52775-1.68707,17.03643-3.53607,25.56-5.23114,3.12468-.6214,6.24294-1.29294,9.36-1.92,3.59612-.72343,7.20583-1.43826,10.8-2.16,1.57394-.31606,3.20406-.63058,4.8-.96,1.08778-.22453,7.50787-1.14167,7.86568-1.49445.54253-3.24362.71732-6.59645,1.96407-9.6815.25533-.18348.51308-.09635.78838-.05943,1.45161.19466,4.11743,1.19342,5.70187,1.63538,3.35851.9368,6.72861,1.91282,10.08,2.88,2.85123.82283,5.79041,1.54204,8.64,2.4,1.6006.48191,3.09177,1.37416,4.79993,1.44241-.02876.34519-.35365.37572-.59215.48538-1.11021.51043-2.75867,1.00081-3.96776,1.43221-2.77933.99165-5.60858,1.91972-8.39999,2.88-3.58298,1.23258-7.21259,2.37687-10.8,3.6-4.32796,1.47562-8.6377,3.09073-12.96001,4.56-1.25754.42747-2.57127.76882-3.84,1.2-.71622.24341-1.44315.47645-2.16.72-.88657.30121-1.76688.6642-2.64.96-1.597.54104-3.22209,1.14662-4.8,1.68-1.98045.66945-4.01276,1.24882-6,1.92-2.87302.97034-5.76646,1.91084-8.64,2.88l-25.58048,8.62769c-5.60395-1.68029-11.11867-3.64644-16.65952-5.50769-2.80357-.94176-5.59823-1.93519-8.4-2.88-2.22295-.74962-4.50106-1.41044-6.72-2.16-1.83717-.6206-3.67655-1.29652-5.52-1.92-1.91427-.64743-3.846-1.27257-5.76-1.92-1.67392-.56622-3.36794-1.11217-5.04-1.68-5.7665-1.95829-11.51075-4.03912-17.28-6-5.2657-1.78973-10.57728-3.48375-15.84-5.28-2.6805-.9149-6.56818-1.98763-9.00768-3.1123-.23824-.10984-.56348-.13964-.59225-.4853,3.22095-.78341,6.41648-1.72532,9.59993-2.6424,5.2714-1.51858,10.55046-3.11063,15.83999-4.55999Z"/><path class="cls-1" d="M59.54524,90c1.66823.56171,3.37984,1.10541,5.04,1.68,1.33557.46225,2.66072,1.08627,4.02099,1.50003.45208,1.09182,1.11515,2.06606,1.73901,3.05997,1.80936,2.88262,3.13932,4.65179,5.52,7.2,2.26045,2.41951,3.99709,4.07601,6.72,6,2.93686,2.07516,5.13527,3.18786,8.4,4.56,14.53722,6.10985,30.09858,4.19373,42.71999-5.28,3.38544-2.54113,5.82768-5.06573,8.39999-8.4,1.7187-2.22781,3.34605-4.46159,4.54453-7.03164.45753-.17589,1.03214-.49403,1.45547-.64836,1.6286-.5937,3.39041-1.10498,5.03999-1.68.94247-.32853,1.92973-.638,2.88-.96.65865-.22319,1.32307-.52122,1.92-.72,1.13585-.37825,2.50137-.87367,3.60001-1.2.22867-.06792,1.39005-.29536,1.43906-.24131.26054,1.72883,1.19258,3.72577,1.95482,5.36744,1.1925,2.56834,2.65283,4.92278,4.2717,7.23752-2.50951,1.71055-5.11147,3.29141-7.66557,4.91634-1.27069.80842-2.56859,1.59325-3.84,2.4-.72667.4611-1.43414.98035-2.16,1.44-.87906.55666-1.76213,1.12513-2.64,1.68-1.60619,1.01521-3.22417,2.12502-4.8,3.12-2.0237,1.27777-4.18251,2.5425-6.24001,3.84-2.79398,1.76195-5.60298,3.52394-8.39999,5.28-8.52743,5.35381-17.1169,10.61948-25.60361,16.04237-5.54391-3.42296-11.11682-6.82246-16.63639-10.28236-2.79856-1.75426-5.6013-3.52304-8.4-5.28-2.24784-1.41114-4.47104-2.90245-6.72-4.32-1.82007-1.14721-3.70599-2.21558-5.52-3.36-1.02479-.64651-2.12418-1.2918-3.12-1.92-.84804-.53497-1.77049-1.13098-2.64-1.68-1.69285-1.06888-3.33969-2.28353-5.04-3.36-4.47504-2.83316-9.04042-5.53912-13.4255-8.51634,2.63365-3.8695,5.07167-8.02548,6.22684-12.60425,2.34372.61299,4.66571,1.38853,6.95865,2.16059h.00002Z"/><path class="cls-2" d="M133.46524,20.88c.07524.04165.24435.36326.5415.52742,2.60876,1.44122,5.22964,2.87334,7.85851,4.27258,2.2917-.65071,4.33324-1.90989,6.48-2.88,2.41743-1.09242,4.79538-2.25506,7.2-3.36.87608-.40257,1.76369-.79636,2.64-1.2,1.20291-.55407,2.40131-1.12456,3.60001-1.68,4.31915-2.00138,8.64972-3.97993,12.96001-6,2.45998-1.1529,4.88774-2.40924,7.44-3.36l-.24001,35.52c-2.5453.64309-4.9424,1.53253-7.2,2.88-2.79399,1.66761-5.50957,4.24576-7.39568,6.88432-3.39116,4.74401-5.07013,10.64798-5.66731,16.41269-1.30792.34468-2.65681.6672-3.97701.94299-1.58888.33192-3.20836.64043-4.8.96-.44276.0889-.97221.07141-1.43842.23917-.22273-5.01623-1.30496-9.97271-3.1216-14.63917-1.59059-4.08582-3.57539-7.35889-6.24001-10.8-2.83955-3.66704-4.96021-5.66857-8.64-8.4-12.6345-9.37829-27.84945-11.37572-42.48-5.28-3.46877,1.44524-5.1555,2.45134-8.16,4.56-2.91374,2.04496-4.50431,3.35882-6.96,6-2.27204,2.44367-3.82058,4.39873-5.52,7.2-1.18613,1.95517-2.25045,3.87251-3.12,6-1.15097,2.81602-2.0827,5.88208-2.64,8.88-.39374,2.11805-.67708,4.33127-.72236,6.47987-1.41459-.38986-2.87843-.67758-4.31764-.95987-1.81748-.35648-3.64257-.73748-5.47773-1.00024-1.18901-8.86532-4.17356-16.86254-11.56227-22.27976-1.15379-.84593-2.46367-1.74565-3.74896-2.37104-1.73082-.84218-3.61581-1.29483-5.37104-2.06896V7.2c2.96509,1.50808,6.10422,2.68943,9.12,4.08,5.66984,2.61435,11.35277,5.30544,17.04,7.92,1.74659.80295,3.56206,1.61386,5.28,2.4.77794.35599,1.54934.81486,2.4,1.2,1.04372.47255,2.06678.97402,3.12,1.44.74921.33147,2.54358,1.48137,3.22167,1.43758.96749-.09769,1.87989-1.09061,2.53833-1.43758,2.25516-1.18836,4.491-2.36295,6.72-3.6,2.81666-1.56319,5.58962-3.23403,8.4-4.8,5.51239-3.07155,11.05299-6.13016,16.64064-9.06637,8.28543,4.45296,16.40935,9.19803,24.63357,13.75988.33347.18497.74809.22599.96577.34649Z"/><path class="cls-3" d="M59.78524,84.96c-.14406,1.61987.30808,3.5018-.24,5.04-2.29294-.77206-4.61494-1.5476-6.95865-2.16059-1.15517,4.57877-3.5932,8.73475-6.22684,12.60425,4.38507,2.97722,8.95045,5.68318,13.4255,8.51634-.1462,1.86413.30918,3.97163-.24,5.76-6.94344-4.37723-13.99886-8.59201-20.87543-13.07996,4.37277-4.21814,7.30486-9.6847,9.34792-15.36584-1.83672-.63859-3.67577-1.39914-5.51249-2.0342v-5.28c5.76925,1.96088,11.5135,4.04171,17.27999,5.99999ZM133.46524,123.12c.03783,1.55836-.05219,3.13055-.00006,4.69089.01544.46223-.24457.9631.48006.82911-8.67417,5.45044-17.21078,11.13625-26.05657,16.31953-.61641.0414-1.63981-.75552-2.24347-1.09952-5.00761-2.85364-9.9908-6.38094-14.89996-9.46002.72462.13399.46461-.3669.48006-.82912.05213-1.56033-.03788-3.13252-.00006-4.69089,5.51957,3.45992,11.09248,6.85941,16.63639,10.28236,8.48671-5.42287,17.07618-10.68855,25.60361-16.04237v.00002ZM174.50523,83.76c-2.31749.80347-4.63565,1.70892-6.95248,2.5142,2.05125,5.68082,4.94138,11.16349,9.34792,15.36584-4.97377,3.26085-10.08804,6.30856-15.11543,9.47996-.54918-1.78837-.0938-3.89587-.24001-5.76,2.55411-1.62493,5.15607-3.2058,7.66557-4.91634-1.61887-2.31475-3.07919-4.66919-4.2717-7.23752-.76224-1.64167-1.69427-3.63861-1.95482-5.36744-.049-.05405-1.21037.17339-1.43906.24131v-5.04c4.3223-1.46927,8.63203-3.08438,12.96001-4.56v5.28ZM215.54524,69.6c.13966.6479-.32916.46123-.71213.59561-7.08124,2.4848-14.26454,4.67852-21.36787,7.08439.1268-1.72243-.28403-3.62805.24001-5.28,1.20911-.4314,2.85756-.92178,3.96776-1.43221.23849-.10965.56339-.14019.59215-.48538-1.70815-.06825-3.19933-.9605-4.79993-1.44241.14406-1.61987-.30807-3.5018.24001-5.04,7.25639,2.06284,14.54742,4.06444,21.84,6h.00002ZM26.18524,62.4c.72463-.13399.46461.36693.48006.8291.04681,1.40074-.03382,2.81219-.00006,4.2109-3.18345.91709-6.37898,1.859-9.59993,2.6424.02877.34566.354.37546.59225.4853,2.4395,1.12467,6.32718,2.1974,9.00768,3.1123-.03989,1.39788.05537,2.81136.00006,4.2109-.01827.46215.24686.9629-.48006.8291-3.99646-1.3595-8.00387-2.72604-12-4.08l.24-8.88c3.88295-1.10014,7.85065-2.24394,11.76-3.36ZM42.50524,78.96v5.28c-5.41988-1.87397-10.89017-3.67291-16.32-5.52.72691.1338.46179-.36695.48006-.8291.05532-1.39954-.03995-2.81302-.00006-4.2109,5.26272,1.79625,10.5743,3.49027,15.84,5.28ZM14.42524,65.76l-.24,8.88c-4.46624-1.51324-8.99972-2.86841-13.44787-4.44439-.38199-.13534-.85203.0533-.71213-.59561,4.79667-1.25794,9.63049-2.48868,14.4-3.84ZM185.30524,74.88c.03989,1.39788-.05537,2.81136-.00006,4.2109.01826.46215-.24686.9629.48006.8291-3.75246,1.27618-7.53484,2.54156-11.28,3.84v-5.28c3.58742-1.22313,7.21703-2.36742,10.8-3.6ZM141.86523,117.84c.03783,1.55836-.05219,3.13055-.00006,4.69089.01544.46223-.24457.9631.48006.82911l-8.39999,5.28001c-.72462.13399-.46461-.3669-.48006-.82911-.05212-1.56033.03789-3.13253.00006-4.69089,2.79703-1.75606,5.60602-3.51805,8.39999-5.28001ZM91.22524,128.88c-.03783,1.55836.05219,3.13055.00006,4.69089-.01544.46223.24457.9631-.48006.82912-2.7998-1.75607-5.6021-3.52226-8.4-5.28.72462.13399.46461-.3669.48006-.82912.05213-1.56033-.03788-3.13253-.00006-4.69089,2.7987,1.75696,5.60144,3.52574,8.4,5.28ZM193.70525,72c-.52402,1.65195-.1132,3.55757-.24001,5.28-2.55069.86391-5.12254,1.77023-7.67999,2.64-.72691.1338-.46179-.36695-.48006-.8291-.05531-1.39954.03995-2.81302.00006-4.2109,2.79143-.96028,5.62068-1.88835,8.39999-2.88ZM82.82524,123.6c-.03783,1.55836.05219,3.13055.00006,4.6909-.01544.46223.24457.9631-.48006.82912-2.1591-1.35642-4.32164-2.72376-6.48-4.08.54918-1.78837.0938-3.89587.24-5.76,2.24896,1.41755,4.47216,2.90886,6.72,4.31999ZM148.10524,114c.14558,1.78273-.30887,3.81483.24001,5.52-2.00359,1.26313-3.99005,2.57633-6,3.84-.72462.13399-.46461-.36689-.48006-.82911-.05212-1.56033.03789-3.13253.00006-4.69089,2.0575-1.2975,4.21629-2.56223,6.24001-3.84h-.00002ZM76.10524,119.28c-.1462,1.86413.30918,3.97163-.24,5.76-1.85416-1.1651-3.69951-2.45265-5.52-3.6.54887-1.70517.09441-3.73727.24-5.52,1.81401,1.14442,3.69993,2.21279,5.52,3.35999ZM64.82524,112.32c-.14559,1.78273.30887,3.81483-.24,5.52-1.66582-1.05026-3.37003-2.06723-5.04-3.12.54918-1.78837.0938-3.89587.24-5.76,1.70031,1.07647,3.34715,2.29112,5.04,3.36001ZM152.90524,110.88c.03783,1.55836-.05219,3.13055-.00006,4.69089.01544.46223-.24457.9631.48006.82911-1.67036,1.05353-3.37306,2.06911-5.03999,3.12-.54887-1.70517-.09441-3.73727-.24001-5.52,1.57584-.99498,3.19382-2.10479,4.8-3.12ZM161.78523,111.12c-1.27454.804-2.56635,1.5968-3.84,2.4-.54918-1.78837-.0938-3.89587-.24001-5.76,1.27141-.80675,2.56931-1.59158,3.84-2.4.14619,1.86413-.30917,3.97163.24001,5.76ZM70.58524,115.92c-.14559,1.78273.30887,3.81483-.24,5.52-.99568-.62752-2.09509-1.27396-3.12-1.92.54887-1.70517.09441-3.73727.24-5.52.99582.6282,2.09521,1.27349,3.12,1.92ZM64.82524,112.32c.86951.54902,1.79196,1.14503,2.64,1.68-.14559,1.78273.30887,3.81483-.24,5.52-.87091-.54897-1.7983-1.14933-2.64-1.68.54887-1.70517.09441-3.73727.24-5.52ZM155.54524,114.96c-.7168.45185-1.42905.97897-2.16,1.44-.72462.13399-.46461-.36689-.48006-.82911-.05212-1.56033.03789-3.13253.00006-4.69089.87787-.55487,1.76094-1.12334,2.64-1.68,0,0,0,5.76,0,5.75999ZM157.94524,113.52c-.79549.50165-1.61606.94583-2.39999,1.44v-5.76c.72586-.45965,1.43333-.9789,2.16-1.44.14619,1.86413-.30917,3.97163.24001,5.76h-.00002ZM42.50524,6.48v4.8c-3.01578-1.39057-6.15491-2.57192-9.12-4.08v35.16c1.75523.77413,3.64022,1.22678,5.37104,2.06896,1.28529.62539,2.59516,1.52511,3.74896,2.37104-.1472,2.02683.30966,4.28581-.24,6.24-3.6497-3.83045-8.61007-5.93068-13.92-6V0c4.75534,2.07266,9.43452,4.34475,14.16,6.48ZM174.74524,5.76c4.17101-1.87834,8.28653-3.92672,12.48-5.76v47.04c-4.39961.06659-8.91315,1.36339-12.24001,4.32-.54918-1.78837-.0938-3.89587-.24001-5.76,2.2576-1.34747,4.65469-2.23691,7.2-2.88.16147-.0408.50645.13291.48595-.14171l-.24594-35.37829c-2.55226.95076-4.98003,2.2071-7.44,3.36v-4.8h.00002ZM133.46524,15.12v5.76c-.21768-.12051-.63231-.16152-.96577-.34649-8.22422-4.56184-16.34814-9.30691-24.63357-13.75988-5.58766,2.9362-11.12826,5.99482-16.64064,9.06637-.1462-1.86413.30918-3.97163-.24-5.76,4.89033-2.73423,10.8628-6.84465,15.82867-9.00933.34951-.15235.65526-.40099,1.07263-.34724l25.5787,14.39657h-.00002ZM174.98524,51.36c-.52647.46789-4.79752,5.21326-4.55945,5.51708,1.56003.31044,3.05013,1.00028,4.55945,1.44292-.72458-.134-.46474.36709-.48004.8291-.04434,1.33864-.15227,2.94991.24004,4.2109-1.58446-.44196-4.25027-1.44072-5.70187-1.63538-.27531-.03692-.53305-.12405-.78838.05943-1.24673,3.08505-1.42154,6.43788-1.96407,9.6815-.3578.35278-6.77791,1.26992-7.86568,1.49445l-.7205.00145.0005-3.12145c1.32021-.27579,2.66908-.59831,3.97701-.94299.59718-5.76471,2.27615-11.66868,5.66731-16.41269,1.88612-2.63856,4.60168-5.21671,7.39568-6.88432.14619,1.86413-.30917,3.97163.24001,5.76ZM42.50524,46.8c7.38871,5.41722,10.37327,13.41444,11.56227,22.27976,1.83516.26276,3.66024.64376,5.47773,1.00024.47578,1.01955.15305,2.25594.24,3.36-3.48489-.70531-7.04495-1.16845-10.51459-1.96459-.36899-1.9053-.45785-3.85559-.83634-5.76447-.12177-.61416-.77422-3.50951-1.00608-3.79368-.21543-.26404-.3866-.25168-.69667-.2354-.7814.04101-3.23389.92622-4.22632,1.19815-.14406-1.61987.30808-3.5018-.24-5.04.88105-.25955,1.90959-.82932,2.87945-.96292-.87733-1.32157-1.78209-2.68538-2.87945-3.83708.54966-1.95419.0928-4.21317.24-6.24ZM59.78524,14.4c-.14309,1.53845.30755,3.34558-.24,4.8-5.68723-2.61456-11.37016-5.30565-17.04-7.92v-4.8c5.76792,2.60629,11.53106,5.32816,17.28,7.92ZM42.26524,57.84c.54808,1.5382.09594,3.42013.24,5.04-5.28954,1.44937-10.5686,3.04142-15.84,4.56-.03377-1.39871.04687-2.81016.00006-4.2109-.01545-.46217.24458-.96309-.48006-.8291,5.34421-1.52569,10.75093-2.99008,16.08-4.56ZM174.74524,5.76v4.8c-4.31027,2.02007-8.64084,3.99862-12.96001,6-.54755-1.45442-.09691-3.26155-.24001-4.8,4.40105-1.98562,8.79324-4.0155,13.2-6h.00002ZM174.98524,58.32c3.33258.97735,6.76372,1.93283,10.08,2.88-.54808,1.5382-.09595,3.42013-.24001,5.04-3.35139-.96718-6.7215-1.9432-10.08-2.88-.39232-1.261-.28438-2.87226-.24004-4.2109.0153-.46201-.24454-.96309.48004-.8291ZM91.22524,15.84c-2.81038,1.56597-5.58334,3.23681-8.4,4.8-.1462-1.86413.30918-3.97163-.24-5.76,2.76165-1.53718,5.59468-3.23152,8.4-4.8.54918,1.78837.0938,3.89587.24,5.76ZM142.10524,19.92c-.54918,1.78837-.0938,3.89587-.24001,5.76-2.62886-1.39924-5.24976-2.83136-7.85851-4.27258-.29715-.16416-.46626-.48577-.5415-.52742v-5.76c3.00488,1.16498,5.78502,3.461,8.64,4.8h.00002ZM193.70525,63.6c-.54808,1.5382-.09595,3.42013-.24001,5.04-2.84959-.85796-5.78879-1.57717-8.64-2.4.14406-1.61987-.30807-3.5018.24001-5.04,2.86842.81926,5.7683,1.58364,8.64,2.4ZM82.58524,14.88c.54918,1.78837.0938,3.89587.24,5.76-2.229,1.23705-4.46484,2.41164-6.72,3.6-.03783-1.55836.05219-3.13055.00006-4.69089-.01544-.46223.24457-.9631-.48006-.82911,2.30854-1.24721,4.68111-2.57153,6.96-3.84ZM155.54524,19.44c-2.40462,1.10494-4.78258,2.26758-7.2,3.36-.54808-1.5382-.09595-3.42013-.24001-5.04,2.48196-1.10045,4.96318-2.24435,7.44-3.36,0,0,0,5.04,0,5.04ZM148.34524,22.8c-2.14677.97011-4.18829,2.22929-6.48,2.88.14619-1.86413-.30917-3.97163.24001-5.76.06145.02882.11296.231.35977.24931,1.90547-.6681,3.77727-1.58331,5.64023-2.40931.14406,1.61987-.30807,3.5018.24001,5.04h-.00002ZM75.62524,18.72c.72462-.13399.46461.36689.48006.82911.05213,1.56033-.03788,3.13253-.00006,4.69089-.65844.34697-1.57084,1.33989-2.53833,1.43758-.67809.04379-2.47246-1.10611-3.22167-1.43758.54808-1.5382.09594-3.42013.24-5.04.75046.32412,1.52944.62429,2.28315.95018.8933-.5195,1.85255-.94163,2.75686-1.43018ZM64.82524,16.56v5.04c-1.71794-.78614-3.53341-1.59705-5.28-2.4.54755-1.45442.09691-3.26155.24-4.8,1.65388.74563,3.37502,1.41725,5.04,2.16ZM161.54524,11.76c.1431,1.53845-.30756,3.34558.24001,4.8-1.19868.55544-2.39709,1.12593-3.60001,1.68-.72691.1338-.46179-.36698-.48006-.8291-.05217-1.31982.03754-2.65279.00006-3.9709,1.27219-.57362,2.57266-1.10821,3.84-1.68ZM70.58524,19.2c-.14406,1.61987.30808,3.5018-.24,5.04-1.05322-.46598-2.07628-.96745-3.12-1.44.54808-1.5382.09594-3.42013.24-5.04,1.04444.46451,2.07771.98984,3.12,1.44ZM67.46524,17.76c-.14406,1.61987.30808,3.5018-.24,5.04-.85066-.38514-1.62206-.84401-2.4-1.2v-5.04c.8831.39395,1.75856.80798,2.64,1.2ZM157.70525,13.44c.03748,1.31812-.05222,2.65108-.00006,3.9709.01826.46212-.24686.9629.48006.8291-.87633.40364-1.76392.79743-2.64,1.2v-5.04c.71623-.32262,1.44473-.6375,2.16-.96ZM64.82524,86.64c-.14406,1.61987.30808,3.5018-.24,5.04-1.66016-.57459-3.37177-1.11829-5.04-1.68.54808-1.5382.09594-3.42013.24-5.04,1.67206.56783,3.36608,1.11378,5.04,1.68ZM161.54524,83.04v5.04c-1.09863.32633-2.46416.82175-3.60001,1.2-.54808-1.5382-.09595-3.42013-.24001-5.04,1.26872-.43118,2.58246-.77253,3.84-1.2h.00002ZM182.18524,7.2l.24594,35.37829c.02052.27462-.32446.10091-.48595.14171,0,0,.24001-35.52.24001-35.52ZM157.70525,69.84l-.0005,3.12145.7205-.00145c-1.59595.32942-3.22604.64394-4.8.96l-.7205.00145.0005-3.12145c1.59164-.31957,3.21112-.62808,4.8-.96ZM64.58524,74.4c-1.59551-.32462-3.20553-.63729-4.8-.96-.08695-1.10406.23578-2.34045-.24-3.36,1.43921.28229,2.90304.57001,4.31764.95987.04528-2.1486.32862-4.36182.72236-6.47987v9.84ZM133.46524,92.4c.03989,1.39788-.05537,2.81136-.00006,4.2109.01826.46215-.24686.9629.48006.8291l-26.28138,9.02071c-5.68344-1.81553-11.27141-3.99575-16.91862-5.90071.72691.1338.46179-.36695.48006-.8291.05532-1.39954-.03995-2.81302-.00006-4.2109,5.54085,1.86125,11.05557,3.8274,16.65952,5.50769l25.58047-8.62769h.00002ZM133.70525,74.64c-.47578,1.01955-.15305,2.25594-.24001,3.36-8.52357,1.69507-17.03225,3.54407-25.56,5.23114l-12.90371-2.40743c-1.36654-.44342-2.85494-.86676-4.25629-1.14371l.47956.00186.00044-3.12186,16.92136,3.1356c8.51532-1.70563,17.05087-3.32789,25.55864-5.0556ZM148.34524,56.4c1.81664,4.66646,2.89885,9.62294,3.1216,14.63917.46619-.16776.99564-.15027,1.43842-.23917l-.0005,3.12145.7205-.00145c-3.59418.72174-7.20389,1.43657-10.8,2.16-1.33186-.13116-.37872-2.15853-.96001-3.12,2.06889-.42004,4.15402-.81967,6.22893-1.21045.03537-.7933-.00101-1.5955.01106-2.38955.05901-3.87633-.04488-7.76401-.00417-11.64344.00426-.40561-.15331-1.06715.24417-1.31657ZM76.10524,90.48c-.14406,1.61987.30808,3.5018-.24,5.04-.66349-.20175-1.77069-.53981-2.39877-.36122.96907,1.16815,1.69755,2.5378,2.63877,3.72122-.14193,1.45709.30688,3.18954-.24,4.56-2.38068-2.54821-3.71064-4.31738-5.52-7.2.39796-.24938.23914-.91044.24417-1.31656.02627-2.12004-.0279-4.24608-.00417-6.36344,1.84345.62348,3.68283,1.2994,5.52,1.92ZM91.22524,76.56l-.00044,3.12186-.47956-.00186c-4.88061-.96457-9.76495-1.89236-14.64-2.88v-3.36c5.04007,1.02044,10.12874,1.876,15.12,3.12ZM148.10524,87.6v5.04c-.42334.15433-.99792.47247-1.45547.64836-1.19847,2.57005-2.82582,4.80383-4.54453,7.03164-.44318-1.53106-.23814-3.42166-.24001-5.04-.00009-.08-.00003-.16,0-.24.00069-1.8073-.19383-3.75488.24001-5.52,1.98724-.67118,4.01955-1.25055,6-1.92001ZM91.22524,95.52c-.03989,1.39788.05537,2.81136.00006,4.2109-.01827.46215.24686.9629-.48006.8291-2.87217-.96886-5.76682-1.91559-8.64-2.88.83909.02939.6627.14845.72061-.58827.11313-1.43927-.08301-2.99878-.00061-4.45173,2.80177.94481,5.59643,1.93824,8.39999,2.88ZM142.10524,89.52c-.43384,1.76512-.2393,3.7127-.24001,5.52l-7.92,2.4c-.72691.1338-.46179-.36695-.48006-.8291-.05531-1.39954.03995-2.81302.00006-4.2109,2.87354-.96916,5.76698-1.90966,8.64-2.88ZM67.46524,66.96c-.09545,2.16678-.59893,2.86359,0,4.8.21312.68905-.15244,2.29482-.00044,3.12186l-.47956-.00186c-.79799-.16217-1.60312-.31787-2.4-.48v-9.84c.5573-2.99792,1.48903-6.06398,2.64-8.88.39743.24918.23991.91078.24417,1.31656.03413,3.24811.13778,6.74107-.00417,9.96344ZM82.82524,92.64c-.0824,1.45295.11374,3.01246.00061,4.45173-.05791.73672.11848.61766-.72061.58827-2.06267-.69235-4.17575-1.53231-6.24-2.16.54808-1.5382.09594-3.42013.24-5.04,2.21894.74956,4.49705,1.41038,6.72,2.16ZM70.58524,88.56c-.02373,2.11736.03044,4.2434.00417,6.36344-.00503.40612.15378,1.06718-.24417,1.31656-.62386-.99391-1.28693-1.96815-1.73901-3.05997-1.36027-.41376-2.68542-1.03778-4.02099-1.50003.54808-1.5382.09594-3.42013.24-5.04,1.914.64743,3.84573,1.27257,5.76,1.92ZM76.10524,73.44v3.36c-3.08276-.62454-6.05333-1.29678-9.12-1.92l.47956.00186c-.15201-.82704.21356-2.43281.00044-3.12186,2.91827.34217,5.7693,1.09878,8.64,1.67999ZM141.86523,72.96c.58127.96147-.37186,2.98884.96001,3.12-3.11707.62706-6.23532,1.2986-9.36,1.92.08694-1.10406-.23578-2.34045.24001-3.36,2.71613-.55158,5.44133-1.12804,8.16-1.68h-.00002ZM152.90524,85.92c.14406,1.61987-.30807,3.5018.24001,5.04-1.6496.57502-3.41141,1.0863-5.03999,1.68v-5.04c1.57791-.53338,3.203-1.13896,4.8-1.68h-.00002ZM155.54524,84.96c.03989,1.39788-.05537,2.81136-.00006,4.2109.01826.46215-.24686.9629.48006.8291-.95026.322-1.93752.63147-2.88.96-.54808-1.5382-.09595-3.42013-.24001-5.04.87312-.2958,1.75343-.65879,2.64-.96h.00002ZM157.70525,84.24c.14406,1.61987-.30807,3.5018.24001,5.04-.59692.19878-1.26135.49681-1.92.72-.72691.1338-.46179-.36695-.48006-.8291-.05531-1.39954.03995-2.81302.00006-4.2109.71684-.24355,1.44379-.47659,2.16-.72h-.00002ZM133.70525,104.64c-.36137,1.1634-.43501,2.91463,0,4.08-12.62142,9.47373-28.18278,11.38985-42.72,5.28.53724-.91732.11051-2.29807.24-3.36,13.92039,6.06971,30.87194,3.99426,42.48-6ZM142.10524,100.32c-2.57233,3.33427-5.01456,5.85887-8.39999,8.4-.43501-1.16537-.36137-2.9166,0-4.08,1.23586-1.06404,3.33516-3.29096,4.44342-4.55658,1.33118-1.52018,2.36427-3.30226,3.71658-4.80342.00186,1.61834-.20319,3.50894.24001,5.04h-.00002ZM91.22524,110.64c-.12949,1.06193.29724,2.44268-.24,3.36-3.26473-1.37214-5.46314-2.48484-8.4-4.56.54168-1.08363.10465-2.61815.24-3.84,2.25504,1.75982,5.77642,3.89604,8.4,5.03999ZM82.82524,105.6c-.13535,1.22185.30168,2.75637-.24,3.84-2.72291-1.92399-4.45955-3.58049-6.72-6,.54688-1.37046.09807-3.10291.24-4.56,1.70008,2.13754,4.57176,5.04353,6.72,6.72ZM133.46524,37.2c.13336,1.25986-.29555,2.9437.24001,4.08-2.03172-1.25501-3.85374-2.83144-5.92675-4.03325-10.97355-6.36185-24.9365-7.173-36.55325-1.96675-.12949-1.06193.29724-2.44268-.24-3.36,14.63055-6.09572,29.8455-4.09829,42.48,5.28h-.00002ZM148.34524,56.4c-.39748.24941-.23991.91095-.24417,1.31656-.0407,3.87943.06317,7.76711.00417,11.64344-.40434-1.64778-.48737-3.38269-.83185-5.04815-.53926-2.60716-1.5027-5.55924-2.56233-7.99767-.52057-1.19793-2.70566-4.64674-2.84583-5.43417-.17085-.95985-.01562-2.87144-.00417-3.96345.00426-.40547-.15335-1.06695.24417-1.31655,2.6646,3.44111,4.64941,6.71418,6.24001,10.79999ZM142.10524,45.6c-.39752.2496-.23991.91108-.24417,1.31655-.01144,1.09202-.16669,3.00361.00417,3.96345-1.27087-1.72306-2.42947-3.53686-3.84628-5.15372-.95618-1.09121-3.8371-3.43498-4.31372-4.44628-.53555-1.1363-.10664-2.82014-.24001-4.08,3.67979,2.73143,5.80045,4.73296,8.64,8.4h.00002ZM90.98524,31.92c.53724.91732.11051,2.29807.24,3.36-2.96885,1.33054-5.6617,3.3153-8.4,5.04v-3.84c3.0045-2.10866,4.69123-3.11476,8.16-4.56ZM76.10524,47.04c-.10544.56122-2.01776,2.82845-2.49978,3.62022-.96988,1.59316-2.0087,3.32781-2.78022,5.01978l-.48-6c1.69942-2.80127,3.24796-4.75633,5.52-7.2.28268,1.12297.44713,3.4575.24001,4.56ZM82.82524,36.48v3.84l-6.72,6.72c.20713-1.1025.04268-3.43703-.24-4.56,2.45569-2.64118,4.04626-3.95504,6.96-6ZM70.82524,55.68c-1.63381,3.58298-2.53605,7.44269-3.36,11.28.14195-3.22237.0383-6.71533.00417-9.96344-.00426-.40578.15326-1.06738-.24417-1.31656.86955-2.12749,1.93387-4.04483,3.12-6,0,0,.48,6,.48,6Z"/><path class="cls-4" d="M75.86524,95.52c2.06425.62769,4.17733,1.46765,6.24,2.16,2.87318.96441,5.76783,1.91114,8.64,2.88,5.64721,1.90496,11.23518,4.08518,16.91862,5.90071l26.28138-9.02071,7.92-2.4c-.00003.08-.00009.16,0,.24-1.35231,1.50116-2.38542,3.28324-3.71658,4.80342-1.10826,1.26562-3.20757,3.49254-4.44342,4.55658-11.60806,9.99426-28.55961,12.06971-42.48,6-2.62358-1.14396-6.14496-3.28018-8.4-5.04-2.14824-1.67647-5.01992-4.58246-6.72-6.72-.94122-1.18341-1.66969-2.55306-2.63877-3.72122.62808-.17859,1.73528.15947,2.39878.36122Z"/><path class="cls-4" d="M133.70525,41.28c.47662,1.0113,3.35754,3.35507,4.31372,4.44628,1.41679,1.61686,2.57539,3.43066,3.84628,5.15372.14017.78743,2.32526,4.23624,2.84583,5.43417,1.05963,2.43844,2.02307,5.39052,2.56233,7.99767.34448,1.66547.42749,3.40037.83185,5.04815-.01208.79405.02431,1.59625-.01106,2.38955-2.07491.39078-4.16003.7904-6.22893,1.21045-2.71867.55196-5.44386,1.12842-8.16,1.68-8.50777,1.72771-17.04333,3.34996-25.55864,5.0556l-16.92136-3.1356c-4.99126-1.244-10.07993-2.09956-15.12-3.12-2.8707-.58122-5.72173-1.33783-8.64-1.68-.59893-1.93641-.09545-2.63322,0-4.8.82395-3.83731,1.72619-7.69702,3.36-11.28.77152-1.69196,1.81034-3.42662,2.78022-5.01978.48202-.79177,2.39434-3.05901,2.49978-3.62022l6.72-6.72c2.7383-1.7247,5.43115-3.70946,8.4-5.04,11.61674-5.20625,25.5797-4.3951,36.55325,1.96675,2.073,1.20181,3.89502,2.77824,5.92674,4.03325h-.00002Z"/></svg>