<?xml version="1.0" encoding="UTF-8"?><svg id="Layer_1" xmlns="http://www.w3.org/2000/svg" width="215.57044" height="145.11504" xmlns:xlink="http://www.w3.org/1999/xlink" viewBox="0 0 215.57044 145.11504"><defs><style>.cls-1{fill:url(#linear-gradient-2);}.cls-2{fill:url(#linear-gradient-3);}.cls-3{fill:#1b0600;}.cls-4{fill:#fefefe;}.cls-5{fill:url(#linear-gradient);}</style><linearGradient id="linear-gradient" x1="1124.73567" y1="-1960.9838" x2="622.73571" y2="-1961.07845" gradientTransform="translate(-102.36321 -357.1552) scale(.24 -.24)" gradientUnits="userSpaceOnUse"><stop offset="0" stop-color="#bf6a23"/><stop offset=".51992" stop-color="#dd951d"/><stop offset="1" stop-color="#bc6523"/></linearGradient><linearGradient id="linear-gradient-2" x1="506.52119" y1="-1826.98111" x2="1243.52117" y2="-1827.12858" gradientTransform="translate(-102.36321 -357.1552) scale(.24 -.24)" gradientUnits="userSpaceOnUse"><stop offset="0" stop-color="#a23821"/><stop offset=".48575" stop-color="#dd951d"/><stop offset=".73813" stop-color="#d08221"/><stop offset="1" stop-color="#9c2c21"/></linearGradient><linearGradient id="linear-gradient-3" x1="1181.64091" y1="-1650.24121" x2="566.64092" y2="-1650.2856" gradientTransform="translate(-102.36321 -357.1552) scale(.24 -.24)" gradientUnits="userSpaceOnUse"><stop offset="0" stop-color="#af4e22"/><stop offset=".2065" stop-color="#cf8121"/><stop offset=".44553" stop-color="#dd951d"/><stop offset=".6813" stop-color="#d68a1f"/><stop offset="1" stop-color="#af5022"/></linearGradient></defs><path class="cls-5" d="M54.02524,88.08c1.95115.58009,4.23364,1.48124,6.24,2.16,2.74573.92889,5.41838,2.10916,8.23559,2.86296.29554.20832.42263.86314.64441,1.21704,2.24848,3.58792,3.5672,5.74044,6.48,8.88,2.32979,2.51117,3.95917,3.97756,6.72,6,3.57811,2.62113,5.691,3.7097,9.84,5.28,13.87859,5.25272,28.78389,3.69078,40.8-5.28,3.76219-2.80871,6.50142-5.67322,9.36-9.36.72655-.93705,1.4427-1.64119,2.16507-2.75493.44646-.68833,1.91907-3.6703,2.22504-3.8941.10448-.07642,1.73016-.66075,2.08989-.79097,1.87076-.67719,3.86525-1.27866,5.75999-1.92,2.23404-.75618,4.77979-1.75182,6.96001-2.4.22919-.06814,1.38422-.28914,1.43881-.24078.49567,2.68704,1.90907,5.05309,3.12119,7.44078.66853,1.31691,1.52072,2.617,2.16,3.84.25687.49143.48665,1.04446.73676,1.54626-.30115.10485-.51114.46573-.73676.61374-.60609.39763-1.46449.75446-2.16,1.2-1.84364,1.18101-3.67245,2.43239-5.52,3.6-2.15466,1.3617-4.3243,2.72044-6.48,4.08-1.8134,1.14369-3.7018,2.21331-5.52,3.36-2.09898,1.32377-4.1485,2.76193-6.24001,4.08-3.17937,2.00364-6.59163,3.7012-9.60001,6l-24.88361,15.56237c-5.30377-3.13786-10.45755-6.53081-15.67639-9.80237-3.1948-2.00275-6.40611-3.99582-9.6-6-2.21165-1.38782-4.54384-2.71091-6.72-4.08-2.14655-1.35047-4.35835-2.7455-6.48-4.08-2.6172-1.64619-5.27834-3.37868-7.92-5.04-1.42345-.89519-2.93029-1.76541-4.32-2.64-1.68873-1.06277-3.3366-2.28682-5.04-3.36-.87685-.55243-1.76088-1.11796-2.64-1.68-1.01875-.65131-2.06453-1.3126-3.12-1.92v-.24c1.30206-1.51933,2.18613-3.29489,3.12-5.04,1.2654-2.36463,2.58614-4.7723,3.12119-7.44078.0546-.04837,1.20963.17264,1.43881.24078h.00002Z"/><path class="cls-4" d="M75.86523,95.52c2.05978.62007,4.17898,1.46803,6.24,2.16,3.35343,1.12589,6.72671,2.23142,10.08,3.36,5.22141,1.7573,10.38969,3.85441,15.68291,5.45085l24.87709-8.57085,8.88223-2.75775c-2.29057,3.77991-5.43024,7.40173-8.88223,10.19775-11.10155,8.99194-27.35662,11.21152-40.56,5.76-3.24458-1.33965-6.84572-3.58579-9.6-5.76-2.14275-1.69147-5.03363-4.57534-6.72-6.72-.8454-1.07515-1.55575-2.49211-2.39998-3.59756.14687-.10984,2.04411.37043,2.39998.47755Z"/><path class="cls-1" d="M49.22524,71.28c.37333.53236,3.7334.78324,4.56.96,2.63837.5642,5.27297,1.13984,7.92,1.68,2.54916.52018,5.13636.92193,7.68,1.44,4.31927.87971,8.631,1.77729,12.96,2.64,3.19763.63724,6.39518,1.29055,9.6,1.92,5.31971,1.04484,10.60939,2.38661,15.96,3.31114,8.47141-1.57382,16.88048-3.5484,25.31999-5.23114,3.20114-.63827,6.4035-1.27602,9.60001-1.92,1.92227-.38727,3.8452-.81383,5.75999-1.2,2.04622-.41268,4.17578-.78727,6.24001-1.2,2.41-.48187,4.7951-.9248,7.2-1.44,1.28078-.27438,2.79181-.27861,4.08-.72l.20721-.15305c.34279-3.22662.82169-6.54667,1.95329-9.57412.13359-.10744.31464-.10978.47949-.11284.22922-.00424.67744.17916.96001.24.30164.06494.6555.16072.96001.24.78316.2039,1.6002.5001,2.39999.72.32088.08822.64743.15298.96001.24,2.16087.60158,4.31607,1.31156,6.48,1.92,3.92184,1.10273,7.8495,2.21888,11.75999,3.36,2.07953.60683,4.09903,1.3122,6.23975,1.68258l-.23936.35774c-5.9771,1.8709-11.83772,4.10402-17.76039,6.11968-2.1506.73192-4.32747,1.42851-6.48,2.16-.44461.15109-.8481.36039-1.2.48-1.01416.34471-2.09386.61123-3.12.96-1.19453.406-2.40477.79407-3.60001,1.2-1.52534.51804-3.08899,1.18062-4.56,1.68-2.44141.8288-4.97794,1.56429-7.44,2.4-1.84206.62526-3.68332,1.29931-5.52,1.92-2.08321.704-4.16245,1.45826-6.24001,2.16-3.18016,1.07417-6.41566,2.04582-9.60001,3.12l-24.86048,8.38769c-5.36402-1.59996-10.63843-3.48711-15.93952-5.26769-3.11394-1.04594-6.24739-2.0697-9.36-3.12-2.3202-.78291-4.63547-1.6154-6.96-2.4-2.08066-.70229-4.15931-1.45782-6.24-2.16-3.11294-1.05055-6.24799-2.06731-9.36-3.12-1.91437-.64756-3.84568-1.27295-5.76-1.92-1.59982-.54075-3.1935-1.13743-4.8-1.68-1.02172-.34507-2.10713-.61796-3.12-.96-.88233-.29796-1.74677-.65854-2.64-.96-3.04152-1.02651-6.07618-2.0941-9.12-3.12-5.61151-1.89133-11.40381-3.45452-16.80264-5.88244l.58449-.61572c5.42878-1.49323,10.80407-3.25832,16.21815-4.78183,2.94123-.82766,5.93036-1.59735,8.88-2.4.82747-.22517,2.23866-.85114,2.88-.96.69404-.11781.93142-.02237,1.22224.57838.26396.54527.76447,2.89056.912,3.64738.34642,1.77713.42669,3.59714.74576,5.37424h.00002Z"/><path class="cls-2" d="M132.74523,20.64c1.35468.75084,8.66354,5.10258,9.46632,5.04131.2141-.01634.31581-.22542.37367-.24131,2.18088-.59914,4.19594-1.95304,6.24001-2.88,1.92503-.87298,3.84143-1.75832,5.75999-2.64,2.01646-.92667,3.99767-1.95512,6-2.88,1.90775-.88119,3.85844-1.76046,5.75999-2.64,1.19183-.55127,2.41734-1.13294,3.60001-1.68.69707-.32244,1.46228-.63709,2.16-.96.71587-.33131,1.44516-.63167,2.16-.96,2.2292-1.02387,4.4761-2.1515,6.72-3.12.38223-.16498.83922-.2033,1.19762-.47992l.01483,34.69243c.08611.8954-.77306.82766-1.45244,1.06749-2.57782.91-4.41011,1.59543-6.72,3.12-.70351.46432-1.27069.9138-1.92,1.44-1.08591.88002-1.56149,1.51618-2.39999,2.4-.4837.50984-.93217.80179-1.44,1.44-1.01134,1.271-1.39262,2.02522-2.16,3.36-2.50574,4.35851-4.16447,9.31907-4.56,14.4-2.5302.18849-4.96742.97424-7.44,1.44-.87331.1645-1.78127.21126-2.6384.47917-.21255-4.58562-1.09615-9.1227-2.64162-13.43917-1.44839-4.04536-3.66782-8.08711-6.24001-11.52-2.75832-3.6813-5.86964-6.6785-9.60001-9.36-12.16222-8.74261-26.77305-10.60185-40.8-5.28-4.00769,1.52053-6.34841,2.739-9.84,5.28-2.69699,1.96273-4.46605,3.53807-6.72,6-2.75367,3.00775-4.54441,5.498-6.48,9.12-1.63159,3.05314-2.85364,5.95019-3.77182,9.30818-.88794,3.24737-1.50863,6.50967-1.51054,9.8917-.68471-.29851-1.43359-.34803-2.15763-.47987-2.48248-.45204-4.92999-1.12545-7.44-1.44-.73023-4.92172-2.2708-10.04474-4.8-14.4-1.15247-1.98453-1.58078-2.60389-3.12-4.32-.97382-1.08573-1.46601-1.66067-2.64-2.64-3.31402-2.7645-5.17784-3.37799-9.12-4.8-.35939-.12964-.74127-.30711-1.094-.46578l-.10716-35.17338c.01828-.1736.6578.08879.72116.11916,3.10642,1.48902,6.23281,2.8801,9.36,4.32.87642.40354,1.7658.79664,2.64,1.2,1.00384.46317,2.08761.96285,3.12,1.44,1.51756.70139,3.03272,1.45574,4.56,2.16,2.62481,1.21035,5.32577,2.40914,7.92,3.6,2.55322,1.17204,5.09959,2.43736,7.68,3.6.88763.39993,3.13386,1.86273,3.97837,1.91749.79278.0514,1.83039-.84716,2.50163-1.19749,2.29671-1.19865,4.46465-2.59498,6.72-3.84,3.19653-1.76459,6.40947-3.50321,9.6-5.28,5.20223-2.8971,10.37726-5.87196,15.68064-8.58637,8.34971,4.51967,16.57794,9.26523,24.87936,13.86637Z"/><path class="cls-3" d="M49.46524,54.72l-.24,16.56c-.31907-1.7771-.39934-3.59711-.74576-5.37424-.14753-.75682-.64804-3.10211-.912-3.64738-.29082-.60074-.5282-.69619-1.22224-.57838v-11.28c1.53922,1.71611,1.96753,2.33547,3.12,4.32ZM132.74523,123.6c.03783,1.55836-.05219,3.13055-.00006,4.6909.01544.46223-.24457.9631.48006.82912-8.44975,5.30974-16.849,10.71861-25.32108,15.99503-5.47811-3.07249-10.64561-6.66335-15.95892-9.99503.54918-1.78838.0938-3.89587.24-5.75999,5.21884,3.27158,10.37262,6.66451,15.67639,9.80237l24.88361-15.56237v-.00002ZM92.18523,129.36c-.1462,1.86414.30918,3.97163-.24,5.75999-3.1949-2.00334-6.40677-3.9938-9.6-6,.54918-1.78837.0938-3.89587.24-5.76,3.19389,2.00418,6.4052,3.99725,9.6,5.99999v.00002ZM142.34524,117.6c.14558,1.78273-.30887,3.81483.24001,5.52-3.12849,1.9734-6.22301,4.02874-9.36,6-.72462.13399-.46461-.3669-.48006-.82912-.05212-1.56033.03789-3.13253.00006-4.69089,3.00838-2.2988,6.42064-3.99636,9.60001-6h-.00002ZM49.46524,81.36v13.92c-.93387,1.74511-1.81794,3.52067-3.12,5.04,0-2.67683.03235-5.36413.00417-8.04344-.00427-.40586.15323-1.06749-.24417-1.31656.73101-1.559,1.31014-3.18846,1.92079-4.79639-.69476-.02105-1.34929-.52706-1.92079-.72361.54808-1.5382.09594-3.42013.24-5.04,1.01287.34204,2.09828.61493,3.12.96ZM69.38524,115.2c-.14559,1.78273.30887,3.81483-.24,5.52-2.55082-1.60795-5.12824-3.19019-7.68-4.8.41486-1.73322.38341-4.02309,0-5.76,2.64166,1.66132,5.3028,3.39381,7.92,5.04001ZM169.70524,80.16c.03989,1.39788-.05537,2.81136-.00006,4.2109.01826.46215-.24686.9629.48006.8291-.82698.28786-1.71355.85046-2.64079.96363l.9608,2.63637-.24001,10.32c-.63928-1.223-1.49147-2.52309-2.16-3.84v-13.92c1.19524-.40593,2.40546-.794,3.60001-1.2ZM82.58524,123.36c-.1462,1.86413.30918,3.97163-.24,5.75999-2.25285-1.41539-4.47303-2.90768-6.72-4.32.54887-1.70517.09441-3.73727.24-5.52,2.17616,1.36909,4.50835,2.69218,6.72,4.08ZM75.86523,119.28c-.14559,1.78273.30887,3.81483-.24,5.52-2.15352-1.35359-4.35844-2.74264-6.48-4.08.54887-1.70517.09441-3.73727.24-5.52,2.12165,1.3345,4.33345,2.72953,6.48,4.08ZM160.58524,106.08c-.38341,1.73691-.41486,4.02678,0,5.76-2.05573,1.30506-4.21648,2.55975-6.24001,3.84-.54887-1.70517-.09441-3.73727-.24001-5.52,2.1557-1.35956,4.32533-2.7183,6.48-4.08h.00002ZM148.82523,119.28c-2.06401,1.30396-4.18095,2.5412-6.24001,3.84-.54887-1.70517-.09441-3.73727-.24001-5.52,2.09151-1.31807,4.14101-2.75623,6.24001-4.08.14619,1.86413-.30917,3.97163.24001,5.76ZM168.50524,88.8c.63222,1.54673,1.50148,3.43614,2.39999,5.04v11.52c-.78931.50815-1.60999.93521-2.39999,1.44-.54887-1.70517-.09441-3.73727-.24001-5.52.22562-.14801.43561-.50889.73676-.61374-.25011-.50181-.47987-1.05484-.73676-1.54626,0,0,.24001-10.32.24001-10.32001ZM166.34524,108.24c-1.90961,1.21812-3.85042,2.38771-5.75999,3.6-.41486-1.73322-.38341-4.02309,0-5.76,1.84753-1.16761,3.67636-2.41899,5.52-3.6.14619,1.86413-.30917,3.97163.24001,5.76h-.00002ZM46.34524,100.32v6c-.85479-.54134-1.93338-1.08088-2.88-1.68.39796-.24938.23914-.91045.24417-1.31656.02575-2.07823.02185-4.16851,0-6.24688-.00427-.40584.15324-1.06746-.24417-1.31656.97914-1.51647,1.87299-3.16422,2.64-4.8.3974.24907.23991.9107.24417,1.31656.02817,2.67931-.00417,5.36661-.00417,8.04344ZM154.10523,110.16c.14558,1.78273-.30887,3.81483.24001,5.52-1.83299,1.1597-3.66798,2.42997-5.52,3.6-.54918-1.78837-.0938-3.89587-.24001-5.76,1.81821-1.14669,3.7066-2.21631,5.52-3.35999ZM57.14524,107.52c-.14559,1.78273.30887,3.81483-.24,5.52-1.75797-1.10887-3.55568-2.26995-5.28-3.36l.48-5.52c1.7034,1.07318,3.35127,2.29723,5.04,3.36ZM61.46524,110.16c.38341,1.73691.41486,4.02678,0,5.76-1.51857-.95801-3.04256-1.92285-4.56-2.88.54887-1.70517.09441-3.73727.24-5.52,1.38971.87459,2.89655,1.74481,4.32,2.63999ZM43.46524,104.64c-1.59012-1.00639-3.24397-1.92785-4.79543-2.99996,1.82237-1.75986,3.42414-3.75623,4.79543-5.88004.39741.2491.23991.91072.24417,1.31656.02185,2.07837.02575,4.16865,0,6.24688-.00503.40611.15379,1.06718-.24417,1.31657ZM172.34524,104.4c-.39742-.24912-.23991-.91074-.24417-1.31656-.01933-1.83877-.02278-3.68823,0-5.52688.00504-.40609-.15379-1.06715.24417-1.31656,1.27103,1.92597,2.71828,3.73275,4.31541,5.40005-1.38058,1.00597-2.88432,1.8395-4.31541,2.75995ZM46.34524,100.56c1.05547.6074,2.10125,1.26869,3.12,1.92-.1462,1.86413.30918,3.97163-.24,5.76-.97543-.61618-1.92141-1.31293-2.88-1.92,0-1.91681,0-3.84319,0-5.76ZM170.90523,93.84c.42915.76604.95876,1.67078,1.44,2.4-.39796.24941-.23914.91046-.24417,1.31656-.02278,1.83865-.01933,3.68811,0,5.52688.00427.40582-.15324,1.06744.24417,1.31656-.44708.28755-.94643.64223-1.44.96v-11.52ZM49.46524,102.48c.87912.56204,1.76315,1.12757,2.64,1.68l-.48,5.52c-.77907-.4925-1.60696-.93903-2.4-1.44.54918-1.78837.0938-3.89587.24-5.75999ZM168.26524,101.28c.14558,1.78273-.30887,3.81483.24001,5.52-.71565.45728-1.43394.97686-2.16,1.44-.54918-1.78837-.0938-3.89587-.24001-5.76.69551-.44554,1.55389-.80237,2.16-1.2ZM54.26524,83.04c-.14406,1.61987.30808,3.5018-.24,5.04-.22918-.06814-1.38421-.28914-1.43881-.24078-.53506,2.66848-1.85579,5.07615-3.12119,7.44078v-13.92c1.6065.54257,3.20018,1.13925,4.8,1.68ZM166.10523,81.36v13.92c-1.21211-2.38769-2.62553-4.75373-3.12119-7.44078-.0546-.04837-1.20963.17264-1.43881.24078v-5.04c1.47101-.49938,3.03465-1.16196,4.56-1.68ZM132.98524,109.2c-12.01611,8.97078-26.92141,10.53272-40.8,5.28v-3.36c13.20338,5.45152,29.45845,3.23194,40.56-5.76.13535,1.22185-.30168,2.75637.24001,3.84ZM142.34524,89.52v10.32c-2.85858,3.68678-5.59781,6.55129-9.36,9.36-.54169-1.08363-.10464-2.61815-.24001-3.84,3.452-2.79602,6.59164-6.41784,8.88223-10.19775l-8.88223,2.75775v-5.28c3.18433-1.07418,6.41985-2.04583,9.60001-3.12ZM75.62524,90.24c.52402,1.65195.1132,3.55757.24,5.28-.35587-.10713-2.25311-.5874-2.39998-.47756.84423,1.10545,1.55459,2.52242,2.39998,3.59756-.14193,1.45709.30688,3.18954-.24,4.56-2.9128-3.13956-4.23152-5.29208-6.48-8.88.54966-1.95419.0928-4.21317.24-6.24,2.08069.70218,4.15934,1.45771,6.24001,2.16ZM92.18523,111.12v3.36c-4.149-1.5703-6.26189-2.65887-9.84-5.28.54168-1.08363.10465-2.61815.24-3.84,2.75428,2.17421,6.35542,4.42035,9.6,5.75999ZM82.58524,105.36c-.13535,1.22185.30168,2.75637-.24,3.84-2.76083-2.02244-4.39021-3.48883-6.72-6,.54688-1.37046.09807-3.10291.24-4.56,1.68637,2.14466,4.57725,5.02853,6.72,6.72ZM168.26524,51.36c.20438,3.07269-.26895,6.47001-.01573,9.50278.04231.50677.02806.56131.49573.81722-.16484.00305-.3459.0054-.47949.11284-1.13161,3.02744-1.6105,6.34749-1.95329,9.57412l-.20721.15305v-16.8c.76736-1.33478,1.14867-2.089,2.16-3.36h0ZM192.74523,63.36c7.57288,2.15131,15.20041,4.18114,22.8,6.24.13966.64791-.32919.46124-.71213.59561-11.30463,3.96676-22.74994,7.54434-34.08788,11.40439-.54808-1.5382-.09595-3.42013-.24001-5.04,5.92267-2.01567,11.78329-4.24879,17.76039-6.11968l.23936-.35774c-2.14072-.37038-4.16022-1.07575-6.23975-1.68258.03377-1.39871-.04688-2.81016-.00006-4.2109.01546-.46217-.24458-.96309.48006-.82909ZM34.58524,60v5.04c-5.41408,1.52351-10.78938,3.28861-16.21815,4.78183l-.58449.61572c5.39883,2.42792,11.19113,3.99111,16.80264,5.88244-.03989,1.39788.05537,2.81136.00006,4.2109-.01827.46215.24686.9629-.48006.8291-5.9111-2.01405-11.84724-3.99404-17.76-6,.72685.13379.46177-.36663.48006-.82911.12473-3.15383-.09237-6.33747-.00006-9.49089,5.91245-1.68047,11.85129-3.34165,17.75999-5.03999ZM16.82524,65.04c-.09231,3.15342.12478,6.33706.00006,9.49089-.01829.46248.24679.9629-.48006.82911-5.18389-1.75868-10.44462-3.33506-15.60787-5.16439-.38197-.13533-.85202.0533-.71213-.59561,5.61073-1.45647,11.22549-2.97558,16.8-4.56ZM43.70524,79.44c-.03989,1.39788.05537,2.81136.00006,4.2109-.01827.46215.24686.9629-.48006.8291-3.03262-1.04516-6.08566-2.08613-9.12-3.12.72691.1338.46179-.36695.48006-.8291.05532-1.39954-.03995-2.81302-.00006-4.2109,3.04382,1.0259,6.07848,2.09349,9.12,3.12ZM180.50524,76.56c.14406,1.61987-.30807,3.5018.24001,5.04-2.07677.70704-4.16074,1.44622-6.24001,2.16-.72691.1338-.46179-.36695-.48006-.8291-.05531-1.39954.03995-2.81302.00006-4.2109,2.15253-.73149,4.32939-1.42808,6.48-2.16ZM172.82523,79.2c.14406,1.61987-.30807,3.5018.24001,5.04-.95621.32944-1.93063.62953-2.88.96-.72691.1338-.46179-.36695-.48006-.8291-.05531-1.39954.03995-2.81302.00006-4.2109,1.02615-.34877,2.10583-.61529,3.12-.96ZM46.34524,80.4c-.14406,1.61987.30808,3.5018-.24,5.04-.95267-.32763-1.92231-.62994-2.88-.96.72691.1338.46179-.36695.48006-.8291.05532-1.39954-.03995-2.81302-.00006-4.2109.89323.30146,1.75767.66204,2.64.96ZM174.02523,78.72c.03989,1.39788-.05537,2.81136-.00006,4.2109.01826.46215-.24686.9629.48006.8291-.47942.16458-.9655.31652-1.44.48-.54808-1.5382-.09595-3.42013-.24001-5.04.3519-.11961.75539-.32891,1.2-.48h.00002ZM180.98524,60c3.91486,1.11141,7.87436,2.25616,11.75999,3.36-.72462-.13399-.46461.36693-.48006.8291-.04681,1.40074.03381,2.81219.00006,4.2109-3.91049-1.14112-7.83815-2.25727-11.75999-3.36.03377-1.39871-.04688-2.81016-.00006-4.2109.01546-.46217-.24458-.96309.48006-.8291ZM42.98524,57.6c.83914-.0294.66266-.14843.7206.58826.10621,1.35038.10673,3.15901-.2406,4.45174-2.94964.80265-5.93877,1.57234-8.88,2.4v-5.04c2.78478-.80043,5.6277-1.56779,8.4-2.4ZM180.98524,60c-.72462-.13399-.46461.36693-.48006.8291-.04681,1.40074.03381,2.81219.00006,4.2109-2.16393-.60844-4.31912-1.31842-6.48-1.92.14406-1.61987-.30807-3.5018.24001-5.04,2.24774.6269,4.48058,1.28424,6.72,1.92h-.00002ZM173.30524,57.84c-.72458-.134-.46474.36709-.48004.8291-.04434,1.33864-.15227,2.94991.24004,4.2109-.79979-.2199-1.61685-.5161-2.39999-.72-.04764-1.67358.0656-3.36792,0-5.04.96262-.14952,1.88158.50935,2.64.72ZM173.30524,57.84c.30759.08543.6279.14738.96001.24-.54808,1.5382-.09595,3.42013-.24001,5.04-.31258-.08702-.63911-.15178-.96001-.24-.39232-1.261-.28438-2.87226-.24004-4.2109.0153-.46201-.24454-.96309.48004-.8291ZM69.38524,88.08c-.1472,2.02683.30966,4.28581-.24,6.24-.22178-.35389-.34887-1.00872-.64441-1.21704-2.81721-.7538-5.48986-1.93407-8.23559-2.86296-.1268-1.72243.28402-3.62805-.24-5.28,3.11201,1.05269,6.24706,2.06945,9.36,3.12ZM148.58524,87.36c.14406,1.61987-.30807,3.5018.24001,5.04-.35974.13022-1.98541.71455-2.08989.79097-.30595.22379-1.77859,3.20576-2.22504,3.8941-.72237,1.11374-1.43852,1.81788-2.16507,2.75493v-10.32c2.07755-.70174,4.15678-1.456,6.24001-2.16h-.00002ZM161.54523,83.04v5.04c-2.18021.64818-4.72595,1.64382-6.96001,2.4-.72691.1338-.46179-.36695-.48006-.8291-.05531-1.39954.03995-2.81302.00006-4.2109,2.46207-.83571,4.9986-1.5712,7.44-2.4ZM60.02524,84.96c.52402,1.65195.1132,3.55757.24,5.28-2.00636-.67876-4.28885-1.57991-6.24-2.16.54808-1.5382.09594-3.42013.24-5.04,1.91432.64705,3.84563,1.27244,5.76,1.92001ZM154.10523,85.44c.03989,1.39788-.05537,2.81136-.00006,4.2109.01826.46215-.24686.9629.48006.8291-1.89474.64134-3.88924,1.24281-5.75999,1.92-.54808-1.5382-.09595-3.42013-.24001-5.04,1.83669-.62069,3.67793-1.29474,5.52-1.92ZM132.74523,97.92l-24.87709,8.57085c-5.29322-1.59644-10.4615-3.69355-15.68291-5.45085-.1268-1.72243.28402-3.62805-.24-5.28,5.30109,1.78058,10.5755,3.66773,15.93952,5.26769l24.86047-8.38769v5.28ZM132.74523,74.88l.00044,3.12186.47955-.00186c-8.43952,1.68275-16.84859,3.65732-25.32,5.23114-5.35061-.92454-10.64029-2.26631-15.96-3.31114.32709-.75072.61087-2.88267-.24-3.36,5.46943,1.08196,10.92992,2.25127,16.44143,3.13567,8.16182-1.78838,16.4107-3.17116,24.59857-4.81567ZM91.94524,95.76c.52402,1.65195.1132,3.55757.24,5.28-3.35329-1.12858-6.72657-2.23411-10.08-3.36.72691.1338.46179-.36695.48006-.8291.05532-1.39954-.03995-2.81302-.00006-4.2109,3.11261,1.0503,6.24606,2.07406,9.36001,3.12ZM82.10524,74.64c.85087.47733.56709,2.60928.24,3.36-4.329-.86271-8.64073-1.76029-12.96-2.64-.08695-1.10406.23578-2.34045-.24-3.36,4.22879.98503,8.68606,1.76806,12.96,2.64ZM82.58524,92.64c-.03989,1.39788.05537,2.81136.00006,4.2109-.01827.46215.24686.9629-.48006.8291-2.06102-.69197-4.18022-1.53993-6.24-2.16-.1268-1.72243.28402-3.62805-.24-5.28,2.32453.7846,4.6398,1.61709,6.95999,2.4ZM91.70524,76.56c.85087.47733.56709,2.60928.24,3.36-3.20482-.62945-6.40237-1.28276-9.6-1.92.32709-.75072.61087-2.88267-.24-3.36,3.1928.65138,6.40399,1.28777,9.6,1.92ZM142.34524,72.96l.00044,3.12186.47955-.00186c-3.1965.64398-6.39886,1.28173-9.60001,1.92l-.47955.00186-.00044-3.12186c3.1935-.6414,6.40442-1.2746,9.60001-1.92ZM161.54523,69.12c-.07951,1.02145.05542,2.09461.00044,3.12186l.47955-.00186c-2.40491.5152-4.78999.95813-7.2,1.44l-.7205.00145.0005-3.12145c2.47258-.46576,4.90981-1.25151,7.44-1.43999ZM61.70524,70.56v3.36c-2.64703-.54016-5.28163-1.1158-7.92-1.68l.47956.00186c-.09806-.9795.13983-2.18234.00044-3.12186,2.51001.31455,4.95752.98796,7.44,1.43999ZM180.50524,3.12c2.2439-1.01233,4.43468-2.19106,6.72-3.12v47.04c-2.08025.17487-4.2468.30743-6.24001.96-.72458.134-.46474-.36709-.48004-.8291-.04434-1.33864-.15227-2.94991.24004-4.2109.67938-.23983,1.53854-.17209,1.45244-1.06749l-.01483-34.69243c-.35838.27663-.81538.31495-1.19762.47992-.72691.1338-.46181-.36703-.48006-.82912-.04898-1.2401.0351-2.49252.00006-3.73088h.00002ZM132.98524,14.88c-.54918,1.78837-.0938,3.89587-.24001,5.76-8.30142-4.60114-16.52965-9.3467-24.87936-13.86637-5.30338,2.71441-10.47842,5.68926-15.68064,8.58637-.1462-1.86413.30918-3.97163-.24-5.76,4.63309-2.58984,10.12966-6.46304,14.86868-8.52934.34972-.15248.65584-.4009,1.07331-.34797,0,0,25.09801,14.15731,25.09801,14.15731ZM34.58524,2.88c-.03504,1.23835.04904,2.49078.00006,3.73088-.01825.46209.24686.96292-.48006.82912-.06336-.03037-.70288-.29276-.72116-.11916l.10716,35.17338c.35273.15868.73461.33614,1.094.46578v5.04c-1.97953-.64746-4.16749-.83236-6.24-.96V0c2.11466.87393,4.15707,1.94124,6.24,2.88ZM91.94524,9.6c.54918,1.78837.0938,3.89587.24,5.76-3.19053,1.77679-6.40347,3.51541-9.6,5.28v-5.76c3.07611-1.71388,6.24426-3.53834,9.36-5.28ZM142.34524,20.16l.24001,5.28c-.05788.0159-.15959.22497-.37367.24131-.8028.06127-8.11165-4.29047-9.46632-5.04131.14619-1.86413-.30917-3.97163.24001-5.76l9.36,5.28h-.00002ZM43.70524,47.76c-.14799,2.18933.31003,4.60067-.24,6.72-2.19964-2.69928-5.54222-5.38829-8.88-6.48v-5.04c3.94216,1.42201,5.80598,2.0355,9.12,4.8ZM43.70524,6.96c-.14309,1.53845.30755,3.34558-.24,4.8-3.12719-1.4399-6.25358-2.83098-9.36-4.32.72692.1338.4618-.36703.48006-.82912.04898-1.2401-.0351-2.49252-.00006-3.73088,3.03347,1.36716,6.088,2.70949,9.12,4.08ZM82.58524,14.88v5.76c-2.25535,1.24502-4.42329,2.64135-6.72,3.84-.1462-1.86413.30918-3.97163-.24-5.76,2.30817-1.24696,4.68219-2.5709,6.96-3.84ZM69.38524,18.72v5.04c-2.58041-1.16264-5.12678-2.42796-7.68-3.6v-5.04c2.56759,1.15455,5.11001,2.48017,7.68,3.6ZM54.26524,11.76c2.48736,1.12363,5.07612,2.29706,7.44,3.36v5.04c-2.59423-1.19086-5.29519-2.38965-7.92-3.6.72692.1338.46179-.36698.48006-.8291.05217-1.31982-.03754-2.65279-.00006-3.9709ZM180.74523,42.96c-.39232,1.261-.28438,2.87226-.24004,4.2109.0153.46201-.24454.96309.48004.8291-2.23294.73105-4.95544,2.53114-6.72,4.08-.54942-1.87137-.09328-4.0545-.24001-6,2.30989-1.52457,4.14218-2.21,6.72-3.12ZM75.62524,18.72c.54918,1.78837.0938,3.89587.24,5.76-.67124.35032-1.70886,1.24889-2.50163,1.19749-.8445-.05476-3.09074-1.51755-3.97837-1.91749v-5.04c1.14112.49722,2.36539.85779,3.48319,1.43019.89328-.51953,1.85247-.94163,2.75681-1.43019ZM46.34524,50.4v11.28c-.64134.10886-2.05253.73483-2.88.96.34733-1.29272.34681-3.10135.2406-4.45174-.05794-.7367.11854-.61766-.7206-.58826.67677-.20316,1.42055-.62923,2.15945-.72292-.53615-.8098-1.06512-1.64321-1.67945-2.39708.55003-2.11933.09201-4.53067.24-6.72,1.17399.97933,1.66618,1.55427,2.64,2.64ZM148.82523,22.56c-2.04407.92696-4.05911,2.28086-6.24001,2.88l-.24001-5.28c2.15749-.6564,4.19322-1.71548,6.24001-2.64.14406,1.61987-.30807,3.5018.24001,5.04ZM160.34524,12.24c.1431,1.53845-.30756,3.34558.24001,4.8-2.00233.92488-3.98354,1.95333-6,2.88-.72691.1338-.46179-.36698-.48006-.8291-.05217-1.31982.03754-2.65279.00006-3.9709,2.07957-.94189,4.15558-1.9355,6.24001-2.88h-.00002ZM180.50524,3.12c.03503,1.23835-.04904,2.49078-.00006,3.73088.01825.46209-.24686.96292.48006.82912-2.2439.9685-4.4908,2.09613-6.72,3.12-.54755-1.45442-.09691-3.26155-.24001-4.8,2.15147-.97141,4.32896-1.90956,6.48-2.88h.00002ZM166.34524,14.4c-1.90157.87954-3.85226,1.75881-5.75999,2.64-.54755-1.45442-.09691-3.26155-.24001-4.8,1.9198-.86991,3.83769-1.77019,5.75999-2.64.1431,1.53845-.30756,3.34558.24001,4.8ZM154.10523,15.12c.03748,1.31812-.05222,2.65108-.00006,3.9709.01826.46212-.24686.9629.48006.8291-1.91856.88168-3.83498,1.76702-5.75999,2.64-.54808-1.5382-.09595-3.42013-.24001-5.04,1.82475-.82424,3.70081-1.57604,5.52-2.4ZM54.26524,11.76c-.03748,1.31812.05222,2.65108.00006,3.9709-.01827.46212.24686.9629-.48006.8291-1.52728-.70426-3.04244-1.45861-4.56-2.16.54755-1.45442.09691-3.26155.24-4.8,1.59534.72273,3.20402,1.43904,4.8,2.16ZM172.34524,54c-.58063.69755-.99388,1.81778-1.81319,2.41509l-.10254.33891c.00066.19939.23431.33001.23572.36601.0656,1.67208-.04764,3.36642,0,5.04-.3045-.07928-.65837-.17506-.96001-.24v-12c.83852-.88382,1.3141-1.51998,2.39999-2.4.14761,2.1081-.30984,4.44316.24001,6.48h.00002ZM169.94524,7.92c-.37328,1.40733-.42455,3.3814,0,4.8-1.18266.54706-2.40816,1.12873-3.60001,1.68-.54755-1.45442-.09691-3.26155-.24001-4.8,1.27197-.57555,2.5717-1.10651,3.84-1.68h.00002ZM49.46524,9.6c-.14309,1.53845.30755,3.34558-.24,4.8-1.03239-.47715-2.11616-.97683-3.12-1.44.54755-1.45442.09691-3.26155.24-4.8,1.04076.47139,2.08101.96931,3.12,1.44ZM46.34524,8.16c-.14309,1.53845.30755,3.34558-.24,4.8-.8742-.40336-1.76358-.79646-2.64-1.2.54755-1.45442.09691-3.26155.24-4.8.87821.39696,1.76254.80258,2.64,1.2ZM174.26524,52.08c-.69678.6116-1.32196,1.20152-1.92,1.92-.54985-2.03684-.09238-4.3719-.24001-6.48.64931-.5262,1.21651-.97568,1.92-1.44.14673,1.9455-.30943,4.12863.24001,6ZM172.10523,6.96v4.8c-.69772.32291-1.46294.63756-2.16.96-.42455-1.4186-.37328-3.39267,0-4.8.71741-.32439,1.44464-.63669,2.16-.96ZM174.26524,10.8c-.71484.32833-1.44414.62869-2.16.96v-4.8c.59056-.26691,1.25349-.65906,1.92-.96.1431,1.53845-.30756,3.34558.24001,4.8ZM169.70524,61.92c-.28256-.06084-.73079-.24424-.96001-.24-.46767-.25591-.45341-.31045-.49573-.81722-.25322-3.03277.22009-6.43009.01573-9.50278.50781-.63821.9563-.93016,1.44-1.44v12ZM69.38524,59.28c-.16539,1.52874-1.03261,3.59021-1.36465,5.23535-.22527,1.1161-1.16005,6.37324-.69169,7.02074.53878.28768,1.21167.32306,1.81634.46391.47578,1.01955.15305,2.25594.24,3.36-2.54364-.51807-5.13084-.91982-7.68-1.44v-3.36c.72404.13184,1.47293.18136,2.15763.47987.00192-3.38203.62261-6.64433,1.51054-9.8917.91818-3.35798,2.14023-6.25504,3.77182-9.30818.39804.24975.23916.91071.24417,1.31656.02295,1.85675.18746,4.35207-.00417,6.12344h.00002ZM148.82523,57.6l-.24001,17.28c-1.91479.38617-3.83772.81273-5.75999,1.2l-.47955.00186-.00044-3.12186c1.92043-.38787,3.88589-.82445,5.77403-1.34715-.17162-4.65341-1.09332-9.43373-2.77786-13.76903-.57599-1.48234-2.83022-5.21279-2.99619-6.24382-.17239-1.07105-.01666-3.01357-.00417-4.20345.00426-.40557-.15332-1.06709.24417-1.31655,2.57217,3.43289,4.79161,7.47464,6.24001,11.52ZM54.26524,69.12c.1394.93952-.0985,2.14236-.00044,3.12186l-.47956-.00186c-.8266-.17676-4.18667-.42764-4.56-.96l.24-16.56c2.5292,4.35526,4.06977,9.47828,4.8,14.4ZM166.10523,71.52c-1.28819.44139-2.79922.44562-4.08.72l-.47955.00186c.05498-1.02725-.07996-2.10041-.00044-3.12186.39552-5.08093,2.05428-10.04149,4.56-14.4,0,0,0,16.8,0,16.8ZM148.82523,57.6c1.54546,4.31648,2.42906,8.85355,2.64162,13.43917.85712-.26791,1.76508-.31467,2.6384-.47917l-.0005,3.12145.7205-.00145c-2.06422.41273-4.19379.78732-6.24001,1.2l.24001-17.28h-.00002ZM132.98524,36.72c-.54169,1.08363-.10464,2.61815-.24001,3.84-11.05274-8.87843-27.43186-11.26678-40.56-5.76v-3.36c14.02695-5.32185,28.63778-3.46261,40.8,5.28ZM142.58524,46.08c-.39749.24946-.23991.91098-.24417,1.31655-.0125,1.18988-.16823,3.1324.00417,4.20345-1.47604-1.99302-2.7926-4.13348-4.43658-6.00342-1.33514-1.51866-3.60345-3.7835-5.16342-5.03658.13535-1.22185-.30168-2.75637.24001-3.84,3.73035,2.6815,6.84169,5.6787,9.60001,9.36ZM75.86523,47.28c-.08637.53962-2.62281,3.93532-3.16109,4.87891-1.29527,2.27055-2.26879,4.73473-3.31891,7.12109.19164-1.77137.02713-4.26669.00417-6.12344-.00502-.40585.15386-1.06681-.24417-1.31656,1.93559-3.622,3.72633-6.11225,6.48-9.12.29819,1.17189.42815,3.38454.23999,4.56ZM92.18523,31.44v3.36c-2.77572,1.16431-7.25116,3.8575-9.6,5.76-.13535-1.22185.30168-2.75637-.24-3.84,3.49159-2.541,5.83231-3.75947,9.84-5.28ZM82.58524,40.56c-2.43481,1.97213-4.47465,4.54408-6.72,6.72.18815-1.17546.05819-3.38811-.24-4.56,2.25395-2.46193,4.02301-4.03727,6.72-6,.54168,1.08363.10465,2.61815.24,3.84Z"/><path class="cls-4" d="M132.74523,40.56c1.55997,1.25308,3.82828,3.51793,5.16342,5.03658,1.64397,1.86994,2.96054,4.0104,4.43658,6.00342.16595,1.03103,2.4202,4.76148,2.99619,6.24382,1.68454,4.3353,2.60625,9.11562,2.77786,13.76903-1.88814.5227-3.85361.95928-5.77403,1.34715-3.19559.6454-6.40651,1.2786-9.60001,1.92-8.18787,1.64451-16.43676,3.02729-24.59857,4.81567-5.51151-.88439-10.972-2.05371-16.44143-3.13567-3.19601-.63223-6.4072-1.26862-9.6-1.92-4.27394-.87194-8.73121-1.65497-12.96-2.64-.60467-.14085-1.27756-.17623-1.81634-.46391-.46836-.6475.46642-5.90464.69169-7.02074.33204-1.64514,1.19926-3.7066,1.36465-5.23535,1.05012-2.38636,2.02363-4.85054,3.31891-7.12109.53828-.94359,3.07472-4.33929,3.16109-4.87891,2.24535-2.17592,4.28519-4.74787,6.72-6.72,2.34884-1.9025,6.82428-4.59569,9.6-5.76,13.12814-5.50678,29.50726-3.11843,40.56001,5.76h-.00002Z"/></svg>