<?xml version="1.0" encoding="UTF-8"?><svg id="Layer_1" xmlns="http://www.w3.org/2000/svg" width="216.00003" height="172.0177" viewBox="0 0 216.00003 172.0177"><defs><style>.cls-1{fill:#fff;}</style></defs><path class="cls-1" d="M0,138.72981c6.06546-11.5337,14.39328-21.63633,23.27367-31.08633l9.24123-8.75877c1.8718-42.87023,29.56351-76.88169,67.88292-93.63708,3.61521-1.58077,8.6117-3.87323,12.2749-5.005.28684-.08862.864-.42346,1.08605-.11404-5.39327,6.74323-12.86178,12.67627-14.87749,21.48001,14.12893-3.80155,29.19885-3.1723,42.71103,2.52891,8.80029,3.71312,16.51427,9.94266,23.21509,16.63479,12.92715-1.2625,26.17018-1.32379,39.03273.55741,4.10835.60086,8.17166,1.47074,12.1599,2.6001v1.44c-1.53905,5.60434-4.75961,10.55562-8.30489,15.09512-8.70741,11.14933-20.44753,19.95199-31.88383,28.11616-3.27342,14.03558-9.06798,27.25424-17.4552,38.9448-15.15521,21.12417-36.50655,34.21752-60.27377,43.88622-.5882.23927-1.45738.76447-2.08112.55885,5.88002-6.98596,13.48707-13.22128,15.8387-22.43883-18.67682,4.77205-38.74179,1.7592-54.59439-9.25362-13.94325,2.90085-28.89879,5.46407-43.17485,3.70061-4.89016-.60406-9.79621-1.80611-14.07064-4.28937v-.96001l-.00003.00006ZM95.75878,14.17104c-1.97644.94788-3.87332,2.11088-5.73847,3.25908-26.9402,16.58457-45.26597,41.07316-51.06475,72.53524-1.59835,8.67209-2.16421,17.49999-3.5514,26.20862l-.36158.23556c-1.00518-3.22826-1.71104-6.35211-2.17301-9.71304-.0472-.34338.22582-.70757-.34629-.60465-7.67985,7.56679-15.16183,15.64468-21.29642,24.5448-1.15304,1.67284-2.52711,3.6203-3.49955,5.37994-.13731.24847-.68982.91313-.28975,1.15503.80005.48375,4.98577,1.11102,6.16188,1.27971,29.14809,4.18048,70.62787-10.55361,97.51291-21.92918,26.03734-11.01689,54.70952-25.40205,76.44154-43.55845,8.37123-6.99388,16.85136-15.3467,21.72627-25.19179-11.39923-2.18677-23.30521-2.86537-34.93008-2.41202-1.88446.07349-3.96877.38172-5.87009.49224,1.59535,2.70148,3.45122,5.79833,4.20996,8.86762.06288.25436.27129.81874-.0088.96886-7.16016-6.08613-13.32571-13.3691-21.06802-18.77196-14.8055-10.3318-32.68665-13.3245-50.38271-9.95643-1.00361.19102-7.07441,1.84486-7.37324,1.59126-1.55603-5.04063-.19649-9.76145,1.90159-14.38046v.00003ZM114.48122,157.68859c.59797.59737,13.21609-7.7892,14.47427-8.68327,19.06747-13.54938,34.11826-33.24448,40.00208-56.11548-7.99734,4.86841-16.09598,9.59184-24.46361,13.81394-9.97449,17.75266-30.18938,27.19384-50.2724,22.18931-9.72759,3.57207-19.56656,6.95839-29.66236,9.35814-.11837.56322.07658.38519.31016.53661,8.8464,5.73473,22.52978,8.18204,32.94057,7.63191,6.33069-.33453,12.45108-2.15855,18.57-3.5923,2.16198,5.1386.36548,10.14771-1.8987,14.86115Z"/><path d="M95.75878,14.17104c-2.09809,4.61901-3.45762,9.33983-1.90159,14.38046.29883.2536,6.36963-1.40024,7.37324-1.59126,17.69607-3.36808,35.57722-.37537,50.38271,9.95643,7.74231,5.40286,13.90785,12.68583,21.06802,18.77196.28009-.15012.07169-.7145.0088-.96886-.75874-3.06929-2.61461-6.16614-4.20996-8.86762,1.90134-.11052,3.98564-.41875,5.87009-.49224,11.62488-.45336,23.53084.22525,34.93008,2.41202-4.87491,9.84509-13.35504,18.19791-21.72627,25.19179-21.73203,18.1564-50.40422,32.54156-76.44155,43.55845-26.88503,11.37557-68.36482,26.10966-97.51291,21.92918-1.17611-.16869-5.36183-.79596-6.16188-1.27971-.40007-.2419.15244-.90657.28975-1.15503.97244-1.75963,2.34651-3.70711,3.49955-5.37994,6.13459-8.90013,13.61658-16.97801,21.29642-24.5448.57211-.10292.29909.26127.34629.60465.46197,3.36093,1.16784,6.48478,2.17301,9.71304l.36158-.23556c1.38719-8.70863,1.95305-17.53653,3.5514-26.20862,5.79877-31.46209,24.12455-55.95068,51.06475-72.53525,1.86515-1.1482,3.76203-2.31121,5.73847-3.25908l-.00002-.00003ZM146.88316,71.04956c-9.13783-26.95985-41.83531-38.27661-65.88987-22.56645-19.05896,12.4475-25.73502,38.21148-14.75357,58.32414l-11.27857,3.84008c3.84557-.48369,7.69755-1.40294,11.47538-2.32097,32.43613-7.88209,63.29275-22.40463,90.04223-42.19774l-.35405-.11529-9.24156,5.03624.00002-.00002Z"/><path d="M114.48122,157.68859c2.26419-4.71342,4.06069-9.72253,1.89871-14.86115-6.11892,1.43375-12.23931,3.25777-18.57,3.5923-10.41079.55013-24.09417-1.89719-32.94057-7.63191-.23358-.15141-.42853.0266-.31016-.53661,10.0958-2.39975,19.93477-5.78607,29.66236-9.35814,20.08302,5.00453,40.29791-4.43665,50.2724-22.18931,8.36763-4.2221,16.46626-8.94553,24.46361-13.81394-5.8838,22.871-20.9346,42.5661-40.00208,56.11548-1.25819.89407-13.87631,9.28064-14.47427,8.68327Z"/><path class="cls-1" d="M146.88316,71.04956l9.24156-5.03624.35405.11529c-26.7495,19.79311-57.60611,34.31565-90.04224,42.19774-3.77784.91803-7.62982,1.83728-11.47538,2.32097l11.27857-3.84008c-10.98145-20.11266-4.30539-45.87663,14.75357-58.32414,24.05457-15.71016,56.75204-4.3934,65.88988,22.56645l-.00002.00002Z"/></svg>