<?xml version="1.0" encoding="UTF-8"?>
<svg id="Layer_1" data-name="Layer 1" xmlns="http://www.w3.org/2000/svg" xmlns:xlink="http://www.w3.org/1999/xlink" viewBox="0 0 216 171.59528">
  <defs>
    <style>
      .cls-1 {
        fill: #151a1d;
      }

      .cls-2 {
        fill: #b5cad7;
      }

      .cls-3 {
        fill: #151b1e;
      }

      .cls-4 {
        fill: url(#linear-gradient);
      }
    </style>
    <linearGradient id="linear-gradient" x1="665.35854" y1="683.16955" x2="-181.46468" y2="1016.32182" gradientTransform="translate(40.37784 -136.63992) scale(.24)" gradientUnits="userSpaceOnUse">
      <stop offset="0" stop-color="#566771"/>
      <stop offset=".2956" stop-color="#b3c8d5"/>
      <stop offset=".50879" stop-color="#cbe1ed"/>
      <stop offset=".69121" stop-color="#bdd2df"/>
      <stop offset="1" stop-color="#728490"/>
    </linearGradient>
  </defs>
  <path class="cls-4" d="M85.68,19.91762c3.13502-2.10414,6.44476-4.10615,9.83877-5.75878-.90078,2.38889-1.9399,4.73518-2.15483,7.32273-.08641,1.04029-.13217,6.5218.86673,6.8165,7.97486-2.06778,16.04862-3.28852,24.32932-2.86045,1.05703.07002,2.06593.12396,3.12.24,1.45591.16027,3.14845.23966,4.56.48,3.74666.63794,7.71646,1.80818,11.28,3.12,5.19106,1.91095,10.38672,4.69864,14.88,7.92,4.86264,3.48617,8.97522,7.81008,13.44,11.76,1.33671,2.19479,5.11868,4.54534,6.9576,6.47995-.65812-3.55542-2.4792-6.77481-4.31696-9.83707,1.20628-.44331,2.48885-.15254,3.73831-.23322.30906-.01996.54913-.24808.58105-.24965,2.48511-.12215,5.25606-.2224,7.68-.24,1.67294-.01215,3.18272.21068,4.8.24,3.98361.07221,8.03138.07922,12,.48,2.22342.22454,4.55923.8636,6.72,1.2,1.41077.21963,3.0524.13387,4.56.48.28859.06626.59566.31416.96155.24283.04837.04367-.24459.48557-.24155.71717-.81746,1.53686-1.92119,2.88841-2.88,4.32-1.10012,1.64256-2.11643,3.49485-3.36,5.04-.93667,1.16382-2.18837,2.57692-3.12,3.6-1.32373,1.45367-3.12512,3.14721-4.56,4.56-1.24001,1.22092-2.54756,2.43258-3.84,3.6-1.69041,1.5269-3.51634,3.12247-5.28,4.56-2.01005,1.63836-4.16049,3.24662-6.24,4.8-1.96317,1.46648-3.98561,2.92498-6,4.32-2.74091,1.89816-5.57902,3.74261-8.4,5.52-3.68937,2.32452-7.48918,4.56358-11.28,6.72-2.53514,1.44212-5.11074,2.94956-7.68,4.32-6.25671,3.33733-12.78004,6.58881-19.2,9.6-8.14584,3.8207-16.60125,7.4674-24.96,10.8-7.53362,3.00363-15.32506,5.89739-23.04,8.4-2.83612.92-5.77749,1.80762-8.64,2.64-1.34888.39223-2.73416.83312-4.08,1.2-3.05885.83385-6.27712,1.69003-9.36,2.4-3.04888.70214-6.28261,1.36867-9.36,1.92-2.43057.43545-4.99832.871-7.44,1.2-2.436.32823-4.98676.51502-7.44.72-2.04386.17078-4.45716.43917-6.48.48-1.66418.03359-3.37734.05634-5.04,0-3.55171-.12034-7.52194-.49458-11.04-1.2-.56018-.11232-3.27265-.67645-3.3617-1.08541.45793-.84376.93172-1.70544,1.4417-2.51459,1.8401-2.91955,4.14115-6.13033,6.24-8.88,2.37185-3.10733,5.11906-6.49561,7.68-9.36,1.58891-1.77717,3.58725-3.81221,5.28-5.52.88836-.89626,3.36328-3.55655,4.18853-4.09139.29447-.19084.47711-.29681.85027-.22741-.05403,3.33613,1.22017,6.46054,2.16421,9.59702.35653.04417.35519-.64495.40511-.90898.24018-1.27034.35937-2.607.55188-3.88925.8611-5.73547,1.46079-11.52205,2.16-17.28.57186-2.62685,1.00034-5.29014,1.55681-7.92319.37338-1.7667,1.53555-4.93044,1.56319-6.47681.81492-1.93398,1.22089-4.02823,1.92-6,1.27965-3.60913,3.09595-7.84773,4.8-11.28,4.0801-8.21808,9.95029-16.70668,16.08-23.52,6.27888-6.97913,13.80478-13.24806,21.6-18.48ZM95.76,42.23762c-9.10567,1.97189-17.36077,6.68976-23.52,13.68-12.23508,13.88586-14.83887,34.10499-6.00552,50.52176l-9.3533,3.35703c.28859.45026.49364.20824.85963.16354,10.65247-1.30093,25.1791-6.39523,35.37918-10.12233,8.65132-3.16118,16.94242-6.73473,25.2-10.8,6.61912-3.25865,12.45515-6.54393,18.72-10.32,2.50908-1.51232,4.97478-2.95725,7.44-4.56,3.29921-2.14497,6.68336-4.23527,9.81351-6.62824.38215-.29215,1.09265-.50977.98504-1.0507l-8.39538,4.31891c-1.98026-5.81947-5.25299-11.37381-9.47982-15.84331-.91581-.96839-1.96748-2.20202-3.24335-2.63665-3.63431-3.60219-8.4527-6.28757-13.2-8.16-8.45123-3.33334-16.3224-3.8425-25.2-1.92Z"/>
  <path class="cls-2" d="M168,93.11761c-1.10541.72424-2.22937,1.47876-3.35999,2.16003-.39832.23999-.80151.48071-1.20001.71997-.39697.23834-.8031.48572-1.20001.71997-.51868.30621-1.04126.72675-1.44.96002-.52789.30884-1.16052.65985-1.67999.96002-.53156.30713-1.16235.66461-1.67999.95996-.22583.12891-.73022.10986-.96002.24005-.16467.09326-.31873.38916-.47998.47998-.27814.15668-.5083.36145-.71997.47998-.41241.23096-.9281.43573-1.44.72003-.28015.15552-.51257.36609-.72003.47998-.41846.22974-.9444.45392-1.44.71997-.71759.38525-1.55505.64905-2.15997,1.20001-.15192.00641-.37531-.03485-.48004,0-.2309.0769-.60291.66241-.71997.72003-.49994.24603-.94366.45612-1.44.71997-.47949.25494-.87927.39191-1.44.72003-.84027.49164-.89636.19147-1.67999,1.20001-.44397.57129-.82275,1.61395-1.20001,2.15997-.38599.55859-.8028,1.12653-1.20001,1.67999-.4588.63928-1.02203,1.63397-1.44,2.16003-.45746.57574-1.38092,1.56726-1.91998,2.15997-.32098.35297-.8241.81604-1.20001,1.20001-1.05823,1.08087-2.44122,2.39502-3.59998,3.35999-.0719.05988-.30597.09924-.47998.23999-.47894.38721-.9436.83905-1.44,1.20001-.52808.38397-1.14581.85352-1.68005,1.20001-1.60114,1.03845-3.80304,2.31238-5.51996,3.12-4.80798,2.26154-10.07208,3.5448-15.35999,4.08002-.15729.01587-.32245-.01453-.48004,0h-.95996c-2.00757,0-4.27271.14294-6.24005,0-.04248-.00311-.18774-.20154-.38525-.21826-1.0061-.08539-2.24805-.12164-3.21472-.26178-.31097-.04504-.76465-.17175-1.20001-.23999-1.21838-.19098-.94977-.62842-2.64001-.23999-.76947.17682-1.26294.49951-1.91998.71997-.66766.22406-1.31494.51599-1.91998.72003-.47906.16156-.961.31708-1.44.47998-.47693.16223-.96222.31964-1.44.48004-.4787.16064-.96161.32019-1.44.47998-.47864.15985-.96198.32239-1.44.47998-.65326.21545-1.27362.50922-1.91998.72003-.1286.04193-.3512-.04187-.48004,0-.62927.20441-1.19312.56293-1.67999.71997-.78394.25287-1.60681.46869-2.39996.72003-.24249.07678-.48096.16473-.72003.23999-.54498.17145-1.12323.30719-1.67999.47998-.24329.0755-.48108.16644-.71997.23999-.62537.1925-1.29364.29028-1.92004.48004-.16144.04889-.3186.19128-.47998.23999-.86682.2616-1.76886.46301-2.64001.71997-.31531.09302-.64441.14703-.95996.23999-.4765.14044-.95575.3316-1.44.48004-.53076.16266-1.09821.24432-1.62921.41687-.18726.06085-.74884-.01862-.52893.41998.26697.53241,2.72455,1.49152,3.35815,1.8031,1.01318.49829,1.98871,1.17749,3.12,1.44.02826.06824-.02856.17194,0,.24005,1.03418.25513,2.12183.5979,3.12.95996.79254.28754,1.58191.70856,2.39996.96002.40601.12476.84076.13727,1.20001.23999.32733.09357.63806.15448.96002.23999.57031.15149,1.0448.3338,1.67999.47998.50586.11646.97882.14661,1.44.24005,1.21973.24707,2.34778.54517,3.59998.71997.64825.09052,1.26459.17535,1.91998.23999.07922.00781.16064-.00714.24005,0,.90973.08209,1.70148.19824,2.63995.23999.31891.01422.64075-.01038.96002,0,.55798.01813,1.12134-.0047,1.67999,0,.55902.0047,1.12103.00641,1.67999,0,.63794-.00726,1.28302.02344,1.92004,0,.90906-.03339,1.81616-.17871,2.63995-.23999.75018-.05579,1.47284-.1629,2.16003-.23999.66266-.07434,1.2959-.14899,1.91998-.23999.50189-.07318.95264-.15826,1.44-.23999.94012-.15771,1.70215-.28735,2.64001-.48004.74054-.1521,1.42902-.31085,2.15997-.47998.33411-.07727.63806-.16113.96002-.23999,1.46338-.3584,2.88531-.84851,4.32001-1.20001.24634-.06036,1.34625-.29498,1.43091-.23547.80298,2.02893.79803,3.90619.96906,5.99548-.37787,1.39276-.54102,2.81256-.95612,4.20392-.48651,1.63074-1.34656,3.08765-1.92267,4.6748.23254.21863,4.005-1.84338,4.55878-2.15869.30902-.17596.65442-.54022.96002-.72003,4.62787-2.72266,8.75354-5.60748,12.96002-8.88,1.90002-1.47815,3.4566-2.71088,5.27997-4.32001.46417-.40961.98065-.77979,1.44-1.20001.53302-.48755,1.15747-.94318,1.67999-1.44.09973-.09479.13989-.38367.23999-.47998,1.15839-1.11365,2.24939-2.19757,3.36005-3.35999.38287-.40076.78302-.74933,1.20001-1.20001.66589-.71973,1.27582-1.42603,1.91998-2.15997.4942-.56311.95966-1.1051,1.44-1.67999.4718-.5647.97791-1.09961,1.44-1.68005.50287-.63171.95331-1.28278,1.44-1.91998.42529-.55682.79266-1.12219,1.19995-1.67999.39111-.53558.63879-.98407.96002-1.44.38202-.54218.81024-1.10132,1.20001-1.67999.12305-.18274.52704-.42688.71997-.72003.18964-.28809.29297-.66785.48004-.95996.50995-.79651.95319-1.59784,1.44-2.40002.34601-.57019.63995-1.12921.95996-1.67999.2348-.40411.48236-.77911.72003-1.20001.29718-.52631.48193-1.0097.71997-1.44.20374-.36816.43616-.63177.72003-1.19995.0813-.16278.34821-.32819.47998-.48004.00085-.19891.15729-.74854.23999-.95996.28455-.72754.84259-1.80505,1.20001-2.64001.1076-.25134.62079-.71216.72003-.96002.08917-.2229.22595-.73145.23999-.95996.54224-.89117.81342-1.91846,1.19995-2.88.22223-.55267.31372-1.01117.48004-1.44.30243-.77991.67133-1.55615.95996-2.40002.44238-1.29327.85529-2.51208,1.20001-3.83997.18384-.70813.56134-1.38434.48004-2.15912-.2265-.0379-.52014.04694-.72003-.00092Z"/>
  <path class="cls-1" d="M155.27856,66.4787l-8.39539,4.31891c-1.98029-5.81952-5.25299-11.37384-9.4798-15.84332-.91583-.96838-1.96753-2.20203-3.24335-2.63666-3.63434-3.60217-8.4527-6.2876-13.20001-8.16003-8.45123-3.33331-16.32245-3.84247-25.20001-1.91998-9.10565,1.97192-17.36078,6.68976-23.52002,13.67999-12.23505,13.88586-14.83887,34.10498-6.00549,50.52179l-9.35333,3.35699c.28864.45026.49365.20825.85968.16357,10.65247-1.30096,25.17908-6.39526,35.37915-10.12231,8.65131-3.16119,16.94244-6.73474,25.20001-10.80005,6.61914-3.25861,12.45514-6.54388,18.71997-10.32001,2.50909-1.51227,4.97479-2.95721,7.44-4.56,3.29926-2.14496,6.68341-4.23523,9.81354-6.62823.38214-.29211,1.09265-.50977.98505-1.05066Z"/>
  <path class="cls-3" d="M206.40002,41.75763c-1.64935-.28247-3.32806-.51044-5.04004-.72003-2.16632-.2652-4.30652-.53699-6.47998-.71997-4.02527-.33893-7.71893-.46088-11.76001-.47998-1.51392-.0072-3.047-.03546-4.56,0-2.07068.04846-4.18091.00812-6.23999.23999l-7.75098.43054c-1.40265-1.18042-2.64911-2.57111-4.00903-3.79059-3.82257-3.4278-7.82886-6.47748-12.23999-9.12-4.79034-2.86957-8.78461-4.48413-14.15997-6-2.9646-.836-6.48047-1.97467-9.60004-1.91998-1.95026-.53241-4.00348-.44568-6-.47998-3.42505-.0589-6.22009.07922-9.59998.47998-3.4978.41479-6.90625,1.04156-10.31909,1.91846.9278-4.29547,3.33075-8.10327,5.99908-11.51843,2.74481-3.51312,6.10144-6.58569,8.87994-10.07764-3.87244,1.41101-7.73633,2.92908-11.51996,4.55762-6.9397,2.987-12.83405,6.01874-19.20001,10.08002-8.22485,5.24725-14.88281,10.69116-21.59998,17.76001-6.76257,7.11664-11.9198,14.12067-16.56,22.79999-1.89648,3.5473-3.58521,7.03857-5.04004,10.79999-.70856,1.83209-1.32404,3.64789-1.91998,5.52002-1.44714,4.54614-2.49634,8.73712-3.35999,13.44-.83514,4.54761-1.54327,9.11285-1.72925,13.75067-.58008.66028-1.24719,1.22955-1.87073,1.8493-1.72546,1.71484-3.55524,3.31549-5.28003,5.03998-1.80884,1.80859-3.54962,3.62714-5.27997,5.52002-2.65179,2.90082-5.22742,5.79956-7.68005,8.88-2.29718,2.88525-4.43274,5.81079-6.47998,8.88-1.12097,1.68054-2.10968,3.28992-3.12,5.03998-.96613,1.67352-1.96472,3.33551-2.88,5.04004v.23999c2.01831,1.5069,4.33453,2.19592,6.72003,2.88,2.14581.61536,3.56195.86932,5.75995,1.20001,2.84357.42773,5.4469.75763,8.40002.71997.25012.39813.91101.23914,1.31659.2442,2.34967.02899,4.51813-.11938,6.84338-.2442,2.1778-.11688,4.31207-.26923,6.48004-.47998,2.58246-.2511,5.11688-.58008,7.67999-.96002,2.33777-.34656,4.63867-.7782,6.96002-1.20001,2.36713-.43011,4.7157-.94611,7.07202-1.43451,1.35718.87939,2.8089,1.5976,4.20795,2.39453,4.40204,2.50763,7.56848,4.13629,12.47998,5.76001,1.92993.638,3.33789.98608,5.28003,1.44,4.00427.93585,6.91895,1.41437,11.03998,1.67999,4.81476.3103,9.20776.15631,14.0058-.51422,2.55072-.35645,5.03094-1.12445,7.59302-1.40454-1.82227,9.20319-9.82513,15.29224-15.3587,22.31641,8.4754-3.43805,16.79773-7.19049,24.71991-11.75763,8.46912-4.88257,15.12311-9.73291,22.32001-16.32001,6.22601-5.69855,10.75104-10.8031,15.59998-17.76001,1.98712-2.85095,3.81458-5.58966,5.52002-8.64001.84125-1.5047,1.63721-3.01337,2.39996-4.56,1.81274-3.67548,3.17133-7.20331,4.56-11.03998.55188-1.52472,1.25201-3.02356,1.74396-4.61609.74475-2.41071,1.3158-6.28333,2.21118-8.34827.20654-.47644.47504-.64929.84491-.95569,1.68555-1.39624,4.13403-2.93268,6-4.31995,2.1521-1.6001,4.14783-3.11792,6.23999-4.80005,1.79553-1.4436,3.53735-2.78302,5.27997-4.32001,1.38898-1.22504,2.5224-2.34631,3.84003-3.59998,1.67499-1.59369,2.97241-2.88086,4.56-4.56,1.10858-1.17255,2.04236-2.09882,3.12-3.35999,1.34448-1.57349,2.61646-3.11865,3.84003-4.79999.97961-1.34625,1.78894-2.65192,2.63995-4.08002,1.77051-2.97119,3.30072-5.65662,4.08002-9.12v-.72003c-3.11243-1.13153-6.35583-1.60443-9.59998-2.15997ZM167.03998,99.11761c-.28864.84387-.65753,1.62012-.95996,2.40002-.16632.42883-.25781.88733-.48004,1.44-.38654.96155-.65771,1.98883-1.19995,2.88-.01404.22852-.15082.73706-.23999.95996-.09924.24786-.61243.70868-.72003.96002-.35742.83496-.91547,1.91248-1.20001,2.64001-.0827.21143-.23914.76105-.23999.95996-.13177.15186-.39868.31726-.47998.48004-.28387.56818-.5163.83179-.72003,1.19995-.23804.4303-.42279.9137-.71997,1.44-.23767.4209-.48523.7959-.72003,1.20001-.32001.55078-.61395,1.1098-.95996,1.67999-.48682.80219-.93005,1.60352-1.44,2.40002-.18707.29211-.29041.67188-.48004.95996-.19293.29315-.59692.53729-.71997.72003-.38977.57867-.81799,1.13782-1.20001,1.67999-.32123.45593-.56891.90442-.96002,1.44-.40729.5578-.77466,1.12317-1.19995,1.67999-.48669.63721-.93713,1.28827-1.44,1.91998-.4621.58044-.9682,1.11536-1.44,1.68005-.48035.57489-.9458,1.11688-1.44,1.67999-.64417.73395-1.25409,1.44025-1.91998,2.15997-.41699.45068-.81714.79926-1.20001,1.20001-1.11066,1.16241-2.20166,2.24634-3.36005,3.35999-.1001.09631-.14026.38519-.23999.47998-.52252.49683-1.14697.95245-1.67999,1.44-.45935.42023-.97583.79041-1.44,1.20001-1.82336,1.60913-3.37994,2.84186-5.27997,4.32001-4.20648,3.27252-8.33215,6.15735-12.96002,8.88-.3056.17981-.651.54407-.96002.72003-.55377.31531-4.32623,2.37732-4.55878,2.15869.57611-1.58716,1.43616-3.04407,1.92267-4.6748.4151-1.39136.57825-2.81116.95612-4.20392-.17102-2.08929-.16608-3.96655-.96906-5.99548-.08466-.05951-1.18457.17511-1.43091.23547-1.43469.3515-2.85663.84161-4.32001,1.20001-.32196.07886-.62592.16272-.96002.23999-.73096.16913-1.41943.32788-2.15997.47998-.93787.19269-1.69989.32233-2.64001.48004-.48737.08173-.93811.16681-1.44.23999-.62408.091-1.25732.16565-1.91998.23999-.68719.07709-1.40985.1842-2.16003.23999-.82379.06128-1.7309.2066-2.63995.23999-.63702.02344-1.2821-.00726-1.92004,0-.55896.00641-1.12097.0047-1.67999,0-.55865-.0047-1.12201.01813-1.67999,0-.31927-.01038-.64111.01422-.96002,0-.93848-.04175-1.73022-.1579-2.63995-.23999-.07941-.00714-.16083.00781-.24005,0-.6554-.06464-1.27173-.14948-1.91998-.23999-1.2522-.1748-2.38025-.4729-3.59998-.71997-.46118-.09344-.93414-.1236-1.44-.24005-.63519-.14618-1.10968-.32849-1.67999-.47998-.32196-.08551-.63269-.14642-.96002-.23999-.35925-.10272-.79401-.11523-1.20001-.23999-.81805-.25146-1.60742-.67249-2.39996-.96002-.99817-.36206-2.08582-.70483-3.12-.95996-.02856-.06812.02826-.17181,0-.24005-1.13129-.26251-2.10681-.94171-3.12-1.44-.63361-.31158-3.09119-1.27069-3.35815-1.8031-.21991-.4386.34167-.35913.52893-.41998.53101-.17255,1.09845-.25421,1.62921-.41687.48425-.14844.9635-.3396,1.44-.48004.31555-.09296.64465-.14697.95996-.23999.87115-.25696,1.77319-.45837,2.64001-.71997.16138-.04871.31854-.1911.47998-.23999.6264-.18976,1.29468-.28754,1.92004-.48004.23889-.07355.47668-.16449.71997-.23999.55676-.17279,1.13501-.30853,1.67999-.47998.23907-.07526.47754-.16321.72003-.23999.79315-.25134,1.61603-.46716,2.39996-.72003.48688-.15704,1.05072-.51556,1.67999-.71997.12885-.04187.35144.04193.48004,0,.64636-.21082,1.26672-.50458,1.91998-.72003.47803-.15759.96136-.32013,1.44-.47998.47839-.15979.9613-.31934,1.44-.47998.47778-.1604.96307-.31781,1.44-.48004.479-.1629.96094-.31842,1.44-.47998.60504-.20404,1.25232-.49597,1.91998-.72003.65704-.22046,1.15051-.54315,1.91998-.71997,1.69025-.38843,1.42163.04901,2.64001.23999.43536.06824.88904.19495,1.20001.23999.96667.14014,2.20862.17639,3.21472.26178.19751.01672.34277.21515.38525.21826,1.96735.14294,4.23248,0,6.24005,0h.95996c.15759-.01453.32275.01587.48004,0,5.2879-.53522,10.552-1.81848,15.35999-4.08002,1.71692-.80762,3.91882-2.08154,5.51996-3.12.53424-.3465,1.15198-.81604,1.68005-1.20001.4964-.36096.96106-.81281,1.44-1.20001.17401-.14075.40808-.18011.47998-.23999,1.15875-.96497,2.54175-2.27911,3.59998-3.35999.37592-.38397.87903-.84705,1.20001-1.20001.53906-.59271,1.46252-1.58423,1.91998-2.15997.41797-.52606.9812-1.52075,1.44-2.16003.39722-.55347.81403-1.1214,1.20001-1.67999.37726-.54602.75604-1.58868,1.20001-2.15997.78363-1.00854.83972-.70837,1.67999-1.20001.56073-.32812.96051-.46509,1.44-.72003.49634-.26385.94006-.47394,1.44-.71997.11707-.05762.48907-.64313.71997-.72003.10474-.03485.32812.00641.48004,0,.60492-.55096,1.44238-.81476,2.15997-1.20001.49561-.26605,1.02155-.49023,1.44-.71997.20746-.11389.43988-.32446.72003-.47998.5119-.2843,1.02759-.48907,1.44-.72003.21167-.11853.44183-.3233.71997-.47998.16125-.09082.31531-.38672.47998-.47998.2298-.13019.73419-.11115.96002-.24005.51764-.29535,1.14844-.65283,1.67999-.95996.51947-.30017,1.1521-.65118,1.67999-.96002.39874-.23328.92133-.65381,1.44-.96002.39691-.23425.80304-.48163,1.20001-.71997.3985-.23926.8017-.47998,1.20001-.71997,1.13062-.68127,2.25458-1.43579,3.35999-2.16003.19989.04785.49353-.03699.72003.00092.0813.77478-.2962,1.45099-.48004,2.15912-.34473,1.32788-.75763,2.54669-1.20001,3.83997ZM206.40002,52.55762c-1.10016,1.64258-2.11646,3.49487-3.36005,5.03998-.93665,1.16382-2.18835,2.57697-3.12,3.60004-1.32373,1.45367-3.12512,3.14722-4.56,4.56-1.23999,1.22089-2.54755,2.43256-3.83997,3.59998-1.69043,1.52692-3.51636,3.1225-5.28003,4.56-2.01001,1.63837-4.16046,3.24664-6.23999,4.79999-1.96313,1.46649-3.9856,2.92499-6,4.32001-2.74091,1.89819-5.57904,3.74261-8.40002,5.52002-3.68933,2.32452-7.48914,4.5636-11.27997,6.72003-2.53516,1.44208-5.11072,2.94952-7.67999,4.31995-6.25671,3.33734-12.78003,6.58881-19.20001,9.60004-8.14581,3.82068-16.60126,7.46741-24.96002,10.79999-7.53357,3.0036-15.32501,5.8974-23.03998,8.40002-2.83612.91998-5.77747,1.80762-8.64001,2.63995-1.34888.39227-2.73413.83313-4.07996,1.20001-3.0589.83386-6.27716,1.69006-9.36005,2.40002-3.04889.70215-6.28259,1.36865-9.35999,1.91998-2.43054.43542-4.99829.87103-7.44,1.20001-2.43597.32825-4.98676.51501-7.44.71997-2.04382.17078-4.45715.43921-6.47998.48004-1.66418.03357-3.37732.05634-5.04004,0-3.5517-.12036-7.52191-.49463-11.03998-1.20001-.56018-.11237-3.27264-.67645-3.36169-1.08545.45795-.84375.9317-1.70538,1.44171-2.51459,1.84009-2.91956,4.14111-6.13031,6.23999-8.87994,2.37183-3.10736,5.11908-6.49567,7.67999-9.36005,1.58893-1.77716,3.58728-3.81219,5.28003-5.51996.88837-.8963,3.36328-3.55658,4.18854-4.09143.29443-.19086.47705-.29681.85022-.22742-.05402,3.33618,1.22021,6.46057,2.16425,9.59705.35651.04419.35516-.64496.40509-.909.24017-1.27032.35938-2.60699.55188-3.88922.86108-5.73547,1.46082-11.52203,2.16003-17.28003.57184-2.62683,1.00031-5.2901,1.55676-7.92316.37341-1.76672,1.53558-4.93042,1.56323-6.47681.81488-1.93402,1.22089-4.02826,1.91998-6,1.27966-3.60913,3.09595-7.84772,4.79999-11.28003,4.08008-8.21808,9.95032-16.70667,16.08002-23.51996,6.27887-6.97913,13.80475-13.24811,21.59998-18.48004,3.13501-2.10413,6.44476-4.10614,9.83881-5.75879-.90082,2.38892-1.93994,4.73523-2.15485,7.32275-.08643,1.04028-.13214,6.52179.86676,6.81653,7.97485-2.06781,16.04858-3.28851,24.32928-2.86047,1.05707.07001,2.06592.12396,3.12.23999,1.45593.16028,3.14844.23969,4.56.47998,3.7467.63794,7.71649,1.80823,11.28003,3.12006,5.19104,1.91089,10.38672,4.69861,14.88,7.91998,4.86261,3.48615,8.97522,7.81006,13.44,11.76001,1.33667,2.19476,5.11865,4.54535,6.95758,6.47992-.65814-3.55542-2.47919-6.77478-4.31696-9.8371,1.2063-.4433,2.48883-.15253,3.73828-.23322.30908-.01996.54913-.24805.58105-.24963,2.2915-.11261,4.815-.20361,7.09637-.23138.08405.04596.245.0473.58362-.00861,1.67297-.01215,3.18274.21069,4.80005.23999,3.98358.0722,8.03137.07922,12,.47998,2.22339.22455,4.5592.86365,6.71997,1.20001,1.41077.21967,3.05243.13391,4.56.48004.28857.06622.59564.31415.96155.2428.0484.0437-.24457.4856-.24152.71716-.8175,1.53687-1.9212,2.88843-2.88,4.32001Z"/>
</svg>