<?xml version="1.0" encoding="UTF-8"?>
<svg id="Layer_1" data-name="Layer 1" xmlns="http://www.w3.org/2000/svg" xmlns:xlink="http://www.w3.org/1999/xlink" viewBox="0 0 216 171.59595">
  <defs>
    <style>
      .cls-1 {
        fill: url(#linear-gradient-2);
      }

      .cls-2 {
        fill: none;
      }

      .cls-3 {
        fill: url(#linear-gradient);
      }

      .cls-4 {
        fill: #1b0e00;
      }
    </style>
    <linearGradient id="linear-gradient" x1="565.76586" y1="688.10336" x2="-278.09481" y2="1028.68987" gradientTransform="translate(63.75359 -138.74504) scale(.24)" gradientUnits="userSpaceOnUse">
      <stop offset="0" stop-color="#993422"/>
      <stop offset=".54396" stop-color="#e4ad24"/>
      <stop offset="1" stop-color="#a74f24"/>
    </linearGradient>
    <linearGradient id="linear-gradient-2" x1="460.53036" y1="1046.12786" x2="34.33182" y2="1216.5268" gradientTransform="translate(63.75359 -138.74504) scale(.24)" gradientUnits="userSpaceOnUse">
      <stop offset="0" stop-color="#c17927"/>
      <stop offset=".53595" stop-color="#e4ac24"/>
      <stop offset="1" stop-color="#cc8b27"/>
    </linearGradient>
  </defs>
  <g>
    <path class="cls-2" d="M146.88367,70.79834c-3.47821-10.73596-11.72852-19.57117-21.6037-24.71973-4.55084-2.37262-8.07336-3.59467-13.20001-4.32001-2.59723-.36743-4.29376-.49615-6.95996-.47998-3.91986.0238-6.99316.28864-10.79999,1.20001-14.15515,3.38867-26.02277,14.40692-30.72003,28.08002-4.19727,12.21759-3.34015,24.52997,2.63971,35.99634-.90637.7113-9.60492,2.73572-9.59833,3.24225.00531.40955.6723.18457.86005.16632,6.32654-.61603,15.6709-3.68134,21.9386-5.56494,12.89459-3.87506,24.62317-8.56323,36.71997-14.39996,3.22949-1.55829,6.43176-3.11694,9.60004-4.80005,1.72662-.91724,3.34833-1.9325,5.03998-2.88,3.08545-1.72815,6.09937-3.41064,9.12-5.27997,4.51245-2.79254,11.54138-6.77307,15.34082-10.21912.26715-.24231.59839-.36359.49646-.8208l-8.8736,4.79962Z"/>
    <path class="cls-3" d="M209.51959,47.52161c-.58826-.69238-16.00165-2.28186-17.99963-2.40295-7.67969-.46564-15.36359-.03748-23.03864.24146,1.51862,3.26941,3.92859,6.36157,4.20001,10.07715l-15.24133-14.39862c-3.76361-2.92474-7.55225-5.87872-11.76001-8.15997-3.4245-1.85669-7.78534-3.68335-11.52002-4.80005-6.05963-1.81183-13.34564-2.9184-19.67999-2.88-2.85645.01733-6.34662.37762-9.20233.75769-1.6449.21887-10.72449,2.57343-11.20465,2.26343-1.55048-1.00104-.38397-8.66132.18152-10.40656,1.15942-3.57843,3.77747-5.46259-1.37451-2.45453-3.1272,1.82581-6.89514,4.16089-9.84003,6.23999-4.41827,3.11932-9.01904,6.8537-12.96002,10.56-5.66321,5.32599-11.30432,11.99933-15.59998,18.47998-4.77551,7.20465-9.59058,16.96912-12.23999,25.20001-4.1217,12.80481-4.94696,26.39874-6.77734,39.66266-.32867,1.25812-1.13934-2.02496-1.31403-2.65125-.70172-2.5163-.77209-4.83575-1.26862-7.2514l-6,5.76001c-1.81671,1.84662-3.57159,3.81519-5.28003,5.76001-1.37286,1.56281-2.77393,3.18274-4.08002,4.79999-1.29199,1.59979-10.52863,13.87708-10.32123,14.75391.32916,1.39185,15.75238,2.29413,17.76123,2.28607,1.6441-.00659,3.17554-.14752,4.80005-.23999,3.33972-.19012,6.76349-.52753,10.07996-.96002,4.14966-.54108,8.6181-1.32025,12.72003-2.15997,5.11914-1.04797,10.80377-2.43652,15.83997-3.84003,6.77661-1.88849,14.24426-4.34894,20.88-6.71997,13.26501-4.73975,27.3429-10.76959,40.08002-16.79999,3.54126-1.67664,7.06812-3.49896,10.56-5.28003,4.25171-2.16864,8.55896-4.38538,12.72003-6.71997,3.69208-2.07153,7.44086-4.25195,11.03998-6.48004,2.38745-1.47797,4.86688-3.00366,7.20001-4.56,1.92517-1.28418,3.86981-2.7298,5.76001-4.07996,7.77795-5.55603,16.35565-12.3941,22.79999-19.44,1.10718-1.21057,10.71863-13.40503,10.07959-14.15704ZM155.2608,66.81952c-3.79944,3.44604-10.82837,7.42657-15.34082,10.21912-3.02063,1.86932-6.03455,3.55182-9.12,5.27997-1.69165.94751-3.31335,1.96277-5.03998,2.88-3.16827,1.68311-6.37054,3.24176-9.60004,4.80005-12.0968,5.83673-23.82538,10.5249-36.71997,14.39996-6.2677,1.88361-15.61206,4.94891-21.9386,5.56494-.18774.01825-.85474.24323-.86005-.16632-.00659-.50653,8.69196-2.53094,9.59833-3.24225-5.97986-11.46637-6.83698-23.77875-2.63971-35.99634,4.69727-13.6731,16.56488-24.69135,30.72003-28.08002,3.80682-.91138,6.88013-1.17621,10.79999-1.20001,2.6662-.01617,4.36273.11255,6.95996.47998,5.12665.72534,8.64917,1.94739,13.20001,4.32001,9.87518,5.14856,18.12549,13.98376,21.6037,24.71973l8.8736-4.79962c.10193.45721-.22931.57849-.49646.8208Z"/>
    <path class="cls-1" d="M165.83997,94.3186c-3.38696,1.77612-7.11475,4.28009-10.56,6.24005-2.45801,1.39832-9.50116,4.60669-11.10785,5.987-.28717.2467-1.01361,1.65814-1.37213,2.17297-2.81403,4.04114-4.62885,6.73425-8.40002,10.08002-8.87775,7.87628-20.58612,11.84058-32.51526,11.03528-4.02637-.27185-6.08862-1.72443-10.20471-.47528-6.98499,2.11969-13.81409,4.89392-20.88,6.95996-.8728.25525-6.02917,1.43781-6.23969,1.68298-.12799.14911.565.61517.71967.71704,4.18903,2.7597,11.62848,5.22137,16.56,6.23999,5.44775,1.12524,11.47528,1.56592,17.04004,1.20001,3.05945-.20117,6.39746-.87665,9.40472-1.51526,1.09308-.23212,7.75482-2.3103,8.10266-2.07806.15198.10144.8598,3.11011.90417,3.54059.22498,2.18414-.31598,4.72418-.96344,6.82092-.22498.72864-2.013,4.32916-1.84851,4.51056.06573.07251.65198-.06458.7204.00128,4.80908-2.9729,9.73785-5.74408,14.33936-9.0575,4.73529-3.40973,9.61523-7.4635,13.7406-11.58252,2.74689-2.74261,5.76172-6.07306,8.16003-9.12,3.36926-4.28052,7.03448-9.83612,9.59998-14.64001,2.96259-5.54736,5.44574-11.71826,7.20001-17.76001-.89685-1.51318.31134-2.38177-2.40002-.96002Z"/>
  </g>
  <g>
    <path class="cls-4" d="M203.12231,41.07629c-3.81116-.51196-8.51093-1.06403-12.32233-.99768-.10413-.00751-.20862-.0105-.31274-.0177-.18323-.0163-.38556-.03564-.57129-.03241-8.41522-.53473-16.92908-.07648-25.34552.47754-3.37146-3.58521-7.00964-6.43518-10.97046-9.30743-3.85724-2.79712-6.41278-4.47583-10.79999-6.47998-4.04193-1.84644-6.93744-2.82788-11.28003-3.83997-6.4187-1.49603-12.11005-2.06665-18.71997-1.68005-2.84283.16632-5.65088.51709-8.44775,1.03223-.84253.15521-5.49908,1.56897-5.71118,1.36603-.79266-.75848,3.79211-8.46802,4.55896-9.59821,2.96088-4.36395,7.03149-7.71289,10.07855-11.99866-4.52686,1.71478-9.01978,3.54547-13.4386,5.51862-3.29663,1.47211-6.17822,2.84637-9.35999,4.56-3.48029,1.87445-6.79718,3.79053-10.08002,6-4.64008,3.12305-9.05951,6.56226-13.19995,10.32001-6.15802,5.58881-11.30573,11.43835-16.08002,18.23999-5.33411,7.59912-9.66821,15.68457-12.72003,24.48004-2.55402,7.36072-4.16962,14.99274-5.24207,22.7179-.21857,1.57416-.20361,5.84625-.55914,6.88086-.04822.14044-1.78705,1.75403-2.11877,2.08124-1.97992,1.95288-4.04211,3.75311-6,5.76001-1.93365,1.98199-3.71783,3.98712-5.52002,6-1.37732,1.53833-2.74805,2.96112-4.07996,4.56-5.65161,6.78394-10.97815,13.87604-14.88,21.83997v.23999c8.03729,4.79517,18.01666,5.03931,27.12,4.80005,1.55066-.04077,3.02094-.13965,4.56-.24005,3.2547-.21228,6.37341-.5224,9.59998-.95996,4.47198-.60651,8.78082-1.63177,13.20001-2.40002.88531-.15387,2.33661-.58936,3.12567-.37585.7757.2099,3.77637,2.46423,4.87427,3.05591,1.86804,1.00665,3.5163,1.74225,5.44006,2.59998,5.47778,2.44226,10.10028,3.89807,16.08002,4.79999,6.1947.93433,11.02979,1.11627,17.27997.47998,1.94934-.19843,3.8717-.46564,5.80292-.79706.79504-.13647,4.40485-1.15082,4.64142-1.11884.68701.09271-1.30957,4.76495-1.51672,5.20349-3.07697,6.51312-9.3985,11.88611-13.96613,17.34973,7.18323-2.84467,14.30457-5.96185,21.11853-9.59729,10.36102-5.52795,19.87268-12.24023,28.32001-20.40002,3.08496-2.97998,5.67859-5.79724,8.39996-9.12,3.72662-4.55011,6.91144-9.04974,9.84003-14.16003,3.22803-5.63269,5.75201-11.13879,7.91998-17.27997,1.02533-2.90436,1.81281-5.67621,2.64001-8.64001.30322-1.0863.53632-3.01404,1.03491-3.88507.38574-.67383,2.73279-2.24451,3.52509-2.8349,8.47192-6.31305,15.44733-11.44263,22.79999-19.20001,5.99438-6.32428,11.88263-13.1994,14.16003-21.84003v-.71997c-4.15411-1.35956-8.53674-2.25916-12.87769-2.84235ZM161.03998,113.03864c-2.56549,4.80389-6.23071,10.3595-9.59998,14.64001-2.39832,3.04694-5.41315,6.37738-8.16003,9.12-4.12537,4.11902-9.00531,8.17279-13.7406,11.58252-4.6015,3.31342-9.53027,6.08459-14.33936,9.0575-.06842-.06586-.65466.07123-.7204-.00128-.16449-.1814,1.62354-3.78192,1.84851-4.51056.64746-2.09674,1.18842-4.63678.96344-6.82092-.04437-.43048-.7522-3.43915-.90417-3.54059-.34784-.23224-7.00958,1.84595-8.10266,2.07806-2.8736.61023-6.04309,1.24249-8.98907,1.47406-.09656-.0036-.22412.00677-.41565.0412-5.56476.36591-11.59229-.07477-17.04004-1.20001-4.93152-1.01862-12.37097-3.48029-16.56-6.23999-.15466-.10187-.84766-.56793-.71967-.71704.21051-.24518,5.36688-1.42773,6.23969-1.68298,7.06592-2.06604,13.89502-4.84027,20.88-6.95996,4.11609-1.24915,6.17834.20343,10.20471.47528,11.92914.8053,23.63751-3.159,32.51526-11.03528,3.77118-3.34576,5.586-6.03888,8.40002-10.08002.35852-.51483,1.08496-1.92627,1.37213-2.17297,1.60669-1.38031,8.64984-4.58868,11.10785-5.987,3.44525-1.95996,7.17303-4.46393,10.56-6.24005,2.71136-1.42175,1.50317-.55316,2.40002.96002-1.75427,6.04175-4.23743,12.21265-7.20001,17.76001ZM199.44,61.67865c-6.44434,7.0459-15.02203,13.88397-22.79999,19.44-1.8902,1.35016-3.83484,2.79578-5.76001,4.07996-2.33313,1.55634-4.81256,3.08203-7.20001,4.56-3.59912,2.22809-7.3479,4.40851-11.03998,6.48004-4.16107,2.33459-8.46832,4.55133-12.72003,6.71997-3.49188,1.78107-7.01874,3.60339-10.56,5.28003-12.73712,6.0304-26.815,12.06024-40.08002,16.79999-6.63574,2.37103-14.10339,4.83148-20.88,6.71997-5.03619,1.4035-10.72083,2.79205-15.83997,3.84003-4.10193.83972-8.57037,1.6189-12.72003,2.15997-3.31647.4325-6.74023.7699-10.07996.96002-1.62451.09247-3.15594.2334-4.80005.23999-2.00885.00806-17.43207-.89423-17.76123-2.28607-.2074-.87683,9.02924-13.15411,10.32123-14.75391,1.30609-1.61725,2.70715-3.23718,4.08002-4.79999,1.70844-1.94482,3.46332-3.91339,5.28003-5.76001l6-5.76001c.49652,2.41565.56689,4.73511,1.26862,7.2514.17468.62628.98535,3.90936,1.31403,2.65125,1.83038-13.26392,2.65564-26.85785,6.77734-39.66266,2.64941-8.2309,7.46448-17.99536,12.23999-25.20001,4.29565-6.48065,9.93677-13.15399,15.59998-18.47998,3.94098-3.7063,8.54175-7.44067,12.96002-10.56,2.94489-2.0791,6.71283-4.41418,9.84003-6.23999,5.15198-3.00806,2.53394-1.1239,1.37451,2.45453-.56549,1.74524-1.73199,9.40552-.18152,10.40656.48016.31,9.55975-2.04456,11.20465-2.26343,2.85571-.38007,6.34589-.74036,9.20233-.75769,6.33435-.03839,13.62036,1.06818,19.67999,2.88,3.73468,1.1167,8.09552,2.94336,11.52002,4.80005,4.20776,2.28125,7.9964,5.23523,11.76001,8.15997l15.24133,14.39862c-.27142-3.71558-2.6814-6.80774-4.20001-10.07715,7.67505-.27893,15.35895-.70709,23.03864-.24146,1.99799.12109,17.41138,1.71057,17.99963,2.40295.63904.75201-8.97241,12.94647-10.07959,14.15704Z"/>
    <path class="cls-4" d="M146.88367,70.79834c-3.47821-10.73596-11.72852-19.57117-21.6037-24.71973-4.55084-2.37262-8.07336-3.59467-13.20001-4.32001-2.59723-.36743-4.29376-.49615-6.95996-.47998-3.91986.0238-6.99316.28864-10.79999,1.20001-14.15515,3.38867-26.02277,14.40692-30.72003,28.08002-4.19727,12.21759-3.34015,24.52997,2.63971,35.99634-.90637.7113-9.60492,2.73572-9.59833,3.24225.00531.40955.6723.18457.86005.16632,6.32654-.61603,15.6709-3.68134,21.9386-5.56494,12.89459-3.87506,24.62317-8.56323,36.71997-14.39996,3.22949-1.55829,6.43176-3.11694,9.60004-4.80005,1.72662-.91724,3.34833-1.9325,5.03998-2.88,3.08545-1.72815,6.09937-3.41064,9.12-5.27997,4.51245-2.79254,11.54138-6.77307,15.34082-10.21912.26715-.24231.59839-.36359.49646-.8208l-8.8736,4.79962Z"/>
  </g>
</svg>