<?xml version="1.0" encoding="UTF-8"?>
<svg id="Layer_1" data-name="Layer 1" xmlns="http://www.w3.org/2000/svg" xmlns:xlink="http://www.w3.org/1999/xlink" viewBox="0 0 215.99999 171.59638">
  <defs>
    <style>
      .cls-1 {
        fill: none;
      }

      .cls-2 {
        fill: #1c1b04;
      }

      .cls-3 {
        fill: url(#linear-gradient);
      }

      .cls-4 {
        fill: #c3af72;
      }
    </style>
    <linearGradient id="linear-gradient" x1="1258.5172" y1="-1422.78769" x2="412.76486" y2="-1758.64938" gradientTransform="translate(-102.2 -314.43831) scale(.24 -.24)" gradientUnits="userSpaceOnUse">
      <stop offset="0" stop-color="#7f7043"/>
      <stop offset=".23956" stop-color="#bdaa6e"/>
      <stop offset=".49341" stop-color="#d7c280"/>
      <stop offset=".70659" stop-color="#ccb778"/>
      <stop offset="1" stop-color="#968653"/>
    </linearGradient>
  </defs>
  <g>
    <path class="cls-1" d="M146.88317,70.79865c-2.23273-6.60052-6.58728-13.65771-11.88922-18.23267-.43665-.37677-1.0993-.55359-1.31396-.72723-4.01807-3.24988-7.13971-5.3974-12-7.44-4.02167-1.69012-6.95789-2.35925-11.27997-2.87994-22.01685-2.65271-42.08057,11.01892-47.76001,32.39996-3.01233,11.34021-1.83362,22.25305,3.59973,32.63683l-9.59857,3.24194c.28851.45013.49359.20837.85962.16357,6.00366-.73517,13.64331-3.13263,19.53918-4.84235,18.50842-5.36719,35.26837-12.55511,52.08002-21.84003,2.84363-1.5705,5.59998-3.10907,8.40002-4.79999,2.30585-1.39252,4.4754-2.8653,6.71997-4.32001,3.2276-2.0918,6.94324-3.987,9.86957-6.57581.10211-.09033.87695-.26477.44922-.62292-.44025-.36859-6.63184,3.62048-7.6756,3.83862Z"/>
    <path class="cls-3" d="M205.67999,46.79878c-5.14612-.8927-10.38123-1.40399-15.59998-1.67999-1.18616-.06274-2.93011-.23999-3.96002-.23999h-7.91998c-1.89209,0-4.15686.14459-6.12.23999-.82996.04034-2.41431.12787-3.24432.23962-.33234.04474-.41589-.13275-.35236.35577,1.50818,2.52893,3.74908,6.06378,4.22357,8.97974.05731.35205.30365.58228-.26361.50281-9.0224-8.08301-16.79279-17.12653-27.72333-22.79797-2.39557-1.24298-5.13916-2.44952-7.67999-3.35999-1.01941-.3653-2.38422-.91455-3.35999-1.20001-1.50586-.44043-3.48529-.87195-5.03998-1.19995-1.99982-.422-4.6535-.47522-6.48004-.96002-2.86365-.34668-5.76367-.32288-8.63995-.47998-.24976.39807-.91077.23914-1.31671.24402-3.34875.04047-6.90411.35394-10.20331.95593-2.45197.44745-4.9574,1.53534-7.43744,1.82532-.86432.10101-1.12854-1.90729-1.2005-2.66736-.3833-4.04913.48541-7.76257,2.15796-11.39795-1.91229.69025-4.21082,2.1687-5.97974,3.26031-14.38,8.87421-27.21222,20.81763-36.26025,35.13971-2.23114,3.53156-4.72382,7.97986-6.48004,11.76001-1.62695,3.50183-2.76508,7.26514-4.32001,10.79999l-2.63995,9.35999c.15033,1.46594-.94373,4.42981-1.20001,6,.05151,1.42358-.40234,3.16547-.72003,4.56-.16852,3.3042-.80945,6.56592-1.20001,9.84003-.27893,2.33868-.43054,4.70905-.75403,7.04591-.17633,1.2738-.28741,2.82739-.80713,3.99292-1.26294-3.31439-1.90759-6.81262-2.39764-10.31763l-10.44116,10.55878c-3.42999,4.4436-7.31049,8.61792-10.56,13.20001-1.6554,2.33423-3.10486,4.84937-4.56116,7.31451.15051.69202,7.72748,1.69464,8.88116,1.80548,5.62494.54065,11.40582.44855,17.03998,0,6.02167-.47937,12.08081-1.4856,18-2.64001,1.65814-.32336,3.39801-.59418,5.03998-.95996.61285-.13654,1.27759-.33051,1.92004-.48004,1.58606-.36902,3.21832-.79407,4.79999-1.19995,2.05865-.52838,4.19366-1.09906,6.23999-1.67999,2.62701-.74585,5.31091-1.58081,7.91998-2.40002,3.58838-1.12671,7.2536-2.34534,10.80005-3.59998,16.80609-5.94568,34.47198-13.60327,50.39996-21.60004,3.04639-1.52942,6.11578-3.18262,9.12-4.79999,2.21808-1.19415,4.53571-2.35986,6.72003-3.59998,1.79077-1.01672,3.69739-2.27283,5.51996-3.36005,1.04102-.62097,2.08545-1.28497,3.12-1.91998.7901-.48499,1.61542-.94702,2.40002-1.44,1.61365-1.01392,3.20941-2.07086,4.79999-3.12,5.36053-3.53571,10.60522-7.24268,15.60004-11.28003,4.40228-3.55835,9.02057-7.58264,12.95996-11.75995,3.36133-3.56433,6.37427-7.53711,9.12-11.52002l1.91937-3.59717c-1.2597-.33258-2.55786-.50055-3.83936-.72283ZM154.10955,67.58295c-2.92633,2.58881-6.64197,4.48401-9.86957,6.57581-2.24457,1.45471-4.41412,2.92749-6.71997,4.32001-2.80005,1.69092-5.5564,3.22949-8.40002,4.79999-16.81165,9.28491-33.57159,16.47284-52.08002,21.84003-5.89587,1.70972-13.53552,4.10718-19.53918,4.84235-.36603.0448-.57111.28656-.85962-.16357l9.59857-3.24194c-5.43335-10.38379-6.61206-21.29663-3.59973-32.63684,5.67944-21.38104,25.74316-35.05267,47.76001-32.39996,4.32208.52069,7.2583,1.18982,11.27997,2.87994,4.86029,2.0426,7.98193,4.19012,12,7.44.21466.17365.87732.35046,1.31396.72723,5.30194,4.57495,9.65649,11.63214,11.88922,18.23267,1.04376-.21814,7.23535-4.20721,7.6756-3.83862.42773.35815-.34711.53259-.44922.62292Z"/>
  </g>
  <path class="cls-4" d="M167.52001,93.35877c-.54572.28223-1.1756.90094-1.67999,1.20001-.40289.23883-.9386.32532-1.20001.47998-.37622.2226-.82629.73932-1.20001.96002-.53125.31372-1.27692.4848-1.67999.71997-.09314.05438-.16675.43738-.23999.48004-.53033.30872-1.1369.64685-1.67999.95996-.85437.49255-1.77216.94574-2.64001,1.44-.24982.14227-.56635.15308-.72003.23999-.30585.1731-.65887.5509-.95996.72003-.40717.2287-.80316.49896-1.20001.71997-1.18231.65839-2.41162,1.25372-3.60004,1.92004-.37781.21179-.75909.42328-1.19995.47998.03076.06555-.03064.17432,0,.23999-.92255.13403-1.63324.78662-2.40002,1.20001-.57507.31006-1.11731.63763-1.67999.96001-2.11005,1.20886-1.34869.78271-2.64001,2.88-.23553.38257-1.08228.84723-1.20001,1.67999v.23999c-.92255.88226-1.59161,2.15045-2.39996,3.12-.80267.96271-1.75708,1.98755-2.64001,2.88-.56262.56866-1.36804,1.4292-1.91998,1.91998-.53894.47925-1.53198,1.18817-2.16003,1.67999-1.67206,1.30957-3.67535,2.80829-5.51996,3.84003-5.55341,3.10608-13.086,5.22681-19.44,5.51996-1.84546.08521-4.16608.11206-6,0-.74097-.04523-1.23438-.14838-1.92004-.23999-.61597-.08228-1.34998-.14282-1.91998-.23999-1.7038-.29034-1.8421-.85162-3.83997-.47998-.92834.17267-1.53699.40869-2.40002.71997-.55048.19861-1.06238.50604-1.67999.48004.02722.06921-.0274.17078,0,.23999-1.04846.01947-1.95679.63635-2.88.95996-.71039.24902-1.44525.47632-2.16003.72003-.71399.24347-1.44409.48242-2.15997.71997-.47906.159-.9621.32385-1.44.48004-.61737.20172-1.35272.29883-1.91998.47998-.60333.19263-1.26508.51465-1.91998.71997-.48376.15173-.9621.33289-1.44.48004-.72437.22302-1.4505.50641-2.16003.71997-.70935.21356-1.68646.2702-2.39996.48004-.07928.02332-.16718.21869-.24005.23999-1.11407.32581-2.24438.63794-3.35999.95996-.93634.27032-1.92413.51727-2.88.72003-.01691.04694-.24207.0683-.23645.11768.00714.06329.80359.75275.95648.84235.91565.53644,2.55316,1.18542,3.59998,1.67999,1.4325.67676,2.6228,1.11578,4.08002,1.67999.41931.16235,1.02551.57477,1.44.71997.80347.28156,1.80969.47144,2.64001.72003.91589.27417,1.71021.48926,2.63995.71997.64868.16095,1.25586.34039,1.92004.48004.97827.20569,2.18408.57837,3.12.71997.37207.05627.82031-.04858,1.19995,0,.73236.09369,1.41943.17731,2.16003.23999.99646.08435,1.83606.19995,2.88.23999.63684.02448,1.28204-.00769,1.91998,0,1.11206.01343,2.24945.0387,3.35999,0,.31915-.01111.6413.01508.96002,0,.61047-.02881,1.11633-.21661,1.44-.23999.83136-.06,1.62726-.15265,2.40002-.23999,1.25177-.14148,2.13678-.2785,3.35999-.47998.55792-.09192,1.05603-.12341,1.67999-.23999.75134-.14044,1.42889-.31952,2.15997-.48004,1.57507-.34583,3.04773-.80115,4.56-1.20001,1.03839-.2738,2.28387-.47003,3.34894-.71405,1.1225,3.06836,1.14526,5.72076.37317,8.87616-.48657,1.98834-1.46808,3.85535-2.16077,5.75922,7.57123-3.20831,14.40272-8.2373,20.75867-13.44128,1.98224-1.62299,3.64465-3.03925,5.52002-4.79999.67462-.63342,1.26996-1.27692,1.91998-1.92004.65186-.6449,1.28107-1.25671,1.91998-1.91998.97284-1.00983,1.71619-1.84937,2.64001-2.88.79633-.88837,1.62872-1.71393,2.40002-2.64001.14319-.17194.3385-.30695.47998-.47998.37372-.45691.65137-1.04913.96002-1.44.81696-1.03461,1.60126-2.02429,2.39996-3.12.53271-.73077.94183-1.43665,1.44-2.16003.40656-.59015.95074-1.17242,1.44-1.91998.10944-.16718.37006-.30884.48004-.47998.31622-.49225.64825-1.41443.95996-1.91998.74854-1.21405,1.45996-2.34882,2.16003-3.60004.40375-.72168.81171-1.42572,1.20001-2.15997.08325-.15747.39746-.32037.47998-.48004.19171-.37097.29053-1.0603.47998-1.44.63116-1.26465,1.10815-2.3161,1.67999-3.59998.25494-.57233.47803-1.10217.72003-1.67999.12488-.29834.56323-.8136.71997-1.20001.29791-.73444.42639-1.62067.72003-2.39996.23523-.62445.70856-1.43304.95996-2.16003.16711-.48315.29462-1.11505.48004-1.67999.26965-.82159.49518-1.56299.71997-2.40002.10126-.37708.81-2.3125.71899-2.3985-.55469-.06818-.98444.24347-1.43896.47852h-.00003Z"/>
  <g>
    <path class="cls-2" d="M146.88317,70.79865c-2.23273-6.60052-6.58728-13.65771-11.88922-18.23267-.43665-.37677-1.0993-.55359-1.31396-.72723-4.01807-3.24988-7.13971-5.3974-12-7.44-4.02167-1.69012-6.95789-2.35925-11.27997-2.87994-22.01685-2.65271-42.08057,11.01892-47.76001,32.39996-3.01233,11.34021-1.83362,22.25305,3.59973,32.63683l-9.59857,3.24194c.28851.45013.49359.20837.85962.16357,6.00366-.73517,13.64331-3.13263,19.53918-4.84235,18.50842-5.36719,35.26837-12.55511,52.08002-21.84003,2.84363-1.5705,5.59998-3.10907,8.40002-4.79999,2.30585-1.39252,4.4754-2.8653,6.71997-4.32001,3.2276-2.0918,6.94324-3.987,9.86957-6.57581.10211-.09033.87695-.26477.44922-.62292-.44025-.36859-6.63184,3.62048-7.6756,3.83862Z"/>
    <path class="cls-2" d="M203.52001,41.27876c-4.17969-.60889-8.40582-1.24683-12.72003-1.19995-.24951-.39752-.91101-.23993-1.31653-.2442-6.81891-.07147-13.31134.08002-20.04346.48419-.95685.05743-4.4538.36255-5.03601.11493-6.72186-7.04321-14.28766-12.64624-23.284-16.43494-2.77423-1.16833-4.7821-1.85565-7.67999-2.64001-.89453-.24213-1.7179-.51624-2.64001-.71997-1.5849-.35022-2.7597-.4917-4.32001-.72003-3.03754-.44452-5.06604-.64117-8.15997-.71997-2.79309-.07117-5.5163-.06616-8.40002.23999-3.50757.37238-7.25299.94672-10.56,2.15997-.14392-.06793-.64935.07336-.72083-.00134-.06836-.07141.39752-1.60101.48083-1.91864.82928-3.16187,3.91107-7.71265,6-10.32001,2.00903-2.50763,4.48541-4.76776,6.60333-7.19666.20514-.23523,1.72614-2.00238,1.55542-2.16211-3.76434,1.31372-7.38458,2.9834-11.03876,4.55878-3.1496,1.35785-5.77344,2.51245-8.88,4.08002-17.70544,8.93414-32.05713,20.96979-43.20001,37.44-2.69257,3.97992-4.55823,7.198-6.71997,11.51996-1.78925,3.57721-3.18469,6.5304-4.56,10.32001-1.15393,3.17963-2.04987,6.07812-2.88,9.35999-.45483,1.79828-.82837,3.46179-1.20001,5.28003-.34381,1.68225-.68652,3.34113-.95996,5.03998-.57532,3.57416-1.14679,7.16644-1.20001,10.79999-.64966,1.29211-3.29309,3.18372-4.44635,4.31372-2.86292,2.80511-5.57684,5.68945-8.27368,8.64629-3.7486,4.11005-7.2558,8.2403-10.56,12.72003-3.45459,4.68359-6.64142,9.48145-9.35999,14.63995v.48004c4.72278,2.85333,11.74194,4.72784,17.28003,4.56l6.84839.49438c3.71832-.2738,7.42639-.38684,11.15161-.73438,6.23901-.58215,11.89331-1.73395,18-2.88,1.30914-.24573,2.63232-.45319,3.94037-.71838.77771.33984,1.5719.77399,2.29962,1.19836.85223.49701,1.71899,1.1665,2.63995,1.67999,2.15417,1.20111,3.97089,2.12958,6.24005,3.12,3.13715,1.36932,5.56323,2.22906,8.88,3.12,3.4353.92279,6.52386,1.54468,10.07996,1.92004,1.30176.13733,3.25299.47998,4.44.47998h4.32001c.50208,0,1.80444-.18982,2.52002-.23999,4.44415-.31171,8.91394-.91736,13.19757-2.15997-.64594,4.73193-3.67206,9.04382-6.72675,12.59991l-.23083.60004-8.63873,9.3576c3.63007-1.21887,7.08112-2.9696,10.55872-4.55762,18.05005-8.24219,32.86249-17.66052,45.84003-32.88,2.53687-2.97516,4.75201-5.8869,6.95996-9.12,1.78351-2.61151,3.48724-5.14166,5.04004-7.91998,1.32074-2.36316,2.47388-4.73767,3.59998-7.20001.6322-1.38232,1.11169-2.70087,1.67999-4.08002.58093-1.40961,1.14502-2.61029,1.67999-4.07996.94891-2.60681,1.62018-5.03699,2.40002-7.67999.58759-1.99152,1.1922-4.00281,1.81201-5.98798,4.14557-2.72931,8.01947-5.83533,11.86798-8.89203,4.87317-3.87054,8.83417-7.28424,13.20001-11.76001,3.59247-3.68298,6.43042-6.74823,9.35999-11.04004,2.53461-3.71313,4.6637-7.32593,5.76001-11.75995v-.72003c-4.00873-1.49426-8.26813-2.02643-12.47998-2.64001ZM168.23998,95.27876c-.22479.83704-.45032,1.57843-.71997,2.40002-.18542.56494-.31293,1.19684-.48004,1.67999-.2514.72699-.72473,1.53558-.95996,2.16003-.29364.7793-.42212,1.66553-.72003,2.39996-.15674.38641-.59509.90167-.71997,1.20001-.242.57783-.46509,1.10767-.72003,1.67999-.57184,1.28387-1.04883,2.33533-1.67999,3.59998-.18945.3797-.28827,1.06903-.47998,1.44-.08252.15967-.39673.32257-.47998.48004-.38831.73425-.79626,1.43829-1.20001,2.15997-.70007,1.25122-1.4115,2.38599-2.16003,3.60004-.31171.50555-.64374,1.42773-.95996,1.91998-.10999.17114-.37061.31281-.48004.47998-.48926.74756-1.03345,1.32983-1.44,1.91998-.49817.72339-.90729,1.42926-1.44,2.16003-.79871,1.0957-1.58301,2.08539-2.39996,3.12-.30865.39087-.5863.98309-.96002,1.44-.14148.17303-.33679.30804-.47998.47998-.7713.92609-1.6037,1.75165-2.40002,2.64001-.92383,1.03064-1.66718,1.87018-2.64001,2.88-.63892.66327-1.26813,1.27509-1.91998,1.91998-.65002.64313-1.24536,1.28662-1.91998,1.92004-1.87537,1.76074-3.53778,3.177-5.52002,4.79999-6.35596,5.20398-13.18744,10.23297-20.75867,13.44128.69269-1.90387,1.67419-3.77087,2.16077-5.75922.77209-3.1554.74933-5.8078-.37317-8.87616-1.06506.24402-2.31055.44025-3.34894.71405-1.51227.39886-2.98492.85419-4.56,1.20001-.73108.16052-1.40863.3396-2.15997.48004-.62396.11658-1.12207.14807-1.67999.23999-1.22321.20148-2.10822.3385-3.35999.47998-.77277.08734-1.56866.17999-2.40002.23999-.32367.02338-.82953.21118-1.44.23999-.31873.01508-.64087-.01111-.96002,0-1.11053.0387-2.24792.01343-3.35999,0-.63794-.00769-1.28314.02448-1.91998,0-1.04395-.04004-1.88354-.15564-2.88-.23999-.7406-.06268-1.42767-.1463-2.16003-.23999-.37964-.04858-.82788.05627-1.19995,0-.93591-.1416-2.14172-.51428-3.12-.71997-.66418-.13965-1.27136-.31909-1.92004-.48004-.92975-.23071-1.72406-.4458-2.63995-.71997-.83032-.2486-1.83655-.43848-2.64001-.72003-.41449-.1452-1.02069-.55762-1.44-.71997-1.45721-.56421-2.64752-1.00323-4.08002-1.67999-1.04681-.49457-2.68433-1.14355-3.59998-1.67999-.15289-.0896-.94934-.77905-.95648-.84235-.00562-.04938.21954-.07074.23645-.11768.95587-.20276,1.94366-.44971,2.88-.72003,1.1156-.32202,2.24591-.63416,3.35999-.95996.07288-.0213.16077-.21667.24005-.23999.7135-.20984,1.69061-.26648,2.39996-.48004.70953-.21356,1.43567-.49695,2.16003-.71997.47791-.14716.95624-.32831,1.44-.48004.65491-.20532,1.31665-.52734,1.91998-.71997.56726-.18115,1.30261-.27826,1.91998-.47998.47791-.15619.96094-.32104,1.44-.48004.71588-.23755,1.44598-.4765,2.15997-.71997.71478-.24371,1.44965-.47101,2.16003-.72003.92322-.32361,1.83154-.94049,2.88-.95996-.0274-.06921.02722-.17078,0-.23999.61761.026,1.12952-.28143,1.67999-.48004.86304-.31128,1.47168-.5473,2.40002-.71997,1.99786-.37164,2.13617.18964,3.83997.47998.57001.09717,1.30402.15771,1.91998.23999.68567.09161,1.17908.19476,1.92004.23999,1.83392.11206,4.15454.08521,6,0,6.354-.29315,13.8866-2.41388,19.44-5.51996,1.8446-1.03174,3.84789-2.53046,5.51997-3.84003.62805-.49182,1.62109-1.20074,2.16003-1.67999.55194-.49078,1.35736-1.35132,1.91998-1.91998.88293-.89246,1.83734-1.9173,2.64001-2.88.80835-.96954,1.47742-2.23773,2.39996-3.12v-.23999c.11774-.83276.96448-1.29742,1.20001-1.67999,1.29132-2.09729.52997-1.67114,2.64001-2.88.56268-.32239,1.10492-.64996,1.67999-.96002.76678-.41339,1.47748-1.06598,2.40002-1.20001-.03064-.06567.03076-.17444,0-.23999.44086-.0567.82214-.26819,1.19995-.47998,1.18842-.66632,2.41772-1.26166,3.60004-1.92004.39685-.22101.79285-.49127,1.20001-.71997.30109-.16913.65411-.54694.95996-.72003.15369-.08691.47021-.09772.72003-.23999.86786-.49426,1.78564-.94745,2.64001-1.44.54309-.31311,1.14966-.65125,1.67999-.95996.07324-.04266.14685-.42566.23999-.48004.40308-.23517,1.14874-.40625,1.67999-.71997.37372-.2207.82379-.73743,1.20001-.96002.26141-.15466.79712-.24115,1.20001-.47998.50439-.29907,1.13428-.91779,1.67999-1.20001.45453-.23505.88428-.54669,1.43896-.47852.091.086-.61774,2.02142-.71899,2.3985l.00002.00002ZM207.59997,51.11878c-2.74573,3.98291-5.75867,7.95569-9.12,11.52002-3.93939,4.17731-8.55768,8.2016-12.95996,11.75995-4.99481,4.03735-10.2395,7.74432-15.60004,11.28003-1.59058,1.04913-3.18634,2.10608-4.79999,3.12-.78461.49298-1.60992.95502-2.40002,1.44-1.03455.63501-2.07898,1.29901-3.12,1.91998-1.82257,1.08722-3.72919,2.34332-5.51996,3.36005-2.18433,1.24011-4.50195,2.40582-6.72003,3.59998-3.00421,1.61737-6.07361,3.27057-9.12,4.79999-15.92798,7.99677-33.59387,15.65436-50.39996,21.60004-3.54645,1.25464-7.21167,2.47327-10.80005,3.59998-2.60907.81921-5.29297,1.65417-7.91998,2.40002-2.04633.58093-4.18134,1.15161-6.23999,1.67999-1.58167.40588-3.21393.83093-4.79999,1.19995-.64246.14954-1.30719.34351-1.92004.48004-1.64197.36578-3.38184.6366-5.03998.95996-5.91919,1.15442-11.97833,2.16064-18,2.64001-5.63416.44855-11.41504.54065-17.03998,0-1.15369-.11084-8.73065-1.11346-8.88116-1.80548,1.4563-2.46515,2.90576-4.98029,4.56116-7.31451,3.24951-4.58209,7.13-8.75641,10.56-13.20001l10.44116-10.55878c.49005,3.505,1.1347,7.00323,2.39764,10.31763.51971-1.16553.6308-2.71912.80713-3.99292.32349-2.33685.4751-4.70721.75403-7.0459.39056-3.27411,1.03149-6.53583,1.20001-9.84003.31769-1.39453.77155-3.13641.72003-4.56.25629-1.57019,1.35034-4.53406,1.20001-6l2.63995-9.35999c1.55493-3.53485,2.69305-7.29816,4.32001-10.79999,1.75623-3.78015,4.2489-8.22845,6.48004-11.76001,9.04803-14.32208,21.88025-26.2655,36.26025-35.13971,1.76892-1.09161,4.06744-2.57007,5.97974-3.26031-1.67255,3.63538-2.54126,7.34882-2.15796,11.39795.07196.76007.33618,2.76837,1.2005,2.66736,2.48004-.28998,4.98547-1.37787,7.43744-1.82532,3.29919-.60199,6.85455-.91547,10.20331-.95593.40594-.00488,1.06696.15405,1.31671-.24402,2.87628.1571,5.77631.1333,8.63995.47998,1.82654.4848,4.48022.53802,6.48004.96002,1.55469.328,3.53412.75952,5.03998,1.19995.97577.28546,2.34058.83472,3.35999,1.20001,2.54083.91046,5.28442,2.117,7.67999,3.35999,10.93054,5.67145,18.70093,14.71497,27.72333,22.79797.56726.07947.32092-.15076.26361-.50281-.47449-2.91595-2.71539-6.45081-4.22357-8.97974-.06354-.48853.02002-.31104.35236-.35577.83002-.11176,2.41437-.19928,3.24432-.23962,1.96313-.0954,4.22791-.23999,6.12-.23999h7.91998c1.02991,0,2.77386.17725,3.96002.23999,5.21875.276,10.45386.78729,15.59998,1.67999,1.28149.22229,2.57965.39026,3.83936.72284l-1.91937,3.59717v-.00002Z"/>
  </g>
</svg>