<?xml version="1.0" encoding="UTF-8"?><svg id="Layer_2" xmlns="http://www.w3.org/2000/svg" width="606.15456" height="397.53806" xmlns:xlink="http://www.w3.org/1999/xlink" viewBox="0 0 606.15456 397.53806"><defs><style>.cls-1{fill:#bb2c27;}.cls-1,.cls-2,.cls-3{fill-rule:evenodd;}.cls-3{fill:url(#linear-gradient);}</style><linearGradient id="linear-gradient" x1="-.86142" y1="594.73242" x2=".13858" y2="594.73242" gradientTransform="translate(-249395.22684 -20098.31036) rotate(94.68187) scale(421.23755 -421.23755)" gradientUnits="userSpaceOnUse"><stop offset="0" stop-color="#bb2c26"/><stop offset=".04" stop-color="#bf3526"/><stop offset=".11" stop-color="#cb4d25"/><stop offset=".19" stop-color="#de7523"/><stop offset=".21" stop-color="#e17a23"/><stop offset=".29" stop-color="#ee8b1f"/><stop offset=".38" stop-color="#f5951e"/><stop offset=".5" stop-color="#ff9915"/><stop offset=".62" stop-color="#f5951e"/><stop offset=".71" stop-color="#ee8b1f"/><stop offset=".79" stop-color="#e17a23"/><stop offset=".8" stop-color="#e07823"/><stop offset=".85" stop-color="#d35d24"/><stop offset=".91" stop-color="#c64225"/><stop offset=".96" stop-color="#be3226"/><stop offset="1" stop-color="#bb2c26"/></linearGradient></defs><g id="Layer_1-2"><path class="cls-2" d="M314.83258,397.53806h261.936s-227.78024-43.99792,24.48-149.26192c-.80176.18057,21.18751-8.77729-21.90948-81.39598l-72.216-133.41601s-11.628-27.54-51.408-1.836l-105.264,57.52801L297.2071,0H34.6591s229.16337,49.98816-20.196,144.84816c0,0-33.9415,9.18,2.1665,62.42398l90.576,159.732s10.404,28.764,48.96,0l104.04-59.976,54.62698,90.50992Z"/><path class="cls-3" d="M235.2666,256.04978s-83.36049,37.39259-112.608-26.316c-27.44213-59.78262,36.21812-94.63784,34.884-97.308,0,0,80.784-60.588,129.744,15.3l-54.468,33.048s-19.584,8.568-1.224,25.704l85.068,154.224s6.12,22.644,33.048,4.896l227.052-128.52s20.196-7.344,1.836-28.152l-83.232-152.388s-11.016-23.25601-34.884-3.672l-88.128,48.348s-24.174,12.85138-3.672,31.51738c0,0,7.39898,7.2265,22.94372-1.04162,0,0,108.83828-28.93474,100.86375,67.07948-8.72698,105.07794-122.16751,90.6225-135.39872,81.30848,0,0-26.00402-10.6335-32.16676-28.18995l53.33574-35.02475s10.89348-9.36912-1.54225-29.82153l-79.24772-145.7019s-11.97091-32.05288-45.56964-3.08999L36.8011,157.19158s-25.87538,6.9511-5.41013,32.0529l85.34949,155.62853s9.26576,20.08155,34.37001,0l85.72886-50.58914s16.98913-8.10963,12.74188-16.21923l-14.31461-22.01485Z"/><path class="cls-1" d="M230.13797,244.78041s-93.39723,33.43969-99.90287-46.01139c0,0-3.61074-50.06465,62.48526-70.20436,50.06163-15.25226,67.79125,12.76633,67.79125,12.76633l-60.74712,47.5426,30.37349,55.90682ZM381.45926,152.05935s93.39723-33.43969,99.90287,46.01139c0,0,3.61074,50.06465-62.48526,70.20436-50.06163,15.25226-67.79125-12.76633-67.79125-12.76633l60.74712-47.5426-30.37349-55.90682Z"/></g></svg>