<?xml version="1.0" encoding="UTF-8"?><svg id="Layer_2" xmlns="http://www.w3.org/2000/svg" width="562.79506" height="346.25784" viewBox="0 0 562.79506 346.25784"><defs><style>.cls-1{fill-rule:evenodd;}</style></defs><g id="Layer_1-2"><path class="cls-1" d="M211.7533,229.91779s-83.36049,37.39259-112.608-26.316c-27.44213-59.78262,36.21812-94.63784,34.884-97.308,0,0,80.784-60.588,129.744,15.3l-54.468,33.048s-19.584,8.568-1.224,25.704l85.068,154.224s6.12,22.644,33.048,4.896l227.052-128.52s20.196-7.344,1.836-28.152L471.8533,30.40579s-11.016-23.25601-34.884-3.672l-88.128,48.348s-24.174,12.85138-3.672,31.51738c0,0,7.39898,7.2265,22.94372-1.04162,0,0,108.83828-28.93474,100.86375,67.07948-8.72698,105.07794-122.16751,90.6225-135.39872,81.30848,0,0-26.00402-10.6335-32.16676-28.18995l53.33574-35.02475s10.89348-9.36912-1.54225-29.82153L273.95707,15.20738s-11.97091-32.05288-45.56964-3.08999L13.2878,131.05958s-25.87538,6.9511-5.41013,32.0529l85.34949,155.62853s9.26576,20.08155,34.37001,0l85.72886-50.58914s16.98913-8.10963,12.74188-16.21923l-14.31461-22.01485ZM206.62467,218.64842s-93.39723,33.43969-99.90287-46.01139c0,0-3.61074-50.06465,62.48526-70.20436,50.06163-15.25226,67.79125,12.76633,67.79125,12.76633l-60.74712,47.5426,30.37349,55.90682ZM357.94816,125.92736s93.39723-33.43969,99.90287,46.01139c0,0,3.61074,50.06465-62.48526,70.20436-50.06163,15.25226-67.79125-12.76633-67.79125-12.76633l60.74712-47.5426-30.37349-55.90682Z"/></g></svg>