<?xml version="1.0" encoding="UTF-8"?>
<svg id="Ebene_3" xmlns="http://www.w3.org/2000/svg" version="1.1" xmlns:svg="http://www.w3.org/2000/svg" xmlns:xlink="http://www.w3.org/1999/xlink" viewBox="0 0 997.8 724.9">
  <!-- Generator: Adobe Illustrator 29.2.1, SVG Export Plug-In . SVG Version: 2.1.0 Build 116)  -->
  <defs>
    <style>
      .st0 {
        fill: url(#radial-gradient);
      }

      .st1 {
        fill: #c3e2ed;
      }

      .st2 {
        fill: #596771;
      }
    </style>
    <radialGradient id="radial-gradient" cx="531.3" cy="393.6" fx="531.3" fy="393.6" r="384.8" gradientTransform="translate(244.7 863.4) rotate(-44.1) scale(1 -.5)" gradientUnits="userSpaceOnUse">
      <stop offset="0" stop-color="#636f78"/>
      <stop offset="0" stop-color="#697780"/>
      <stop offset=".1" stop-color="#7d8e98"/>
      <stop offset=".2" stop-color="#aec7d5"/>
      <stop offset=".2" stop-color="#a1b8c4"/>
      <stop offset=".3" stop-color="#b5cede"/>
      <stop offset=".4" stop-color="#b7d1e1"/>
      <stop offset=".5" stop-color="#b5cede"/>
      <stop offset=".6" stop-color="#aec7d5"/>
      <stop offset=".7" stop-color="#a1b7c3"/>
      <stop offset=".8" stop-color="#8c9ea9"/>
      <stop offset=".8" stop-color="#8c9ea9"/>
      <stop offset=".8" stop-color="#75838d"/>
      <stop offset=".9" stop-color="#75838d"/>
      <stop offset="1" stop-color="#68747d"/>
    </radialGradient>
  </defs>
  <g id="path15">
    <path class="st0" d="M417.9,606.8v-18.1l-4.5-1.7c-9.7-3.7-19.3-8.1-28.3-13l-4.6-2.5-42,42.3c-33.4-21.1-63-51-90.3-91.1l41.8-42-2.5-4.6c-5.5-10.3-10.4-21.1-14.3-32.1l-1.2-3.3L23.3,362.3l248.9-78.2,1.2-3.3c3.9-10.8,8.6-21.4,14.1-31.5l2.4-4.6-41.9-42c23.1-35.1,53.6-65.7,90.5-91.2l41.9,42.1,4.6-2.5c9-4.9,18.6-9.3,28.4-13l4.5-1.7v-18.2L498.9,11.6l80.9,106.6v17.8l4.5,1.7c9.4,3.5,18.6,7.7,27.5,12.5l4.6,2.4,41-41.3c34.2,22.6,63.7,52.3,89.9,90.5l-40,40.3,2.5,4.6c6.1,11,11.3,22.6,15.5,34.4l1.2,3.3,247.7,77.9-249.2,78.5v3.9c-4.1,11.3-9.2,22.5-15,33.1l-2.5,4.6,40.3,40.4c-21.4,33.9-51.8,64.4-90.3,90.7l-41.1-41.2-4.6,2.4c-8.9,4.7-18.2,8.9-27.7,12.5l-4.5,1.7v17.8l-81,106.6-81-106.6Z"/>
    <path d="M498.9,23.1l73.9,97.4v20.3l9,3.4c9.1,3.4,18.1,7.5,26.7,12.1l9.2,4.9,7.3-7.4,33.3-33.5c30,20.7,56.3,47.3,80,80.7l-32.2,32.4-7.4,7.4,5.1,9.2c5.9,10.7,11,21.9,15.1,33.4l2.4,6.5,6.6,2.1,223.2,70.2-223.1,70.3-9.8,3.1v7.8c-3.9,10.6-8.7,21-14.1,30.9l-5,9.2,7.4,7.4,32.6,32.7c-19.8,29.9-46.8,56.9-80.5,80.7l-33.3-33.4-7.3-7.4-9.2,4.9c-8.6,4.6-17.6,8.7-26.8,12.2l-9,3.4v20.2l-74,97.4-74-97.4v-20.6l-9-3.4c-9.4-3.6-18.7-7.9-27.5-12.6l-9.2-5-7.4,7.4-34.3,34.6c-29.3-19.5-55.7-46.3-80.2-81.3l34-34.2,7.3-7.4-4.9-9.1c-5.4-10-10.1-20.5-13.9-31.2l-2.3-6.5-6.6-2.1-224.2-70.7,224.3-70.5,6.6-2.1,2.4-6.5c3.8-10.4,8.4-20.7,13.6-30.6l4.9-9.1-7.3-7.3-34.2-34.2c21.2-30.9,48.3-58.1,80.7-81.2l34.1,34.2,7.4,7.4,9.2-5c8.8-4.8,18-9,27.5-12.7l9-3.4v-20.6l74-97.4M498.9,0l-88,115.8v15.7c-10.1,3.9-19.8,8.3-29.2,13.4l-42.3-42.5c-41.3,27.6-75,61.1-100.3,101.2l42.2,42.3c-5.6,10.4-10.4,21.2-14.5,32.5L0,362.2l266.7,84c4.1,11.5,9.1,22.5,14.8,33.1l-42.2,42.4c28.1,42.4,61,77.1,100.3,100.8l42.2-42.5c9.4,5.1,19.1,9.5,29.1,13.4v15.7l88,115.8,88-115.8v-15.3c9.8-3.7,19.3-8,28.5-12.9l41.5,41.6c42.4-28.1,76.3-61.4,100-100.8l-40.5-40.7c6.2-11.2,11.5-23,15.8-35.2h0s265.5-83.7,265.5-83.7l-265.6-83.5c-4.4-12.3-9.8-24.1-16-35.4l40.4-40.7c-27.6-41.3-59.9-74.9-99.9-100.3l-41.4,41.6c-9.1-4.8-18.6-9.1-28.3-12.8v-15.3L498.9,0h0Z"/>
  </g>
  <path id="path16" d="M499,217L35.6,362.4l463.2,145.9,463.2-145.9-463.1-145.5h0ZM108.1,362.4l391-123,390.8,123.1-390.9,122.2-390.9-122.2Z"/>
  <ellipse id="ellipse16" cx="498.9" cy="362.4" rx="236.2" ry="237.5"/>
  <path id="path17" d="M498.9,17.8l-77.1,102.9v484.6l77.1,101.3,77-101.3V120.1l-77-102.4h0ZM498.9,670.3l-54.6-72.3v-4.3c6.2,2.1,54,13.3,109.2.1v4.2l-54.6,72.3ZM553.5,131.3c-6.2-2.1-54-13.3-109.2-.2v-4.2l54.6-72.3,54.6,72.3v4.3Z"/>
  <path id="path18" class="st2" d="M498.9,147.2c-118.9,0-215.3,96.4-215.3,215.3s96.4,215.3,215.3,215.3,215.3-96.4,215.3-215.3-96.4-215.3-215.3-215.3h0ZM498.9,541.8c-99.1,0-179.4-80.3-179.4-179.4s80.3-179.4,179.4-179.4,179.4,80.3,179.4,179.4-80.3,179.4-179.4,179.4h0Z"/>
  <path id="path19" d="M254.1,201.3c28.4-41,50.9-60.4,84.9-84.3l404.7,406.6c-26.1,39-46.1,57.5-84.8,84.7,0,0-404.7-407.1-404.8-407h0Z"/>
  <path id="path20" d="M338.6,608.5c-41-28.4-60.4-50.9-84.4-84.9L658.8,116.9c39,26.1,57.5,46.1,84.7,84.8,0,0-405.1,406.7-405,406.8h0Z"/>
  <path id="path21" class="st1" d="M336.9,585c-28.4-19.7-41.5-36.1-59-59.5l382.9-385c26.4,18.1,38.6,33,59,59.8,0,0-383,384.7-382.9,384.7h0Z"/>
  <path id="path22" class="st1" d="M720.1,525.2c-17.6,25.4-32.4,38.9-59.6,59.8L277.7,199.6c17.6-24.6,31.7-37.9,59.1-60l383.2,385.6Z"/>
  <ellipse id="ellipse22" cx="498.9" cy="362.5" rx="179.4" ry="180.4"/>
  <path id="path23" class="st1" d="M360.4,341.9c94.8-95.2,187.6-94.2,276.9,1.1-15.6-79.4-77.4-121-138.7-121.4-77.2,4.2-125.9,51.9-138.2,120.3Z"/>
  <path id="path24" class="st1" d="M637.4,383.6c-94.8,95.1-187.7,94-277-1.3,15.6,79.4,76.9,120.5,138.1,120.9,77.2-4.2,126.6-51.2,138.9-119.6h0Z"/>
  <circle id="circle24" class="st2" cx="498.9" cy="362.4" r="69" transform="translate(-110.1 458.9) rotate(-45)"/>
  <circle id="circle25" cx="498.9" cy="362.4" r="45.2"/>
  <circle id="circle26" class="st1" cx="498.9" cy="362.4" r="33.1"/>
</svg>