<?xml version="1.0" encoding="UTF-8"?>
<svg id="Ebene_1" xmlns="http://www.w3.org/2000/svg" version="1.1" xmlns:svg="http://www.w3.org/2000/svg" xmlns:xlink="http://www.w3.org/1999/xlink" viewBox="0 0 997.8 724.9">
  <!-- Generator: Adobe Illustrator 29.2.1, SVG Export Plug-In . SVG Version: 2.1.0 Build 116)  -->
  <defs>
    <style>
      .st0 {
        fill: url(#radial-gradient);
      }

      .st1 {
        fill: #f39200;
      }

      .st2 {
        fill: #b3351b;
      }
    </style>
    <radialGradient id="radial-gradient" cx="498.9" cy="362.5" fx="498.9" fy="362.5" r="420.5" gradientTransform="translate(-66.2 496.1) rotate(-44.1) scale(1 .8)" gradientUnits="userSpaceOnUse">
      <stop offset="0" stop-color="#bc2d26"/>
      <stop offset="0" stop-color="#c03726"/>
      <stop offset=".1" stop-color="#cd4d26"/>
      <stop offset=".2" stop-color="#de7524"/>
      <stop offset=".2" stop-color="#e27a24"/>
      <stop offset=".3" stop-color="#ee8c1f"/>
      <stop offset=".4" stop-color="#f49622"/>
      <stop offset=".5" stop-color="#f49824"/>
      <stop offset=".6" stop-color="#f49622"/>
      <stop offset=".7" stop-color="#ee8c1f"/>
      <stop offset=".8" stop-color="#e27a24"/>
      <stop offset=".8" stop-color="#e17924"/>
      <stop offset=".8" stop-color="#d35d25"/>
      <stop offset=".9" stop-color="#c74426"/>
      <stop offset="1" stop-color="#bf3326"/>
    </radialGradient>
  </defs>
  <g id="path15">
    <path class="st0" d="M416.9,607.1v-17.8l-3.9-1.5c-9.8-3.8-19.3-8.1-28.4-13.1l-3.9-2.1-42.1,42.4c-33.9-21.3-64-51.7-91.7-92.5l41.9-42.1-2.1-3.9c-5.6-10.4-10.4-21.2-14.4-32.3l-1-2.8L20,362.2l251.4-79,1-2.8c3.9-10.8,8.6-21.5,14.1-31.7l2.1-3.9-41.9-42c23.4-35.7,54.3-66.8,91.9-92.6l42,42.2,3.9-2.1c9.1-4.9,18.7-9.3,28.5-13.1l3.9-1.5v-17.8L498.9,9.9l81.9,107.9v17.5l3.9,1.5c9.4,3.6,18.7,7.8,27.6,12.5l3.9,2.1,41.1-41.3c34.8,22.9,64.8,53,91.4,91.9l-40.1,40.3,2.2,3.9c6.1,11,11.3,22.7,15.6,34.5l1,2.8,250.3,78.7-250.2,78.9-1,2.8c-4.2,11.8-9.4,23.3-15.4,34.3l-2.2,3.9,40.3,40.5c-21.7,34.5-52.5,65.5-91.7,92.2l-41.2-41.3-3.9,2.1c-8.9,4.7-18.3,9-27.8,12.6l-3.9,1.5v17.4l-82,107.9-82-107.9Z"/>
    <path d="M498.9,19.8l75.9,100v19.6l7.8,2.9c9.2,3.5,18.2,7.6,26.9,12.2l7.9,4.2,6.3-6.3,34.5-34.7c31.2,21.3,58.4,48.7,82.8,83.5l-33.4,33.6-6.3,6.4,4.3,7.9c5.9,10.8,11.1,22.1,15.2,33.7l2,5.6,5.7,1.8,229.3,72.1-229.2,72.2-5.7,1.8-2,5.6c-4.1,11.5-9.2,22.7-15.1,33.5l-4.3,7.9,6.3,6.4,33.7,33.9c-20.3,31-48.2,59.1-83.3,83.6l-34.5-34.6-6.3-6.3-7.9,4.2c-8.7,4.6-17.8,8.8-27.1,12.3l-7.8,2.9v19.5l-76,100-76-100v-19.9l-7.7-3c-9.5-3.7-18.8-7.9-27.7-12.7l-7.9-4.3-6.3,6.4-35.5,35.7c-30.5-20-57.8-47.7-83.1-84.1l35.2-35.4,6.3-6.3-4.2-7.8c-5.4-10.1-10.2-20.7-14-31.5l-2-5.6-5.7-1.8-230.3-72.6,230.4-72.4,5.7-1.8,2-5.6c3.8-10.5,8.4-20.9,13.8-30.9l4.2-7.8-6.3-6.3-35.3-35.4c21.8-32.1,49.8-60.3,83.5-84.1l35.3,35.4,6.3,6.4,7.9-4.3c8.8-4.8,18.2-9.1,27.8-12.8l7.7-3v-19.9l76-100M498.9,0l-88,115.8v15.7c-10.1,3.9-19.8,8.3-29.2,13.4l-42.3-42.5c-41.3,27.6-74.9,61.1-100.3,101.2l42.2,42.3c-5.6,10.4-10.4,21.2-14.5,32.5L0,362.2l266.7,84.1c4.1,11.5,9.1,22.5,14.8,33.1l-42.2,42.4c28.1,42.4,61,77.1,100.3,100.8l42.2-42.5c9.4,5.1,19.1,9.5,29.1,13.4v15.7l88,115.8,88-115.8v-15.3c9.8-3.7,19.3-8,28.5-12.9l41.5,41.6c42.4-28.1,76.3-61.4,100-100.8l-40.5-40.6c6.2-11.2,11.5-23,15.8-35.2l265.5-83.7-265.6-83.5c-4.4-12.3-9.8-24.1-16-35.4l40.4-40.6c-27.6-41.3-59.9-75-99.9-100.3l-41.4,41.6c-9.1-4.8-18.6-9.1-28.3-12.8v-15.3L498.9,0h0Z"/>
  </g>
  <path id="path16" d="M499,217L35.6,362.4l463.2,145.9,463.2-145.9-463.1-145.5h0ZM108,362.4l391-123,390.8,123.1-390.9,122.2-390.9-122.2Z"/>
  <ellipse id="ellipse16" cx="498.6" cy="362.4" rx="236.2" ry="237.5"/>
  <path id="path17" d="M498.9,17.8l-77.1,102.9v484.6l77.1,101.3,77-101.3V120.1l-77-102.4h0ZM498.9,670.3l-54.6-72.3v-4.3c6.2,2.1,54,13.3,109.2.1v4.2l-54.6,72.3ZM553.5,131.3c-6.2-2.1-54-13.3-109.2-.2v-4.2l54.6-72.3,54.6,72.3v4.3Z"/>
  <path id="path18" class="st2" d="M498.9,147.2c-118.9,0-215.3,96.4-215.3,215.3s96.4,215.3,215.3,215.3,215.3-96.4,215.3-215.3-96.4-215.3-215.3-215.3h0ZM498.9,541.8c-99.1,0-179.4-80.3-179.4-179.4s80.3-179.4,179.4-179.4,179.4,80.3,179.4,179.4-80.3,179.4-179.4,179.4h0Z"/>
  <path id="path19" d="M253.1,201.3c28.4-41,50.9-60.4,84.9-84.3l404.7,406.6c-26.1,39-46.1,57.5-84.8,84.7,0,0-404.7-407.1-404.8-407h0Z"/>
  <path id="path20" d="M337.5,608.5c-41-28.4-60.4-50.9-84.4-84.9L657.7,116.9c39,26.1,57.5,46.1,84.7,84.8,0,0-405.1,406.7-405,406.8h0Z"/>
  <path id="path21" class="st1" d="M335.8,584.9c-28.4-19.7-41.5-36.1-59-59.5l382.9-385c26.4,18.1,38.6,33,59,59.8,0,0-383,384.7-382.9,384.7h0Z"/>
  <path id="path22" class="st1" d="M719.1,525.2c-17.6,25.4-32.4,38.9-59.6,59.8L276.7,199.6c17.6-24.6,31.7-37.9,59.1-60l383.2,385.6Z"/>
  <ellipse id="ellipse22" cx="498.9" cy="362.5" rx="179.4" ry="180.4"/>
  <path id="path23" class="st1" d="M360.8,341.9c94.8-95.2,187.6-94.2,276.9,1.1-15.6-79.4-77.4-121-138.7-121.4-77.2,4.2-125.9,51.9-138.2,120.3h0Z"/>
  <path id="path24" class="st1" d="M637,383.6c-94.9,95.1-187.7,94-277-1.3,15.6,79.4,76.9,120.5,138.1,120.9,77.2-4.2,126.6-51.2,138.9-119.6h0Z"/>
  <circle id="circle24" class="st2" cx="499.2" cy="362.4" r="69" transform="translate(-110 459.1) rotate(-45)"/>
  <circle id="circle25" cx="499.2" cy="362.4" r="45.2"/>
  <circle id="circle26" class="st1" cx="499.2" cy="362.4" r="33.1"/>
</svg>