<?xml version="1.0" encoding="UTF-8"?><svg id="Layer_2" xmlns="http://www.w3.org/2000/svg" width="610.63523" height="443.65714" xmlns:xlink="http://www.w3.org/1999/xlink" viewBox="0 0 610.63523 443.65714"><defs><style>.cls-1{fill:url(#radial-gradient);}.cls-2{fill:#a780b1;}.cls-3{fill:#66337a;}</style><radialGradient id="radial-gradient" cx="-.67901" cy="617.82553" fx="-.67901" fy="617.82553" r=".99984" gradientTransform="translate(95190.6361 97072.96446) rotate(-44.3358) scale(267.62628 -219.45372)" gradientUnits="userSpaceOnUse"><stop offset="0" stop-color="#612c75"/><stop offset=".3" stop-color="#7b5190"/><stop offset=".5" stop-color="#bf99c3"/><stop offset=".7" stop-color="#7b5190"/><stop offset="1" stop-color="#612c75"/></radialGradient></defs><g id="Layer_1-2"><path class="cls-1" d="M448.13086,272.91527l162.50437-51.21826-162.57169-51.102c-2.70503-7.51536-5.98534-14.75533-9.792-21.6648l24.70031-24.87781c-16.86672-25.29395-36.64044-45.86939-61.1449-61.40808l-25.33069,25.4592c-5.58144-2.96208-11.36484-5.58756-17.33797-7.84584v-9.38195L305.33903,0l-53.87436,70.87573v9.61451c-6.16284,2.36233-12.13595,5.10408-17.87651,8.21916l-25.89984-26.01612c-25.29395,16.86673-45.86941,37.41768-61.40808,61.92829l25.83251,25.89983c-3.40884,6.36481-6.37703,12.99889-8.85564,19.86553L0,221.69088l163.19591,51.43861c2.52146,7.00741,5.54472,13.77,9.03313,20.25106l-25.8264,25.95494c17.22168,25.9549,37.31363,47.19131,61.40809,61.71406l25.85087-26.03447c5.7222,3.09672,11.67695,5.83234,17.81531,8.18856v9.59003l53.84989,70.86347,53.84375-70.86347v-9.35747c6.00372-2.27053,11.82384-4.90825,17.42975-7.89481l25.41025,25.47756c25.95494-17.22169,46.67725-37.58903,61.2-61.68347l-24.76762-24.87781c3.76378-6.87275,7.0135-14.076,9.68793-21.54241Z"/><path d="M305.37575,132.80401L21.7872,221.80716l283.50288,89.31526,283.50287-89.27242-283.42332-89.046h.00613ZM66.11436,221.80716l239.27975-75.29436,239.14512,75.3372-239.21243,74.76192-239.21244-74.80477Z"/><ellipse cx="305.11259" cy="221.77044" rx="144.54826" ry="145.3561"/><path d="M305.3268,10.88137l-47.17908,62.95031v296.56296l47.16072,62.00784,47.15461-62.00784V73.51344l-47.13625-62.6382v.00613ZM305.3268,410.20523l-33.4152-44.25372v-2.66219c3.77603,1.29744,33.02964,8.13347,66.83039.08565v2.58266l-33.41518,44.24759ZM338.74198,80.37396c-3.77603-1.29744-33.02962-8.14572-66.83039-.10403v-2.58264l33.42131-44.23537,33.40908,44.25983v2.6622Z"/><path class="cls-3" d="M305.32067,90.07416c-72.76069,0-131.75136,58.98456-131.75136,131.75136s58.98456,131.75138,131.75136,131.75138,131.75138-58.98456,131.75138-131.75138-58.98456-131.75136-131.75138-131.75136ZM305.32067,331.59995c-60.63695,0-109.79279-49.15584-109.79279-109.79279s49.15584-109.79279,109.79279-109.79279,109.79281,49.15584,109.79281,109.79279-49.15584,109.79279-109.79281,109.79279Z"/><path d="M154.91556,123.18947c17.39916-25.09811,31.16304-36.94031,51.93432-51.62219l247.67026,248.83921c-15.98544,23.84962-28.23765,35.17775-51.89147,51.84862.0551-.05506-247.66415-249.12071-247.71924-249.06564h.00613Z"/><path d="M206.51939,372.38364c-25.09813-17.39916-36.94031-31.16303-51.62219-51.93431l247.63357-248.88205c23.84962,15.98545,35.15937,28.21932,51.83028,51.87312-.0551-.05508-247.89673,248.88815-247.84165,248.94325Z"/><path class="cls-2" d="M205.53408,357.98327c-17.39917-12.0625-25.42248-22.09931-36.09577-36.44459l234.31645-235.60774c16.15065,11.05883,23.64153,20.20211,36.12021,36.59759-.03672-.03672-234.37762,235.42415-234.3409,235.46087v-.00613Z"/><path class="cls-2" d="M440.08308,321.42852c-10.77731,15.53869-19.85328,23.82516-36.45684,36.59759L169.35875,122.15521c10.78956-15.04297,19.38816-23.18869,36.18144-36.72613l234.54289,235.99943Z"/><ellipse cx="305.32068" cy="221.82552" rx="109.79281" ry="110.40481"/><path class="cls-2" d="M220.77899,209.23668c58.03597-58.24403,114.79897-57.63203,169.45669.66708-9.5411-48.57444-47.39328-74.07036-84.90277-74.29067-47.22192,2.601-77.07528,31.79339-84.55392,73.62359Z"/><path class="cls-2" d="M389.85011,234.7387c-58.04818,58.23181-114.87851,57.53412-169.53012-.77109,9.52884,48.57444,47.04445,73.746,84.54781,73.96631,47.2219-2.59487,77.49144-31.365,84.98231-73.20131v.00609Z"/><circle class="cls-3" cx="305.51039" cy="221.77044" r="42.25248" transform="translate(37.66622 487.81222) rotate(-80.78252)"/><circle cx="305.51039" cy="221.77045" r="27.68688"/><circle class="cls-2" cx="305.51039" cy="221.77044" r="20.23884"/></g></svg>