<?xml version="1.0" encoding="UTF-8"?>
<svg id="Layer_1" xmlns="http://www.w3.org/2000/svg" version="1.1" xmlns:serif="http://www.serif.com/" xmlns:xlink="http://www.w3.org/1999/xlink" viewBox="0 0 612 792">
  <!-- Generator: Adobe Illustrator 29.2.1, SVG Export Plug-In . SVG Version: 2.1.0 Build 116)  -->
  <defs>
    <style>
      .st0 {
        fill: url(#radial-gradient);
      }

      .st1 {
        fill: #a780b1;
      }

      .st2 {
        fill: #66337a;
      }
    </style>
    <radialGradient id="radial-gradient" cx="0" cy="792" fx="0" fy="792" r="1" gradientTransform="translate(2376.7 2515.3) rotate(-44.3) scale(267.6 -3.7)" gradientUnits="userSpaceOnUse">
      <stop offset="0" stop-color="#612c75"/>
      <stop offset=".3" stop-color="#7b5190"/>
      <stop offset=".5" stop-color="#bf99c3"/>
      <stop offset=".7" stop-color="#7b5190"/>
      <stop offset="1" stop-color="#612c75"/>
    </radialGradient>
  </defs>
  <g>
    <path class="st0" d="M256.7,545.5v-11.2l-2.9-1.1c-5.9-2.3-11.8-5-17.3-7.9l-3-1.6-25.7,25.9c-20.3-12.9-38.3-31.1-54.9-55.5l25.6-25.7-1.6-2.9c-3.4-6.3-6.3-12.9-8.8-19.6l-.8-2.1L15.7,395.9l151.7-47.7.8-2.1c2.4-6.6,5.3-13.1,8.6-19.3l1.6-2.9-25.6-25.7c14.1-21.3,32.6-40,55.1-55.5l25.6,25.8,3-1.6c5.5-3,11.4-5.7,17.3-8l2.9-1.1v-11.2l49.4-65,49.3,65v11l2.9,1.1c5.7,2.2,11.4,4.7,16.8,7.6l2.9,1.6,25.1-25.2c20.8,13.8,38.8,31.9,54.7,55.1l-24.5,24.6,1.6,3c3.7,6.7,6.9,13.8,9.5,21l.8,2.1,151.1,47.5-151,47.6-.8,2.1c-2.6,7.2-5.7,14.2-9.4,20.9l-1.6,3,24.6,24.7c-13.1,20.6-31.5,39.2-54.9,55.2l-25.1-25.2-2.9,1.6c-5.4,2.9-11.1,5.5-16.9,7.7l-2.9,1.1v11l-49.3,64.9-49.3-64.9Z"/>
    <path d="M306,189.1l44.8,59v12.6l5.8,2.2c5.5,2.1,11,4.6,16.3,7.4l5.9,3.1,4.7-4.7,20.1-20.2c18.1,12.6,34,28.6,48.3,48.8l-19.4,19.6-4.7,4.8,3.3,5.9c3.6,6.5,6.7,13.4,9.2,20.4l1.5,4.2,4.3,1.3,135.3,42.5-135.2,42.6-4.3,1.3-1.5,4.2c-2.5,6.9-5.6,13.8-9.1,20.3l-3.2,5.9,4.7,4.8,19.7,19.8c-12,18-28.3,34.4-48.7,48.8l-20.1-20.2-4.7-4.7-5.9,3.1c-5.3,2.8-10.8,5.3-16.4,7.4l-5.8,2.2v12.5l-44.8,59-44.8-59v-12.7l-5.8-2.2c-5.8-2.2-11.4-4.8-16.8-7.7l-5.9-3.2-4.7,4.8-20.7,20.9c-17.7-11.9-33.7-28-48.5-49.2l20.6-20.7,4.7-4.7-3.2-5.9c-3.3-6.1-6.1-12.5-8.5-19l-1.5-4.2-4.3-1.3-135.9-42.8,136-42.7,4.3-1.3,1.5-4.2c2.3-6.4,5.1-12.7,8.3-18.7l3.1-5.9-4.7-4.7-20.6-20.7c12.8-18.6,29.2-35.1,48.8-49.1l20.6,20.7,4.8,4.8,5.9-3.2c5.3-2.9,11-5.5,16.8-7.7l5.8-2.2v-12.8l44.9-59M306,174.2l-53.9,70.9v9.6c-6.2,2.4-12.1,5.1-17.9,8.2l-25.9-26c-25.3,16.9-45.9,37.4-61.4,61.9l25.8,25.9c-3.4,6.4-6.4,13-8.9,19.9L.7,395.9l163.2,51.4c2.5,7,5.5,13.8,9,20.3l-25.8,26c17.2,26,37.3,47.2,61.4,61.7l25.9-26c5.7,3.1,11.7,5.8,17.8,8.2v9.6l53.8,70.9,53.8-70.9v-9.4c6-2.3,11.8-4.9,17.4-7.9l25.4,25.5c26-17.2,46.7-37.6,61.2-61.7l-24.8-24.9c3.8-6.9,7-14.1,9.7-21.5l162.5-51.2-162.6-51.1c-2.7-7.5-6-14.8-9.8-21.7l24.7-24.9c-16.9-25.3-36.6-45.9-61.1-61.4l-25.3,25.5c-5.6-3-11.4-5.6-17.3-7.8v-9.4l-53.8-70.9h0Z"/>
  </g>
  <path d="M306.1,307L22.5,396l283.5,89.3,283.5-89.3-283.4-89h0ZM66.8,396l239.3-75.3,239.1,75.3-239.2,74.8-239.2-74.8Z"/>
  <ellipse cx="305.8" cy="395.9" rx="144.5" ry="145.4"/>
  <path d="M306,185.1l-47.2,63v296.6l47.2,62,47.2-62V247.7l-47.1-62.6h0ZM306,584.4l-33.4-44.3v-2.7c3.8,1.3,33,8.1,66.8,0v2.6l-33.4,44.2ZM339.4,254.5c-3.8-1.3-33-8.1-66.8-.1v-2.6l33.4-44.2,33.4,44.3v2.7Z"/>
  <path class="st2" d="M306,264.2c-72.8,0-131.8,59-131.8,131.8s59,131.8,131.8,131.8,131.8-59,131.8-131.8-59-131.8-131.8-131.8ZM306,505.8c-60.6,0-109.8-49.2-109.8-109.8s49.2-109.8,109.8-109.8,109.8,49.2,109.8,109.8-49.2,109.8-109.8,109.8Z"/>
  <path d="M155.6,297.4c17.4-25.1,31.2-36.9,51.9-51.6l247.7,248.8c-16,23.8-28.2,35.2-51.9,51.8,0,0-247.7-249.1-247.7-249.1h0Z"/>
  <path d="M207.2,546.6c-25.1-17.4-36.9-31.2-51.6-51.9l247.6-248.9c23.8,16,35.2,28.2,51.8,51.9,0,0-247.9,248.9-247.8,248.9Z"/>
  <path class="st1" d="M206.2,532.2c-17.4-12.1-25.4-22.1-36.1-36.4l234.3-235.6c16.2,11.1,23.6,20.2,36.1,36.6,0,0-234.4,235.4-234.3,235.5h0Z"/>
  <path class="st1" d="M440.8,495.6c-10.8,15.5-19.9,23.8-36.5,36.6l-234.3-235.9c10.8-15,19.4-23.2,36.2-36.7l234.5,236Z"/>
  <ellipse cx="306" cy="396" rx="109.8" ry="110.4"/>
  <path class="st1" d="M221.5,383.4c58-58.2,114.8-57.6,169.5.7-9.5-48.6-47.4-74.1-84.9-74.3-47.2,2.6-77.1,31.8-84.6,73.6Z"/>
  <path class="st1" d="M390.5,408.9c-58,58.2-114.9,57.5-169.5-.8,9.5,48.6,47,73.7,84.5,74,47.2-2.6,77.5-31.4,85-73.2h0Z"/>
  <circle class="st2" cx="306.2" cy="395.9" r="42.3" transform="translate(-133.7 634.8) rotate(-80.8)"/>
  <circle cx="306.2" cy="395.9" r="27.7"/>
  <circle class="st1" cx="306.2" cy="395.9" r="20.2"/>
</svg>