<?xml version="1.0" encoding="UTF-8"?><svg id="Layer_2" xmlns="http://www.w3.org/2000/svg" width="668.46292" height="798.90093" xmlns:xlink="http://www.w3.org/1999/xlink" viewBox="0 0 668.46292 798.90093"><defs><style>.cls-1{fill:#b7281b;}.cls-2{fill:#fff;}.cls-3{fill:url(#linear-gradient);}</style><linearGradient id="linear-gradient" x1="37.48872" y1="442.11493" x2="630.76739" y2="442.11493" gradientUnits="userSpaceOnUse"><stop offset=".02448" stop-color="#b7281b"/><stop offset=".06108" stop-color="#bf3817"/><stop offset=".1869" stop-color="#db6b0a"/><stop offset=".28199" stop-color="#ed8b02"/><stop offset=".33463" stop-color="#f49700"/><stop offset=".59" stop-color="#f49700"/><stop offset=".655" stop-color="#f19201"/><stop offset=".73095" stop-color="#e98304"/><stop offset=".8124" stop-color="#dc6c0a"/><stop offset=".89712" stop-color="#ca4b12"/><stop offset=".97345" stop-color="#b7281b"/></linearGradient></defs><g id="Layer_2_copy_2"><path id="path9" d="M667.71822,347.30718c-22.54999-17.08002-44.75-33.83997-66.62-50.28998-.10999-.08002-.20001-.17999-.26001-.31-.17999-.39001-.06-.85004.30005-1.10004,14.16998-9.79999,29.03998-18.26996,44.60999-25.39996,5.52002-2.52002,11.04999-5.01001,16.59998-7.46002.23999-.09998.44-.27002.59003-.46997.58997-.79004.58002-1.57001-.03003-2.32001-34.69-43.45001-68.57001-85.96002-101.63-127.54004-9.98999-12.57996-20.29999-25.37-30.92999-38.37-3.32996-4.08997-6.56-8.16998-9.66998-12.25-.41998-.54999-1.17999-.70996-1.78003-.37-6.46997,3.59003-13.06995,7.17999-19.77997,10.77002-6.42999,3.42999-12.38,6.31-17.85999,8.63-20.21002,8.54999-40.62,14.79999-61.23999,18.73999-4.02002.77002-10.64001,1.75-19.87006,2.94-4.72998.42999-9.62.90002-14.31.91998-7.39996.27002-11.44995-.32996-13.00995-8.17999-2.30005-9.12-5.28003-20.19-8.63-32.04999-1.75-5.72003-3.52002-11.69-5.23004-17.54999-.95996-3.27002-2.02997-6.54004-3.20996-9.81-1.03003-2.85004-1.98999-5.70001-2.88-8.53003-.92999-2.95001-1.87-5.72998-2.84003-8.33997-4.72998-12.77002-9.87-25.37-15.39996-37.79004-.09739-.22397-.53224-1.17717-.53224-1.17717,0,0-.42032.96117-.5178,1.19719-2.35999,5.65002-4.87994,11.5-7.56995,17.57001-2.16003,4.89001-4.46002,10.71997-6.91003,17.48999-2.45001,6.78003-4.64996,13.5-6.59998,20.15002-.22003.75-.46002,1.50995-.73004,2.29999-6.38,19.08002-11.97998,38.52997-16.81,58.35999-1.07001,5.78998-2.83997,6.10999-8.29999,6.14001-6.57001.02997-11.62-.29999-17.09998-.67999-33.34003-3.34003-64.83002-12.59003-95.52002-27.84003-7.73999-3.84998-13.27002-6.76001-16.59998-8.73999-2.58002-1.53003-5.12-2.96002-7.62-4.28003-.89001-.47998-1.99005-.25-2.62.54004L5.50826,259.65721c-1.16998,1.46997-.90002,2.57996.82001,3.33997,6.12,2.71002,12.20001,5.45001,18.23999,8.22998,14.22998,6.55005,28.37,14.64001,42.44,24.29004.5.33997.51001,1.07001.02997,1.42999-21.48999,16.26001-43.37994,32.77002-65.64996,49.52997-.22003.17004-.47003.35004-.76001.54004-.65997.45001-.79999,1.07001-.41998,1.87.17999.35999.5.64001.89001.75,6.96997,1.98999,13.87,4.10999,20.70996,6.34998,12.45001,4.07001,23.67999,9.37,33.70001,15.89001,8.53998,5.54999,17.27997,12.64001,26.22998,21.27002,4.09003,3.95001,8.04999,8.33997,11.87,13.16998,4.02002,5.08002,7.52002,9.73999,10.48999,13.97998,13.63,19.42999,24.78003,41.5,33.45001,66.23004,5.14001,14.64996,8.34003,24.51996,9.59003,29.59998,2.75,11.09003,5.34998,21.88,7.82001,32.34998.19995.85004-.20001,1.72003-.97003,2.12006-2.90997,1.53998-26.28998,14.31-27.82001,15.25995-.77002.48004-1.12,1.43005-.83002,2.30005l1.48004,4.42999c.04999.15997.67999,1.92999.72998,2.09998l21.53998,66.47003c.49005,1.50995,1.46002,1.94995,2.92004,1.31995l12.83997-5.53998c.76001-.33002,1.60004.22003,1.62,1.03998.07001,2.91003.20001,12.41003.53003,16.37006.17999,14.60999,1,25.66998.83997,29,8.26001-.77002,15.04004-1.24005,22.36005-1.16003,14.02997.42999,28.78998,1.29999,42.26996,4.06,12.31,2.22003,24.11005,5.82001,35.40002,10.81,8.14001,3.60004,15.42999,8.39001,22.46997,13.54004.78003.56995,1.17004,1.32996,1.16003,2.29999-.06,4.35999-.04999,8.59998.02997,12.70996.04004,2.02002-.26996,4.05005-.94,6.10004-3.22998,9.90997-6.33997,19.83002-9.33997,29.75-.23999.79999-.53003,1.57001-.87,2.29999-.12.25-.16003.53998-.10999.81.06995.40002-.01001.73999-.24005,1.02002-.13.14996-.22998.32996-.28998.52997l-2.01001,6.57001c-.20001.66003.13,1.35999.76001,1.64001,16.08002,7.10999,33.98999,15.14996,53.73999,24.12,1.22003.54999,2.34003.59998,3.35999.15002,18.94-8.46002,36.99005-16.61005,54.16003-24.45001.72998-.34003,1.02002-.90002.85999-1.69-.23999-1.16998-.53998-2.32001-.89996-3.45001-2.96002-9.21997-11.06006-33.96002-11.57001-35.59998-.67999-2.16003-1.25-4.34003-1.22003-6.68005.07001-4.75.09003-9.51996.04004-14.32996-.01001-.79004.29999-1.42999.90997-1.90002,7.96002-6.09998,16.41998-11.20001,25.83002-15.08002,9.54999-3.92999,19.52997-6.89996,29.91998-8.92999,12.69-2.48999,43.19-5.90997,66.79999-3.13,0-5.32996,1.44-44.03998,1.39001-45.32996-.04999-1.07001.42999-1.40002,1.41998-.98999,3.23004,1.32996,6.56,2.76996,10,4.31995,1.58002.71002,3.01001.93005,4.69,1.13.48999.06.97003-.22998,1.13-.70996,8.48999-24.98999,16.52002-49.51001,24.10999-73.54004.31-.98999-.12-2.07001-1.02997-2.57996-8.78003-4.89001-17.67999-9.88-26.69-14.97003-1.33002-.75-1.84003-1.90997-1.51001-3.46002,5.56-26.32996,13.28998-51.78998,23.19-76.39996,4.40002-10.94,9.90002-21.89001,15.66998-32.20001,6.25-11.15002,13.35004-21.69,21.32001-31.60999,5.63-7,12.32001-13.76001,18.87-19.81,15.27002-14.10999,32.83002-24.44,52.67999-30.98004,6.16003-2.02997,12.90002-4.15997,20.23004-6.38995.51996-.16003,1.03998-.35004,1.57001-.56,1.25-.5,1.32996-1.16003.25995-1.97003ZM333.57826,59.59722c.09998-.31.25995-.57001.46997-.80005.10999-.10999.29999-.07001.34998.08002,16.96002,52.23999,29.64001,107.21002,39.16003,161.01001,15.37,86.84998,25.21997,175.94,29.57001,267.26001.01001.17999-.19.28998-.34003.20001l-58.76996-34.19c-.27002-.16003-.41003-.40002-.43005-.71002-3.12994-52.15002-6.22998-104.34998-9.31995-156.59003-.01001-.08997-.06-.13-.15002-.13-.07001,0-.10999.04004-.12.11005-3.14001,52.25-6.28998,104.51001-9.44,156.77997,0,.19-.12.37-.28998.47003l-58.73004,34.19c-.32996.19995-.48999.10999-.47998-.28003,3.71002-78.09998,11.5-154.88,23.37-230.33997,10.46997-66.55005,24.65002-132.74005,45.15002-197.06ZM313.09822,680.58721h41.88c.23004,0,.41998.19.41998.41998v12.09998c0,.23004-.18994.42004-.41998.42004h-41.88c-.22998,0-.41998-.19-.41998-.42004v-12.09998c0-.22998.19-.41998.41998-.41998ZM312.67824,666.12718v-11.29999c0-.25.21002-.46002.46002-.46002h41.79999c.25,0,.45996.21002.45996.46002v11.29999c0,.25-.20996.46002-.45996.46002h-41.79999c-.25,0-.46002-.21002-.46002-.46002ZM313.08821,707.42717h41.92004c.22998,0,.40997.17999.40997.41003v11.38c0,.22998-.17999.40997-.40997.40997h-41.92004c-.22998,0-.40997-.17999-.40997-.40997v-11.38c0-.23004.17999-.41003.40997-.41003ZM284.29824,633.43718c-.41998,0-.65002-.21002-.70001-.63-1.01996-10.08997-2.81-19.63-5.38-28.60999-7.82001-27.40002-20.75995-54-36.02997-77.67999-.37-.58002-.17999-1.35004.40997-1.69l77.37-44.97998c.32001-.18005.71002.04999.71002.41998v36.78998c0,.35004-.15997.58002-.48999.70001-19.21002,6.92999-30.69,24.56-29.29004,44.84003,1.61005,23.22998,22.08002,41.42999,45.40002,40.16998,24.92999-1.35004,43.32001-23.35004,40.91003-48.02002-1.66003-17.10999-13.07001-31.32001-29.27002-37.02002-.28003-.09998-.41003-.28998-.41003-.57996v-37.08002c0-.27002.29004-.42999.52002-.29999,25.65002,14.89996,50.42999,29.31,74.35999,43.23999,1.20001.70001,2.41003,1.46002,3.63,2.28003.29004.19995.37.59998.17999.89996-14.13,22-25.08997,44.34003-32.87,67.02002-4.52997,13.21997-7.47998,26.52997-8.87,39.92999-.01996.19-.17999.33002-.37.33002l-99.81-.03003ZM311.50826,560.12718c-.02002-.33997-.03003-.67999-.03003-1.02997,0-.35004.01001-.69.03003-1.03003,0-.10999.01001-.21997.01996-.33002q-.00995-.01001,0-.01996v-.01001c-.00995-.02002-.00995-.04004,0-.06.01001-.29004.04004-.58002.07001-.85999.02002-.27002.04999-.53003.10004-.79004q-.01001-.01001,0-.02002c.02997-.20996.06-.39996.08997-.59998.02002-.16998.04999-.33002.09003-.5.02997-.16998.06-.33997.09998-.5.12-.62.28003-1.22998.47003-1.83002.06-.19.12-.38.17999-.56.04999-.17999.12-.37.19-.56.08997-.25.17999-.48999.27997-.72998.10004-.26001.21002-.52002.33002-.78003.07001-.16998.14001-.33997.22998-.50995.07001-.16003.15002-.32001.23999-.48004.09003-.20001.20001-.40997.31006-.60999.34998-.64001.71997-1.26001,1.12994-1.87.20001-.29999.41003-.59003.64001-.88.40002-.53998.82001-1.06,1.28003-1.56.12-.14001.25-.27002.37-.40002.26996-.29999.56-.58997.85999-.85999.22003-.21997.45001-.42999.67999-.63.08002-.07996.16003-.14001.23999-.20996.19-.16003.38-.32001.57001-.47003.40002-.33002.82001-.64001,1.25-.92999.29999-.21002.60004-.40997.91003-.59998.16998-.11005.34998-.22003.52997-.32001.78003-.47003,1.60004-.88,2.45001-1.23999.27997-.12006.56-.24005.84998-.35004.17999-.07001.36005-.14001.54004-.20001.27997-.10999.57001-.19995.85999-.28998.28998-.09998.59003-.17999.89001-.26001.01996-.01001.02997-.01001.04999-.01001.12-.02997.23999-.06.37-.08997.03003-.02002.06-.02002.09998-.03003.14001-.02997.27002-.07001.40002-.08997.39001-.09003.78998-.17004,1.20001-.23004.09998-.01996.20996-.03998.31-.04999.70996-.10999,1.42999-.19,2.16998-.21997.09003-.01001.17999-.01001.26001-.01001.32001-.02002.64001-.03003.96997-.03003,12.49005,0,22.61005,10.12,22.61005,22.61005s-10.12,22.60999-22.61005,22.60999c-.32996,0-.64996-.01001-.96997-.03003-.08002,0-.16998,0-.26001-.01001-.73999-.02997-1.46002-.10999-2.16998-.21997-.10004-.01001-.21002-.03003-.31-.04999-.41003-.06-.81-.14001-1.20001-.23004-.13-.01996-.26001-.06-.40002-.08997-.07996-.02002-.14996-.03003-.22998-.06-.08002-.01001-.15997-.03003-.23999-.06-.60999-.16003-1.21002-.34003-1.79999-.56-.17999-.06-.36005-.13-.54004-.20001-.28998-.10999-.57001-.22998-.84998-.34998-.84998-.36005-1.66998-.77002-2.45001-1.24005-.17999-.09998-.35999-.20996-.52997-.31995-.31-.19-.61005-.39001-.91003-.60004-.42999-.28998-.84998-.59998-1.25-.92999-.19-.15002-.38-.31-.57001-.46997-.07996-.07001-.15997-.13-.23999-.21002-.22998-.20001-.45996-.41003-.67999-.63-.29999-.27002-.59003-.56-.85999-.85999-.12-.13-.25-.26001-.37-.40002-.46002-.5-.88-1.02002-1.28003-1.56-.22998-.28998-.44-.58002-.64001-.88-.40997-.60999-.77997-1.22998-1.12994-1.87-.11005-.20001-.22003-.40997-.31006-.60999-.08997-.16003-.16998-.32001-.23999-.47998-.08997-.17004-.15997-.34003-.22998-.51001-.12-.25-.22998-.52002-.33002-.78003-.12-.28998-.22998-.58997-.33997-.89001-.11005-.29999-.21002-.60999-.29999-.90997-.09003-.31-.19-.63-.27002-.95001-.06-.25-.12-.5-.16998-.76001-.04004-.16998-.08002-.34998-.11005-.51996-.01996-.08002-.03998-.17004-.04999-.25-.03998-.16003-.06-.31-.08997-.48004-.01001-.07996-.02002-.15997-.04004-.22998-.04999-.35999-.09998-.72998-.13-1.09998-.02997-.28003-.06-.57001-.07001-.86005-.00995-.01996-.00995-.03998,0-.06v-.01001q-.00995-.00995,0-.01996c-.00995-.10999-.01996-.22003-.01996-.33002ZM137.48824,433.59722c-7.26001-13.62006-16.12-26.97003-26.57001-40.05005-17.98999-22.50995-39.97998-39.83997-65.96997-52-.25-.12-.28998-.45996-.07001-.63l41.45996-31.27997c.09003-.07001.21002-.07001.29004,0,21.98999,17.52997,40.08997,38.39001,54.27997,62.59998,7.88,13.85004,13.95001,28.44,18.21002,43.78003.02002.08997.07001.14001.15002.14001.01996,0,.03998,0,.06-.01001.10999-.03003.14996-.10004.13-.21002-6.41003-35.85999-22.68005-68.46997-46.71002-97.03998-11.87-14.17004-24.97998-27.08002-39.33002-38.73004-11.42999-9.28998-23.37-17.77997-35.81-25.44995-.13-.08002-.15997-.25-.06-.37l37.22003-46.78003,53.27997-66.96997.01001.00995,25.46002-32.00995c.16998-.21002.37994-.25.60999-.12006,12.76996,7.02002,26.01001,13.12006,39.70996,18.29004,30.02002,11.15997,61.61005,17.72998,93.79004,17.98999.44.01001.76996.41998.66998.84998-4.28998,18.83002-8.07001,36.81-11.32001,53.96002-.07001.34998-.26996.53003-.62.56-.92999.04999-1.84998.04999-2.76001,0-26.51996-1.66998-52.88995-8.02002-77.79999-17.02997-13.19-4.71002-26.02997-10.10004-38.52002-16.18005-.31995-.15997-.71997-.06-.92999.23004l-31.26001,42.22998-23.98999,32.71002c-.48999.66998-.38,1.21997.33002,1.64996,5.81,3.47003,11.31,7.5,16.48999,12.07001,24.46002,22.23004,43.91998,49.77002,58.79004,79.29004,27.39996,54.37994,40.77997,116.32996,43.34998,177.91998.02002.45001-.16998.78998-.56,1.01001l-44.35004,24.84998c-.25.14001-.56995-.01001-.62994-.28998-7.62006-36.37-19.54004-72.19-37.03003-104.98999ZM175.81826,609.03722c.01001.25995-.15002.48999-.39001.58997l-12.10999,5.01001c-.29004.12-.62-.03003-.72003-.33002l-11.95996-36.92999c-.10004-.33002.02997-.67999.32996-.84998l72.11005-40.48999c.14996-.08002.33997-.04004.42999.09998,9.03998,14.16998,16.85999,28.60999,23.46997,43.32001.14001.32001-.01001.70001-.33997.83002l-20.83002,8.54999c-.21002.07996-.44.02997-.59998-.13l-14.76001-15.48004c-.22003-.22998-.57001-.29999-.86005-.16998l-33.65997,15.42999c-.59003.27002-.87.73004-.84998,1.38l.73999,19.17004ZM291.85823,684.8972c0,.51001-.21997.64001-.66998.37-29.64001-17.90002-66.94-24.48999-101.79004-24.34003-.42999,0-.66998-.21997-.66998-.64996-.21997-10.87-.72998-21.63-1.51996-32.26001-.03003-.35999.17999-.70001.51996-.84003l8.90002-3.52997c.33997-.14001.53998-.47003.53998-.83002l-.71997-20.17999c-.01001-.29999.12-.51001.38995-.64001l7.83002-3.64001c.39001-.19.73999-.12,1.04004.20001l13.98999,14.75c.31.33002.78998.42999,1.19995.26001l33.53003-13.85999c.20001-.08002.42999.01996.51001.21997,6.35999,17.59003,9.12,35.5,8.28998,53.73004-.01996.46997.20001.69995.66998.70996h27.46002c.33002,0,.48999.16003.5.48999v30.04004ZM364.63826,762.2072l-30.26001,13.56c-.16003.08002-.35999.08002-.52002,0l-30.22998-13.57001c-.29999-.13-.44-.46002-.34003-.78003l6.51001-20.26996c.08002-.26001.33002-.44.60999-.44l47.42999-.04999c.28003,0,.53003.17999.61005.44l6.52997,20.32996c.10004.32001-.04999.65002-.33997.78003ZM479.37825,660.58721c-.01001.15997-.14001.28998-.31.28998-35.31.09003-72.07001,6.28998-102.42999,24.60999-.21002.13-.31.07001-.31-.17999l-.08002-30.39996c0-.36005.17999-.54004.53998-.55005h27.53003c.42999,0,.64996-.21997.64996-.64996.05005-6.34003-.16998-13.08002.46002-19.40002,1.15002-11.46997,3.77002-22.96997,7.85999-34.5.04999-.14996.22003-.21997.37-.15997l33.51001,13.88c.47998.19995,1.02002.07996,1.38-.29004l14.06-14.75c.25-.26996.54999-.32001.88-.16998l7.81,3.63c.33002.15997.53998.5.53003.87l-.77002,19.81c-.02002.47003.26001.91003.70001,1.09003l8.32996,3.40997c.55005.22003.80005.63.77002,1.22003l-1.47998,32.23999ZM517.31826,576.56719c.26996.15002.39001.47003.29999.77002l-11.94,37.07001c-.09003.25995-.38.39996-.64001.28998l-12.02997-4.97998c-.39001-.16003-.56-.45001-.56-.87l.69-19.04004c.01996-.60999-.25-1.03998-.80005-1.28998l-33.75995-15.5c-.24005-.10999-.53003-.06-.72003.14001l-14.90997,15.54999c-.17004.17999-.38.21997-.61005.13l-20.92999-8.61005c-.28998-.10999-.41998-.44995-.28998-.72998,6.87-15.08997,14.72998-29.54999,23.59998-43.37.09003-.14001.27002-.17999.41003-.09998l72.19,40.53998ZM623.29824,341.58721c-21.83997,10.07001-40.98999,24.07996-57.46002,42.02997-16.87994,18.77002-30.69995,39.69-41.44995,62.77002-1.74005,3.73999-3.52002,7.46997-5.35004,11.19-10.95001,26.15997-19.39996,53.16998-25.34998,81.02997-.03003.11005-.07001.20001-.10999.28003-.08002.15002-.28003.21002-.43005.12l-44.56-25.08002c-.16998-.08997-.25-.22998-.23999-.41998,1.41003-41.81,8.28003-82.72998,20.61005-122.75,5.06995-16.47998,11.82996-33.40997,20.26996-50.78998,5.59003-11.42999,11.78003-22.47003,18.59003-33.14001,10.42999-16.35004,22.46997-31.35004,36.14001-45.02002,7.00995-7.08002,14.71997-13.19,23.10999-18.33997.37-.23004.45996-.72003.20996-1.06l-28.56-38.84003-26.59998-36.19c-.33002-.45001-.92999-.58997-1.42999-.34998-11.39001,5.54999-23,10.5-34.81,14.83997-26.66003,10-55.35999,17.04004-83.87,18.38-.23999.01001-.46002-.14996-.51001-.39001l-11.44-54.63995c-.07001-.33002.07001-.5.40002-.5,30.87.06,62.25-6.42999,91.14996-16.99005v-.00995c14.45001-5.27002,28.57001-11.67004,42.38-19.22003.28998-.15997.65997-.08997.87.17999l22.10004,27.88,42.5,53.44,51.18994,64.25c.19.22998.15002.41998-.09998.57001-13.31,8.04999-25.94,17.09003-37.88,27.09998-5.14996,4.32001-10.12,8.72003-14.90997,13.21002-10.87,10.31-20.87,21.46002-30.02002,33.46002-4.23999,5.60999-8.27997,11.51996-12.10999,17.72998-13.29004,21.48999-22.25,44.66998-26.89001,69.53003-.02997.15997.03003.25995.17999.28998h.01001c.15997.03998.26001-.02002.29999-.16998,2.15002-8.5,4.98004-16.77002,8.47003-24.82001,10.59998-23.67999,25.15997-44.73999,43.69-63.17004,6.25995-6.5,12.88995-12.58997,19.88-18.27997.19-.14001.44995-.14001.64996,0l41.46002,31.19c.25.17999.20001.57001-.08002.70001Z"/><path class="cls-3" d="M630.54824,254.81719c-13.31,8.04999-25.94,17.09003-37.88,27.09998-5.14996,4.32001-10.12,8.72003-14.90997,13.21002-10.87,10.31-20.87,21.46002-30.02002,33.46002-4.23999,5.60999-8.27997,11.51996-12.10999,17.72998-13.29004,21.48999-22.25,44.66998-26.89001,69.53003-.02997.15997.03003.25995.17999.28998h.01001c.15997.03998.26001-.02002.29999-.16998,2.15002-8.5,4.98004-16.77002,8.47003-24.82001,10.59998-23.67999,25.15997-44.73999,43.69-63.17004,6.25995-6.5,12.88995-12.58997,19.88-18.27997.19-.14001.44995-.14001.64996,0l41.46002,31.19c.25.17999.20001.57001-.08002.70001-21.83997,10.07001-40.98999,24.07996-57.46002,42.02997-16.87994,18.77002-30.69995,39.69-41.44995,62.77002-1.74005,3.73999-3.52002,7.46997-5.35004,11.19-10.95001,26.15997-19.39996,53.16998-25.34998,81.02997-.03003.11005-.07001.20001-.10999.28003-.08002.15002-.28003.21002-.43005.12l-44.56-25.08002c-.16998-.08997-.25-.22998-.23999-.41998,1.41003-41.81,8.28003-82.72998,20.61005-122.75,5.06995-16.47998,11.82996-33.40997,20.26996-50.78998,5.59003-11.42999,11.78003-22.47003,18.59003-33.14001,10.42999-16.35004,22.46997-31.35004,36.14001-45.02002,7.00995-7.08002,14.71997-13.19,23.10999-18.33997.37-.23004.45996-.72003.20996-1.06l-28.56-38.84003-26.59998-36.19c-.33002-.45001-.92999-.58997-1.42999-.34998-11.39001,5.54999-23,10.5-34.81,14.83997-26.66003,10-55.35999,17.04004-83.87,18.38-.23999.01001-.46002-.14996-.51001-.39001l-11.44-54.63995c-.07001-.33002.07001-.5.40002-.5,30.87.06,62.25-6.42999,91.14996-16.99005v-.00995c14.45001-5.27002,28.57001-11.67004,42.38-19.22003.28998-.15997.65997-.08997.87.17999l22.10004,27.88,42.5,53.44,51.18994,64.25c.19.22998.15002.41998-.09998.57001ZM517.31826,576.56719l-72.19-40.53998c-.14001-.08002-.32001-.04004-.41003.09998-8.87,13.82001-16.72998,28.28003-23.59998,43.37-.13.28003,0,.62.28998.72998l20.92999,8.61005c.23004.08997.44.04999.61005-.13l14.90997-15.54999c.19-.20001.47998-.25.72003-.14001l33.75995,15.5c.55005.25.82001.67999.80005,1.28998l-.69,19.04004c0,.41998.16998.70996.56.87l12.02997,4.97998c.26001.10999.54999-.03003.64001-.28998l11.94-37.07001c.09003-.29999-.03003-.62-.29999-.77002ZM480.08821,627.12718l-8.32996-3.40997c-.44-.17999-.72003-.62-.70001-1.09003l.77002-19.81c.00995-.37-.20001-.71002-.53003-.87l-7.81-3.63c-.33002-.15002-.63-.09998-.88.16998l-14.06,14.75c-.35999.37-.90002.48999-1.38.29004l-33.51001-13.88c-.14996-.06-.32001.01001-.37.15997-4.08997,11.53003-6.70996,23.03003-7.85999,34.5-.63,6.32001-.40997,13.06-.46002,19.40002,0,.42999-.21997.64996-.64996.64996h-27.53003c-.35999.01001-.53998.19-.53998.55005l.08002,30.39996c0,.25.09998.31.31.17999,30.35999-18.32001,67.12-24.51996,102.42999-24.60999.16998,0,.29999-.13.31-.28998l1.47998-32.23999c.03003-.59003-.21997-1-.77002-1.22003ZM354.93825,654.36717h-41.79999c-.25,0-.46002.21002-.46002.46002v11.29999c0,.25.21002.46002.46002.46002h41.79999c.25,0,.45996-.21002.45996-.46002v-11.29999c0-.25-.20996-.46002-.45996-.46002ZM354.97823,680.58721h-41.88c-.22998,0-.41998.19-.41998.41998v12.09998c0,.23004.19.42004.41998.42004h41.88c.23004,0,.41998-.19.41998-.42004v-12.09998c0-.22998-.18994-.41998-.41998-.41998ZM355.00826,707.42717h-41.92004c-.22998,0-.40997.17999-.40997.41003v11.38c0,.22998.17999.40997.40997.40997h41.92004c.22998,0,.40997-.17999.40997-.40997v-11.38c0-.23004-.17999-.41003-.40997-.41003ZM364.97823,761.42717l-6.52997-20.32996c-.08002-.26001-.33002-.44-.61005-.44l-47.42999.04999c-.27997,0-.52997.17999-.60999.44l-6.51001,20.26996c-.09998.32001.04004.65002.34003.78003l30.22998,13.57001c.16003.08002.35999.08002.52002,0l30.26001-13.56c.28998-.13.44-.46002.33997-.78003ZM426.03823,525.28722c-1.21997-.82001-2.42999-1.58002-3.63-2.28003-23.92999-13.92999-48.70996-28.34003-74.35999-43.23999-.22998-.13-.52002.02997-.52002.29999v37.08002c0,.28998.13.47998.41003.57996,16.20001,5.70001,27.60999,19.91003,29.27002,37.02002,2.40997,24.66998-15.98004,46.66998-40.91003,48.02002-23.32001,1.26001-43.78998-16.94-45.40002-40.16998-1.39996-20.28003,10.08002-37.91003,29.29004-44.84003.33002-.12.48999-.34998.48999-.70001v-36.78998c0-.37-.39001-.60004-.71002-.41998l-77.37,44.97998c-.58997.33997-.77997,1.10999-.40997,1.69,15.27002,23.67999,28.20996,50.27997,36.02997,77.67999,2.57001,8.97998,4.36005,18.52002,5.38,28.60999.04999.41998.28003.63.70001.63l99.81.03003c.19,0,.35004-.14001.37-.33002,1.39001-13.40002,4.34003-26.71002,8.87-39.92999,7.78003-22.67999,18.73999-45.02002,32.87-67.02002.19-.29999.11005-.70001-.17999-.89996ZM246.97823,579.4572c-6.60999-14.71002-14.42999-29.15002-23.46997-43.32001-.09003-.14001-.28003-.17999-.42999-.09998l-72.11005,40.48999c-.29999.16998-.42999.51996-.32996.84998l11.95996,36.92999c.10004.29999.42999.45001.72003.33002l12.10999-5.01001c.23999-.09998.40002-.33002.39001-.58997l-.73999-19.17004c-.02002-.64996.25995-1.10999.84998-1.38l33.65997-15.42999c.29004-.13.64001-.06.86005.16998l14.76001,15.48004c.15997.15997.38995.20996.59998.13l20.83002-8.54999c.32996-.13.47998-.51001.33997-.83002ZM291.35823,654.36717h-27.46002c-.46997-.01001-.68994-.23999-.66998-.70996.83002-18.23004-1.92999-36.14001-8.28998-53.73004-.08002-.20001-.31-.29999-.51001-.21997l-33.53003,13.85999c-.40997.16998-.88995.07001-1.19995-.26001l-13.98999-14.75c-.30005-.32001-.65002-.39001-1.04004-.20001l-7.83002,3.64001c-.26996.13-.39996.34003-.38995.64001l.71997,20.17999c0,.35999-.20001.69-.53998.83002l-8.90002,3.52997c-.33997.14001-.54999.48004-.51996.84003.78998,10.63,1.29999,21.39001,1.51996,32.26001,0,.42999.23999.64996.66998.64996,34.85004-.14996,72.15002,6.44,101.79004,24.34003.45001.27002.66998.14001.66998-.37v-30.04004c-.01001-.32996-.16998-.48999-.5-.48999ZM287.62825,144.75719c-32.17999-.26001-63.77002-6.83002-93.79004-17.98999-13.69995-5.16998-26.94-11.27002-39.70996-18.29004-.23004-.12994-.44-.08997-.60999.12006l-25.46002,32.00995-.01001-.00995-53.27997,66.96997-37.22003,46.78003c-.09998.12-.07001.28998.06.37,12.44,7.66998,24.38,16.15997,35.81,25.44995,14.35004,11.65002,27.46002,24.56,39.33002,38.73004,24.02997,28.57001,40.29999,61.17999,46.71002,97.03998.01996.10999-.02002.17999-.13.21002-.02002.01001-.04004.01001-.06.01001-.08002,0-.13-.05005-.15002-.14001-4.26001-15.34003-10.33002-29.92999-18.21002-43.78003-14.19-24.20996-32.28998-45.07001-54.27997-62.59998-.08002-.07001-.20001-.07001-.29004,0l-41.45996,31.27997c-.21997.17004-.17999.51001.07001.63,25.98999,12.16003,47.97998,29.49005,65.96997,52,10.45001,13.08002,19.31,26.42999,26.57001,40.05005,17.48999,32.79999,29.40997,68.62,37.03003,104.98999.06.27997.37994.42999.62994.28998l44.35004-24.84998c.39001-.22003.58002-.56.56-1.01001-2.57001-61.59003-15.95001-123.54004-43.34998-177.91998-14.87006-29.52002-34.33002-57.06-58.79004-79.29004-5.17999-4.57001-10.67999-8.59998-16.48999-12.07001-.71002-.42999-.82001-.97998-.33002-1.64996l23.98999-32.71002,31.26001-42.22998c.21002-.29004.61005-.39001.92999-.23004,12.49005,6.08002,25.33002,11.47003,38.52002,16.18005,24.91003,9.00995,51.28003,15.35999,77.79999,17.02997.91003.04999,1.83002.04999,2.76001,0,.35004-.02997.54999-.21002.62-.56,3.25-17.15002,7.03003-35.13,11.32001-53.96002.09998-.42999-.22998-.83997-.66998-.84998Z"/><path id="path10" class="cls-2" d="M334.27126,295.85569c-.01001-.09-.06-.13-.14999-.13h0c-.07001,0-.10999.04001-.12.10999-3.14001,52.25-6.29001,104.51001-9.44,156.78,0,.19-.12.37-.29001.47l-58.73001,34.19c-.32999.20001-.48999.10999-.48001-.28,3.70999-78.10001,11.5-154.88,23.37-230.34,10.47-66.55,24.64999-132.74001,45.14999-197.06.10001-.31.26001-.57.47-.8.10999-.11.29999-.07.35001.08,16.95999,52.24,29.64001,107.21,39.16,161.00999,15.37,86.84999,25.22,175.94002,29.57001,267.26003.01001.17999-.19.29001-.34.20001l-58.76999-34.19c-.26999-.16-.41-.39999-.42999-.70999-3.13-52.14999-6.23001-104.35001-9.32001-156.59v-.00003Z"/><circle id="circle10" class="cls-1" cx="334.09127" cy="559.09571" r="22.61"/></g></svg>