<?xml version="1.0" encoding="UTF-8"?><svg id="Layer_2" xmlns="http://www.w3.org/2000/svg" width="754.59248" height="899.31676" viewBox="0 0 754.59248 899.31676"><defs><style>.cls-1{fill:#fff;}</style></defs><g id="Layer_9"><path class="cls-1" d="M331.60389,137.44626c-.84958,3.2474-4.95535,21.77382-6.46146,22.67424-18.59902.7282-38.03583-1.87001-56.2564-5.63023-24.93179-5.14524-50.34697-13.88527-73.49048-24.33999-3.39262-1.53256-19.42665-10.53383-21.568-9.89731L44.14776,283.47048l.05125,1.44124c8.00397,5.93749,16.69282,11.08254,24.77732,17.00088,50.25512,36.78976,93.63376,89.07697,108.6918,150.63657-1.87059.34904-1.26898-.34692-1.76841-1.4281-1.92955-4.17711-3.31515-9.12147-5.29524-13.44211-16.31955-35.61001-40.93524-66.69867-71.33538-91.2547l-46.40926,34.17749-1.07031,2.88032c1.14007-.05725,2.13376.34068,3.14181.8137,55.72661,26.14907,94.2109,80.37112,117.32152,136.62662,11.10583,27.03362,19.19928,55.62758,25.56625,84.14896l49.91021-27.4118c1.84663-1.434,1.27047-8.42669,1.1831-11.10627-3.11848-95.63703-41.19757-213.94786-113.3027-279.48573-5.38894-4.89812-12.83516-9.37283-17.64603-14.00223-.67618-.65067-2.21504-1.71606-2.05827-2.75025l61.56726-83.10849c3.24655-.92543,17.01283,6.47752,21.08099,8.1304,33.07994,13.44027,67.53092,23.74437,103.2061,27.71334,4.50734.50146,10.69736-2.03671,10.36856,4.56896-.10637,2.13706-3.1008,17.67019-3.88219,18.48296-.41747.43423-.82528.73116-1.45703.71646-42.18916-3.25398-82.52863-15.91271-121.47834-31.54387l-37.723,50.59615c81.97891,74.96705,116.83479,186.74451,124.31708,295.31538,9.5067-3.8897,18.9182-9.1037,27.97207-14.10502,25.99044-14.35699,50.99576-30.60426,77.52104-44.00674,1.50553-.13028,17.37371,8.96993,20.14769,10.50611,19.99571,11.07324,39.18318,23.00388,58.98759,33.80913,2.60381,1.42063,25.85171,14.98308,26.84173,13.79452,7.42793-108.51825,42.29463-220.43488,124.31729-295.31337l-37.72304-50.59616c-39.15476,15.37808-79.76592,28.67438-122.13039,31.40072l-.78678-.55579-3.99543-21.18221c11.38976-2.63386,23.16913-3.54343,34.70228-5.70238,24.52359-4.59069,48.61684-11.89945,71.77444-21.02032,7.53114-2.96622,16.72135-8.35004,24.08393-10.43755,1.38914-.39386,2.67949-1.06788,4.19008-.5706l61.61015,83.59142c-8.07947,7.32835-17.25475,13.38041-25.13314,20.95464-53.55028,51.48289-86.51874,133.24841-99.63177,205.38894-4.7244,25.991-8.00529,53.00122-8.16969,79.43061l49.18764,28.51394,1.805-.49531c19.23555-87.8866,60.03296-182.06593,146.00898-222.18925l-47.11884-36.14057c-33.94853,27.01657-61.56478,63.24069-76.60868,104.13297-1.29845.0628-1.51003.35194-1.44212-1.07731.18885-3.97472,4.36841-14.94321,5.95026-19.24251,22.63382-61.51612,71.84543-109.65881,125.95456-144.52885l1.11286-1.5765-129.52987-163.68607c-.93043-.54183-3.61799.78383-4.67869,1.21174-9.82919,3.96526-19.58705,9.9334-29.74876,14.13018-37.29702,15.40366-77.43089,24.49153-117.98165,24.55071-.93885-.70113-4.96088-19.7639-5.7175-22.72924,33.6912-1.03274,66.42828-6.93681,98.19993-17.97208,16.15955-5.6127,31.23618-12.67446,46.39762-20.50175,4.91504-2.53745,11.81271-7.54781,16.5677-9.32366,1.00755-.37629,2.41242-.83772,3.41635-.25026l160.00492,200.74845-.17513,3.77693c-20.89368,9.05976-41.71685,18.78192-60.79766,31.27719-1.50858.98791-9.27384,5.6642-8.97556,6.8418l76.2464,57.92136c.10991.94545-.03743,1.23669-.88338,1.65949-6.73509,3.36624-19.08409,5.61881-26.82401,8.39866-89.55036,32.1627-127.79945,129.50652-146.40176,215.5218-.11628,1.70181,1.02093,2.57278,2.23897,3.5105,7.67658,5.90993,20.26101,9.97503,28.2441,15.63713,1.34031.95063,2.8248,1.89472,2.63467,3.7501l-27.42463,83.79627c-2.69087,1.7306-14.58389-5.00515-17.86168-6.06354l-1.35877.87271-1.53999,51.33731c-47.41253-2.544-101.52989.58332-139.40176,32.15964.1534,6.12159-.77323,13.19156-.07076,19.19841,1.32906,11.36484,9.81591,29.54106,13.22722,41.44696.55847,1.94915,2.78419,8.22623,1.87949,9.57709l-61.93976,28.54999h-2.87726l-62.27593-28.77138c-.4035-.6395,2.29878-9.33049,2.77992-10.94956,3.32706-11.19596,11.42422-29.98016,12.66296-40.57252.36295-3.10356.56614-17.71667-.85862-19.49891-1.21065-1.5144-11.97742-8.26874-14.40514-9.68403-36.26276-21.14009-83.1494-23.92327-124.20895-21.45552l-1.54681-51.33015-1.56298-1.09325c-4.53233,1.5464-10.59186,5.61111-15.02549,6.61448-1.0394.23522-2.09746.28399-2.77589-.72147l-26.95981-85.11739,32.77982-18.34876.72994-1.44144c-10.40019-46.87096-24.50845-93.79858-50.35875-134.55152-16.61662-26.19608-37.24765-49.87134-63.65908-66.547-18.81843-11.88159-40.22247-18.43524-61.51656-24.44524v-2.15827l76.21397-57.27224c.26269-1.27019-2.54916-2.95493-3.47013-3.61199-13.85306-9.8834-31.21508-18.69342-46.59057-26.06442-2.90601-1.39314-19.94872-8.09337-20.29853-9.91151l.42872-1.48545L166.87273,89.59296c1.33064-.67154,2.25295-.43638,3.56666.04405,3.42428,1.25227,8.64008,5.30025,12.25102,7.1772,21.48451,11.16755,43.57771,21.28751,66.91348,28.0403,26.59473,7.69585,54.35213,11.48355,82,12.59176ZM489.13366,587.82139l-96.81883-56.12861c-4.01255-.60146-4.37622,3.74568-4.62953,6.80751-1.21488,14.68473.87431,31.09974.1234,45.96997,5.12482,2.79894,10.33302,4.00792,15.24394,7.77531,38.10224,29.22997,8.77404,89.07464-36.34802,77.36078-36.0082-9.34787-43.69097-57.73074-12.7366-78.49755,4.49572-3.01611,9.04824-3.89851,13.50546-6.63636-.71333-14.91285,1.2799-31.22909.12271-45.97362-.11974-1.52563-.56715-5.4531-1.45503-6.46074-2.33358-2.00018-5.29822.45826-7.68696,1.68654-20.8883,10.74069-42.95222,24.59396-63.29967,36.69118-9.74513,5.7938-19.55631,11.54725-29.02381,17.76464,17.5006,28.77847,34.07952,58.77289,42.96983,91.55679,3.13973,11.57804,4.77382,23.37138,7.39303,35.05189,1.84732,1.92309,10.91798.88204,14.06102,1.04474,30.97255,1.60331,63.18731,1.60971,94.1708,0,3.07314-.15966,12.91662,1.0082,14.40316-1.42198,5.37641-46.39706,26.11716-87.4162,50.0051-126.59047ZM255.86037,595.93804c-.64094-.53602-1.32624-.80369-2.17063-.73042l-89.38104,49.4277,16.71562,51.14209c1.35603.77946,2.40652.62474,3.85519.36747,6.04222-1.07302,13.13685-6.24549,19.3083-7.71754l.44804-23.65202,31.63159-14.40176,17.98971,17.27446c7.36709-3.23736,15.19641-5.73267,22.44621-9.21141,4.16448-1.99828,9.82799-3.38034,8.52104-8.76566-2.114-8.71079-15.93327-32.02983-21.11209-40.76594-1.66295-2.80522-6.26649-11.30654-8.25194-12.96697ZM588.90457,644.12312l-87.20344-49.10887c-2.75713.06033-10.27776,13.20058-11.97181,16.04929-5.99061,10.07382-14.18479,24.75947-18.47326,35.48143-2.04124,5.10349-2.88785,6.10225,2.03077,9.26855,7.80722,5.02579,18.66025,7.60684,27.01593,11.83547l18.70965-17.27513,31.27247,14.04136.83111,23.99236c4.56495,1.559,8.84653,4.02414,13.3521,5.70708,2.56422.9578,6.99479,3.30479,9.24266,1.65843,1.68339-1.23293,11.37319-31.64188,12.72185-36.19291,1.04282-3.519,4.74022-12.71223,2.47197-15.45707ZM373.1652,596.63989c-9.37956,1.08702-19.67361,8.92371-23.47612,17.52743-13.39796,30.31479,21.99041,57.77959,47.38077,37.31608,24.22007-19.52031,7.34273-58.46485-23.90465-54.84351ZM303.55063,729.53259c-.14738-17.80155-2.48244-36.94973-8.42595-53.80298-1.6406-4.65203-2.62805-9.91511-8.84902-7.71231l-35.616,14.52938-15.39394-16.73578c-.6876-.81369-1.31676-1.08354-2.39169-.92599-.81308.11917-14.21166,6.64723-14.73533,7.28064-2.25545,2.72811-.08633,19.40887-1.00192,23.81766l-10.59691,5.22809,2.14,45.51138c13.15083,1.39722,26.54591,1.46322,39.7514,3.04563,26.55047,3.18153,51.50104,10.17325,75.02367,22.80656,4.03235,2.16565,8.01706,5.6407,12.46483,6.59801v-49.64029h-32.36914ZM451.72937,729.53259h-32.36914v50.35971l26.84956-14.51323c23.69961-10.00818,49.31532-14.99892,74.941-17.13385,3.50999-.29243,24.60721-.53415,25.44933-1.52255l2.28144-46.24771-10.73619-4.49391-.44906-23.29188-15.96497-7.79409-17.84218,17.68128c-10.58405-4.05393-21.6307-10.11691-32.36959-13.48505-8.24573-2.58619-8.58768-1.9247-11.34815,5.93499-5.87911,16.73918-8.50924,36.82934-8.44206,54.50629ZM407.8512,729.53259h-60.4224l.71931,24.46043h58.98377l.71931-24.46043ZM348.14811,784.20885h59.70309l-.71559-25.18358c-15.66258.95742-31.52679-1.66901-47.15336-.75025-2.21937.13049-6.45299.45001-8.44334.90788-7.62889,1.75501-2.11716,19.39532-3.3908,25.02595ZM407.8512,789.24482h-60.4224v24.46043h60.4224v-24.46043ZM350.13714,826.84566c-2.38836.41465-4.4483.84081-5.23142,3.40087-.7734,6.57151-8.10933,20.31912-7.53851,26.2015.3993,4.11488,11.7604,8.55802,15.55815,10.39293,8.08617,3.9069,16.58273,7.44436,24.96239,10.68427,9.75231-4.37757,19.88049-8.19324,29.50209-12.84257,10.57472-5.1099,12.02891-3.54397,8.73209-15.72425-2.0038-7.40312-4.99054-14.72269-7.53901-21.95619l-58.44576-.15656Z"/><path d="M373.1652,596.63989c31.24737-3.62134,48.12472,35.3232,23.90465,54.84351-25.39035,20.46351-60.77873-7.00129-47.38077-37.31608,3.80251-8.60372,14.09655-16.44041,23.47612-17.52743Z"/><path class="cls-1" d="M376.92069,342.48223c-1.84132,38.26627-4.06045,78.02121-7.20044,116.17976-.70542,8.57258-1.5823,17.34034-3.02123,25.75529-1.11869,2.15901-13.81904,9.28714-16.89589,11.15907-13.58838,8.26709-28.80783,17.52226-42.89405,24.72533-1.2686.64871-3.12672,1.86507-4.44115,2.04364-1.58434.21524-1.09915-.66921-1.1024-1.82271-.03887-13.79377,1.85025-30.55225,2.91048-44.58107,3.18837-42.18778,7.6533-84.5784,13.04369-126.52265,12.34159-96.03354,30.76133-191.59634,59.60805-283.9163,1.63221-.2943,1.14433.08983,1.60081.91814,1.45537,2.64083,2.78449,8.76491,3.78528,12.03442,34.77782,113.61712,54.11405,237.35319,65.0963,355.75704,2.23428,24.08858,4.91053,49.99837,5.79213,74.0631.17868,4.87751.09061,9.93532-.38915,14.77766l-65.70534-38.6011-8.74847-142.68903-.00377-4.31297-1.43109.00007c-.06631,1.66747.07642,3.36577-.00377,5.03232Z"/><path d="M331.60389,137.44626c9.46028-36.16042,19.07275-72.47485,32.54919-107.37388,1.39833-3.62116,11.55924-29.58588,13.13495-30.04069,1.54917-.44715,2.1656,3.97211,3.1303,4.7815,18.81089,42.60267,31.75157,87.53826,43.25779,132.63307.75663,2.96534,4.77865,22.02811,5.7175,22.72924,40.55076-.05919,80.68463-9.14705,117.98165-24.55071,10.16171-4.19678,19.91957-10.16492,29.74876-14.13018,1.0607-.4279,3.74826-1.75357,4.67869-1.21174l129.52987,163.68607-1.11286,1.5765c-54.10913,34.87004-103.32075,83.01273-125.95456,144.52885-1.58185,4.2993-5.76141,15.26779-5.95026,19.24251-.06791,1.42925.14367,1.14012,1.44212,1.07731,15.04391-40.89228,42.66016-77.1164,76.60868-104.13297l47.11884,36.14057c-85.97602,40.12332-126.77343,134.30265-146.00898,222.18925l-1.805.49531-49.18764-28.51394c.1644-26.42939,3.44529-53.43961,8.16969-79.43061,13.11303-72.14054,46.08149-153.90606,99.63177-205.38894,7.87839-7.57423,17.05367-13.6263,25.13314-20.95464l-61.61015-83.59142c-1.51059-.49728-2.80093.17673-4.19008.5706-7.36258,2.08751-16.5528,7.47134-24.08393,10.43755-23.1576,9.12087-47.25085,16.42963-71.77444,21.02032-11.53315,2.15894-23.31252,3.06852-34.70228,5.70238l3.99543,21.18221.78678.55579c42.36447-2.72634,82.97562-16.02264,122.13039-31.40072l37.72304,50.59616c-82.02266,74.87849-116.88936,186.79512-124.31729,295.31337-.99002,1.18856-24.23792-12.37388-26.84173-13.79452-19.80442-10.80525-38.99188-22.73589-58.98759-33.80913-2.77397-1.53617-18.64215-10.63639-20.14769-10.50611-26.52527,13.40248-51.5306,29.64975-77.52104,44.00674-9.05388,5.00132-18.46537,10.21532-27.97207,14.10502-7.48229-108.57086-42.33817-220.34832-124.31708-295.31538l37.723-50.59615c38.94971,15.63116,79.28918,28.2899,121.47834,31.54387.63174.01471,1.03956-.28223,1.45703-.71646.78139-.81277,3.77582-16.3459,3.88219-18.48296.3288-6.60567-5.86122-4.0675-10.36856-4.56896-35.67518-3.96897-70.12616-14.27308-103.2061-27.71334-4.06815-1.65288-17.83444-9.05582-21.08099-8.1304l-61.56726,83.10849c-.15677,1.03419,1.38209,2.09958,2.05827,2.75025,4.81087,4.62939,12.25709,9.10411,17.64603,14.00223,72.10513,65.53787,110.18421,183.8487,113.3027,279.48573.08737,2.67959.66353,9.67228-1.1831,11.10627l-49.91021,27.4118c-6.36697-28.52138-14.46042-57.11533-25.56625-84.14896-23.11062-56.2555-61.59491-110.47755-117.32152-136.62662-1.00805-.47302-2.00174-.87095-3.14181-.8137l1.07031-2.88032,46.40926-34.17749c30.40014,24.55602,55.01582,55.64469,71.33538,91.2547,1.98009,4.32065,3.36569,9.265,5.29524,13.44211.49943,1.08118-.10218,1.77714,1.76841,1.4281-15.05804-61.5596-58.43668-113.84681-108.6918-150.63657-8.0845-5.91834-16.77335-11.06339-24.77732-17.00088l-.05125-1.44124L173.82755,120.25297c2.14135-.63652,18.17538,8.36474,21.568,9.89731,23.14351,10.45472,48.55869,19.19475,73.49048,24.33999,18.22057,3.76023,37.65738,6.35843,56.2564,5.63023,1.50611-.90043,5.61187-19.42684,6.46146-22.67424ZM378.35931,341.76281l8.74847,142.68903,65.70534,38.6011c.47976-4.84234.56783-9.90016.38915-14.77766-.88159-24.06473-3.55785-49.97452-5.79213-74.0631-10.98225-118.40384-30.31849-242.13992-65.0963-355.75704-1.00079-3.26952-2.32991-9.39359-3.78528-12.03442-.45648-.82831.03139-1.21243-1.60081-.91814-28.84671,92.31996-47.26645,187.88276-59.60805,283.9163-5.3904,41.94425-9.85532,84.33487-13.04369,126.52265-1.06024,14.02882-2.94935,30.7873-2.91048,44.58107.00325,1.15349-.48193,2.03795,1.1024,1.82271,1.31443-.17857,3.17255-1.39494,4.44115-2.04364,14.08621-7.20307,29.30566-16.45824,42.89405-24.72533,3.07685-1.87194,15.7772-9.00007,16.89589-11.15907,1.43893-8.41494,2.31581-17.18271,3.02123-25.75529,3.13999-38.15855,5.35912-77.91348,7.20044-116.17976l1.43863-.71942ZM392.31482,531.69278c-4.01255-.60146-4.37622,3.74568-4.62953,6.80751-1.21488,14.68473.87431,31.09974.1234,45.96997,5.12482,2.79894,10.33302,4.00792,15.24394,7.77531,38.10224,29.22997,8.77404,89.07464-36.34802,77.36078-36.0082-9.34787-43.69097-57.73074-12.7366-78.49755,4.49572-3.01611,9.04824-3.89851,13.50546-6.63636-.71333-14.91285,1.2799-31.22909.12271-45.97362-.11974-1.52563-.56715-5.4531-1.45503-6.46074-2.33358-2.00018-5.29822.45826-7.68696,1.68654-20.8883,10.74069-42.95222,24.59396-63.29967,36.69118-9.74513,5.7938-19.55631,11.54725-29.02381,17.76464,17.5006,28.77847,34.07952,58.77289,42.96983,91.55679,3.13973,11.57804,4.77382,23.37138,7.39303,35.05189,1.84732,1.92309,10.91798.88204,14.06102,1.04474,30.97255,1.60331,63.18731,1.60971,94.1708,0,3.07314-.15966,12.91662,1.0082,14.40316-1.42198,5.37641-46.39706,26.11716-87.4162,50.0051-126.59047l-96.81883-56.12861ZM419.36023,729.53259v50.35971l26.84956-14.51323c23.69961-10.00818,49.31532-14.99892,74.941-17.13385,3.50999-.29243,24.60721-.53415,25.44933-1.52255l2.28144-46.24771-10.73619-4.49391-.44906-23.29188-15.96497-7.79409-17.84218,17.68128c-10.58405-4.05393-21.6307-10.11691-32.36959-13.48505-8.24573-2.58619-8.58768-1.9247-11.34815,5.93499-5.87911,16.73918-8.50924,36.82934-8.44206,54.50629h-32.36914ZM295.12468,675.72962c-1.6406-4.65203-2.62805-9.91511-8.84902-7.71231l-35.616,14.52938-15.39394-16.73578c-.6876-.81369-1.31676-1.08354-2.39169-.92599-.81308.11917-14.21166,6.64723-14.73533,7.28064-2.25545,2.72811-.08633,19.40887-1.00192,23.81766l-10.59691,5.22809,2.14,45.51138c13.15083,1.39722,26.54591,1.46322,39.7514,3.04563,26.55047,3.18153,51.50104,10.17325,75.02367,22.80656,4.03235,2.16565,8.01706,5.6407,12.46483,6.59801v-49.64029h-32.36914c-.14738-17.80155-2.48244-36.94973-8.42595-53.80298ZM253.68974,595.20762l-89.38104,49.4277,16.71562,51.14209c1.35603.77946,2.40652.62474,3.85519.36747,6.04222-1.07302,13.13685-6.24549,19.3083-7.71754l.44804-23.65202,31.63159-14.40176,17.98971,17.27446c7.36709-3.23736,15.19641-5.73267,22.44621-9.21141,4.16448-1.99828,9.82799-3.38034,8.52104-8.76566-2.114-8.71079-15.93327-32.02983-21.11209-40.76594-1.66295-2.80522-6.26649-11.30654-8.25194-12.96697-.64094-.53602-1.32624-.80369-2.17063-.73042ZM501.70113,595.01425c-2.75713.06033-10.27776,13.20058-11.97181,16.04929-5.99061,10.07382-14.18479,24.75947-18.47326,35.48143-2.04124,5.10349-2.88785,6.10225,2.03077,9.26855,7.80722,5.02579,18.66025,7.60684,27.01593,11.83547l18.70965-17.27513,31.27247,14.04136.83111,23.99236c4.56495,1.559,8.84653,4.02414,13.3521,5.70708,2.56422.9578,6.99479,3.30479,9.24266,1.65843,1.68339-1.23293,11.37319-31.64188,12.72185-36.19291,1.04282-3.519,4.74022-12.71223,2.47197-15.45707l-87.20344-49.10887ZM344.90571,830.24653c-.7734,6.57151-8.10933,20.31912-7.53851,26.2015.3993,4.11488,11.7604,8.55802,15.55815,10.39293,8.08617,3.9069,16.58273,7.44436,24.96239,10.68427,9.75231-4.37757,19.88049-8.19324,29.50209-12.84257,10.57472-5.1099,12.02891-3.54397,8.73209-15.72425-2.0038-7.40312-4.99054-14.72269-7.53901-21.95619l-58.44576-.15656c-2.38836.41465-4.4483.84081-5.23142,3.40087ZM407.8512,784.20885l-.71559-25.18358c-15.66258.95742-31.52679-1.66901-47.15336-.75025-2.21937.13049-6.45299.45001-8.44334.90788-7.62889,1.75501-2.11716,19.39532-3.3908,25.02595h59.70309ZM347.4288,789.24482v24.46043h60.4224v-24.46043h-60.4224ZM347.4288,729.53259l.71931,24.46043h58.98377l.71931-24.46043h-60.4224ZM378.35931,341.76281l-.00377-4.31297-1.43109.00007c-.06631,1.66747.07642,3.36577-.00377,5.03232l1.43863-.71942Z"/></g></svg>