<svg xmlns="http://www.w3.org/2000/svg" width="116.66" height="50"><path fill="#fff" d="M16.97 50a2.78 2.78 0 0 1-2.67-3.55l4.54-15.51L3.4 34.5a2.78 2.78 0 0 1-1.85-5.2l15.08-7.41-8.89-7.76a2.78 2.78 0 0 1 2.91-4.64l9.94 4.23-1.11-7.44a2.77 2.77 0 0 1 5.23-1.65l3.48 6.95 5.47-10.12A2.79 2.79 0 0 1 37.12.19c1.3.5 2.03 1.9 1.7 3.25l-1.76 7.21c5.67-2.17 15.35-5.09 26.53-5.09 22.96 0 48.56 12.44 53.03 36.22a2.77 2.77 0 0 1-5.31 1.52c-.47-1.19-11.88-29.1-46.49-29.1-5.4 0-10.01.8-13.74 1.83l1.15.02a2.78 2.78 0 0 1 .58 5.48l-13.52 3.21 7.8 8.23a2.79 2.79 0 0 1-2.02 4.69c-.46 0-.94-.12-1.36-.36l-8.85-5 2.12 10.03a2.78 2.78 0 0 1-5.15 1.9l-4.98-9.13-7.44 13.47A2.77 2.77 0 0 1 16.97 50"/><path fill="url(#a)" d="M28.09 17.6 22.22 5.87l1.85 12.35-14.5-6.18 12.03 10.5-18.82 9.25 20.06-4.62-5.86 20.05 9.87-17.9 7.41 13.58-3.4-16.05 14.2 8.03-11.11-11.73 18.2-4.32-13.57-.3s9.56-7.1 26.23-7.1a52.5 52.5 0 0 1 49.07 30.86c-4-21.3-27.46-33.96-50.3-33.96a72.95 72.95 0 0 0-30.55 7.1L36.1 2.79 28.09 17.6z"/><linearGradient id="a" x1="-181.38" x2="-179.13" y1="3.43" y2="3.43" gradientTransform="rotate(-60 -2654.8 -4524.18) scale(29.1)" gradientUnits="userSpaceOnUse"><stop offset="0" stop-color="#612c75"/><stop offset=".3" stop-color="#7b5190"/><stop offset=".5" stop-color="#bf99c3"/><stop offset=".7" stop-color="#7b5190"/><stop offset="1" stop-color="#612c75"/></linearGradient></svg>