<?xml version="1.0" encoding="UTF-8"?><svg id="Layer_2" xmlns="http://www.w3.org/2000/svg" width="485.32681" height="200.22776" viewBox="0 0 485.32681 200.22776"><g id="Layer_2-2"><g id="Layer_2-2"><path d="M485.0679,178.60366c-1.20401,2.65739-4.11053-2.74026-4.73318-3.77831-4.19366-6.97549-7.18329-14.94771-11.00317-22.17232-30.97476-58.21252-87.19409-96.70231-152.25745-107.08256-49.90833-7.93065-95.8721-2.32517-142.04343,17.64642-5.10699,2.20048-16.94064,7.05862-20.55295,10.71249-3.69518,3.73674,2.74052,2.65715,4.77502,2.57428,15.48724-.58135,30.76695-3.23876,46.08821-5.06569,5.68835-.70579,12.04118-1.70225,17.68799-1.91006,1.37025-.04131,5.56393-.20755,6.56039.62292.74734.62292.87202,1.78537.04156,2.40829-1.3287,1.07959-8.47044,2.69871-10.54649,3.23851-24.58035,6.3944-50.57254,8.80243-74.69623,16.64996-.78891.24912-6.31102,1.99293-6.31102,2.49141,7.47372,7.43217,15.81949,14.11699,24.16499,20.55269,10.62962,8.22133,22.00633,15.81949,32.13747,24.66348,1.45312,1.28714,5.68835,4.69189,5.60522,6.64351-.04156,1.53625-1.45312,1.28714-2.53271.99646-5.27325-1.53625-14.36636-7.68153-19.39023-10.71249-8.96867-5.35612-17.72955-11.00291-26.65666-16.35928-7.84753-4.69189-15.77792-9.21754-23.70833-13.785.91335,7.14174,2.74026,14.1588,4.65033,21.13431,3.32162,12.0825,7.39061,23.99899,11.04446,36.04019,1.41183,4.69189,5.39767,15.86105,4.85789,20.26227-.16599,1.37025-.78891,2.9894-2.2836,1.61938-1.1209-1.03802-2.86496-5.02412-3.6123-6.56039-10.38025-21.71539-30.26872-68.67564-30.26872-68.67564-.53979,0-4.44278,8.38707-4.94101,9.38353-11.37671,22.50455-20.51138,46.17158-32.42789,68.38522-1.57782,2.94807-4.35965,8.76086-6.64351,10.87848-1.37001,1.28714-3.65387,1.12115-3.65387-.91335,0-1.49495,1.03802-4.56746,1.53651-6.14528,7.05837-22.46275,16.69127-44.80107,24.49724-67.13937,2.40829-6.85107,4.94101-13.74344,6.64351-20.80206-28.60803,6.4357-55.80423,17.77112-83.99715,25.61838-2.74027.74734-7.22461,2.28386-9.84046,2.57428-1.4947.12468-4.40122.08311-2.78184-2.11736,1.28714-1.78563,10.79536-6.10371,13.36964-7.39085,20.67763-10.04801,42.06079-18.60133,62.86285-28.40022,3.98611-1.91006,8.59488-3.86168,12.37318-6.0206,1.8685-1.07959,3.36319-1.66094,1.37026-3.73699-13.24521-11.04447-27.48688-20.71894-41.31344-30.97476-4.40122-3.23851-10.08957-7.05837-14.07543-10.62937-3.28032-2.94783-3.03121-4.98232,1.82693-3.48762,5.31456,1.57782,11.21047,5.68836,16.19304,8.3042,12.33187,6.47727,24.99572,12.74698,37.65958,18.64289,1.99293.91359,4.31809,2.07605,6.4357,2.74027.45667.16625,2.94808,1.07959,2.94808.12468-1.28714-5.97903-2.49141-11.99963-3.77855-18.02022-2.61584-12.04094-5.89591-24.08213-8.22108-36.12307-.29068-1.41183-1.41157-6.26971-.74735-7.26617,1.07959-1.49495,3.28007,1.70225,3.81986,2.49116,3.61231,5.31481,6.8095,12.74698,9.34222,18.68445,4.65033,10.79536,8.42888,22.58743,13.49432,33.09237,1.24558,2.49116,2.2423.83022,3.40475-.7476,9.09312-11.99938,15.86105-29.81205,22.91967-43.38924,1.95137-3.82011,8.01352-16.06861,11.29359-17.97866.62292-.33224,1.57782-.74735,1.99318.12443.33199.7476-.7476,4.23522-1.03802,5.27325-4.65033,17.31419-12.08275,34.13039-16.52553,51.44458-.16599.66422-.99646,3.61231-.74734,3.94455,6.26971-2.20073,11.99963-5.60549,17.97867-8.47045,40.10916-19.22424,81.00751-27.69443,125.68414-24.99547,74.0733,4.48409,148.8111,45.05018,187.4256,108.99263,6.18658,10.25555,13.57745,23.87457,17.56354,35.1266.66422,1.82693,1.86823,4.94101,1.07932,6.76794Z"/></g></g></svg>