<svg xmlns="http://www.w3.org/2000/svg" width="116.66" height="50"><path fill="#fff" d="M16.97 50a2.78 2.78 0 0 1-2.67-3.55l4.54-15.51L3.4 34.5a2.78 2.78 0 0 1-1.85-5.2l15.08-7.41-8.89-7.76a2.77 2.77 0 0 1 2.91-4.64l9.94 4.23-1.11-7.44a2.77 2.77 0 0 1 5.23-1.65l3.48 6.95 5.48-10.12A2.79 2.79 0 0 1 37.1.19c1.3.5 2.03 1.9 1.7 3.25l-1.76 7.21c5.67-2.17 15.35-5.09 26.52-5.09 22.98 0 48.57 12.44 53.04 36.22a2.77 2.77 0 0 1-5.31 1.52c-.47-1.19-11.88-29.1-46.49-29.1-5.4 0-10.01.8-13.74 1.83l1.15.02a2.78 2.78 0 0 1 .58 5.48l-13.52 3.21 7.8 8.23a2.79 2.79 0 0 1-2.02 4.69 2.8 2.8 0 0 1-1.36-.36l-8.85-5 2.12 10.03a2.78 2.78 0 0 1-5.15 1.9l-4.98-9.13-7.44 13.47A2.77 2.77 0 0 1 16.97 50"/><path d="M33.02 15.44s13.58-7.1 30.56-7.1c22.83 0 46.3 12.65 50.3 33.95 0 0-12.03-30.87-49.07-30.87-16.66 0-26.23 7.1-26.23 7.1l13.58.31-18.2 4.32 11.1 11.73-14.2-8.03 3.4 16.05-7.4-13.57-9.88 17.9 5.86-20.06-20.06 4.62 18.83-9.25-12.04-10.5 14.5 6.18-1.85-12.35L28.1 17.6l8-14.82Z"/></svg>