<?xml version="1.0" encoding="UTF-8"?><svg id="Layer_1" xmlns="http://www.w3.org/2000/svg" width="216" height="216" viewBox="0 0 216 216"><defs><style>.cls-1{fill:#fff;}</style></defs><path class="cls-1" d="M115.45783,0l10.36413,1.27404c44.54772,7.15487,80.59764,42.65096,88.66274,87.00154l1.51531,10.60442v18.24l-1.5153,10.60443c-8.17053,45.07105-45.17505,80.79887-90.54828,87.27567l-8.4786.9999h-14.6374l-11.56239-1.51556C42.77999,206.37726,6.34898,167.94164.7888,121.04936L.03829,112.32c.08874-2.86926-.12007-5.77353,0-8.64C2.31073,49.42893,46.11989,2.93806,100.82042,0h14.6374ZM105.09029,6.55063C29.58364,9.02049-17.26245,90.14663,19.19353,156.88136c35.9696,65.84438,129.48394,70.71482,172.28668,9.03451,44.89855-64.70045,1.94439-153.59962-76.14476-159.19347l-10.24516-.17177Z"/><path d="M105.09029,6.55063l10.24516.17177c78.08915,5.59385,121.04331,94.49302,76.14476,159.19347-42.80274,61.68031-136.31709,56.80987-172.28668-9.03451C-17.26245,90.14663,29.58364,9.02049,105.09029,6.55063ZM107.05932,18c-15.1586.28029-30.04307,4.27476-43.21105,11.6634l4.49642,9.2367c14.33538,2.7746,29.25588-2.98106,38.71463-13.8201v-7.08ZM109.21893,18v7.08c9.52784,10.87573,24.23081,16.44159,38.63717,13.92402l4.77055-9.12855c-13.05543-7.70242-28.25337-11.5229-43.40772-11.87546ZM107.05932,58.68v-30.12c-1.63136,1.09903-2.90726,2.62213-4.44576,3.83345-6.08272,4.78918-14.35301,8.27483-22.07245,9.12363-3.6065.39656-7.07815.16391-10.67773.12546l11.95261,23.80526c.61018,1.0958,2.46181,1.42416,3.63497,1.64439,8.21575,1.54225,16.61001-1.79602,21.60836-8.4122ZM109.21893,28.56v30.12c5.70959,7.54883,15.78139,10.7123,24.79482,7.5785l12.63847-24.7361c-5.54696.49034-10.95734.29716-16.36721-1.03222-5.88516-1.44617-12.15691-4.52699-16.8602-8.33681-1.19764-.97013-2.36617-2.37829-3.48441-3.23491-.24183-.18525-.30271-.46294-.72148-.35846ZM61.94378,30.96045c-14.10239,8.18412-25.74528,20.57484-33.24488,35.04337l4.57404,3.11177c1.66866-2.52291,2.45621-5.72615,4.91601-7.67534l2.18505,5.50203c12.356-3.80266,22.16018-14.32895,26.08771-26.5629l-4.51792-9.41892ZM178.56287,61.44014l4.44244,7.67545,4.62102-3.23194c-6.03209-11.35329-14.50231-21.4141-24.68172-29.25886-.8982-.6922-8.19137-5.96781-8.61019-5.66455l-4.50185,9.43794c3.98334,12.20622,13.72907,22.701,26.07169,26.54409.29608-.46245,2.37545-5.69863,2.65862-5.50214ZM68.18251,43.20087c-.54699-.10262-.38078.03386-.53124.30578-.78689,1.42213-1.37235,3.39548-2.21943,4.9785-5.08922,9.51072-13.45282,16.48497-23.40268,20.52013,3.14428,4.62554,8.49246,7.70663,13.27796,10.47609,1.28548.74393,5.94773,3.62026,7.01468,3.78364,1.0125.15504,2.19417-.15947,3.18291-.38699,7.34827-1.69093,12.93672-8.00733,14.86906-15.14414l-12.19127-24.53301ZM148.56858,43.20059l-.53437.3086-12.13551,24.22998c1.78441,5.97067,5.72148,11.35317,11.48181,13.97249,1.62168.7374,5.11626,1.88216,6.82074,1.55656.90289-.17248,7.16755-3.96989,8.44957-4.74686,4.37256-2.64999,8.83761-5.40277,11.836-9.63844-11.79995-4.15239-21.67723-13.90255-25.91824-25.68233ZM107.05932,62.4c-.41895-.1046-.47964.17345-.72141.35852-1.18079.90385-2.17205,2.07156-3.52365,2.95566-5.62099,3.67675-12.49048,4.74472-19.03298,3.288l14.27638,28.20111c3.32742.90694,6.8919-.89085,9.00166-3.4833v-31.32ZM109.21893,62.4v31.32c2.15403,2.51939,5.66527,4.42491,9.00166,3.4833l14.27638-28.20111c-5.96798,1.36147-12.34348.52417-17.68017-2.48104l-5.59787-4.12114ZM28.83319,111.6c-.07259-2.0054-.69165-3.92754-.92923-5.91061-1.13734-9.49343.19714-19.48113,2.72946-28.64884.29365-1.0631,1.86976-4.99751,1.80962-5.64023-.02337-.24974-.11105-.31461-.25161-.47795-.30341-.35258-4.33405-2.8286-4.66563-2.77475-6.68158,13.38324-9.80869,28.45251-9.25074,43.45238h10.55813ZM187.44506,111.6h10.55813c.60488-14.99017-2.46671-30.12499-9.25131-43.45287-.83538.32814-4.86351,2.65136-4.92036,3.25621-.03974.42276,1.33163,3.84525,1.57308,4.67748,2.78539,9.60052,4.19295,19.86352,2.96943,29.84832-.23229,1.89565-.8155,3.75631-.92897,5.67086ZM82.10006,70.56089c-.62406-.11459-.36989.09241-.49747.34024-2.10167,4.08223-3.2168,6.77775-6.93453,9.86187-2.93171,2.43207-5.14055,2.91239-8.50893,4.20951-.25017.09634-.57842.10127-.61185.46443,6.68246,3.66675,12.9848,8.06349,18.71942,13.07973,1.97809,1.7303,3.80539,3.77432,5.8343,5.36977,1.37732-.46565,6.08563-4.80842,5.86962-6.04463l-13.87055-27.28092ZM134.65194,70.5596l-14.28359,27.34273c-.20848,1.09708,4.66766,5.80392,5.82197,5.9869.78887.12505,1.01087-.80566,1.49963-1.29488,4.83218-4.83678,10.63116-9.4153,16.34311-13.17403,2.1594-1.42098,4.43195-2.73978,6.6979-3.98338-.03344-.36315-.36168-.36809-.61185-.46442-1.50323-.57883-3.08774-.89445-4.58937-1.64976-4.94618-2.48791-9.1766-7.54557-10.8778-12.76315ZM40.22076,89.09626c-.26438.08699-.31506.29884-.35143.54233-.62463,4.18164-.46659,11.61216.30691,15.77635,2.9128,15.68115,18.78836,23.29813,33.41335,17.94941,4.24925-1.55406,9.27263-4.35784,11.57989-8.32468.08409-.98931-5.69649-6.7836-6.77876-7.76599-10.51785-9.54706-24.36778-15.30221-38.16996-18.17742ZM176.40538,89.04085c-11.52258,2.30516-22.87146,6.67577-32.4681,13.48365-3.87172,2.74661-8.25233,6.43793-11.19661,10.16141-1.37437,1.7381-2.24229,1.88228-.72027,3.82839,6.79276,8.68545,22.34273,10.74194,31.82993,5.68679,13.10473-6.98271,13.59858-19.77643,12.55505-33.16023ZM107.05932,110.64v-13.68c-2.20217,1.76816-4.86013,2.65542-7.68086,2.76224l5.76441,11.63776,1.91645-.72ZM109.21893,96.96v13.68l1.91645.72,5.76472-11.63747c-2.79858-.08475-5.44379-1.09962-7.68117-2.76253ZM97.45765,100.56062c-.33541-.07663-.39421.04918-.60299.23293-.89076.78395-1.83378,2.19818-2.87951,3.11997-.69595.61347-1.63042,1.37838-2.5129,1.69017,1.24221,2.00495,6.61114,7.24576,6.9173,9.29347.16288,1.08939-3.23997,4.40576-3.79794,5.58048l8.29133-4.30476.78684-2.83028-6.20212-12.78198ZM121.69663,120.47765c.25426-.22575-3.95973-4.59499-3.80906-5.58284.09451-.61964,2.44266-3.74059,2.99409-4.47001,1.23276-1.63066,2.65353-3.11186,3.93047-4.70561-2.21188-1.3951-4.00292-3.12007-5.63504-5.15455-.88126,1.8094-6.58564,11.52845-6.48318,12.73808.06442.76061.75003,1.87737.6612,2.80127l8.34152,4.37366ZM107.47361,112.85584c-3.53724.72752-2.44269,6.65952,1.75885,5.35666,2.75406-.85401,2.1663-6.16396-1.75885-5.35666ZM29.43308,113.76h-10.91806c.68522,14.47553,5.35157,28.77224,12.86991,41.05988l6.04276-3.30386c1.55152-5.97578,1.59644-12.27827.41273-18.32485-1.02988-5.2608-2.32873-6.53312-4.72908-10.87008-1.51638-2.7398-2.49038-5.67549-3.67825-8.56109ZM186.72519,113.76c-.92867,3.11001-2.20938,6.21353-3.79824,9.04108-2.1385,3.80571-3.27887,5.04416-4.2844,9.63484-1.38208,6.30982-1.36666,12.98016.29293,19.23516l5.7567,3.13848c.4671.00435,1.06994-1.29879,1.35467-1.76802,5.58636-9.20627,9.72711-21.81111,11.20218-32.47583.25674-1.85623.65813-4.50319.65539-6.31564-.00042-.2808-.01674-.31062-.26117-.49007h-10.91806ZM97.93803,131.75942l6.37635-12.9549-.54376-.45965-12.06752,6.57634c2.7319,1.64883,4.43629,4.30753,6.23493,6.83822ZM124.57535,124.56369c-1.79292-.3985-11.2155-6.4298-12.06654-6.21165-.21475.05505-.57301.38814-.61331.6021l6.56464,12.56425,3.11356-4.08143c.75212-.96523,2.0022-1.58004,2.84898-2.37678.20278-.19079.21921-.16506.15266-.49649ZM116.41652,132.71867l-6.23684-12.13762c-.46521-.50856-2.77439.47678-3.73525-.26435l-6.58381,12.40086,8.2785-.73751,8.27739.73861ZM85.46025,155.51942l10.95199-21.23942c-1.4009-3.43024-3.78309-6.3814-7.02863-8.23933-2.03006,1.31608-3.76837,3.06495-5.76464,4.47483-3.11425,2.19947-6.73755,4.21412-10.33431,5.50386-2.46241.88297-5.20821,1.11135-7.257,2.82172,8.26535,3.26568,14.55531,9.41144,19.43259,16.67835ZM150.25098,138.48331c-2.30228-1.17725-4.83174-1.58981-7.25749-2.46386-6.03692-2.17522-11.0645-5.92023-15.93712-9.97857-3.30615,1.74465-5.75584,4.81327-7.19039,8.23914l10.95203,21.2394c1.4684-1.52067,2.49222-3.48808,3.84367-5.15217,3.50627-4.3174,8.14659-7.90862,13.10488-10.4128.37801-.19091,2.91817-.89671,2.48443-1.47115ZM61.94614,138.24241c-4.52565-.16841-8.80201-.61048-13.08084-2.15807-3.39504-1.22794-6.53765-3.13649-9.23159-5.52432,1.38424,6.5528,1.61707,13.06554.47992,19.67996l21.83251-11.99757ZM176.64568,130.80117l-4.6368,3.15991c-5.52598,3.1431-10.79582,3.9674-17.08316,4.27768-.26983.01332-.6577-.15462-.593.23822l21.833,11.52189c-1.11216-6.45468-.86564-12.80749.47997-19.19771ZM127.93552,154.55764l-9.94948-18.9663c-2.88131-1.53574-17.88628-1.72035-19.67853.0153l-9.96478,18.95101c12.56024-4.89528,27.04584-4.9293,39.59279,0ZM71.78815,180.95974l12.1941-22.73888c.14495-.68148-1.80309-3.36229-2.30535-4.07394-4.45893-6.31784-10.89022-11.60701-18.41361-13.75722l-20.63615,11.049c-.22508.31611.28987.40586.47266.49225,2.07274.9796,4.27329,1.64637,6.37495,2.74383,10.3264,5.39232,19.06569,14.97921,22.31341,26.28496ZM174.00567,151.44302c-6.46999-3.02039-12.5658-7.06176-18.94975-10.20814-2.53703-1.2504-2.92449-.74345-5.44584.32343-7.21582,3.05331-13.68513,9.56263-17.30359,16.44139l12.18361,22.96004c3.47652-11.72938,12.45538-21.30745,23.27166-26.76654l6.24391-2.75019ZM39.32778,153.15658l-6.64708,3.68106c8.51564,13.39581,20.72856,24.14089,34.77808,31.4638.24973.12048.48278.15028.73006-.00791.1963-.12558,2.05057-3.82354,2.11353-4.15422.23218-1.21962-1.49182-5.39538-2.07455-6.70093-4.53225-10.15413-13.74438-18.63193-24.04064-22.7551-.91286-.36556-4.13192-1.6604-4.8594-1.5267ZM129.79115,157.98413c-10.37982-5.31428-23.47992-6.20398-34.73143-3.30585-2.04808.52754-7.69378,2.28374-8.83681,3.88162l-12.03772,23.11769c21.92932-7.38888,45.98515-7.39803,67.90787,0l-12.30191-23.69346ZM148.1111,188.38355c.37777.27436,4.91519-2.38203,5.66129-2.8222,10.87374-6.41502,21.27348-15.88886,28.34947-26.3655.29514-.43698,1.60882-2.13035,1.37859-2.48291l-6.206-3.41701c-1.17254-.37643-4.41773,1.1059-5.67893,1.63172-12.29688,5.1268-22.33174,15.76349-25.69323,28.79616l2.18881,4.65974ZM146.17241,189.59682l-2.41189-4.66453c-22.37754-8.91646-48.67636-8.81025-71.10807-.10524l-2.55126,4.64854c17.89611,8.53555,38.51054,10.59253,57.87978,6.28979,6.27689-1.39436,12.33915-3.55552,18.19143-6.16856Z"/><path class="cls-1" d="M129.79115,157.98413l12.30191,23.69346c-21.92272-7.39803-45.97856-7.38888-67.90787,0l12.03772-23.11769c1.14304-1.59788,6.78874-3.35408,8.83681-3.88162,11.25151-2.89812,24.35161-2.00842,34.73143,3.30585Z"/><path class="cls-1" d="M146.17241,189.59682c-5.85228,2.61304-11.91454,4.7742-18.19143,6.16856-19.36924,4.30274-39.98367,2.24576-57.87978-6.28979l2.55126-4.64854c22.43171-8.70501,48.73053-8.81122,71.10807.10524l2.41189,4.66453Z"/><path class="cls-1" d="M40.22076,89.09626c13.80219,2.87521,27.65211,8.63036,38.16996,18.17742,1.08227.98238,6.86285,6.77667,6.77876,7.76599-2.30725,3.96684-7.33064,6.77063-11.57989,8.32468-14.62499,5.34872-30.50056-2.26826-33.41335-17.94941-.7735-4.16419-.93154-11.59471-.30691-15.77635.03637-.24349.08705-.45534.35143-.54233Z"/><path class="cls-1" d="M176.40538,89.04085c1.04353,13.3838.54968,26.17752-12.55505,33.16023-9.4872,5.05515-25.03717,2.99866-31.82993-5.68679-1.52202-1.94611-.65411-2.09028.72027-3.82839,2.94427-3.72348,7.32489-7.4148,11.19661-10.16141,9.59664-6.80788,20.94553-11.17848,32.4681-13.48365Z"/><path class="cls-1" d="M109.21893,28.56c.41877-.10448.47965.17321.72148.35846,1.11823.85662,2.28676,2.26478,3.48441,3.23491,4.70329,3.80982,10.97504,6.89064,16.8602,8.33681,5.40987,1.32938,10.82025,1.52256,16.36721,1.03222l-12.63847,24.7361c-9.01343,3.1338-19.08524-.02968-24.79482-7.5785v-30.12Z"/><path class="cls-1" d="M107.05932,58.68c-4.99835,6.61618-13.39262,9.95445-21.60836,8.4122-1.17316-.22022-3.02479-.54858-3.63497-1.64439l-11.95261-23.80526c3.59959.03844,7.07123.2711,10.67773-.12546,7.71945-.8488,15.98973-4.33445,22.07245-9.12363,1.5385-1.21132,2.8144-2.73442,4.44576-3.83345v30.12Z"/><path class="cls-1" d="M148.56858,43.20059c4.241,11.77978,14.11829,21.52994,25.91824,25.68233-2.99839,4.23567-7.46344,6.98845-11.836,9.63844-1.28202.77697-7.54668,4.57438-8.44957,4.74686-1.70448.3256-5.19906-.81915-6.82074-1.55656-5.76033-2.61932-9.6974-8.00182-11.48181-13.97249l12.13551-24.22998.53437-.3086Z"/><path class="cls-1" d="M68.18251,43.20087l12.19127,24.53301c-1.93234,7.13681-7.52079,13.45321-14.86906,15.14414-.98874.22752-2.17041.54203-3.18291.38699-1.06696-.16338-5.7292-3.03971-7.01468-3.78364-4.7855-2.76946-10.13368-5.85054-13.27796-10.47609,9.94986-4.03515,18.31346-11.0094,23.40268-20.52013.84708-1.58302,1.43254-3.55637,2.21943-4.9785.15046-.27192-.01576-.4084.53124-.30578Z"/><path class="cls-1" d="M174.00567,151.44302l-6.24391,2.75019c-10.81627,5.45909-19.79513,15.03716-23.27166,26.76654l-12.18361-22.96004c3.61845-6.87877,10.08776-13.38809,17.30359-16.44139,2.52135-1.06688,2.90881-1.57383,5.44584-.32343,6.38395,3.14639,12.47975,7.18776,18.94975,10.20814Z"/><path class="cls-1" d="M71.78815,180.95974c-3.24772-11.30574-11.98701-20.89264-22.31341-26.28496-2.10166-1.09746-4.3022-1.76423-6.37495-2.74383-.18279-.08639-.69774-.17614-.47266-.49225l20.63615-11.049c7.5234,2.15021,13.95469,7.43938,18.41361,13.75722.50226.71165,2.4503,3.39246,2.30535,4.07394l-12.1941,22.73888Z"/><path class="cls-1" d="M61.94378,30.96045l4.51792,9.41892c-3.92752,12.23395-13.73171,22.76025-26.08771,26.5629l-2.18505-5.50203c-2.4598,1.9492-3.24735,5.15244-4.91601,7.67534l-4.57404-3.11177c7.49961-14.46853,19.1425-26.85926,33.24488-35.04337Z"/><path class="cls-1" d="M178.56287,61.44014c-.28317-.19649-2.36254,5.03969-2.65862,5.50214-12.34262-3.84309-22.08835-14.33787-26.07169-26.54409l4.50185-9.43794c.41882-.30326,7.712,4.97235,8.61019,5.66455,10.17942,7.84475,18.64964,17.90557,24.68172,29.25886l-4.62102,3.23194-4.44244-7.67545Z"/><path class="cls-1" d="M109.21893,18c15.15435.35257,30.35229,4.17304,43.40772,11.87546l-4.77055,9.12855c-14.40635,2.51758-29.10933-3.04829-38.63717-13.92402v-7.08Z"/><path class="cls-1" d="M107.05932,18v7.08c-9.45875,10.83904-24.37925,16.5947-38.71463,13.8201l-4.49642-9.2367c13.16798-7.38864,28.05245-11.38311,43.21105-11.6634Z"/><path class="cls-1" d="M39.32778,153.15658c.72748-.1337,3.94654,1.16114,4.8594,1.5267,10.29626,4.12317,19.50839,12.60097,24.04064,22.7551.58273,1.30555,2.30673,5.48131,2.07455,6.70093-.06295.33068-1.91723,4.02864-2.11353,4.15422-.24728.15819-.48033.12839-.73006.00791-14.04952-7.32291-26.26244-18.06799-34.77808-31.4638l6.64708-3.68106Z"/><path class="cls-1" d="M148.1111,188.38355l-2.18881-4.65974c3.36149-13.03267,13.39635-23.66936,25.69323-28.79616,1.2612-.52582,4.5064-2.00815,5.67893-1.63172l6.206,3.41701c.23023.35256-1.08345,2.04593-1.37859,2.48291-7.07599,10.47664-17.47573,19.95049-28.34947,26.3655-.7461.44016-5.28352,3.09656-5.66129,2.8222Z"/><path class="cls-1" d="M29.43308,113.76c1.18788,2.8856,2.16188,5.8213,3.67825,8.56109,2.40035,4.33696,3.6992,5.60928,4.72908,10.87008,1.18371,6.04658,1.1388,12.34907-.41273,18.32485l-6.04276,3.30386c-7.51834-12.28764-12.18468-26.58435-12.86991-41.05988h10.91806Z"/><path class="cls-1" d="M186.72519,113.76h10.91806c.24443.17945.26075.20928.26117.49007.00274,1.81245-.39865,4.45941-.65539,6.31564-1.47507,10.66472-5.61581,23.26956-11.20218,32.47583-.28473.46923-.88757,1.77237-1.35467,1.76802l-5.7567-3.13848c-1.65959-6.25499-1.67502-12.92534-.29293-19.23516,1.00553-4.59068,2.14589-5.82914,4.2844-9.63484,1.58886-2.82755,2.86957-5.93108,3.79824-9.04108Z"/><path class="cls-1" d="M127.93552,154.55764c-12.54694-4.92929-27.03255-4.89528-39.59279,0l9.96478-18.95101c1.79225-1.73566,16.79722-1.55105,19.67853-.0153l9.94948,18.9663Z"/><path class="cls-1" d="M109.21893,62.4l5.59787,4.12114c5.3367,3.00522,11.71219,3.84251,17.68017,2.48104l-14.27638,28.20111c-3.3364.94161-6.84763-.96391-9.00166-3.4833v-31.32Z"/><path class="cls-1" d="M107.05932,62.4v31.32c-2.10977,2.59245-5.67424,4.39024-9.00166,3.4833l-14.27638-28.20111c6.5425,1.45672,13.41198.38875,19.03298-3.288,1.3516-.8841,2.34287-2.05181,3.52365-2.95566.24177-.18507.30246-.46313.72141-.35852Z"/><path class="cls-1" d="M134.65194,70.5596c1.70121,5.21758,5.93162,10.27525,10.8778,12.76315,1.50163.75531,3.08614,1.07093,4.58937,1.64976.25018.09633.57841.10128.61185.46442-2.26595,1.24359-4.5385,2.56239-6.6979,3.98338-5.71195,3.75872-11.51093,8.33725-16.34311,13.17403-.48876.48922-.71076,1.41993-1.49963,1.29488-1.1543-.18298-6.03044-4.88981-5.82197-5.9869l14.28359-27.34273Z"/><path class="cls-1" d="M82.10006,70.56089l13.87055,27.28092c.21601,1.23621-4.4923,5.57898-5.86962,6.04463-2.02891-1.59545-3.8562-3.63948-5.8343-5.36977-5.73462-5.01624-12.03696-9.41298-18.71942-13.07973.03344-.36316.36168-.36809.61185-.46443,3.36837-1.29712,5.57722-1.77744,8.50893-4.20951,3.71773-3.08412,4.83286-5.77964,6.93453-9.86187.12759-.24782-.12659-.45483.49747-.34024Z"/><path class="cls-1" d="M150.25098,138.48331c.43375.57444-2.10642,1.28023-2.48443,1.47115-4.95828,2.50418-9.59861,6.0954-13.10488,10.4128-1.35145,1.66409-2.37527,3.63149-3.84367,5.15217l-10.95203-21.2394c1.43455-3.42587,3.88424-6.49448,7.19039-8.23914,4.87262,4.05834,9.9002,7.80335,15.93712,9.97857,2.42575.87405,4.95522,1.2866,7.25749,2.46386Z"/><path class="cls-1" d="M85.46025,155.51942c-4.87728-7.26691-11.16723-13.41267-19.43259-16.67835,2.04879-1.71037,4.79458-1.93874,7.257-2.82172,3.59676-1.28973,7.22006-3.30438,10.33431-5.50386,1.99626-1.40988,3.73458-3.15875,5.76464-4.47483,3.24555,1.85793,5.62773,4.80909,7.02863,8.23933l-10.95199,21.23942Z"/><path class="cls-1" d="M28.83319,111.6h-10.55813c-.55795-14.99987,2.56916-30.06914,9.25074-43.45238.33158-.05385,4.36222,2.42216,4.66563,2.77475.14056.16334.22824.22821.25161.47795.06015.64272-1.51597,4.57713-1.80962,5.64023-2.53232,9.16772-3.86679,19.15541-2.72946,28.64884.23758,1.98307.85664,3.90521.92923,5.91061Z"/><path class="cls-1" d="M187.44506,111.6c.11347-1.91455.69668-3.77521.92897-5.67086,1.22353-9.9848-.18404-20.2478-2.96943-29.84832-.24145-.83222-1.61282-4.25472-1.57308-4.67748.05685-.60485,4.08498-2.92808,4.92036-3.25621,6.78459,13.32788,9.85619,28.4627,9.25131,43.45287h-10.55813Z"/><path class="cls-1" d="M61.94614,138.24241l-21.83251,11.99757c1.13715-6.61442.90431-13.12716-.47992-19.67996,2.69393,2.38783,5.83655,4.29638,9.23159,5.52432,4.27883,1.54759,8.55519,1.98967,13.08084,2.15807Z"/><path class="cls-1" d="M176.64568,130.80117c-1.3456,6.39022-1.59213,12.74303-.47997,19.19771l-21.833-11.52189c-.06469-.39284.32317-.22491.593-.23822,6.28734-.31027,11.55719-1.13458,17.08316-4.27768l4.6368-3.15991Z"/><path class="cls-1" d="M116.41652,132.71867l-8.27739-.73861-8.2785.73751,6.58381-12.40086c.96086.74113,3.27004-.24421,3.73525.26435l6.23684,12.13762Z"/><path class="cls-1" d="M97.45765,100.56062l6.20212,12.78198-.78684,2.83028-8.29133,4.30476c.55797-1.17472,3.96082-4.49109,3.79794-5.58048-.30616-2.04771-5.67509-7.28852-6.9173-9.29347.88247-.31179,1.81694-1.0767,2.5129-1.69017,1.04573-.92179,1.98874-2.33602,2.87951-3.11997.20878-.18375.26758-.30956.60299-.23293Z"/><path class="cls-1" d="M121.69663,120.47765l-8.34152-4.37366c.08883-.92389-.59678-2.04066-.6612-2.80127-.10245-1.20962,5.60192-10.92868,6.48318-12.73808,1.63212,2.03448,3.42316,3.75945,5.63504,5.15455-1.27695,1.59375-2.69771,3.07494-3.93047,4.70561-.55143.72942-2.89958,3.85037-2.99409,4.47001-.15067.98785,4.06332,5.3571,3.80906,5.58284Z"/><path class="cls-1" d="M124.57535,124.56369c.06656.33143.05012.3057-.15266.49649-.84679.79674-2.09686,1.41155-2.84898,2.37678l-3.11356,4.08143-6.56464-12.56425c.04029-.21396.39855-.54705.61331-.6021.85103-.21815,10.27361,5.81315,12.06654,6.21165Z"/><path class="cls-1" d="M97.93803,131.75942c-1.79864-2.53069-3.50303-5.18939-6.23493-6.83822l12.06752-6.57634.54376.45965-6.37635,12.9549Z"/><path class="cls-1" d="M109.21893,96.96c2.23737,1.66291,4.88259,2.67779,7.68117,2.76253l-5.76472,11.63747-1.91645-.72v-13.68Z"/><path class="cls-1" d="M107.05932,110.64l-1.91645.72-5.76441-11.63776c2.82073-.10682,5.47869-.99408,7.68086-2.76224v13.68Z"/><path class="cls-1" d="M107.47361,112.85584c3.92514-.8073,4.51291,4.50264,1.75885,5.35666-4.20153,1.30286-5.29609-4.62913-1.75885-5.35666Z"/></svg>