<?xml version="1.0" encoding="UTF-8"?><svg id="Layer_2" xmlns="http://www.w3.org/2000/svg" width="937.43171" height="600.42386" xmlns:xlink="http://www.w3.org/1999/xlink" viewBox="0 0 937.43171 600.42386"><defs><style>.cls-1{fill:url(#linear-gradient-2);}.cls-2{fill:url(#radial-gradient);}.cls-3{fill:url(#radial-gradient-3);}.cls-4{stroke:#000;stroke-miterlimit:10;stroke-width:5px;}.cls-4,.cls-5{fill:#fefefe;}.cls-6{fill:#fe0000;}.cls-7{fill:url(#radial-gradient-2);}.cls-8{fill:url(#linear-gradient);}</style><radialGradient id="radial-gradient" cx="249.4944" cy="237.69643" fx="249.4944" fy="237.69643" r="279.59698" gradientTransform="translate(550.92041 510.38733) rotate(170) scale(1 1.35)" gradientUnits="userSpaceOnUse"><stop offset="0" stop-color="#f49700"/><stop offset=".15528" stop-color="#e98404"/><stop offset=".46654" stop-color="#cf5410"/><stop offset=".73" stop-color="#b7281b"/></radialGradient><linearGradient id="linear-gradient" x1="657.087" y1="491.37708" x2="657.087" y2="354.15442" gradientUnits="userSpaceOnUse"><stop offset=".2" stop-color="#b7281b"/><stop offset=".38778" stop-color="#cc4e11"/><stop offset=".61182" stop-color="#e17508"/><stop offset=".79047" stop-color="#ef8e02"/><stop offset=".9" stop-color="#f49700"/></linearGradient><radialGradient id="radial-gradient-2" cx="688.49363" cy="239.18292" fx="688.49363" fy="239.18292" r="281.16684" gradientTransform="translate(51.63894 -176.39141) rotate(8) scale(1 1.35)" gradientUnits="userSpaceOnUse"><stop offset="0" stop-color="#f49700"/><stop offset=".15528" stop-color="#e98404"/><stop offset=".46654" stop-color="#cf5410"/><stop offset=".73" stop-color="#b7281b"/></radialGradient><linearGradient id="linear-gradient-2" x1="281.07287" y1="492.94934" x2="281.07287" y2="354.36731" gradientUnits="userSpaceOnUse"><stop offset=".2" stop-color="#b7281b"/><stop offset=".38778" stop-color="#cc4e11"/><stop offset=".61182" stop-color="#e17508"/><stop offset=".79047" stop-color="#ef8e02"/><stop offset=".9" stop-color="#f49700"/></linearGradient><radialGradient id="radial-gradient-3" cx="469.45299" cy="305.2093" fx="469.45299" fy="305.2093" r="286.05443" gradientTransform="translate(0 21.36465) scale(1 .93)" gradientUnits="userSpaceOnUse"><stop offset="0" stop-color="#f49700"/><stop offset=".2183" stop-color="#f29400"/><stop offset=".3665" stop-color="#ed8b02"/><stop offset=".49388" stop-color="#e57c06"/><stop offset=".60949" stop-color="#d9660b"/><stop offset=".71608" stop-color="#ca4a12"/><stop offset=".81661" stop-color="#b7291a"/><stop offset=".82" stop-color="#b7281b"/></radialGradient></defs><g id="Layer_1_copy"><path class="cls-6" d="M461.20128,575.17883c-17.73926-21.54688-33.12061-35.95898-49.87305-46.72754-.78125-.50195-2.33203-1.4375-4.12744-2.52148-19.5083-11.77051-23.73633-14.91406-24.18359-21.46777-.0791-1.1582-.19287-2.98535-.32812-5.16309-.33398-5.3623-.83789-13.46582-1.24023-18.0625-5.17285-59.10156-23.72119-136.09766-82.70947-167.28027l-4.10059-2.16797-42.84961-195.32861,46.25928-71.28564,1.35352,31.24756c1.31738,30.41797,9.28271,46.20898,27.49268,54.50293,4.05029,1.84473,6.23926,2.80762,7.84424,2.80762.97852,0,2.30469-.31641,4.04248-.96582l103.74121-55.44043,25.67725-54.39551,27.00293,54.30762,106.89844,56.16309c34.21387-5.02637,36.27246-47.875,36.33008-56.61328l.21777-32.56982,44.77441,67,2.26562,7.64893-42.51074,193.02295-4.22168,2.14355c-50.45605,25.60938-69.57715,90.88965-75.45605,117.76758-2.7002,12.3457-3.68555,23.96387-4.72852,36.26562-.41992,4.95117-.85449,10.07129-1.41113,15.33496-.09082.85938-.20215,2.08984-.33301,3.52832-1.05371,11.56543-1.75879,17.2793-3.14941,20.56738-2.09473,4.95312-7.38672,8.24023-15.84668,13.19238-1.61816.94727-3.45312,2.02148-4.18359,2.53418-23.50684,16.49609-42.20508,33.47363-57.16211,51.90137l-7.70996,9.49902-7.7749-9.44531ZM164.50841,500.56165c-1.07031-.60254-3.47998-1.89648-5.81006-3.14844-4.95605-2.66113-7.40869-3.98828-8.4834-4.65918-53.61963-33.43945-90.84229-73.92773-113.7959-123.77734-21.94287-47.65527-30.10645-102.41309-24.95703-167.40332,3.64404-45.98828,8.33008-87.33008,28.85693-127.57471.22559-.44238.53027-1.10547.91113-1.9248.59814-1.28613,1.34473-2.88916,2.21631-4.65186l11.54248-23.35693,7.04932,25.08154c13.09375,46.5874,41.51172,83.37109,76.01758,98.396,17.99414,7.83545,35.50244,8.73926,55.77588,9.78564,3.53174.18262,7.11084.36719,10.74854.59229,2.07422.12842,3.45166.27393,4.78369.41455.80908.08545,1.62744.17285,2.65967.25586l7.31592.58984,30.41699,133.49023-5.77295,3.81641c-56.46338,37.32617-66.27979,115.80859-64.57227,175.07324l.50977,17.68164-15.4126-8.68066ZM758.43028,491.55579c2.50586-85.45898-19.25098-144.38184-64.66504-175.13086l-5.66309-3.83496,30.4502-133.62256,7.54785-.39502c.9248-.04834,2.79395-.20166,4.60059-.3501,2.40625-.19775,4.89355-.40186,6.45312-.47119,2.19727-.09766,4.34473-.18652,6.44824-.27344,25.48828-1.05518,42.32715-1.75244,63.96582-13.83398,39.84277-22.24561,57.7041-60.56689,69.9209-95.11865l7.77832-22.00049,10.56543,20.80615c3.10254,6.1084,5.11426,12.9707,6.88867,19.02539.26172.8916.52051,1.7749.78027,2.64551,24.71289,82.93359,30.31934,157.52783,16.66602,221.71045-16.08594,75.61133-58.7793,135.70898-126.89453,178.62402-1.41992.89355-18.86035,10.78223-20.73242,11.62695l-14.57812,6.58008.46777-15.9873ZM226.42882,479.0636c-.97705-45.80371,1.46924-96.97461,43.12891-124.47363l5.91992-3.9082,5.64502,4.2959c39.76318,30.2627,49.42969,83.46777,53.2417,120.85547l1.50879,14.79492-14.27051-4.18457c-12.85791-3.76953-25.87012-5.68066-38.6748-5.68066-14.72461,0-29.23486,2.52344-43.12842,7.50195l-13.07471,4.68457-.2959-13.88574ZM698.36876,487.38c-4.87988-1.56152-10.83691-3.05078-17.70605-4.42578-7.58203-1.51758-15.58887-2.28613-23.79688-2.28613-13.22559,0-26.93555,1.95508-40.74902,5.81348l-13.81836,3.85938,1.16211-14.30078c1.87305-23.04883,8.22754-66.34961,29.74121-97.38477,1.71191-2.46973,6.06348-7.9873,11.0332-13.06152,7.85254-8.01855,13.65527-11.43945,19.40137-11.43945,1.18945,0,2.35938.15723,3.47754.4668,15.76855,4.37207,30.03809,33.24805,30.17773,33.53906,15.19824,31.59961,15.34961,60.65723,14.11621,90.11328l-.54883,13.10352-12.49023-3.99707Z"/><path d="M468.43379,45.86102l19.25516,38.72516,112.48166,59.0965c34.57352-2.87915,48.05585-36.04095,48.2605-66.8288l25.83469,38.65912,1.10266,3.72168-40.93851,185.8812c-45.42215,23.05533-70.23749,76.72415-80.69781,124.54865-3.96652,18.13483-4.39267,34.51485-6.31534,52.68468-.46835,4.42532-1.47168,18.23466-2.74768,21.25233-1.29401,3.06017-12.98499,8.92467-16.56381,11.43616-22.08884,15.50067-42.14102,32.78801-59.18417,53.78568-15.37317-18.67368-31.85968-35.718-52.1855-48.78416-4.28835-2.75667-23.571-13.75267-23.74167-16.25835-.28134-4.12883-1.01134-16.88449-1.58301-23.41682-5.65433-64.60033-26.51117-142.74483-87.99849-175.24849l-40.96001-186.71735,26.95883-41.54431c1.15366,26.63397,7.19917,51.2655,33.3385,63.17114,4.91472,2.23846,8.18138,3.70685,11.98871,3.70685,2.35603,0,4.91942-.56256,8.20746-1.85303l107.20732-57.29266,18.28052-38.72516M52.41129,71.85205c11.97483,42.60651,39.83884,86.65198,81.65233,104.85913,22.99617,10.01349,45.07667,9.65485,69.89867,11.19037,3.16333.19562,4.52517.43695,7.2575.65717l27.24933,119.5863c-59.0735,39.05267-70.953,117.78717-69.05316,183.70367-2.75567-1.55183-12.32667-6.59216-13.91017-7.57967C50.64929,418.87485,11.71146,325.03235,21.43079,202.36337c3.50934-44.29001,7.77483-84.56754,27.79633-123.8215.6025-1.18134,1.70383-3.69348,3.18417-6.68982M886.91612,71.85852c3.09882,6.10217,5.03949,13.414,7.00153,19.99866,44.17212,148.2355,35.06915,300.15533-105.97534,389.01768-1.88654,1.18849-18.55286,10.539-19.51587,10.97383,1.95087-66.56549-10.09381-143.78217-69.05518-183.70435l27.25134-119.58563c2.33301-.12183,8.43585-.70453,10.97485-.8172,29.00964-1.28918,49.19165-1.04333,74.84515-15.36652,39.74835-22.19281,59.71436-58.77264,74.47351-100.51648M275.06662,362.93518c34.74384,26.4425,45.11383,72.36719,49.34967,113.91301-13.7018-4.01744-27.61356-6.08577-41.48988-6.08577-15.66879,0-31.29155,2.63867-46.49995,8.08794-.882-41.3455.49767-90.73683,38.64017-115.91518M663.63664,364.15439c.28378,0,.55304.03372.80582.10379,8.48865,2.35336,20.07901,20.42084,23.8378,28.23636,13.55719,28.18866,14.43103,54.43317,13.13635,85.36116-5.82202-1.86334-12.41968-3.43184-18.79065-4.70683-8.47464-1.69598-17.10907-2.48143-25.76093-2.48143-14.68179,0-29.40701,2.26378-43.43759,6.1821,2.48352-30.56017,10.27002-66.93102,27.99268-92.49699,3.07339-4.43369,16.0784-20.19815,22.21652-20.19815M467.96645,0l-17.61884,37.32336-15.45615,32.74213-100.01598,53.44952c-1.04919-.42175-2.60802-1.13184-3.83571-1.69098-14.43399-6.57416-20.50333-19.42535-21.64716-45.83569l-2.70717-62.49567-34.05134,52.47418-26.95883,41.54431-4.54884,7.01001,1.7905,8.16254,40.96,186.71732,1.98766,9.06082,8.201,4.33517c55.00984,29.0795,72.46518,102.68466,77.42151,159.31084.39084,4.46649.88983,12.48683,1.22,17.79416.1375,2.21017.25316,4.065.33316,5.23851.75867,11.14032,9.53484,16.96516,15.94301,21.21832,4.28983,2.84717,9.35666,5.90434,13.05649,8.13651,1.58334.95534,3.22067,1.94316,3.88101,2.36766,15.84082,10.183,30.50867,23.96034,47.55966,44.672l15.55032,18.88883,15.41901-18.9965c14.36633-17.69984,32.40417-34.061,55.14383-50.0185.50168-.33932,2.23135-1.35201,3.49435-2.09134,8.85782-5.18533,16.50781-9.6635,20.00198-17.92667,1.89368-4.47833,2.66666-10.06033,3.89484-23.53732.12634-1.386.23334-2.57117.32101-3.39951.56781-5.36617,1.00632-10.53799,1.43048-15.53951,1.01483-11.96666,1.97333-23.2695,4.534-34.9765,5.57401-25.48483,23.57401-87.31549,70.21185-110.98801l8.44315-4.28549,2.0365-9.24698,40.93854-185.88116,1.1095-5.03754-1.46533-4.94562-1.10272-3.72168-.86163-2.90869-1.68567-2.52234-25.83466-38.65918-36.19519-54.16266-.43298,65.14221c-.08734,13.12183-3.02066,25.02081-8.25967,33.50531-4.22229,6.83795-9.54791,10.95703-16.51724,12.69464l-100.93741-53.03125-16.37518-32.93304L467.96645,0h0ZM57.56429,16.26904l-23.084,46.72412c-.93384,1.89038-1.73183,3.60522-2.31433,4.85718-.28416.61084-.63783,1.37115-.75999,1.61383C10.04878,111.33667,5.22312,153.71021,1.49329,200.78354c-10.72017,135.2995,36.196,233.5795,143.429,300.45566,1.33567.83299,3.66167,2.09366,9.0465,4.98534,2.17983,1.17049,4.65033,2.49733,5.6335,3.05083l30.8245,17.35867-1.01917-35.36151c-1.635-56.72751,7.463-131.65201,60.091-166.44366l11.54567-7.63266-3.075-13.49451-27.24933-119.58633-3.26134-14.31299-14.6325-1.17902c-.88033-.07098-1.59-.146-2.41167-.23285-1.3715-.14484-2.926-.30914-5.2175-.45081-3.70383-.22919-7.33583-.41669-10.848-.59784-19.301-.99615-35.97-1.85669-52.30067-8.96765-37.4225-16.29517-60.89484-58.1745-70.383-91.93365l-14.101-50.17151h0ZM883.61711,21.19122l-15.55713,44.00049c-16.43451,46.48267-35.9837,73.315-65.36719,89.72083-19.55835,10.91998-34.59448,11.54248-59.50549,12.57385-2.11267.08746-4.26984.17682-6.47766.27478-1.7442.07751-4.20984.27985-6.82001.4942-1.65601.1358-3.53302.28998-4.31.33051l-15.09802.78851-3.35913,14.74066-27.25134,119.58563-3.039,13.336,11.32599,7.66852c42.39447,28.70499,62.67468,84.74316,60.27698,166.55766l-.93732,31.98033,29.1593-13.16667c2.78534-1.25766,20.26923-11.2235,21.94604-12.27983,70.48615-44.40849,114.677-106.65268,131.34534-185.00415,14.00616-65.83734,8.33234-142.09235-16.86371-226.64685-.255-.85565-.50964-1.72449-.76666-2.60132-1.89746-6.47168-4.04797-13.80701-7.56964-20.74152l-21.13135-41.61163h0ZM275.88912,338.4277l-11.84067,7.81616c-21.25217,14.02884-35.509,35.52115-42.3745,63.88034-5.42617,22.41299-5.7265,46.48166-5.243,69.15265l.5925,27.77101,26.14933-9.36967c12.80717-4.589,26.18233-6.91583,39.75367-6.91583,11.85249,0,23.91833,1.77567,35.8625,5.27783l28.541,8.3685-3.01683-29.58916c-2.78-27.26717-7.35451-48.74483-14.39618-67.59151-9.58966-25.66632-23.96866-45.92316-42.73782-60.20782l-11.29-8.5925h0ZM663.63661,344.15436c-10.99182,0-19.96066,7.71817-26.54617,14.44232-5.05966,5.16617-9.823,11.06619-12.10748,14.362-21.70132,31.30551-29.10251,72.89468-31.48984,102.27084l-2.32434,28.6015,27.63834-7.71866c12.9375-3.61301,25.742-5.44501,38.05801-5.44501,7.55081,0,14.89764.70399,21.83615,2.09267,6.50134,1.30099,12.09283,2.69533,16.61902,4.14383l24.98181,7.9955,1.09698-26.20715c1.23688-29.54849,1.09021-61.21301-15.09497-94.86618-2.25037-4.67899-6.65948-12.29849-12.28516-19.65115-8.2627-10.79935-15.96301-16.897-24.23334-19.18967-1.98468-.55084-4.05518-.83084-6.14902-.83084h0Z"/><path d="M504.76401,371.4299c-.07004-2.49069-.00032-5.34786-.10528-8.03692-.35963-9.21314.23191-50.7546,1.28563-56.7999l111.75058-143.73899c-4.64128,15.45891-13.09281,29.03778-16.52487,44.9649-6.5168,30.24244-8.1783,61.73345-15.04333,91.95667l-78.41444,69.58524h0s-2.94828,2.069-2.94828,2.069ZM516.7047,310.35364v37.5l57.80755-49.69245,13.20566-78.79576-2.10121.12815-68.91199,90.86006Z"/><path d="M428.70264,370.85182l-80.41967-71.07589c-.0002-.00017-.00033-.00041-.00039-.00066-6.82981-30.23358-8.52512-61.70738-15.04324-91.95627-3.44602-15.99205-11.52517-29.08064-16.54132-44.45003-.00043-.00131.00132-.0023.0022-.00123l27.96245,34.02793,84.04177,108.95764c.00017.00022.00026.00048.00026.00076v64.49683c0,.00107-.00126.00163-.00206.00093ZM416.7047,346.85095v-39.49689c0-.00027-.00009-.00054-.00026-.00076-9.02946-11.64774-18.01525-23.32258-27.00243-35.00367-11.68843-15.19203-26.96999-38.58779-40.01862-51.97438-.75992-.7796-1.99445-2.64854-2.9937-1.0074l13.20738,78.7929c.00005.00029.00019.00055.00041.00073l56.80517,48.69041c.0008.00069.00204.00012.00204-.00094Z"/><polygon class="cls-5" points="516.7047 310.35364 585.61669 219.49358 587.7179 219.36543 574.51225 298.16119 516.7047 347.85364 516.7047 310.35364"/><path class="cls-5" d="M416.7047,346.85364l-56.80755-48.69245-13.20745-78.79334c.99924-1.64114,2.23377.2278,2.9937,1.0074,13.04863,13.38659,28.33018,36.78235,40.01862,51.97438,8.98727,11.6812,17.97314,23.35615,27.00269,35.004v39.5Z"/></g><g id="Layer_1_copy_3"><path class="cls-2" d="M164.50841,500.56165c-1.07031-.60254-3.48047-1.89648-5.81055-3.14844-4.95557-2.66113-7.4082-3.98828-8.48291-4.65918-53.61963-33.43945-90.84229-73.92773-113.7959-123.77734-21.94287-47.65527-30.10645-102.41309-24.95703-167.40332,3.64404-45.98828,8.33057-87.33057,28.85693-127.57471.22559-.44238.53027-1.10547.91162-1.92529.59814-1.28564,1.34424-2.88818,2.21533-4.65137l11.54248-23.3584,7.0498,25.08301c13.09424,46.5874,41.51172,83.37109,76.01758,98.396,13.54883,5.8999,27.47656,8.41699,46.57227,8.41699,6.48438,0,13.08789-.27979,18.69238-.55322,3.41895-.1665,4.18311-.21289,6.29004-.38135l8.62451-.68945,31.52148,138.33545-5.77295,3.81641c-56.46338,37.32617-66.27979,115.80859-64.57178,175.07324l.50928,17.68164-15.4126-8.68066Z"/><path d="M52.41126,71.85199c11.9748,42.60651,39.8389,86.6521,81.6523,104.85919,16.91029,7.36346,33.23312,9.24841,50.56507,9.24841,6.23766,0,12.60519-.24408,19.17903-.56476,3.4166-.16663,4.3099-.2182,6.5998-.40143l28.0616,123.1517c-59.0734,39.05249-70.9529,117.78699-69.0532,183.70351-2.7556-1.5518-12.3266-6.5921-13.91-7.57961C50.64936,418.87482,11.71146,325.03232,21.43086,202.36331c3.50919-44.28989,7.7748-84.56747,27.7962-123.82138.6025-1.18134,1.7039-3.69354,3.1842-6.68994M57.56386,16.2677l-23.0838,46.72583c-.9335,1.88971-1.7312,3.60406-2.3136,4.8559-.28441.61108-.63831,1.37177-.7605,1.61456C10.04856,111.3371,5.22305,153.71039,1.49336,200.7836c-10.7202,135.29941,36.19589,233.57932,143.42889,300.45561,1.3356.8329,3.6617,2.0936,9.0472,4.9856,2.1795,1.17041,4.6498,2.49701,5.6326,3.05051l30.8246,17.3587-1.0191-35.3616c-1.6349-56.72749,7.4632-131.65211,60.0909-166.44341l11.5457-7.63269-3.07491-13.49451-28.0616-123.1517-3.8448-16.87311-17.2504,1.38013c-1.9862.15887-2.6568.1994-5.9789.36139-5.4846.26758-11.9361.54108-18.2049.54108-17.6357,0-30.3701-2.26849-42.5805-7.58539-37.4224-16.2951-60.8947-58.17438-70.3829-91.93359l-14.10139-50.17291h0Z"/><path class="cls-8" d="M698.36876,487.38c-4.87988-1.56152-10.83691-3.05078-17.70605-4.42578-7.58203-1.51758-15.58887-2.28711-23.79688-2.28711-13.22559,0-26.93555,1.95605-40.74902,5.81445l-13.81836,3.85938,1.16211-14.30078c1.87305-23.04883,8.22754-66.34961,29.74121-97.38477,1.71191-2.46973,6.06348-7.9873,11.0332-13.06152,7.85254-8.01855,13.65527-11.43945,19.40137-11.43945,1.18945,0,2.35938.15723,3.47754.4668,15.76758,4.37207,30.03809,33.24805,30.17773,33.53906,15.19824,31.59961,15.34961,60.65723,14.11621,90.11328l-.54883,13.10352-12.49023-3.99707Z"/><path d="M663.63674,364.1543c.28378,0,.55298.03372.80576.10379,8.48874,2.35352,20.07904,20.42096,23.83789,28.23639,13.55713,28.18875,14.43097,54.43314,13.13623,85.36125-5.82202-1.86337-12.41974-3.43181-18.79065-4.70688-8.47464-1.69597-17.10898-2.48138-25.7608-2.48138-14.68182,0-29.40714,2.26379-43.43768,6.18214,2.48343-30.56018,10.26999-66.931,27.99268-92.49701,3.07343-4.43372,16.07852-20.1983,22.21658-20.1983M663.63674,344.1543c-10.99188,0-19.96063,7.71829-26.54614,14.44244-5.05948,5.16592-9.82281,11.06598-12.10736,14.36172-21.70175,31.306-29.10281,72.89508-31.49008,102.27119l-2.32425,28.60138,27.63812-7.71851c12.93759-3.61305,25.74219-5.44505,38.05814-5.44505,7.55106,0,14.89789.70406,21.83624,2.09256,6.50189,1.30125,12.09338,2.6955,16.61871,4.14388l24.98187,7.99562,1.09711-26.20731c1.237-29.54837,1.09039-61.21295-15.09491-94.86618-2.25037-4.67908-6.65948-12.29858-12.2851-19.65118-8.2627-10.79913-15.96301-16.89682-24.23318-19.18976-1.98911-.55139-4.05768-.83081-6.14917-.83081h0Z"/><path class="cls-7" d="M758.43028,491.55579c2.50488-85.45898-19.25098-144.38184-64.66504-175.13086l-5.66309-3.83496,32.13672-141.02148,9.52051,1.86963c3.7168.72949,14.57227,2.68506,16.35938,2.94678,6.83398,1.00098,12.60645,1.4873,17.64648,1.48682,13.86816,0,24.51172-3.45752,43.80273-14.22803,39.84277-22.24561,57.7041-60.56689,69.9209-95.11865l8.88184-25.12061,9.83887,24.76123c2.79297,7.02783,5.38184,14.42773,7.29199,20.83594,24.71289,82.93359,30.31934,157.52783,16.66602,221.71045-16.08594,75.61133-58.7793,135.70898-126.89551,178.62402-1.41895.89355-18.85938,10.78223-20.73145,11.62695l-14.57812,6.58105.46777-15.98828Z"/><path d="M886.91625,71.85846c2.49554,6.27954,5.03925,13.414,7.00134,19.99872,44.17224,148.2355,35.06921,300.1553-105.97516,389.01759-1.88672,1.1886-18.55304,10.53911-19.51593,10.97391,1.95081-66.56541-10.09381-143.78209-69.0553-183.7043l28.461-124.89389c3.62354.71149,14.72369,2.71936,16.83801,3.02899,7.15161,1.0473,13.37274,1.59241,19.09503,1.59241,16.95111,0,29.49841-4.78857,48.67737-15.49683,39.74829-22.19287,59.71442-58.77271,74.47363-100.5166M885.82262,14.95349l-17.76251,50.2381c-16.43457,46.4826-35.98376,73.31506-65.36737,89.72101-17.78784,9.9314-26.883,12.95929-38.92743,12.95929-4.55188,0-9.84998-.45178-16.1972-1.38129-1.55627-.23004-12.10199-2.12305-15.88226-2.8653l-19.04199-3.73914-4.31171,18.92059-28.461,124.89392-3.039,13.336,11.32587,7.66861c42.39459,28.70499,62.6748,84.74298,60.2771,166.55748l-.93732,31.9808,29.15955-13.1671c2.7851-1.2576,20.26886-11.2234,21.94568-12.2798,70.48633-44.40849,114.67712-106.65279,131.34552-185.0041,14.0061-65.8374,8.33228-142.0925-16.86383-226.64688-1.99231-6.6861-4.68506-14.3833-7.58246-21.67371l-19.67963-49.51849h0Z"/><path class="cls-1" d="M226.42882,479.0636c-.93848-43.97559,1.21826-93.25781,38.92578-121.5166,2.73438-2.0498,6.11768-3.17969,9.5249-3.17969,3.66846,0,7.23145,1.29102,10.03271,3.63574,36.68896,30.71289,45.79492,81.95703,49.45215,117.83008l1.50879,14.79492-14.27051-4.18457c-12.85791-3.76953-25.87012-5.68164-38.6748-5.68164-14.72461,0-29.23486,2.52441-43.12842,7.50293l-13.07471,4.68457-.2959-13.88574Z"/><path d="M274.87994,364.3678c1.28911,0,2.57123.43082,3.61493,1.3045,32.00719,26.79382,41.82819,71.02933,45.9215,111.17583-13.70184-4.01743-27.61354-6.08574-41.48988-6.08574-15.66881,0-31.29166,2.63867-46.50012,8.08792-.85238-39.95886.40781-87.43292,34.92544-113.30142,1.0459-.78384,2.29023-1.18109,3.52813-1.18109M274.87993,344.36783c-5.55537,0-11.06794,1.83844-15.52232,5.17667-19.21181,14.39789-32.07899,35.58731-38.24418,62.97971-4.90207,21.78024-5.1475,44.95424-4.6825,66.75261l.59238,27.77075,26.14919-9.36937c12.80756-4.589,26.18275-6.91582,39.754-6.91582,11.8525,0,23.91843,1.7757,35.86269,5.27782l28.54092,8.36832-3.01686-29.58907c-2.67288-26.21455-6.983-46.97008-13.56425-65.3188-8.90044-24.81464-22.16194-44.72034-39.41618-59.16412-4.59788-3.849-10.44094-5.96869-16.45288-5.96869h0Z"/><path class="cls-3" d="M461.20128,575.17883c-17.73975-21.54785-33.12109-35.95898-49.87354-46.72754-.78076-.50195-2.33105-1.4375-4.12646-2.52148-19.50928-11.77051-23.7373-14.91406-24.18408-21.46777-.0791-1.16016-.19336-2.99219-.3291-5.1748-.35352-5.67969-.8374-13.45703-1.23926-18.05078-5.17285-59.10156-23.72168-136.09766-82.70947-167.28027l-4.10059-2.16797-42.84961-195.32861,46.25879-71.28564,1.354,31.24756c1.31787,30.41846,9.28271,46.20898,27.49268,54.50293,4.05078,1.84473,6.23926,2.80762,7.84375,2.80762.979,0,2.30518-.31641,4.04346-.96631l103.74072-55.43994,25.67725-54.39551,27.00391,54.30762,106.89746,56.16309c34.21387-5.02588,36.27246-47.875,36.33008-56.61377l.2168-32.56934,44.07324,65.94971,4.39551,7.35938-43.96973,194.37939-4.19043,2.12695c-50.45605,25.60938-69.57715,90.88965-75.45508,117.76758-2.70117,12.34473-3.68652,23.96387-4.72949,36.26465-.41992,4.95215-.85352,10.07227-1.41113,15.33594-.09082.85938-.20215,2.08984-.33301,3.52832-1.05371,11.56543-1.75879,17.2793-3.14941,20.56738-2.09473,4.95312-7.38672,8.24023-15.84668,13.19238-1.61914.94727-3.45312,2.02148-4.18359,2.53418-23.50684,16.49609-42.20508,33.47363-57.16211,51.90137l-7.70996,9.49902-7.7749-9.44531Z"/><path d="M468.43379,45.86102l19.25516,38.72516,112.48166,59.09662c34.57352-2.87921,48.05588-36.0412,48.26059-66.82886l25.83472,38.65906,2.21539,3.70825-42.0513,185.89471c-45.42212,23.0553-70.23752,76.72412-80.69788,124.54858-3.96646,18.13483-4.3927,34.51482-6.3154,52.68459-.46835,4.42542-1.47165,18.23471-2.74765,21.25235-1.29401,3.06024-12.98495,8.92459-16.56387,11.43613-22.08871,15.50081-42.14084,32.78812-59.18402,53.78575-15.37329-18.67375-31.85965-35.71799-52.18552-48.78423-4.28848-2.75671-23.57106-13.75259-23.74178-16.25824-.2813-4.12883-1.01129-16.88458-1.58305-23.41695-5.65411-64.60022-26.51106-142.74481-87.99835-175.24847l-40.96012-186.71716,26.95882-41.54437c1.15376,26.63403,7.19917,51.26544,33.33871,63.17108,4.9147,2.23846,8.18138,3.70691,11.98866,3.70691,2.35599,0,4.91928-.56256,8.20734-1.85303l107.2074-57.29285,18.28049-38.72504M467.96639.00006l-17.61871,37.3233-15.45609,32.74188-100.01607,53.44971c-1.04919-.42181-2.60793-1.13177-3.83574-1.69098-14.43388-6.57416-20.5033-19.42517-21.64729-45.83557l-2.70729-62.49524-34.05118,52.47388-26.95882,41.54431-4.54894,7.01001,1.79071,8.16248,40.96011,186.71719,1.98765,9.06082,8.20094,4.33517c55.01013,29.07965,72.46518,102.68457,77.4213,159.31081.39119,4.4679.89024,12.49013,1.22047,17.7986.13742,2.20824.25282,4.06117.3327,5.23387.75906,11.14082,9.53519,16.96565,15.94318,21.21872,4.29001,2.84717,9.35695,5.90424,13.05672,8.13635,1.58328.95529,3.22058,1.94318,3.88094,2.36765,15.84047,10.18282,30.50847,23.96024,47.55952,44.672l15.55048,18.88882,15.41882-18.99635c14.36624-17.69965,32.40399-34.06094,55.14389-50.01871.50128-.33929,2.23105-1.35188,3.49399-2.09117,8.85812-5.18542,16.50824-9.66353,20.00235-17.92694,1.89352-4.47812,2.66647-10.05989,3.89471-23.53683.12634-1.38611.23331-2.57141.32095-3.39977.56787-5.36623,1.00647-10.53799,1.43057-15.53964,1.01483-11.96648,1.97342-23.26941,4.534-34.97647,5.57413-25.48471,23.57401-87.3154,70.21201-110.98788l8.38116-4.254,2.07379-9.16742,42.0513-185.89468,1.76489-7.80261-4.10278-6.86749-2.21545-3.70825-.25952-.43439-.28107-.42065-25.83469-38.65906-36.19516-54.16235-.43307,65.14185c-.08728,13.12164-3.02057,25.02069-8.25964,33.50519-4.22238,6.83801-9.54791,10.95715-16.51724,12.6947l-100.9375-53.03143-16.37512-32.93292L467.96639.00006h0Z"/><path d="M504.76401,371.4299c-.07004-2.49069-.00032-5.34786-.10528-8.03692-.35963-9.21314.23191-50.7546,1.28563-56.7999l111.75058-143.73899c-4.64128,15.45891-13.09281,29.03778-16.52487,44.9649-6.5168,30.24244-8.1783,61.73345-15.04333,91.95667l-78.41444,69.58524h0s-2.94828,2.069-2.94828,2.069ZM516.7047,310.35364v37.5l57.80755-49.69245,13.20566-78.79576-2.10121.12815-68.91199,90.86006Z"/><path d="M428.70264,370.85182l-80.41967-71.07589c-.0002-.00017-.00033-.00041-.00039-.00066-6.82981-30.23358-8.52512-61.70738-15.04324-91.95627-3.44602-15.99205-11.52517-29.08064-16.54132-44.45003-.00043-.00131.00132-.0023.0022-.00123l27.96245,34.02793,84.04177,108.95764c.00017.00022.00026.00048.00026.00076v64.49683c0,.00107-.00126.00163-.00206.00093ZM416.7047,346.85095v-39.49689c0-.00027-.00009-.00054-.00026-.00076-9.02946-11.64774-18.01525-23.32258-27.00243-35.00367-11.68843-15.19203-26.96999-38.58779-40.01862-51.97438-.75992-.7796-1.99445-2.64854-2.9937-1.0074l13.20738,78.7929c.00005.00029.00019.00055.00041.00073l56.80517,48.69041c.0008.00069.00204.00012.00204-.00094Z"/><polygon class="cls-4" points="516.7047 311.35364 585.61669 220.49358 587.7179 220.36543 574.51225 299.16119 516.7047 348.85364 516.7047 311.35364"/><path class="cls-4" d="M416.7047,347.85364l-56.80755-48.69245-13.20745-78.79334c.99924-1.64114,2.23377.2278,2.9937,1.0074,13.04863,13.38659,28.33018,36.78235,40.01862,51.97438,8.98727,11.6812,17.97314,23.35615,27.00269,35.004v39.5Z"/></g></svg>