<?xml version="1.0" encoding="UTF-8"?><svg id="Layer_1" xmlns="http://www.w3.org/2000/svg" width="207.41665" height="237.32292" viewBox="0 0 207.41665 237.32292"><defs><style>.cls-1{fill:#fff;}</style></defs><path d="M131.21529,75.65354l-11.49968-62.99001c26.89917,3.78325,47.96084,25.5126,55.51336,50.97632,6.48948,21.87963,4.82322,44.6187,2.48961,67.00654,2.66693.55795,1.72101-.68403,2.48297-1.96796,3.22657-5.43684,3.21857-13.21434,10.87599-12.69346,11.47298.78042,5.04903,24.03417,2.39888,30.9297-2.23113,5.80527-8.84361,16.77086-14.48946,19.51054-3.47217,1.68489-8.66584.591-10.31587,1.68413-.60125.39832-4.58452,10.96504-5.78754,13.21246-10.08418,18.83886-29.60497,38.11085-50.20952,44.79143-7.72162,2.50357-10.19332,2.50441-17.91748,0-25.3841-8.23029-47.14832-33.33163-55.99544-58.00552-12.68142,1.15059-20.77827-10.71062-24.80696-21.19304-2.83131-7.3669-9.45742-29.79493,2.60956-30.70113,7.07679-.53145,6.32573,4.31961,8.77656,9.31119.74735,1.52212,2.15804,5.6663,4.37173,5.12166l-2.03795-23.45161c-3.49983-41.57429,15.09902-87.26528,60.04092-94.53125l-11.49968,62.99001h-32.5l59.51081,69.00652,60.48919-69.00652h-32.5ZM92.70629,151.65235c1.65937-1.88418-12.51162-15.26195-14.51798-16.97183-5.12404-4.36684-13.63834-11.01127-20.42004-11.57655-3.04497-.25381-9.10722.91995-11.0473,3.54005,5.30603-1.23512,13.96933-2.47825,15.98726,4.00639-4.50629-2.83418-22.26754,7.00172-22.65017,10.47984,4.65319,15.98357,17.39355,24.76154,34.14513,23.50322,9.40477-.70645,17.75876-2.45814,15.51974-13.97731l2.98337.99617ZM160.70781,125.66615c-18.43722-9.24175-34.96116,12.3263-45.9782,24.50683l2.97804.4832c-1.75122,11.10819,4.32511,12.68651,13.78418,13.72067,17.36631,1.89867,31.57776-6.36325,35.70963-23.75698l-10.80569-8.14787-11.67271-3.30554,5.71944-3.28066,10.26531-.21965Z"/><path class="cls-1" d="M165.36366,27.0054c18.91498,20.48664,23.82892,52.68402,22.34655,79.65306,19.76226-1.68239,21.33757,15.91704,18.7539,31.24399-1.9759,11.72153-10.28179,28.90161-20.41576,35.58415-3.22842,2.12888-9.53568,3.00975-10.8454,4.1546-1.40765,1.23044-2.25057,5.77818-3.30944,7.69056-12.13908,21.92403-32.62475,43.55018-57.39753,50.60246-27.46844,7.81968-58.97154-18.97633-73.0061-40.55527-1.99996-3.07505-8.50892-17.07931-9.26224-17.73776-1.30995-1.14497-7.61687-2.02564-10.8454-4.1546-5.23564-3.45248-11.56474-11.99021-14.37602-17.62398-7.93073-15.89311-14.73711-51.35731,12.71416-49.20415C16.41461,61.59182,33.23201,19.18219,78.43816,3.87641c29.75389-10.074,65.69398.13333,86.9255,23.12899ZM79.21529,80.65354h-24.5l49.40556,55.9613,48.59444-55.9613h-25.5l-12.38057-68.41657c-7.18026-2.20066-15.03727-2.2065-22.23886,0l-13.38057,68.41657ZM131.21529,75.65354h32.5l-60.48919,69.00652-59.51081-69.00652h32.5l11.49968-62.99001c-44.94191,7.26597-63.54075,52.95696-60.04092,94.53125l2.03795,23.45161c-2.21368.54463-3.62438-3.59954-4.37173-5.12166-2.45083-4.99157-1.69976-9.84263-8.77656-9.31119-12.06698.9062-5.44087,23.33423-2.60956,30.70113,4.02869,10.48242,12.12554,22.34363,24.80696,21.19304,8.84712,24.67389,30.61133,49.77523,55.99544,58.00552,7.72417,2.50441,10.19587,2.50357,17.91748,0,20.60455-6.68058,40.12535-25.95257,50.20952-44.79143,1.20301-2.24742,5.18629-12.81414,5.78754-13.21246,1.65003-1.09313,6.8437.00076,10.31587-1.68413,5.64585-2.73968,12.25833-13.70526,14.48946-19.51054,2.65015-6.89553,9.0741-30.14928-2.39888-30.9297-7.65742-.52088-7.64942,7.25662-10.87599,12.69346-.76197,1.28393.18396,2.52591-2.48297,1.96796,2.33361-22.38784,3.99988-45.12691-2.48961-67.00654-7.55252-25.46373-28.61419-47.19307-55.51336-50.97632l11.49968,62.99001ZM160.70781,125.66615l-10.26531.21965-5.71944,3.28066,11.67271,3.30554,10.80569,8.14787c-4.13187,17.39372-18.34332,25.65565-35.70963,23.75698-9.45908-1.03417-15.5354-2.61249-13.78418-13.72067l-2.97804-.4832c11.01703-12.18052,27.54098-33.74858,45.9782-24.50683ZM142.50315,133.86067c-3.81817.32117-15.95994,8.87914-18.24156,11.83924-3.5229,4.57051-4.27961,11.62075,2.40222,13.50486,15.79028,4.45246,30.18274-2.03801,35.62536-17.57039-5.52569-3.98552-12.61471-8.37694-19.78602-7.77371ZM92.70629,151.65235l-2.98337-.99617c2.23903,11.51917-6.11496,13.27085-15.51974,13.97731-16.75157,1.25832-29.49193-7.51965-34.14513-23.50322.38263-3.47811,18.14388-13.31402,22.65017-10.47984-2.01793-6.48464-10.68123-5.24151-15.98726-4.00639,1.94008-2.6201,8.00233-3.79386,11.0473-3.54005,6.7817.56527,15.296,7.2097,20.42004,11.57655,2.00636,1.70987,16.17735,15.08764,14.51798,16.97183ZM44.73202,141.68568c5.26469,12.23157,14.64427,19.63001,28.41593,18.85055,7.52027-.42564,14.98007-1.67449,11.94039-10.97943-1.35725-4.15477-13.23351-14.02656-17.55202-15.23596-8.25773-2.31259-16.16021,3.2944-22.8043,7.36483Z"/><path class="cls-1" d="M79.21529,80.65354l13.38057-68.41657c7.2016-2.2065,15.0586-2.20066,22.23886,0l12.38057,68.41657h25.5l-48.59444,55.9613-49.40556-55.9613h24.5ZM124.26159,145.69991c-3.5229,4.57051-4.27961,11.62075,2.40222,13.50486,15.79028,4.45246,30.18274-2.03801,35.62536-17.57039-5.52569-3.98552-12.61471-8.37694-19.78602-7.77371-3.81817.32117-15.95994,8.87914-18.24156,11.83924ZM73.14795,160.53623c7.52027-.42564,14.98007-1.67449,11.94039-10.97943-1.35725-4.15477-13.23351-14.02656-17.55202-15.23596-8.25773-2.31259-16.16021,3.2944-22.8043,7.36483,5.26469,12.23157,14.64427,19.63001,28.41593,18.85055Z"/></svg>