<?xml version="1.0" encoding="UTF-8"?><svg id="Layer_1" xmlns="http://www.w3.org/2000/svg" width="56.31492" height="56.31159" xmlns:xlink="http://www.w3.org/1999/xlink" viewBox="0 0 56.31492 56.31159"><defs><style>.cls-1{fill:url(#radial-gradient);}</style><radialGradient id="radial-gradient" cx="13.23138" cy="13.15754" fx="13.23138" fy="13.15754" r="56.93822" gradientUnits="userSpaceOnUse"><stop offset=".35048" stop-color="#e1c47e"/><stop offset=".74645" stop-color="#85723e"/></radialGradient></defs><path d="M55.04864,53.79522c.11153.16178.20906.40675.16898.60011-.0097.04682-.67173.61921-.71786.63177-.75897.20666-1.05985-.96903-1.84925-1.01118-.18732.08442-.27101.29156-.44515.39156-1.41856.81456-3.34343,1.66046-4.97112,1.85566-1.42055.17036-2.88887-.13317-4.24625-.52556-.14927-.13135-.10885-.30707-.12264-.47612-.11165-1.36869.35416-3.09008.4838-4.43999.08398-.87451.04361-1.87535.12289-2.75151.08367-.92472.48962-2.12325.35117-2.98858-.11703-.73146-2.40385-2.48396-2.94412-3.17214-1.08332.71802-2.00607,1.66552-3.04799,2.43662-10.32589,7.64193-24.87853,8.00431-35.67354,1.07797-.34365-.22049-2.20443-1.38959-2.15665-1.64963l17.12791-23.48197c.18497-.72158.22439-1.69794-.19445-2.33892l-4.66781-4.67982c-.20879-.55081.12503-.63338.42144-.89529.22963-.20291.10323-.50974.75375-.18369l4.5934,4.65813c.6498.44716,1.35099.43153,2.11377.35141L43.7911.00034c.2598-.02357,1.06311,1.17685,1.26339,1.45298,6.12377,8.44328,7.44047,20.20037,3.26346,29.78441-1.51895,3.48518-3.89271,6.72325-6.40199,9.52535l3.05487,2.93166c1.00889-.08625,2.25702.00193,3.23501-.11344,1.81579-.2142,3.71071-.4915,5.53346-.69494.36481-.04072,1.74523-.23237,1.95414-.09177.40762.69863.53862,1.48001.59256,2.28122.10361,1.5391-.06302,3.32963-.63322,4.75402-.27488.68668-1.52101,2.50739-1.46708,3.03467.0363.35492.67994.66527.86293.93072ZM43.92517,2.0455l-.8572.10961c-3.98288,3.3169-8.6884,6.09914-12.65584,9.38204-.13286.10993-.47617.41643-.46001.58155l.95256,2.22448,16.75855-5.25978c-.93376-2.49977-2.21769-4.85012-3.73807-7.0379ZM31.37329,18.66625h18.08651c-.01597-2.92669-.5499-5.87117-1.50512-8.62807l-16.3853,5.17127c-.24876.12043-.28763.26317-.32175.51665-.04409.32755.02466,2.83279.12566,2.94014ZM23.34874,17.10863l6.39464-1.92857c.67611-.21642-.11619-2.03255-.34264-2.26547-.17198-.17689-.45261-.15884-.66092-.05537l-4.72966,3.53434-.66142.71506ZM30.41507,18.60636v-2.63485c0-.12452-.26678-.18461-.40559-.17767-.2443.01222-1.43473.40364-1.77813.50925-1.15467.35511-2.3019.83206-3.44607,1.22515-.75487.25935-1.6706.38573-2.39474.84036-.1293.56229,1.73011.28032,1.9758.2899,1.70722.06653,3.96209.32997,5.6356.13361.17434-.02046.30796-.01483.41313-.18575ZM29.80419,22.48603l.56068-2.86912-7.08245-.23788c-.35596-.09189-.58523.42259-.33938.61672,1.91509.68024,3.76849,1.54547,5.67567,2.20329.37124.12804.63726.48228,1.18548.28699ZM47.6484,29.66944c.88562-2.57569,1.66644-5.45135,1.81025-8.18987.01729-.32927.07834-1.52993-.11619-1.67799l-17.95229-.16033-.84604,3.32157,17.10428,6.70662ZM22.34537,20.47175c-.23462.06666-.25748.41774-.13483.58945l4.85206,4.84907c.17157.10735.42571.10573.59764.00137.13128-.07968,1.53457-2.32263,1.50445-2.46466-.0169-.07971-.08216-.1556-.12963-.22324l-6.6897-2.75199ZM20.47408,22.02032l2.87032,7.1331c.12947.10288.22915.0436.35807-.00773.18798-.07484,2.26917-1.49771,2.3455-1.618.15204-.23961-.05176-.46963-.18541-.65718-.33989-.47698-4.58003-4.68264-4.90373-4.79716-.15912-.05629-.31861-.06684-.48476-.05303ZM18.79537,22.25982c-.21823-.04881-.23716.0665-.34137.20025-.77742.99778-1.22509,3.2963-1.6336,4.58996-.14769.46769-1.19876,2.86505-.82855,3.12725.48159.04746,2.40016.48234,2.68988.29046.07027-.04654.09755-.15211.12675-.23216l-.01311-7.97576ZM19.39547,22.67841v7.18596c0,.0578.17886.28198.23954.35934.28714.1756,2.6975-.36273,2.88724-.5887.06151-.07326.10788-.14669.10449-.24667-.64753-1.72018-1.36672-3.42448-2.09278-5.09368-.23833-.54791-.38425-1.21317-.7753-1.74007l-.36318.12382ZM15.07233,29.91558c.40552-.64125.44844-1.37351.67013-2.02713.27831-.8206,1.33509-3.34421,1.26534-4.01565-.01872-.18017-.01933-.30568-.18933-.41526l-3.9829,5.36039-.01248.37357,2.24925.72409ZM47.17623,30.65196l-16.84995-6.81942c-.09946-.0349-.1772-.00163-.26686.03877-.13748.06194-1.61159,2.2398-1.65498,2.4245-.06763.28786-.08203.68901.08783.94035l12.64127,12.5996c.24975.01981,1.15299-1.09248,1.37609-1.35128,1.93362-2.24301,3.69266-5.03923,4.66661-7.83253ZM26.66957,28.14267c-.1453.02228-2.32061,1.51431-2.43175,1.65225-.16998.21098-.22704.35341-.14453.63409l6.61674,16.59397c1.95116-.75959,3.82438-1.75848,5.56408-2.91655.50719-.33762,3.6602-2.59288,3.59479-2.96763l-13.19932-12.99614ZM14.592,30.65402c-.71068-.10127-2.19566-.9396-2.81089-.49838-.77884,1.12912-1.63029,2.20563-2.44869,3.30534-1.14981,1.54501-2.26455,3.24446-3.41961,4.83929-1.06018,1.46384-2.5238,3.04346-3.43607,4.5887-.27087.45881-.62434.98673-.20282,1.46132.42836.4823,3.02697,1.78949,3.74515,2.12283.61139.28377,2.2623,1.05581,2.83421,1.1301.12223.01588.20651.05869.30807-.05941l5.43066-16.88978ZM23.09688,30.5314l-3.25752.70734c-.38895.47378-.08514,1.01237-.07944,1.49516.05671,4.79619-.08146,9.59012.1196,14.37186.03099.73698-.03242,1.48462-.00556,2.22123,1.86325.02563,3.71683-.26124,5.53271-.63704.5748-.11896,4.21311-.98305,4.26247-1.33579l-6.57226-16.82275ZM18.79738,31.48061c-.49175.02467-2.99066-.65295-3.24831-.28767-1.31526,4.32278-2.86353,8.57886-4.21271,12.88964-.28576.91304-.86736,2.44383-1.01494,3.29581-.04193.24209-.05752.49596-.01663.73864,2.80862.72649,5.69052,1.30064,8.61218,1.20996l-.1196-17.84637ZM51.67569,44.41595c-.39108,0-.40058,1.71831-.19097,1.98745.34468.44259,3.0414,1.10656,3.66405,1.49697.48015.08475.50502-.76033.53786-1.15062.03201-.38034.12154-2.33381-.29781-2.33381h-3.71312ZM49.78215,44.81682c-.38037-.00956-1.62202.07279-1.93828.19904-.14942.05965-.32585.07756-.29995.2966.04066.17193,2.46558.99361,2.79715.89054.34158-.10619.4496-1.36083-.55892-1.38618ZM48.22026,46.46609l-.19738.2837c.41444.41959,1.47543,2.00325,1.97353.89745.39283-.87209-1.16545-1.07032-1.77615-1.18115ZM52.77289,51.40349c.2193.20612.18136.53197.69677.44478.39612-.067,1.70221-2.22605,1.47677-2.79542-.87354-1.0084-2.56766-1.13019-3.73463-1.74765-.61028.589-1.00032.85839-.77193,1.82008.76764.77232,1.53983,1.53267,2.33303,2.2782ZM45.62426,47.77109c-.12619-.01752-.24542-.01078-.35969.05493-.14258.08199-.43643,1.09606-.46915,1.32679-.16587,1.16962.25896,1.48045,1.38098,1.14181.41397-.3117-.13188-.96626-.25002-1.32763-.12028-.36793-.14297-.81946-.30213-1.1959ZM46.46574,48.00977c.15414.56964.20414,1.91609,1.01446,1.92467,1.72584.01826-.497-2.3666-1.01446-1.92467ZM49.26092,50.60272c-.27879-.26158-.2647-.6214-.91698-.41711-.09412.02948-.78558.77317-.80343.88329-.05523.34056.95317,3.97333,1.15875,4.01566.53464-.07071,1.12419-.30739,1.60437-.54299.28193-.13833,1.68017-.96429,1.6791-1.20334-.84796-.96889-1.78437-1.85593-2.7218-2.73551ZM47.78369,55.43446l-1.13671-4.1938c-2.92971-.64936-1.61507.73061-1.97568,2.19356-.03694.14987-.39991.10632-.47957.50575-.48499,2.43181,2.0976,1.47249,3.59196,1.4945Z"/><path class="cls-1" d="M47.17623,30.65196c-.97395,2.7933-2.73299,5.58952-4.66661,7.83253-.2231.2588-1.12634,1.37109-1.37609,1.35128l-12.64127-12.5996c-.16986-.25134-.15546-.65249-.08783-.94035.04339-.18471,1.5175-2.36256,1.65498-2.4245.08966-.04039.1674-.07367.26686-.03877l16.84995,6.81942ZM24.23782,29.79493c-.16998.21098-.22704.35341-.14453.63409l6.61674,16.59397c1.95116-.75959,3.82438-1.75848,5.56408-2.91655.50719-.33762,3.6602-2.59288,3.59479-2.96763l-13.19932-12.99614c-.1453.02228-2.32061,1.51431-2.43175,1.65225ZM49.45865,21.47957c.01729-.32927.07834-1.52993-.11619-1.67799l-17.95229-.16033-.84604,3.32157,17.10428,6.70662c.88562-2.57569,1.66644-5.45135,1.81025-8.18987ZM19.83936,31.23874c-.38895.47378-.08514,1.01237-.07944,1.49516.05671,4.79619-.08146,9.59012.1196,14.37186.03099.73698-.03242,1.48462-.00556,2.22123,1.86325.02563,3.71683-.26124,5.53271-.63704.5748-.11896,4.21311-.98305,4.26247-1.33579l-6.57226-16.82275-3.25752.70734ZM49.4598,18.66625c-.01597-2.92669-.5499-5.87117-1.50512-8.62807l-16.3853,5.17127c-.24876.12043-.28763.26317-.32175.51665-.04409.32755.02466,2.83279.12566,2.94014h18.08651ZM15.54907,31.19294c-1.31526,4.32278-2.86353,8.57886-4.21271,12.88964-.28576.91304-.86736,2.44383-1.01494,3.29581-.04193.24209-.05752.49596-.01663.73864,2.80862.72649,5.69052,1.30064,8.61218,1.20996l-.1196-17.84637c-.49175.02467-2.99066-.65295-3.24831-.28767ZM11.78111,30.15564c-.77884,1.12912-1.63029,2.20563-2.44869,3.30534-1.14981,1.54501-2.26455,3.24446-3.41961,4.83929-1.06018,1.46384-2.5238,3.04346-3.43607,4.5887-.27087.45881-.62434.98673-.20282,1.46132.42836.4823,3.02697,1.78949,3.74515,2.12283.61139.28377,2.2623,1.05581,2.83421,1.1301.12223.01588.20651.05869.30807-.05941l5.43066-16.88978c-.71068-.10127-2.19566-.9396-2.81089-.49838ZM43.06797,2.15511c-3.98288,3.3169-8.6884,6.09914-12.65584,9.38204-.13286.10993-.47617.41643-.46001.58155l.95256,2.22448,16.75855-5.25978c-.93376-2.49977-2.21769-4.85012-3.73807-7.0379l-.8572.10961ZM48.34394,50.18561c-.09412.02948-.78558.77317-.80343.88329-.05523.34056.95317,3.97333,1.15875,4.01566.53464-.07071,1.12419-.30739,1.60437-.54299.28193-.13833,1.68017-.96429,1.6791-1.20334-.84796-.96889-1.78437-1.85593-2.7218-2.73551-.27879-.26158-.2647-.6214-.91698-.41711ZM53.46965,51.84827c.39612-.067,1.70221-2.22605,1.47677-2.79542-.87354-1.0084-2.56766-1.13019-3.73463-1.74765-.61028.589-1.00032.85839-.77193,1.82008.76764.77232,1.53983,1.53267,2.33303,2.2782.2193.20612.18136.53197.69677.44478ZM46.64698,51.24065c-2.92971-.64936-1.61507.73061-1.97568,2.19356-.03694.14987-.39991.10632-.47957.50575-.48499,2.43181,2.0976,1.47249,3.59196,1.4945l-1.13671-4.1938ZM51.48472,46.40341c.34468.44259,3.0414,1.10656,3.66405,1.49697.48015.08475.50502-.76033.53786-1.15062.03201-.38034.12154-2.33381-.29781-2.33381h-3.71312c-.39108,0-.40058,1.71831-.19097,1.98745Z"/></svg>