<?xml version="1.0" encoding="UTF-8"?><svg id="Layer_2" xmlns="http://www.w3.org/2000/svg" width="20.294" height="16.99006" xmlns:xlink="http://www.w3.org/1999/xlink" viewBox="0 0 20.294 16.99006"><defs><style>.cls-1{fill:#fff;fill-rule:evenodd;}.cls-2{fill:url(#linear-gradient);}</style><linearGradient id="linear-gradient" x1="-268.21699" y1="385.57005" x2="-267.21699" y2="385.57005" gradientTransform="translate(2173.62237 6625.324) rotate(15.9454) scale(14.56022 -14.95938)" gradientUnits="userSpaceOnUse"><stop offset="0" stop-color="#612c75"/><stop offset=".3" stop-color="#7b5190"/><stop offset=".5" stop-color="#bf99c3"/><stop offset=".7" stop-color="#7b5190"/><stop offset="1" stop-color="#612c75"/></linearGradient></defs><g id="Layer_1-2"><path class="cls-1" d="M6.936,2.66054c-.224,1.323.127,2.4,1.02,3.239l.037.032c.446.344.653.685.5,1.075v.001c-.217.553-.356.89-.42,1.007l-.121.221H0l5.344,1.38c-.589.319-1.031.752-1.33,1.292-.164-.122-.339-.164-.514-.151-.178.013-.378.093-.575.286-.462.441-.747.72-.852.83l-.001.001c-.17.179-.223.373-.202.568.016.151.084.32.246.485l.007.007c4.972,4.652,11.019,4.032,11.414,4.026h0c.3-.005.502-.111.632-.25.144-.154.232-.375.186-.679l-.183-1.075c-.03-.171-.106-.305-.212-.409-.131-.128-.324-.22-.598-.217h-.003c.224-1.323-.126-2.4-1.019-3.239l-.038-.032c-.447-.344-.653-.685-.5-1.075.216-.552.354-.888.419-1.005l.125-.224h7.948l-5.343-1.38c.589-.319,1.032-.752,1.331-1.293.164.123.338.165.513.152.179-.013.379-.093.576-.286.46-.44.745-.718.851-.828l.001-.002c.171-.18.224-.375.203-.57-.017-.151-.085-.321-.249-.485l-.006-.007C13.2-.59547,7.153.02453,6.758.03053h0c-.301.005-.503.112-.632.251-.144.154-.231.374-.185.678l.182,1.074c.031.173.107.307.212.409.133.129.325.221.598.218,0,0,.003,0,.003,0Z"/><path class="cls-2" d="M11.784,8.73554c-.069.124-.218.479-.448,1.065s-.01,1.138.661,1.654c.888.835,1.136,1.946.746,3.333l-.012.042h.636c.183-.002.287.069.312.214.026.145.086.499.181,1.062.035.232-.076.35-.331.354-.383.006-6.246.617-11.057-3.884-.128-.13-.141-.249-.038-.358.103-.108.383-.381.84-.818.184-.18.351-.193.502-.037.15.157.29.292.42.404.352-1.202,1.316-1.934,2.893-2.196l.048-.008-3.202-.827s7.849,0,7.849,0ZM10.122,10.08754c-.566,1.111-.722,2.18-.468,3.208.382,1.541,1.778,1.539,1.778,1.539.482-.907.318-1.802-.49-2.685-.603-.662-.877-1.35-.82-2.062ZM9.168,9.67854c-.394.597-1.033.97-1.916,1.12-1.18.198-1.86.803-2.04,1.814,0,0,1.1.862,2.349-.118.832-.653,1.368-1.592,1.607-2.816ZM17.822,4.41454c.129.13.142.249.039.358-.104.108-.384.381-.84.818-.184.18-.351.193-.502.036-.134-.14-.274-.275-.42-.403-.352,1.202-1.316,1.934-2.893,2.196l-.048.008,3.201.827h-7.848c.068-.124.218-.479.447-1.065.23-.586.01-1.138-.66-1.654-.888-.835-1.137-1.946-.747-3.333l.012-.042h-.636c-.182.002-.286-.07-.312-.214-.06-.354-.12-.708-.18-1.062-.035-.232.075-.35.33-.354.383-.006,6.247-.617,11.057,3.884ZM9.129,2.26054c-.398.71-.358,1.33.119,1.861.477.531,1.814,1.04,4.01,1.525.88.094,1.41-.36,1.591-1.364-1.659-1.148-3.566-1.821-5.72-2.022Z"/></g></svg>