<?xml version="1.0" encoding="UTF-8"?><svg id="Layer_2" xmlns="http://www.w3.org/2000/svg" width="1031.06006" height="1080.01001" viewBox="0 0 1031.06006 1080.01001"><defs><style>.cls-1{fill:red;}.cls-1,.cls-2{fill-rule:evenodd;}</style></defs><g id="Layer_2-2"><g id="Layer_1-2"><g id="Mythic1"><path class="cls-1" d="M515.53003,1035.06995c-101.64001-56.41992-199.85004-122.41992-296.08003-193.98993,19.14-211.23999,11.94-426.64001-26.84-647.03001,47.90001,16.81,100.16002,36.09999,179.34001,63.68001,34.92999,46.62,78.34,82.81,143.58002,82.81s108.65002-36.19,143.58002-82.81c79.17999-27.59,131.44-46.87,179.34003-63.67999-38.78003,220.38998-45.97998,435.79001-26.84003,647.03006-96.22998,71.57001-194.44,137.57001-296.08002,193.98999v-.00012ZM185.52,815.56c-25.38-19.29999-50.62-38.95001-75.77-58.88,12.01-213.15997-5.21-413.04001-43.13-603.5,32.41,9.60001,60,18.38,86.99001,27.47,39.88,216.25,48.82001,427.63004,31.91,634.91995l-.00002-.00995ZM845.54004,815.56c-16.90997-207.28998-7.96997-418.67001,31.90997-634.91998,26.98999-9.08,54.58002-17.87,86.98999-27.47-37.91998,190.45999-55.14001,390.35001-43.13,603.50003-25.15002,19.92999-50.39001,39.59003-75.77002,58.88h0l.00006.00995ZM515.5,303.01001c-52.70001-.01001-98.20999-31.08002-119.20001-75.88L57.22,97.18c36.25-15.08,75.06999-38.17,111.31-61.63,21.49001,19.14,107.53,73.07,179.23001,91.14,98.29001,24.79001,156.58002,83.72,167.77002,163.94,11.20001-80.22,69.47998-139.14999,167.77002-163.94,71.70001-18.07,157.73999-72,179.22998-91.14,36.23999,23.46,75.06,46.55,111.31,61.63l-339.08002,129.95999c-20.98999,44.8-66.48999,75.86-119.20001,75.87999h-.07001l.01001-.00998Z"/><path class="cls-2" d="M1031.06006,82.76001C967.02002,64.10999,909.19,36.91992,858.42999.01001c-21.89001,35.78003-121.96002,80.77997-172.62,97.32996-69.06,22.56006-119.45001,27.98004-170.27997,117.92004v-.01001c-50.83002-89.94-101.22003-95.35999-170.28003-117.91998C294.59003,80.77997,194.52002,35.78003,172.63,0,121.87,36.90991,64.03998,64.09998,0,82.75c67.26001,229.76996,87.20001,461.13,57.20001,694.14001,148.28998,110.92999,299.65997,215.02997,458.32001,303.12,158.66998-88.09003,310.03998-192.19,458.32001-303.12-29.98004-233.01001-10.04004-464.37006,57.22003-694.13ZM168.53003,35.55005c21.48999,19.13989,107.52997,73.06995,179.22998,91.13995,98.29004,24.78998,156.58002,83.71997,167.77002,163.94,11.20001-80.22003,69.47998-139.15002,167.77002-163.94,71.70001-18.07001,157.73999-72.00006,179.22998-91.13995,36.23999,23.45996,75.06,46.54993,111.31,61.62994l-339.08002,129.96002c-20.98999,44.79999-66.48999,75.85999-119.20001,75.87994h-.07001l.01001-.00995c-52.70001-.01001-98.20996-31.08002-119.20001-75.88L57.22003,97.17999c36.25-15.08002,75.06995-38.16998,111.31-61.62994ZM185.52002,815.56995v-.00995c-25.38-19.29999-50.62-38.95001-75.77002-58.88,12.01001-213.15997-5.20996-413.04004-43.13-603.5,32.41003,9.59998,60,18.38,86.99005,27.46997,39.88,216.25,48.82001,427.63007,31.90997,634.91998ZM515.53003,1035.07007v-.00012c-101.64001-56.41992-199.85004-122.41992-296.08002-193.98993,19.14001-211.23999,11.94-426.64001-26.84003-647.03003,47.90002,16.81,100.16003,36.09998,179.34003,63.67999,34.92999,46.62,78.34003,82.81,143.58002,82.81s108.65002-36.19,143.58002-82.81c79.17999-27.58997,131.44-46.87,179.34003-63.67999-38.78003,220.39001-45.97998,435.79004-26.84003,647.03009-96.22998,71.57001-194.44,137.57001-296.08002,193.98999ZM845.54004,815.56c-16.90997-207.28998-7.96997-418.67004,31.90997-634.91998,26.98999-9.08002,54.58002-17.87,86.98999-27.47003-37.91998,190.46002-55.14001,390.35004-43.13,603.50006-25.15002,19.92999-50.39001,39.59003-75.77002,58.88l.00006.00995ZM551.59003,441.48001c42.52997,78.41,90.59003,144.68002,144.47998,198.47l30.29999,30.23999-31.5,28.98999c-59.59998,54.85999-107,119.12-142.37,192.64001l-36.96997,76.87-36.97-76.87c-35.36002-73.51001-82.76004-137.77002-142.37003-192.64001l-31.5-28.98999,30.29999-30.23999c53.89001-53.78003,101.95001-120.06,144.48001-198.47l36.06003-66.5,36.06,66.5Z"/></g></g></g></svg>