<?xml version="1.0" encoding="UTF-8"?><svg id="Layer_2" xmlns="http://www.w3.org/2000/svg" width="1031.06006" height="1080.01001" xmlns:xlink="http://www.w3.org/1999/xlink" viewBox="0 0 1031.06006 1080.01001"><defs><style>.cls-1{fill:url(#linear-gradient-2);}.cls-2{fill:#fff;}.cls-2,.cls-3,.cls-4,.cls-5,.cls-6{fill-rule:evenodd;}.cls-3{fill:url(#linear-gradient-3);}.cls-4{fill:url(#linear-gradient-4);}.cls-6{fill:url(#linear-gradient);}</style><linearGradient id="linear-gradient" x1="192.61" y1="614.56004" x2="838.45007" y2="614.56004" gradientUnits="userSpaceOnUse"><stop offset=".05893" stop-color="#b7281b"/><stop offset=".06228" stop-color="#b82a1a"/><stop offset=".11555" stop-color="#ca4b12"/><stop offset=".17224" stop-color="#d9670b"/><stop offset=".23386" stop-color="#e57c06"/><stop offset=".30204" stop-color="#ed8b02"/><stop offset=".38188" stop-color="#f29400"/><stop offset=".50176" stop-color="#f49700"/><stop offset=".62657" stop-color="#f29400"/><stop offset=".70692" stop-color="#ed8b02"/><stop offset=".7747" stop-color="#e57c06"/><stop offset=".83555" stop-color="#da670b"/><stop offset=".8917" stop-color="#cb4c12"/><stop offset=".94374" stop-color="#b92b1a"/><stop offset=".94924" stop-color="#b7281b"/></linearGradient><linearGradient id="linear-gradient-2" x1="77.38986" y1="486.75891" x2="211.32937" y2="480.19968" gradientUnits="userSpaceOnUse"><stop offset=".08463" stop-color="#bb2c26"/><stop offset=".2697" stop-color="#bc2f24"/><stop offset=".42539" stop-color="#c23921"/><stop offset=".57046" stop-color="#cb4b1a"/><stop offset=".70913" stop-color="#d86312"/><stop offset=".84194" stop-color="#e98307"/><stop offset=".91248" stop-color="#f49700"/></linearGradient><linearGradient id="linear-gradient-3" x1="835.86109" y1="480.22969" x2="965.31868" y2="487.97389" gradientUnits="userSpaceOnUse"><stop offset="0" stop-color="#f5951e"/><stop offset=".02452" stop-color="#f08d1e"/><stop offset=".14997" stop-color="#dd6a21"/><stop offset=".27728" stop-color="#ce4f23"/><stop offset=".40562" stop-color="#c33b24"/><stop offset=".53563" stop-color="#bd2f25"/><stop offset=".66988" stop-color="#bb2c26"/></linearGradient><linearGradient id="linear-gradient-4" x1="-234.61163" y1="-144.30852" x2="-233.61163" y2="-144.30852" gradientTransform="translate(347630.9668 214148.52344) scale(1482.79004)" gradientUnits="userSpaceOnUse"><stop offset="0" stop-color="#bb2c26"/><stop offset=".04" stop-color="#bf3526"/><stop offset=".11" stop-color="#cb4d25"/><stop offset=".19" stop-color="#de7523"/><stop offset=".21" stop-color="#e17a23"/><stop offset=".29" stop-color="#ee8b1f"/><stop offset=".38" stop-color="#f5951e"/><stop offset=".5" stop-color="#ff9915"/><stop offset=".62" stop-color="#f5951e"/><stop offset=".71" stop-color="#ee8b1f"/><stop offset=".79" stop-color="#e17a23"/><stop offset=".8" stop-color="#e07823"/><stop offset=".85" stop-color="#d35d24"/><stop offset=".91" stop-color="#c64225"/><stop offset=".96" stop-color="#be3226"/><stop offset="1" stop-color="#bb2c26"/></linearGradient></defs><g id="Layer_2-2"><g id="Layer_1-2"><g id="Mythic1"><path id="path16" class="cls-5" d="M515.53003,215.25999c50.82996-89.93999,101.21997-95.35999,170.27997-117.92C736.46997,80.79,836.53998,35.79,858.42999.01c50.76001,36.91,108.59003,64.1,172.63007,82.75-67.26007,229.75999-87.20007,461.12-57.22003,694.13001-148.28003,110.92999-299.65002,215.02997-458.32001,303.12-158.66003-88.09003-310.03001-192.19-458.32002-303.12C87.2,543.88,67.26,312.51999,0,82.75,64.04,64.1,121.87,36.91,172.63,0c21.89,35.78,121.95999,80.78,172.62,97.33,69.06,22.56,119.45001,27.98,170.28003,117.92h0v.00999Z"/><path class="cls-6" d="M515.53003,1035.06995c-101.64001-56.41992-199.85004-122.41992-296.08003-193.98993,19.14-211.23999,11.94-426.64001-26.84-647.03001,47.90001,16.81,100.16002,36.09999,179.34001,63.68001,34.92999,46.62,78.34,82.81,143.58002,82.81s108.65002-36.19,143.58002-82.81c79.17999-27.59,131.44-46.87,179.34003-63.67999-38.78003,220.38998-45.97998,435.79001-26.84003,647.03006-96.22998,71.57001-194.44,137.57001-296.08002,193.98999v-.00012Z"/><path class="cls-1" d="M185.52,815.56c-25.38-19.29999-50.62-38.95001-75.77-58.88,12.01-213.15997-5.21-413.04001-43.13-603.5,32.41,9.60001,60,18.38,86.99001,27.47,39.88,216.25,48.82001,427.63004,31.91,634.91995l-.00002-.00995Z"/><path class="cls-3" d="M845.54004,815.56c-16.90997-207.28998-7.96997-418.67001,31.90997-634.91998,26.98999-9.08,54.58002-17.87,86.98999-27.47-37.91998,190.45999-55.14001,390.35001-43.13,603.50003-25.15002,19.92999-50.39001,39.59003-75.77002,58.88h0l.00006.00995Z"/><path id="path18" class="cls-4" d="M515.5,303.01001c-52.70001-.01001-98.20999-31.08002-119.20001-75.88L57.22,97.18c36.25-15.08,75.06999-38.17,111.31-61.63,21.49001,19.14,107.53,73.07,179.23001,91.14,98.29001,24.79001,156.58002,83.72,167.77002,163.94,11.20001-80.22,69.47998-139.14999,167.77002-163.94,71.70001-18.07,157.73999-72,179.22998-91.14,36.23999,23.46,75.06,46.55,111.31,61.63l-339.08002,129.95999c-20.98999,44.8-66.48999,75.86-119.20001,75.87999h-.07001l.01001-.00998Z"/><path id="path19" class="cls-5" d="M551.59003,441.48001c42.52997,78.41,90.59003,144.68002,144.47998,198.47l30.29999,30.23999-31.5,28.98999c-59.59998,54.85999-107,119.12-142.37,192.64001l-36.96997,76.87-36.97-76.87c-35.36002-73.51001-82.76004-137.77002-142.37003-192.64001l-31.5-28.98999,30.29999-30.23999c53.89001-53.78003,101.95001-120.06,144.48001-198.47l36.06003-66.5,36.06,66.5Z"/><path id="path20" class="cls-2" d="M515.53003,461.04001c44.58002,82.18997,95.06,151.56998,151.56,207.94998-63.46002,58.40002-113.91998,126.78998-151.56,205.03998-37.64001-78.25-88.10001-146.64001-151.56-205.03998,56.5-56.38,106.98001-125.76001,151.56-207.95001v.00003Z"/></g></g></g></svg>