<?xml version="1.0" encoding="UTF-8"?><svg id="Layer_2" xmlns="http://www.w3.org/2000/svg" width="1080.35999" height="635.88" xmlns:xlink="http://www.w3.org/1999/xlink" viewBox="0 0 1080.35999 635.88"><defs><style>.cls-1{fill:url(#linear-gradient-3);}.cls-1,.cls-2,.cls-3,.cls-4{fill-rule:evenodd;}.cls-2{fill:url(#linear-gradient-2);}.cls-3{fill:url(#radial-gradient);}.cls-4{fill:url(#linear-gradient);}</style><radialGradient id="radial-gradient" cx="537.24886" cy="282.49834" fx="537.24886" fy="282.49834" r="120.20921" gradientTransform="translate(0 -27.52223) scale(1 1.09742)" gradientUnits="userSpaceOnUse"><stop offset=".11589" stop-color="#f49700"/><stop offset=".29687" stop-color="#f29300"/><stop offset=".43289" stop-color="#ed8a03"/><stop offset=".55423" stop-color="#e47a06"/><stop offset=".66695" stop-color="#d7630c"/><stop offset=".77274" stop-color="#c74613"/><stop offset=".85996" stop-color="#b7281b"/></radialGradient><linearGradient id="linear-gradient" x1="190.48265" y1="302.09001" x2="487.40264" y2="302.09001" gradientUnits="userSpaceOnUse"><stop offset=".2845" stop-color="#f49700"/><stop offset=".38498" stop-color="#ef8e03"/><stop offset=".54632" stop-color="#e2760b"/><stop offset=".74711" stop-color="#ce5018"/><stop offset=".91318" stop-color="#bb2c26"/></linearGradient><linearGradient id="linear-gradient-2" x1="592.43267" y1="302.09001" x2="889.35265" y2="302.09001" gradientUnits="userSpaceOnUse"><stop offset=".07" stop-color="#b7281b"/><stop offset=".17405" stop-color="#c44015"/><stop offset=".35942" stop-color="#d8650b"/><stop offset=".53154" stop-color="#e78005"/><stop offset=".68372" stop-color="#f09101"/><stop offset=".8" stop-color="#f49700"/></linearGradient><linearGradient id="linear-gradient-3" x1="38.25998" y1="326.61501" x2="1041.5966" y2="326.61501" gradientUnits="userSpaceOnUse"><stop offset=".18" stop-color="#bb2c26"/><stop offset=".21012" stop-color="#c7421d"/><stop offset=".25923" stop-color="#d76113"/><stop offset=".31094" stop-color="#e3780a"/><stop offset=".36568" stop-color="#ec8904"/><stop offset=".42551" stop-color="#f29301"/><stop offset=".5" stop-color="#f49700"/><stop offset=".57449" stop-color="#f29301"/><stop offset=".63432" stop-color="#ec8904"/><stop offset=".68906" stop-color="#e3780a"/><stop offset=".74077" stop-color="#d76113"/><stop offset=".78988" stop-color="#c7421d"/><stop offset=".82" stop-color="#bb2c26"/></linearGradient></defs><g id="m"><path d="M374.59998,283.77002c39.74005-36.25,71.92999-78.44,96.66003-126.5l11.29999-21.96997-19.56-15.12006c-54.47998-42.07996-122.03003-80.29999-204.47003-108.41998L224.01996,0l-4.56,36.16003c-15.35999,122.13-33.37,241.75-57.60999,357.96997l-6.01001,28.86005,28.79999,6.23999c106.78003,23.09998,200.92004,74.95996,282.23004,156.06995l50.67999,50.57001v-155.02997l-2.22998-5.41998c-28.08002-68.35999-76.46002-131.98999-140.72003-191.65002ZM487.83997,564.29999c-85.52002-85.31995-184.60999-139.77997-296.91998-164.07996,24.39996-116.98999,42.53998-237.40002,58.01001-360.34003h.00995c78.98004,26.92999,143.71002,63.48999,195.90002,103.81-28.13,54.65002-66.58002,101.20001-115.54004,139.47998,73.30005,62.91998,128.41003,130.21002,158.54004,203.56v77.57001ZM650.98999,305.88l22.79999-20.98999-21.94-21.89001c-31.98999-31.92999-60.5-71.28998-85.75-117.83997l-25.73999-47.46002v-.67999l-.19.34998-.17999-.34998v.67999l-25.73999,47.46002c-25.25,46.54999-53.76001,85.90997-85.75,117.83997l-21.94,21.89001,22.79999,20.98999c35.27002,32.46002,63.31,70.47998,84.23999,113.97998l26.39001,54.88v.77002l.17999-.38.19.38v-.76996l26.39001-54.88c20.92999-43.5,48.96997-81.52002,84.23999-113.98004ZM449.46997,284.03998c33.88-33.82001,64.15002-75.41998,90.89001-124.69995,26.73999,49.27997,57.01001,90.88995,90.89001,124.69995-38.04999,35.02002-68.32001,76.03003-90.89001,122.95001-22.57001-46.91998-52.84003-87.94-90.89001-122.95001ZM117.92999,446.45001L184.06995,113.98999l-22-9.52997c-17.81-7.72003-36-13.27002-54.75995-15.34998h-.01001l-27.73004-3.08002L0,542.12c152.19995-18.45001,281.63,2.63,395.07996,51.48999-59.20996-65.71997-165.28998-134.95996-277.14996-147.15997ZM36.00995,508.42999L104.03998,118.63c15.83997,1.75,31.15997,6.55005,46.21002,13.08002l-68.02002,341.83997c77.39996,2.90002,143.51001,25.58002,202.31,61.03998-77.75-24.72998-159.91998-35.53998-248.53003-26.15997ZM1000.77991,86.03003l-27.72998,3.08002v-.01001c-18.76001,2.08002-36.94995,7.63-54.76001,15.34998l-22,9.53003,66.14014,332.45996c-111.86011,12.21002-217.94006,81.45001-277.15009,147.15997,113.45001-48.85999,242.88007-69.92999,395.08002-51.48999l-79.58008-456.07996ZM796.17993,534.59998c58.79993-35.45996,124.91003-58.14001,202.30994-61.03998l-68.0199-341.83997c15.04993-6.53003,30.37-11.33002,46.21008-13.08002l-.00012-.01001,68.03003,389.81c-88.60999-9.38-170.78003,1.42999-248.53003,26.15997ZM924.5,423l-6.01001-28.85999c-24.23999-116.22003-42.25-235.83002-57.60999-357.96997l-4.56006-36.17004-34.49994,11.76001-.01001.01001c-82.44,28.12-149.98999,66.34003-204.47003,108.41998l-19.56,15.12,11.29999,21.97003c24.73004,48.06,56.90002,90.25,96.66003,126.5-64.26001,59.65997-112.64001,123.28998-140.72003,191.64996l-2.22998,5.42004v155.02997l50.67999-50.57001c81.31-81.10999,175.45001-132.96997,282.2301-156.07001l28.79993-6.23999ZM592.87,564.29999v-77.56995c30.13-73.34003,85.25-140.64001,158.53998-203.56-48.95996-38.28003-87.40997-84.83002-115.53998-139.48004,52.19-40.32001,116.91998-76.88,195.90002-103.81h.00995c15.47003,122.94,33.61005,243.35004,58.00995,360.34003-112.30994,24.29999-211.38995,78.76001-296.91992,164.07996Z"/><path class="cls-3" d="M540.35997,406.99001c-22.57001-46.91998-52.84-87.94-90.89001-122.95001,33.88-33.82001,64.15002-75.42,90.89001-124.7,26.73999,49.28,57.01001,90.89,90.89001,124.7-38.04999,35.01999-68.32001,76.03-90.89001,122.95001Z"/><path class="cls-4" d="M248.93997,39.88002c78.98,26.93,143.71001,63.49,195.89998,103.81-28.13,54.64999-66.58002,101.2-115.54001,139.47998,73.30002,62.91998,128.41,130.21002,158.54001,203.56v77.57001c-85.51999-85.31998-184.60999-139.78-296.91998-164.07999,24.40001-116.98999,42.54001-237.39999,58.01001-360.34h.00999Z"/><path class="cls-2" d="M831.77995,39.88002c15.47003,122.94001,33.61005,243.35001,58.01001,360.34-112.31,24.29999-211.39001,78.76001-296.91998,164.07999v-77.56998c30.13-73.34,85.25-140.64001,158.53998-203.56-48.95996-38.28001-87.40997-84.83002-115.53998-139.48001,52.19-40.32,116.91998-76.88,195.90002-103.81h.00995Z"/><path class="cls-1" d="M104.03998,118.63003c15.84,1.75,31.16,6.55,46.21001,13.08l-68.02001,341.83998c77.4,2.89999,143.51,25.57999,202.30999,61.03998-77.74998-24.72998-159.91999-35.53998-248.52999-26.15997L104.03998,118.63003ZM976.67992,118.63003l68.03003,389.81c-88.60999-9.38-170.78003,1.42999-248.53003,26.15997,58.79999-35.45999,124.91003-58.14001,202.31-61.04001l-68.01996-341.83997c15.04999-6.53,30.37-11.33,46.21002-13.08h0l-.00006-.00999Z"/></g></svg>