<?xml version="1.0" encoding="UTF-8" standalone="no"?>
<!DOCTYPE svg PUBLIC "-//W3C//DTD SVG 1.1//EN" "http://www.w3.org/Graphics/SVG/1.1/DTD/svg11.dtd">
<svg width="100%" height="100%" viewBox="0 0 32 12" version="1.1" xmlns="http://www.w3.org/2000/svg" xmlns:xlink="http://www.w3.org/1999/xlink" xml:space="preserve" xmlns:serif="http://www.serif.com/" style="fill-rule:evenodd;clip-rule:evenodd;stroke-linejoin:round;stroke-miterlimit:2;">
    <g transform="matrix(1,0,0,1.034658,0,-8.578133)">
        <path d="M24.408,13.111C24.712,13.117 25.016,13.11 25.319,13.131C26.386,13.206 27.425,13.472 28.453,13.742C27.271,13.993 26.066,14.009 24.872,14.133C23.816,14.243 23.082,14.822 22.032,14.631C21.667,14.564 21.68,14.339 21.769,14.142C22.155,13.287 23.308,13.154 24.408,13.111ZM20.197,14.644C20.29,14.645 20.253,14.661 20.302,14.67C20.439,14.722 20.405,15.141 20.283,15.338C20.166,15.526 17.848,15.82 17.711,15.754C17.574,15.688 17.234,15.474 17.335,15.154C17.427,15.019 17.973,14.937 18.062,14.92C18.811,14.776 19.436,14.693 20.197,14.644Z"/>
    </g>
    <g transform="matrix(1,0,0,1,0,-8)">
        <path d="M24.247,12.196C25.321,12.239 24.858,12.202 25.636,12.281C27.972,12.565 28.932,13.276 31.739,12.388C31.81,12.373 31.896,12.339 31.961,12.408C32.038,12.49 31.982,12.69 31.961,12.76C31.822,13.224 31.527,13.638 31.252,14.029C31.616,13.899 31.438,13.969 31.786,13.821C31.837,13.8 31.92,13.773 31.944,13.849C31.999,14.025 31.775,14.331 31.692,14.441C31.14,15.164 30.331,15.706 29.44,15.909C26.379,17.571 24.533,17.808 21.89,17.972C21.617,17.804 21.391,17.581 21.168,17.354C20.836,17.264 20.489,17.313 20.153,17.353L3.09,19.699C2.995,19.725 3.084,19.701 2.817,19.75C1.387,19.971 0.131,19.518 0.011,18.739C-0.109,17.96 0.952,17.15 2.382,16.929L2.384,16.929L2.382,16.916L15.963,14.934C16.601,14.424 17.901,14.255 18.683,14.13C19.397,14.014 20.114,13.919 20.83,13.821L20.841,13.739C20.847,13.636 20.838,13.678 20.858,13.61C20.919,13.4 20.919,13.342 21.042,13.161C21.65,12.265 23.281,12.242 24.249,12.197L24.247,12.196ZM20.197,14.573C19.436,14.624 18.811,14.71 18.062,14.859C17.973,14.877 17.427,14.961 17.335,15.101C17.234,15.432 17.574,15.654 17.711,15.722C17.848,15.79 20.166,15.486 20.283,15.291C20.405,15.088 20.439,14.654 20.302,14.6C20.253,14.591 20.29,14.575 20.197,14.574L20.197,14.573ZM24.408,12.987C23.308,13.031 22.155,13.169 21.769,14.054C21.68,14.258 21.667,14.491 22.032,14.56C23.082,14.758 23.816,14.158 24.872,14.045C26.066,13.916 27.271,13.9 28.453,13.64C27.425,13.361 26.386,13.086 25.319,13.008C25.016,12.986 24.711,12.994 24.407,12.988L24.408,12.987Z" style="fill:white;fill-rule:nonzero;"/>
    </g>
</svg>
