<?xml version="1.0" encoding="UTF-8"?>
<svg id="Layer_1" data-name="Layer 1" xmlns="http://www.w3.org/2000/svg" viewBox="0 0 200.65086 200">
  <defs>
    <style>
      .cls-1 {
        fill: #a5cfc5;
      }

      .cls-2 {
        fill: #9bc2b9;
      }

      .cls-3 {
        fill: #9dc5bc;
      }

      .cls-4 {
        fill: #9cc4bb;
      }

      .cls-5 {
        fill: #bababa;
      }

      .cls-6 {
        fill: #a0c8be;
      }

      .cls-7 {
        fill: #fcfcd8;
      }

      .cls-8 {
        fill: none;
      }

      .cls-9 {
        fill: #97bdb4;
      }

      .cls-10 {
        fill: #b7b7b7;
      }
    </style>
  </defs>
  <path d="M121.74107,22.97976c-.18376.30999-5.81925,1.86037-5.98494,4.00874,7.5243.32252,7.09493-6.35699,12.80879.69113,5.28636,6.5208,9.58705,18.89215,6.40727,27.06012-2.72197,6.99197-15.85673,4.99892-17.7277,8.25064-2.09637,3.64349,1.26469,20.67499-1.41319,22.58293-8.26156,5.03277-2.07593-15.76238-8.06294-10.56538-.39024.33874,2.54528,6.88149-4.99028,6.98636l-.51712-8.00023c-4.90293,1.03389.29239,12.32621-5.96703,11.01435-1.74397-.3655-1.44545-10.05471-4.49595-11.00709-1.91984,3.68398,1.60815,14.1536-3.99789,11.48835-6.61129-3.14318.7386-17.46093-2.06966-21.84078-3.26304-5.08914-15.87052-.64765-18.44036-10.62245-2.85805-11.09346,3.41737-24.07331,12.0166-31.02088,1.48662,6.68363,1.93594,8.83072,9.4822,8.98311-25.8384-23.29458,38.21596-16.88822,32.95221-8.00894ZM79.51514,39.21859c-6.82347,1.58466-11.7733,14.44661-.20522,15.7733,28.60857,3.281,12.60106-18.65207.20522-15.7733ZM129.49732,53.76049c6.28881-6.32525-6.24933-22.45619-17.38793-11.41135-15.75812,15.62547,14.35823,14.4586,17.38793,11.41135ZM100.78743,65.99289l-1.50564-13.9873c-4.05572,4.59263-4.14961,11.33489-3.03251,17.05164l10.5125.94435c.44879-5.90986-.06529-12.22625-3.97836-16.99603l-1.99599,12.98735Z"/>
  <path d="M175.99343,102.70239c.3504.47177,2.54055.35183,3.63393,1.88527,1.61543,2.2656-.23487,4.50187.16329,5.23996.27113.5026,4.35689,1.60251,5.42326,5.12088,1.18577,3.91232-.32007,6.60273-.03787,9.55838.21351,2.23628,3.20118,3.45078,1.76787,7.1893-2.95042,7.69562-8.89149.45869-11.66318.21841-8.21093-.7118-16.80857,1.33085-17.57351,10.58222-1.12113,13.55921,3.37062,9.50608,12.67875,12.35364,1.64511.50327,2.78419-.7324,2.29363,2.14352l-4.98226.01764,1.98613,2.98213c-1.78796.8574-8.41135-1.46962-8.97921-.99341-.46746.39201,1.14658,3.66985-1.51038,3.01911-3.58825-.19119-6.40793-7.9353-8.50152-.0271-2.51923,1.52439-3.12161-7.90159-8.95605.00634.55717-8.39969-8.18523-3.99615-13.9895-5.01032,6.94024-8.05064,17.0544-.39192,14.99097-13.51383-.77106-4.90337-5.13903-8.56442-9.97923-9.10742-3.2693-.36677-7.00098,10.21637-15.09255,4.21714-7.46933-5.53788-1.40853-10.45628-1.07867-13.26023.1784-1.51649-3.06719-3.94267-1.39175-9.41472.95076-3.10522,3.37004-1.85965,4.6302-3.5926,3.05194-4.19701-.04432-10.53336,3.33107-14.41451,4.83451-5.55889,9.86263-.50385,11.97435-1.02781,2.05473-.50982,3.04059-10.20337,14.74691-9.30823,5.84774.44716,7.29315,4.736,9.55016,5.2934,3.14568.77687,5.03251-2.13048,10.17402.73657,4.01974,2.24152,4.23911,6.20887,6.39114,9.10628ZM148.71031,112.99462c-2.30099-2.4936-4.53522,2.54878-.48914,4.99986.8345-.51736.65939-4.81536.48914-4.99986ZM162.70183,115.01995l-4.98646-2.01951.00005,8.99921c2.86693-1.24951,4.0294-4.24347,4.98642-6.9797ZM141.72359,120.98845c-1.51835-3.49064-3.86845-3.22504-6.98264-1.97381l6.98264,1.97381ZM166.68741,124.99639l-6.98012,3.992c3.96978-.87846,9.65234.68472,6.98012-3.992ZM143.70979,133.99984c.76577-7.26791-6.43222-7.42773-11.96795-6.98819l11.96795,6.98819Z"/>
  <g>
    <path class="cls-8" d="M48.59258,110.23425c-17.64264,2.60345-15.89124,33.42255,7.50317,28.52881,15.52844-3.24829,12.49023-31.47919-7.50317-28.52881Z"/>
    <path class="cls-8" d="M77.46666,117.09711c-.51654.17853-6.80249,8.56598-8.54346,1.21893-.8407-3.54785,4.03772-3.34424,4.75934-6.02612.63373-2.35529-1.78888-4.98376-.42603-7.29559,1.37305-2.3291,7.23676-1.74957,8.53589-3.98285-3.62439.91626-15.3205-3.44409-16.83612.62494-.65741,1.76501.44751,4.92688-.27295,6.21692-1.04095,1.86401-6.51617.3277-7.33051-1.78473-.43042-1.11633.8559-3.56781.06323-6.10583-1.47864-4.73474-7.2774-4.3764-2.59589-12.96222-.50494-.61981-12.32782,8.56616-10.95929,10.96692.35986.63123,6.11218.81366,3.45947,7.00159-3.37036,7.862-7.36688-1.30316-9.18085-1.83337-2.48615-.72662-4.41754,1.40662-6.81219-.01965-3.13464-1.867-2.18414-6.29999-4.44995-8.11047.7392,4.33142-3.23413,10.81738-1.34467,14.7746.9126,1.91132,12.23273.81915,8.60559,7.95367-2.2937,4.51166-5.73248.28351-8.57605,2.15887-1.53284,1.01093-.97949,3.75116-2.36139,4.16522-3.28149.98315-8.64899-2.59436-9.31836-2.04675,1.9021,3.57361,6.64746,12.06537,11.25977,10.84705,3.14172-.8299,5.18793-8.83075,9.60242.82172.33325,1.93268-3.13409,1.87225-4.18396,4.61414-1.49518,3.90485,1.72894,9.23334-7.68854,9.71832-1.63324,1.89746,13.25415,4.05347,14.86285,1.87433.83136-1.1261-.94623-6.06042,1.05182-7.45013.90668-.63062,6.8111-.68701,7.05896-.43451.67468.68719-.99127,5.24811-.57251,7.04681.96173,4.1308,8.70306,5.67291,1.57532,13.45844.03168,2.46533,12.65863-7.50134,12.0531-10.90436-.09332-.52454-7.75061-4.99115-2.38159-8.67133,5.04584-3.45868,5.27728,3.20831,8.00623,3.94751,2.35358.63751,4.1543-1.80475,6.83569.02026,2.46674,1.67889,2.33575,6.51392,4.43134,8.09448.03027-2.71875,2.79242-14.50769.90204-15.88641-1.04651-.76331-11.49304.69507-8.14655-6.85449,1.64221-3.70471,4.29852-.2868,7.5769-1.39496,2.0166-.68158,2.01624-4.51904,5.20892-4.88531,3.21869-.36926,5.48938,3.55652,8.44745,2.53308-2.82446-2.86823-7.52155-13.06561-12.31549-11.40869ZM44.16008,140.1853c-16.79211-7.06403-10.78339-32.64056,7.17554-32.63812,26.20221.0036,19.94836,44.04846-7.17554,32.63812Z"/>
    <path class="cls-7" d="M13.882,50C7.30858,61.43384,2.83231,73.58039.89806,87c-1.02497,7.11111-1.3583,16.88889,0,26,5.44043,34.99025,27.61742,63.76383,58.38549,78.03237,12.29499,5.70174,25.7155,8.56545,39.26383,8.91086l2.22708.05678v-100L13.882,50ZM81.3347,125.97272c-3.19269.36627-3.19232,4.20374-5.20892,4.88531-3.27838,1.10815-5.93469-2.30975-7.5769,1.39496-3.3465,7.54956,7.10004,6.09119,8.14655,6.85449,1.89038,1.37872-.87177,13.16766-.90204,15.88641-2.09558-1.58057-1.9646-6.41559-4.43134-8.09448-2.6814-1.82501-4.48212.61725-6.83569-.02026-2.72894-.7392-2.96039-7.40619-8.00623-3.94751-5.36902,3.68018,2.28827,8.14679,2.38159,8.67133.60553,3.40302-12.02142,13.36969-12.0531,10.90436,7.12775-7.78552-.61359-9.32764-1.57532-13.45844-.41876-1.79871,1.24719-6.35962.57251-7.04681-.24786-.2525-6.15228-.19611-7.05896.43451-1.99805,1.38971-.22046,6.32404-1.05182,7.45013-1.6087,2.17914-16.49609.02313-14.86285-1.87433,9.41748-.48499,6.19336-5.81348,7.68854-9.71832,1.04987-2.74188,4.51721-2.68146,4.18396-4.61414-4.41449-9.65247-6.46069-1.65161-9.60242-.82172-4.6123,1.21832-9.35767-7.27344-11.25977-10.84705.66937-.54761,6.03687,3.02991,9.31836,2.04675,1.3819-.41406.82855-3.1543,2.36139-4.16522,2.84357-1.87537,6.28235,2.35278,8.57605-2.15887,3.62714-7.13452-7.69299-6.04236-8.60559-7.95367-1.88947-3.95721,2.08386-10.44318,1.34467-14.7746,2.26581,1.81049,1.31531,6.24347,4.44995,8.11047,2.39465,1.42627,4.32605-.70697,6.81219.01965,1.81396.53021,5.81049,9.69537,9.18085,1.83337,2.65271-6.18793-3.09961-6.37036-3.45947-7.00159-1.36853-2.40076,10.45435-11.58673,10.95929-10.96692-4.68152,8.58582,1.11725,8.22748,2.59589,12.96222.79266,2.53802-.49365,4.9895-.06323,6.10583.81433,2.11243,6.28955,3.64874,7.33051,1.78473.72046-1.29004-.38446-4.4519.27295-6.21692,1.51562-4.06903,13.21173.29132,16.83612-.62494-1.29913,2.23328-7.16284,1.65375-8.53589,3.98285-1.36285,2.31183,1.05975,4.94031.42603,7.29559-.72162,2.68188-5.60004,2.47827-4.75934,6.02612,1.74097,7.34705,8.02692-1.04041,8.54346-1.21893,4.79395-1.65692,9.49103,8.54047,12.31549,11.40869-2.95807,1.02344-5.22876-2.90234-8.44745-2.53308Z"/>
    <path class="cls-7" d="M51.33562,107.54718c-17.95892-.00244-23.96765,25.5741-7.17554,32.63812,27.1239,11.41034,33.37775-32.63452,7.17554-32.63812ZM56.09575,138.76306c-23.39441,4.89374-25.14581-25.92535-7.50317-28.52881,19.99341-2.95038,23.03162,25.28052,7.50317,28.52881Z"/>
  </g>
  <g>
    <path class="cls-8" d="M115.75615,26.98853c.16565-2.14838,5.80115-3.69879,5.98492-4.00879,5.26373-8.87927-58.79059-15.28558-32.95221,8.00897-7.54626-.1524-7.99561-2.2995-9.48218-8.98309-8.59924,6.94757-14.87469,19.92737-12.0166,31.02087,2.56982,9.97479,15.17731,5.53326,18.44031,10.62244,2.80829,4.37982-4.54163,18.69757,2.0697,21.84076,5.60602,2.66528,2.07806-7.80438,3.99786-11.48834,3.05054.95239,2.75201,10.6416,4.49597,11.00708,6.2594,1.31189,1.06409-9.98047,5.96704-11.01434l.51709,8.00024c7.53558-.10486,4.60004-6.64764,4.9903-6.98639,5.987-5.19696-.19861,15.59814,8.06293,10.56537,2.67786-1.9079-.68317-18.93939,1.41321-22.58289,1.87097-3.25171,15.00574-1.25867,17.72766-8.25067,3.17981-8.16797-1.12091-20.53931-6.40723-27.06012-5.71387-7.0481-5.28448-.36859-12.80878-.6911ZM79.30992,54.99188c-11.56805-1.32666-6.61823-14.18866.2052-15.77332,12.39587-2.87872,28.40338,19.05432-.2052,15.77332ZM106.76177,70.00159l-10.51245-.94434c-1.11713-5.7168-1.02325-12.45905,3.03247-17.05164l1.50568,13.9873,1.99597-12.98737c3.91309,4.76978,4.42712,11.08618,3.97833,16.99603ZM129.4973,53.7605c-3.02966,3.04724-33.14606,4.21411-17.38794-11.41138,11.13861-11.0448,23.67676,5.08612,17.38794,11.41138Z"/>
    <path class="cls-5" d="M103.08723,0h-3.76899c-25.91316,0-50.91441,10.15658-69.071,28.64522-6.51862,6.63784-12.09941,13.93476-16.36523,21.35478l86.89246,50,86.89246-50c-8.77665-15.26679-20.05763-27.10584-33.73973-35.71114C138.74297,4.73881,121.025,0,103.08723,0ZM134.97215,54.73975c-2.72192,6.992-15.85669,4.99896-17.72766,8.25067-2.09637,3.64349,1.26465,20.67499-1.41321,22.58289-8.26154,5.03278-2.07593-15.76233-8.06293-10.56537-.39026.33875,2.54529,6.88153-4.9903,6.98639l-.51709-8.00024c-4.90295,1.03387.29236,12.32623-5.96704,11.01434-1.74396-.36548-1.44543-10.05469-4.49597-11.00708-1.9198,3.68396,1.60815,14.15363-3.99786,11.48834-6.61133-3.14319.73859-17.46094-2.0697-21.84076-3.263-5.08917-15.87048-.64764-18.44031-10.62244-2.85809-11.09351,3.41736-24.0733,12.0166-31.02087,1.48657,6.68359,1.93591,8.83069,9.48218,8.98309-25.83838-23.29456,38.21594-16.88824,32.95221-8.00897-.18378.31-5.81927,1.86041-5.98492,4.00879,7.52429.32251,7.09491-6.35699,12.80878.6911,5.28632,6.52081,9.58704,18.89215,6.40723,27.06012Z"/>
    <path class="cls-5" d="M112.10936,42.34912c-15.75812,15.62549,14.35828,14.45862,17.38794,11.41138,6.28882-6.32526-6.24933-22.45618-17.38794-11.41138Z"/>
    <path class="cls-5" d="M79.51512,39.21857c-6.82343,1.58466-11.77325,14.44666-.2052,15.77332,28.60858,3.28101,12.60107-18.65204.2052-15.77332Z"/>
    <path class="cls-10" d="M100.78746,65.99292l-1.50568-13.9873c-4.05573,4.59259-4.1496,11.33484-3.03247,17.05164l10.51245.94434c.44879-5.90985-.06525-12.22626-3.97833-16.99603l-1.99597,12.98737Z"/>
  </g>
  <g>
    <path class="cls-8" d="M185.21391,114.94849c-1.06641-3.51837-5.15216-4.61829-5.42328-5.12085-.39813-.7381,1.45215-2.97437-.16327-5.23999-1.09338-1.53345-3.28351-1.41351-3.63391-1.88525-2.15204-2.8974-2.3714-6.86475-6.39117-9.10626-5.14148-2.86707-7.02832.04028-10.17401-.73657-2.25702-.55743-3.70239-4.84625-9.55017-5.2934-11.7063-.89514-12.6922,8.7984-14.74689,9.30823-2.11176.52393-7.13983-4.53113-11.97437,1.02777-3.37537,3.88116-.27911,10.21753-3.33105,14.41455-1.26019,1.73297-3.67944.48737-4.63019,3.59259-1.67548,5.47205,1.57013,7.89825,1.39172,9.41473-.32983,2.80396-6.39069,7.72235,1.07867,13.26019,8.09155,5.99927,11.82324-4.58386,15.09253-4.2171,4.84021.54297,9.20819,4.20404,9.97925,9.10742,2.06342,13.12189-8.05072,5.4632-14.99097,13.51379,5.80426,1.01422,14.54663-3.38934,13.9895,5.01031,5.83441-7.9079,6.43683,1.51807,8.95605-.00629,2.09357-7.9082,4.91327-.16412,8.50153.0271,2.65692.6507,1.04291-2.62714,1.51038-3.01917.56781-.4762,7.19122,1.85083,8.97919.99341l-1.98615-2.98212,4.9823-.01764c.49054-2.87592-.64856-1.64026-2.29364-2.14349-9.30811-2.8476-13.79987,1.20557-12.67877-12.35364.76495-9.2514,9.36261-11.29401,17.57355-10.58221,2.77167.24023,8.71277,7.47717,11.66315-.21844,1.43335-3.73853-1.55432-4.953-1.76788-7.18927-.28217-2.95569,1.22369-5.64606.0379-9.55841ZM141.72362,120.98846l-6.98267-1.97382c3.1142-1.25122,5.46429-1.51685,6.98267,1.97382ZM143.70976,133.99982l-11.9679-6.98816c5.53571-.43951,12.7337-.27972,11.9679,6.98816ZM148.22118,117.99451c-4.04608-2.45111-1.81183-7.49347.48914-4.99988.17023.18451.34534,4.48248-.48914,4.99988ZM157.71544,121.99963l-.00006-8.99921,4.98645,2.01953c-.95703,2.73621-2.11951,5.73016-4.98639,6.97968ZM159.70726,128.9884l6.98016-3.992c2.67218,4.6767-3.01038,3.11353-6.98016,3.992Z"/>
    <path class="cls-1" d="M187.66692,50l-86.89246,50v100h.15674c18.41763,0,36.60623-4.85689,52.2196-14.62581,13.53445-8.46818,24.94095-19.99576,33.43156-33.61742,9.35978-15.0161,14.0685-32.46756,14.0685-50.16187v-3.2554c0-16.66972-4.2931-33.06319-12.53433-47.55325-.14859-.26126-.29846-.52332-.44962-.78625ZM186.94389,131.69617c-2.95038,7.69562-8.89148.45868-11.66315.21844-8.21094-.71179-16.80859,1.33081-17.57355,10.58221-1.12109,13.5592,3.37067,9.50604,12.67877,12.35364,1.64508.50323,2.78418-.73242,2.29364,2.14349l-4.9823.01764,1.98615,2.98212c-1.78796.85742-8.41138-1.4696-8.97919-.99341-.46747.39203,1.14655,3.66986-1.51038,3.01917-3.58826-.19122-6.40796-7.9353-8.50153-.0271-2.51923,1.52435-3.12164-7.90161-8.95605.00629.55713-8.39966-8.18524-3.99609-13.9895-5.01031,6.94025-8.0506,17.05438-.39191,14.99097-13.51379-.77106-4.90338-5.13904-8.56445-9.97925-9.10742-3.26929-.36676-7.00098,10.21637-15.09253,4.2171-7.46936-5.53784-1.40851-10.45624-1.07867-13.26019.17841-1.51648-3.0672-3.94269-1.39172-9.41473.95074-3.10522,3.37-1.85962,4.63019-3.59259,3.05194-4.19702-.04431-10.53339,3.33105-14.41455,4.83453-5.5589,9.86261-.50385,11.97437-1.02777,2.05469-.50983,3.04059-10.20337,14.74689-9.30823,5.84778.44714,7.29315,4.73596,9.55017,5.2934,3.14569.77686,5.03253-2.13049,10.17401.73657,4.01978,2.24152,4.23914,6.20886,6.39117,9.10626.3504.47174,2.54053.35181,3.63391,1.88525,1.61542,2.26562-.23486,4.50189.16327,5.23999.27112.50256,4.35687,1.60248,5.42328,5.12085,1.18579,3.91235-.32007,6.60272-.0379,9.55841.21356,2.23627,3.20123,3.45074,1.76788,7.18927Z"/>
    <path class="cls-9" d="M131.74187,127.01166l11.9679,6.98816c.76581-7.26788-6.43219-7.42767-11.9679-6.98816Z"/>
    <path class="cls-4" d="M157.71538,113.00043l.00006,8.99921c2.86688-1.24951,4.02936-4.24347,4.98639-6.97968l-4.98645-2.01953Z"/>
    <path class="cls-6" d="M159.70726,128.9884c3.96979-.87848,9.65234.68469,6.98016-3.992l-6.98016,3.992Z"/>
    <path class="cls-2" d="M134.74095,119.01465l6.98267,1.97382c-1.51837-3.49066-3.86847-3.22504-6.98267-1.97382Z"/>
    <path class="cls-3" d="M148.22118,117.99451c.83447-.5174.65936-4.81537.48914-4.99988-2.30096-2.49359-4.53522,2.54877-.48914,4.99988Z"/>
  </g>
  <g>
    <path class="cls-8" d="M51.33562,107.54718c-17.95892-.00244-23.96765,25.5741-7.17554,32.63812,27.1239,11.41034,33.37775-32.63452,7.17554-32.63812ZM56.09575,138.76306c-23.39441,4.89374-25.14581-25.92535-7.50317-28.52881,19.99341-2.95038,23.03162,25.28052,7.50317,28.52881Z"/>
    <path d="M77.46666,117.09711c-.51654.17853-6.80249,8.56598-8.54346,1.21893-.8407-3.54785,4.03772-3.34424,4.75934-6.02612.63373-2.35529-1.78888-4.98376-.42603-7.29559,1.37305-2.3291,7.23676-1.74957,8.53589-3.98285-3.62439.91626-15.3205-3.44409-16.83612.62494-.65741,1.76501.44751,4.92688-.27295,6.21692-1.04095,1.86401-6.51617.3277-7.33051-1.78473-.43042-1.11633.8559-3.56781.06323-6.10583-1.47864-4.73474-7.2774-4.3764-2.59589-12.96222-.50494-.61981-12.32782,8.56616-10.95929,10.96692.35986.63123,6.11218.81366,3.45947,7.00159-3.37036,7.862-7.36688-1.30316-9.18085-1.83337-2.48615-.72662-4.41754,1.40662-6.81219-.01965-3.13464-1.867-2.18414-6.29999-4.44995-8.11047.7392,4.33142-3.23413,10.81738-1.34467,14.7746.9126,1.91132,12.23273.81915,8.60559,7.95367-2.2937,4.51166-5.73248.28351-8.57605,2.15887-1.53284,1.01093-.97949,3.75116-2.36139,4.16522-3.28149.98315-8.64899-2.59436-9.31836-2.04675,1.9021,3.57361,6.64746,12.06537,11.25977,10.84705,3.14172-.8299,5.18793-8.83075,9.60242.82172.33325,1.93268-3.13409,1.87225-4.18396,4.61414-1.49518,3.90485,1.72894,9.23334-7.68854,9.71832-1.63324,1.89746,13.25415,4.05347,14.86285,1.87433.83136-1.1261-.94623-6.06042,1.05182-7.45013.90668-.63062,6.8111-.68701,7.05896-.43451.67468.68719-.99127,5.24811-.57251,7.04681.96173,4.1308,8.70306,5.67291,1.57532,13.45844.03168,2.46533,12.65863-7.50134,12.0531-10.90436-.09332-.52454-7.75061-4.99115-2.38159-8.67133,5.04584-3.45868,5.27728,3.20831,8.00623,3.94751,2.35358.63751,4.1543-1.80475,6.83569.02026,2.46674,1.67889,2.33575,6.51392,4.43134,8.09448.03027-2.71875,2.79242-14.50769.90204-15.88641-1.04651-.76331-11.49304.69507-8.14655-6.85449,1.64221-3.70471,4.29852-.2868,7.5769-1.39496,2.0166-.68158,2.01624-4.51904,5.20892-4.88531,3.21869-.36926,5.48938,3.55652,8.44745,2.53308-2.82446-2.86823-7.52155-13.06561-12.31549-11.40869ZM44.16008,140.1853c-16.79211-7.06403-10.78339-32.64056,7.17554-32.63812,26.20221.0036,19.94836,44.04846-7.17554,32.63812Z"/>
    <path d="M48.59258,110.23425c-17.64264,2.60345-15.89124,33.42255,7.50317,28.52881,15.52844-3.24829,12.49023-31.47919-7.50317-28.52881Z"/>
  </g>
</svg>