<?xml version="1.0" encoding="UTF-8"?>
<svg id="Layer_1" data-name="Layer 1" xmlns="http://www.w3.org/2000/svg" viewBox="0 0 200.38686 200">
  <defs>
    <style>
      .cls-1 {
        fill: #a8dff8;
      }

      .cls-2 {
        fill: #9dc5bc;
      }

      .cls-3 {
        fill: #b7b7b7;
      }
    </style>
  </defs>
  <path d="M156.42991,93.00038c-8.81439,22.37858,25.04679,33.91258,11.83399,55.33698-10.19942,16.53825-34.75872,11.41575-37.52526-8.09812-2.59888-18.33127,12.89767-36.1167,25.69127-47.23885ZM163.41178,125.0095c-.1443-.11656-2.09667-.36763-1.98291.49353l-1.56381,14.55714c10.89273,5.58091,7.64506-11.74025,3.54672-15.05067Z"/>
  <path d="M125.79121,27.70239c.3504.47177,2.54055.35183,3.63393,1.88527,1.61543,2.2656-.23487,4.50187.16329,5.23996.27113.5026,4.35689,1.60251,5.42326,5.12088,1.18577,3.91232-.32007,6.60273-.03787,9.55838.21351,2.23628,3.20118,3.45078,1.76787,7.1893-2.95042,7.69562-8.89149.45869-11.66318.21841-8.21093-.7118-16.80857,1.33085-17.57351,10.58222-1.12113,13.55921,3.37062,9.50608,12.67875,12.35364,1.64511.50327,2.78419-.7324,2.29363,2.14352l-4.98226.01764,1.98613,2.98213c-1.78796.8574-8.41135-1.46962-8.97921-.99341-.46746.39201,1.14658,3.66985-1.51038,3.01911-3.58825-.19119-6.40793-7.9353-8.50152-.0271-2.51923,1.52439-3.12161-7.90159-8.95605.00634.55717-8.39969-8.18523-3.99615-13.9895-5.01032,6.94024-8.05064,17.0544-.39192,14.99097-13.51383-.77106-4.90337-5.13903-8.56442-9.97923-9.10742-3.2693-.36677-7.00098,10.21637-15.09255,4.21714-7.46933-5.53788-1.40853-10.45628-1.07867-13.26023.1784-1.51649-3.06719-3.94267-1.39175-9.41472.95076-3.10522,3.37004-1.85965,4.6302-3.5926,3.05194-4.19701-.04432-10.53336,3.33107-14.41451,4.83451-5.55889,9.86263-.50385,11.97435-1.02781,2.05473-.50982,3.04059-10.20337,14.74691-9.30823,5.84774.44716,7.29315,4.736,9.55016,5.2934,3.14568.77687,5.03251-2.13048,10.17402.73657,4.01974,2.24152,4.23911,6.20887,6.39114,9.10628ZM98.5081,37.99462c-2.30099-2.4936-4.53522,2.54878-.48914,4.99986.8345-.51736.65939-4.81536.48914-4.99986ZM112.49961,40.01995l-4.98646-2.01951.00005,8.99921c2.86693-1.24951,4.0294-4.24347,4.98642-6.9797ZM91.52138,45.98845c-1.51835-3.49064-3.86845-3.22504-6.98264-1.97381l6.98264,1.97381ZM116.48519,49.99639l-6.98012,3.992c3.96978-.87846,9.65234.68472,6.98012-3.992ZM93.50758,58.99984c.76577-7.26791-6.43222-7.42773-11.96795-6.98819l11.96795,6.98819Z"/>
  <path d="M71.53885,97.97976c-.18376.30999-5.81925,1.86037-5.98494,4.00874,7.5243.32252,7.09493-6.35699,12.80879.69113,5.28636,6.5208,9.58705,18.89215,6.40727,27.06012-2.72197,6.99197-15.85673,4.99892-17.7277,8.25064-2.09637,3.64349,1.26469,20.67499-1.41319,22.58293-8.26156,5.03277-2.07593-15.76238-8.06294-10.56538-.39024.33874,2.54528,6.88149-4.99028,6.98636l-.51712-8.00023c-4.90293,1.03389.29239,12.32621-5.96703,11.01435-1.74397-.3655-1.44545-10.05471-4.49595-11.00709-1.91984,3.68398,1.60815,14.1536-3.99789,11.48835-6.61129-3.14318.7386-17.46093-2.06966-21.84078-3.26304-5.08914-15.87052-.64765-18.44036-10.62245-2.85805-11.09346,3.41737-24.07331,12.0166-31.02088,1.48662,6.68363,1.93594,8.83072,9.4822,8.98311-25.8384-23.29458,38.21596-16.88822,32.95221-8.00894ZM29.31293,114.21859c-6.82347,1.58466-11.7733,14.44661-.20522,15.7733,28.60857,3.281,12.60106-18.65207.20522-15.7733ZM79.2951,128.76049c6.28881-6.32525-6.24933-22.45619-17.38793-11.41135-15.75812,15.62547,14.35823,14.4586,17.38793,11.41135ZM50.58522,140.99289l-1.50564-13.9873c-4.05572,4.59263-4.14961,11.33489-3.03251,17.05164l10.5125.94435c.44879-5.90986-.06529-12.22625-3.97836-16.99603l-1.99599,12.98735Z"/>
  <g>
    <path class="cls-1" d="M187.40291,50l-86.89246,50v100l2.67946-.09934c16.65441-.61747,33.02589-5.02841,47.43097-13.4096,14.4751-8.42193,26.64588-20.26878,35.59725-34.57381,9.4547-15.1094,14.16872-32.70572,14.16872-50.52945v-2.8536c0-16.79733-4.31179-33.32521-12.631-47.91771-.11686-.20498-.23451-.41047-.35295-.61649ZM168.26393,148.33734c-10.19946,16.53827-34.75873,11.41577-37.52527-8.09808-2.59888-18.3313,12.89764-36.1167,25.69122-47.23889-8.81439,22.3786,25.04681,33.9126,11.83405,55.33698Z"/>
    <path class="cls-1" d="M163.41176,125.00952c-.14429-.11658-2.09662-.36768-1.98291.49353l-1.56378,14.55713c10.89276,5.58087,7.64508-11.7403,3.54669-15.05066Z"/>
  </g>
  <g>
    <path class="cls-2" d="M102.67151,0h-3.49805c-25.98949,0-51.08279,10.16823-69.27362,28.73022-6.48283,6.6151-12.03422,13.88142-16.28184,21.26978l86.89246,50,86.89246-50c-8.28366-14.40925-18.79821-25.76501-31.45689-34.2304C140.22816,5.25839,121.58015,0,102.67151,0ZM136.74171,56.69617c-2.95044,7.69562-8.89154.45868-11.66321.21844-8.21094-.71179-16.80859,1.33081-17.57349,10.58221-1.12115,13.5592,3.37061,9.50604,12.67871,12.35364,1.64514.50323,2.78418-.73242,2.29364,2.14349l-4.98224.01764,1.98608,2.98212c-1.7879.85742-8.41132-1.4696-8.97919-.99341-.46747.39203,1.14661,3.66986-1.51038,3.01917-3.58826-.19122-6.40796-7.9353-8.50153-.0271-2.51923,1.52435-3.12158-7.90161-8.95605.00629.55719-8.39966-8.18524-3.99609-13.9895-5.01031,6.94025-8.0506,17.05438-.39191,14.99097-13.51379-.77106-4.90338-5.13904-8.56445-9.97919-9.10742-3.26935-.36676-7.00098,10.21637-15.09259,4.2171-7.4693-5.53784-1.40851-10.45624-1.07867-13.26019.17841-1.51648-3.06714-3.94269-1.39172-9.41473.95074-3.10522,3.37006-1.85962,4.63019-3.59259,3.05194-4.19702-.04431-10.53339,3.33105-14.41455,4.83453-5.5589,9.86267-.50385,11.97437-1.02777,2.05475-.50983,3.04059-10.20337,14.74695-9.30823,5.84772.44714,7.29309,4.73596,9.55011,5.2934,3.14569.77686,5.03253-2.13049,10.17401.73657,4.01978,2.24152,4.23914,6.20886,6.39117,9.10626.3504.47174,2.54053.35181,3.63391,1.88525,1.61542,2.26562-.23486,4.50189.16333,5.23999.27112.50256,4.35687,1.60248,5.42322,5.12085,1.18579,3.91235-.32007,6.60272-.03784,9.55841.2135,2.23627,3.20117,3.45074,1.76788,7.18927Z"/>
    <path class="cls-2" d="M81.53963,52.01166l11.96796,6.98816c.76575-7.26788-6.43225-7.42767-11.96796-6.98816Z"/>
    <path class="cls-2" d="M107.51314,38.00043l.00006,8.99921c2.86694-1.24951,4.02942-4.24347,4.98639-6.97968l-4.98645-2.01953Z"/>
    <path class="cls-2" d="M109.50508,53.9884c3.96979-.87848,9.65234.68469,6.9801-3.992l-6.9801,3.992Z"/>
    <path class="cls-2" d="M84.53871,44.01465l6.98267,1.97382c-1.51837-3.49066-3.86847-3.22504-6.98267-1.97382Z"/>
    <path class="cls-2" d="M98.01893,42.99451c.83453-.5174.65942-4.81537.48914-4.99988-2.30096-2.49359-4.53522,2.54877-.48914,4.99988Z"/>
  </g>
  <g>
    <path class="cls-3" d="M13.61799,50C7.04457,61.43384,1.89717,73.50067.63405,87c-.77405,8.27203-.91386,18.66667,0,26,5.2934,34.04457,26.43089,62.06334,55.90977,76.6329,12.6594,6.25675,26.57367,9.56088,40.67969,10.21474l3.28695.15236v-100L13.61799,50ZM84.76997,129.73975c-2.72198,6.992-15.85675,4.99896-17.72772,8.25067-2.09637,3.64349,1.26471,20.67499-1.41321,22.58289-8.26154,5.03278-2.07593-15.76233-8.06293-10.56537-.3902.33875,2.54529,6.88153-4.9903,6.98639l-.51709-8.00024c-4.90295,1.03387.29236,12.32623-5.96704,11.01434-1.74396-.36548-1.44543-10.05469-4.49591-11.00708-1.91986,3.68396,1.60809,14.15363-3.99792,11.48834-6.61127-3.14319.73859-17.46094-2.06964-21.84076-3.26306-5.08917-15.87054-.64764-18.44037-10.62244-2.85803-11.09351,3.41736-24.0733,12.0166-31.02087,1.48663,6.68359,1.93591,8.83069,9.48218,8.98309-25.83838-23.29456,38.216-16.88824,32.95221-8.00897-.18372.31-5.81921,1.86041-5.98492,4.00879,7.52429.32251,7.09491-6.35699,12.80878.6911,5.28638,6.52081,9.58704,18.89215,6.40729,27.06012Z"/>
    <path class="cls-3" d="M61.90718,117.34912c-15.75812,15.62549,14.35822,14.45862,17.38794,11.41138,6.28882-6.32526-6.24933-22.45618-17.38794-11.41138Z"/>
    <path class="cls-3" d="M29.31294,114.21857c-6.82349,1.58466-11.77332,14.44666-.2052,15.77332,28.60852,3.28101,12.60101-18.65204.2052-15.77332Z"/>
    <path class="cls-3" d="M50.58522,140.99292l-1.50562-13.9873c-4.05573,4.59259-4.14966,11.33484-3.03253,17.05164l10.51251.94434c.44879-5.90985-.06531-12.22626-3.97839-16.99603l-1.99597,12.98737Z"/>
  </g>
</svg>