<?xml version="1.0" encoding="UTF-8"?>
<svg id="Layer_1" data-name="Layer 1" xmlns="http://www.w3.org/2000/svg" viewBox="0 0 200.40865 200">
  <defs>
    <style>
      .cls-1 {
        fill: #a8dff8;
      }

      .cls-2 {
        fill: #9dc5bc;
      }

      .cls-3 {
        fill: #fcfcd8;
      }
    </style>
  </defs>
  <path d="M56.57529,93.00038c-8.81439,22.37858,25.04679,33.91258,11.83399,55.33698-10.19942,16.53825-34.75872,11.41575-37.52526-8.09812-2.59888-18.33127,12.89767-36.1167,25.69127-47.23885ZM63.55716,125.0095c-.1443-.11656-2.09667-.36763-1.98291.49353l-1.56381,14.55714c10.89273,5.58091,7.64506-11.74025,3.54672-15.05067Z"/>
  <path d="M125.813,27.70239c.3504.47177,2.54055.35183,3.63393,1.88527,1.61543,2.2656-.23487,4.50187.16329,5.23996.27113.5026,4.35689,1.60251,5.42326,5.12088,1.18577,3.91232-.32007,6.60273-.03787,9.55838.21351,2.23628,3.20118,3.45078,1.76787,7.1893-2.95042,7.69562-8.89149.45869-11.66318.21841-8.21093-.7118-16.80857,1.33085-17.57351,10.58222-1.12113,13.55921,3.37062,9.50608,12.67875,12.35364,1.64511.50327,2.78419-.7324,2.29363,2.14352l-4.98226.01764,1.98613,2.98213c-1.78796.8574-8.41135-1.46962-8.97921-.99341-.46746.39201,1.14658,3.66985-1.51038,3.01911-3.58825-.19119-6.40793-7.9353-8.50152-.0271-2.51923,1.52439-3.12161-7.90159-8.95605.00634.55717-8.39969-8.18523-3.99615-13.9895-5.01032,6.94024-8.05064,17.0544-.39192,14.99097-13.51383-.77106-4.90337-5.13903-8.56442-9.97923-9.10742-3.2693-.36677-7.00098,10.21637-15.09255,4.21714-7.46933-5.53788-1.40853-10.45628-1.07867-13.26023.1784-1.51649-3.06719-3.94267-1.39175-9.41472.95076-3.10522,3.37004-1.85965,4.6302-3.5926,3.05194-4.19701-.04432-10.53336,3.33107-14.41451,4.83451-5.55889,9.86263-.50385,11.97435-1.02781,2.05473-.50982,3.04059-10.20337,14.74691-9.30823,5.84774.44716,7.29315,4.736,9.55016,5.2934,3.14568.77687,5.03251-2.13048,10.17402.73657,4.01974,2.24152,4.23911,6.20887,6.39114,9.10628ZM98.52989,37.99462c-2.30099-2.4936-4.53522,2.54878-.48914,4.99986.8345-.51736.65939-4.81536.48914-4.99986ZM112.52141,40.01995l-4.98646-2.01951.00005,8.99921c2.86693-1.24951,4.0294-4.24347,4.98642-6.9797ZM91.54317,45.98845c-1.51835-3.49064-3.86845-3.22504-6.98264-1.97381l6.98264,1.97381ZM116.50698,49.99639l-6.98012,3.992c3.96978-.87846,9.65234.68472,6.98012-3.992ZM93.52937,58.99984c.76577-7.26791-6.43222-7.42773-11.96795-6.98819l11.96795,6.98819Z"/>
  <g>
    <path class="cls-1" d="M13.63979,50C7.06636,61.43384,1.91896,73.50067.65584,87c-.77405,8.27203-.96941,18.11111,0,26,5.44043,34.99025,27.61742,63.57403,58.38549,77.75556,11.84676,5.46038,24.7096,8.36933,37.73649,9.04865l3.75442.19578v-100L13.63979,50ZM68.40926,148.33734c-10.1994,16.53827-34.75873,11.41577-37.52521-8.09808-2.59888-18.3313,12.89764-36.1167,25.69122-47.23889-8.81439,22.3786,25.04681,33.9126,11.83398,55.33698Z"/>
    <path class="cls-1" d="M63.55714,125.00952c-.14429-.11658-2.09662-.36768-1.98291.49353l-1.56378,14.55713c10.8927,5.58087,7.64508-11.7403,3.54669-15.05066Z"/>
  </g>
  <g>
    <path class="cls-3" d="M187.4247,50l-86.89246,50v100l1.35295-.03311c20.70148-.50662,40.93251-6.98795,57.63549-19.22798,9.94394-7.28697,18.52506-16.32648,25.36492-26.71231,10.33449-15.6922,15.52304-34.21685,15.52305-53.00639v-2.21278c0-16.9764-4.33851-33.69339-12.76727-48.42955-.07193-.12576-.14416-.25172-.21669-.37787ZM179.10457,125.9325c-1.3985.39612-.94171,4.11475-3.34412,4.92981-3.34613,1.13525-7.22516-2.89905-8.14917,2.89307-1.13843,7.13623,7.99048,4.44708,8.83331,5.23981.98071.92242-.97369,13.48584-1.01648,15.99927-2.20715-1.77637-1.57593-7.19299-5.02496-8.53693-2.31824-.90338-4.15588.9704-6.24286.42206-2.29254-.60242-3.95325-8.11902-8.43835-3.61859-4.02209,4.03577,2.91724,8.36884,2.66193,10.09528-.26996,1.82562-8.8952,8.1676-10.89825,9.64349,5.0025-9.13562-1.55115-9.59308-2.58545-13.95813-.83765-3.53503,3.74634-6.07709-.93408-7.04614-8.91663-1.84619-5.15564,4.16284-6.94012,7.03625-1.87677,3.02216-16.06171.74438-14.51959-1.01935,9.35358-.45605,6.30237-5.84698,7.71484-9.74872,1.13416-3.13287,5.13611-2.3277,4.10901-5.56006-2.70239-8.50415-8.28931,1.1131-12.0921.14825-1.73779-.44086-8.55713-9.07123-7.71613-9.84711,9.11713,4.85925,8.78528-2.36041,11.99438-3.54224,2.13098-.78479,8.4328,2.92627,7.66785-4.79749-.61292-6.18799-7.49219-3.06201-8.57385-3.74609-2.93427-1.85583,1.9787-12.70844.90112-15.91345,2.17487,1.6839,1.62396,7.29437,5.00323,8.52069,1.8623.67578,3.98425-1.05042,6.26343-.3949,2.81067.80835,1.64197,5.65332,6.9693,3.65863,7.64197-2.86139-1.25031-9.6496-1.25043-10.28986-.00012-.72565,8.94641-9.12335,10.95734-9.49957-5.33826,8.03516,1.96027,9.35437,2.82336,13.77197.4339,2.2207-1.31708,5.18994-.73962,6.11847.13025.20947,4.08716,1.77795,4.58246,1.82007,5.40363.45941,2.41559-4.24396,3.46991-7.07458,1.51556-4.06897,13.21173.29132,16.83612-.62494-1.30042,2.24042-7.13647,1.63348-8.51453,3.97833-1.54382,2.62683.86719,5.3183.38586,7.32959-.60956,2.54706-5.57935,2.46057-4.7406,5.99658,1.74274,7.34747,8.02673-1.04102,8.54352-1.21887,4.65741-1.60284,9.98749,8.67169,12.32092,11.89166-1.05634.85663-6.7619-4.06323-10.3172-3.05627Z"/>
    <path class="cls-3" d="M150.22945,107.27893c-20.20203.82629-22.28668,30.5152-2.81616,34.27374,26.16473,5.05078,27.27307-35.27405,2.81616-34.27374ZM155.72939,138.76257c-22.68585,4.75232-25.54431-25.86597-7.50262-28.52832,20.17792-2.9776,22.76068,25.33197,7.50262,28.52832Z"/>
  </g>
  <g>
    <path class="cls-2" d="M102.60361,0h-3.37746c-26.00928,0-51.12644,10.17125-69.32613,28.75227-6.47356,6.6092-12.01734,13.86758-16.26024,21.24773l86.89246,50,86.89246-50c-7.79639-13.56165-17.56892-24.41847-29.24528-32.70647C141.99294,5.80418,122.45323,0,102.60361,0ZM136.7635,56.69617c-2.95044,7.69562-8.89154.45868-11.66321.21844-8.21094-.71179-16.80859,1.33081-17.57349,10.58221-1.12115,13.5592,3.37061,9.50604,12.67871,12.35364,1.64514.50323,2.78418-.73242,2.29364,2.14349l-4.98224.01764,1.98608,2.98212c-1.7879.85742-8.41132-1.4696-8.97919-.99341-.46747.39203,1.14661,3.66986-1.51038,3.01917-3.58826-.19122-6.40796-7.9353-8.50153-.0271-2.51923,1.52435-3.12158-7.90161-8.95605.00629.55719-8.39966-8.18524-3.99609-13.9895-5.01031,6.94025-8.0506,17.05438-.39191,14.99097-13.51379-.77106-4.90338-5.13904-8.56445-9.97919-9.10742-3.26935-.36676-7.00098,10.21637-15.09259,4.2171-7.4693-5.53784-1.40851-10.45624-1.07867-13.26019.17841-1.51648-3.06714-3.94269-1.39172-9.41473.95074-3.10522,3.37006-1.85962,4.63019-3.59259,3.05194-4.19702-.04431-10.53339,3.33105-14.41455,4.83453-5.5589,9.86267-.50385,11.97437-1.02777,2.05475-.50983,3.04059-10.20337,14.74695-9.30823,5.84772.44714,7.29309,4.73596,9.55011,5.2934,3.14569.77686,5.03253-2.13049,10.17401.73657,4.01978,2.24152,4.23914,6.20886,6.39117,9.10626.3504.47174,2.54053.35181,3.63391,1.88525,1.61542,2.26562-.23486,4.50189.16333,5.23999.27112.50256,4.35687,1.60248,5.42322,5.12085,1.18579,3.91235-.32007,6.60272-.03784,9.55841.2135,2.23627,3.20117,3.45074,1.76788,7.18927Z"/>
    <path class="cls-2" d="M81.56142,52.01166l11.96796,6.98816c.76575-7.26788-6.43225-7.42767-11.96796-6.98816Z"/>
    <path class="cls-2" d="M107.53493,38.00043l.00006,8.99921c2.86694-1.24951,4.02942-4.24347,4.98639-6.97968l-4.98645-2.01953Z"/>
    <path class="cls-2" d="M109.52687,53.9884c3.96979-.87848,9.65234.68469,6.9801-3.992l-6.9801,3.992Z"/>
    <path class="cls-2" d="M84.5605,44.01465l6.98267,1.97382c-1.51837-3.49066-3.86847-3.22504-6.98267-1.97382Z"/>
    <path class="cls-2" d="M98.04073,42.99451c.83453-.5174.65942-4.81537.48914-4.99988-2.30096-2.49359-4.53522,2.54877-.48914,4.99988Z"/>
  </g>
  <g>
    <path d="M177.10085,117.09711c-.51678.17786-6.80078,8.56635-8.54352,1.21887-.83875-3.53601,4.13104-3.44952,4.7406-5.99658.48132-2.01129-1.92969-4.70276-.38586-7.32959,1.37805-2.34485,7.21411-1.73792,8.51453-3.97833-3.62439.91626-15.32056-3.44403-16.83612.62494-1.05432,2.83063,1.93372,7.534-3.46991,7.07458-.4953-.04211-4.45221-1.6106-4.58246-1.82007-.57745-.92853,1.17352-3.89777.73962-6.11847-.8631-4.4176-8.16162-5.73682-2.82336-13.77197-2.01093.37622-10.95746,8.77393-10.95734,9.49957.00012.64026,8.8924,7.42847,1.25043,10.28986-5.32733,1.99469-4.15863-2.85028-6.9693-3.65863-2.27917-.65552-4.40112,1.07068-6.26343.3949-3.37927-1.22632-2.82837-6.83679-5.00323-8.52069,1.07758,3.20502-3.83539,14.05762-.90112,15.91345,1.08167.68408,7.96094-2.44189,8.57385,3.74609.76495,7.72375-5.53687,4.0127-7.66785,4.79749-3.20911,1.18182-2.87726,8.40149-11.99438,3.54224-.841.77588,5.97833,9.40625,7.71613,9.84711,3.8028.96484,9.38971-8.6524,12.0921-.14825,1.0271,3.23236-2.97485,2.42719-4.10901,5.56006-1.41248,3.90173,1.63873,9.29266-7.71484,9.74872-1.54211,1.76373,12.64282,4.0415,14.51959,1.01935,1.78448-2.87341-1.9765-8.88245,6.94012-7.03625,4.68042.96906.09644,3.51111.93408,7.04614,1.0343,4.36505,7.58795,4.82251,2.58545,13.95813,2.00305-1.47589,10.6283-7.81787,10.89825-9.64349.25531-1.72644-6.68402-6.05951-2.66193-10.09528,4.48511-4.50043,6.14581,3.01617,8.43835,3.61859,2.08698.54834,3.92462-1.32544,6.24286-.42206,3.44904,1.34393,2.81781,6.76056,5.02496,8.53693.04279-2.51343,1.99719-15.07684,1.01648-15.99927-.84283-.79272-9.97174,1.89642-8.83331-5.23981.92401-5.79211,4.80304-1.75781,8.14917-2.89307,2.4024-.81506,1.94562-4.53369,3.34412-4.92981,3.5553-1.00696,9.26086,3.9129,10.3172,3.05627-2.33344-3.21997-7.66351-13.49451-12.32092-11.89166ZM147.41328,141.55267c-19.47052-3.75854-17.38586-33.44745,2.81616-34.27374,24.45691-1.00031,23.34857,39.32452-2.81616,34.27374Z"/>
    <path d="M148.22676,110.23425c-18.04169,2.66235-15.18323,33.28064,7.50262,28.52832,15.25806-3.19635,12.67529-31.50592-7.50262-28.52832Z"/>
  </g>
</svg>