<?xml version="1.0" encoding="UTF-8"?>
<svg id="Layer_1" data-name="Layer 1" xmlns="http://www.w3.org/2000/svg" viewBox="0 0 200.53235 200">
  <defs>
    <style>
      .cls-1 {
        fill: #9dc5bc;
      }

      .cls-2 {
        fill: #febbbb;
      }

      .cls-3 {
        fill: #fcfcd8;
      }

      .cls-4 {
        fill: #020101;
      }
    </style>
  </defs>
  <path class="cls-2" d="M156.09151,15.7696c12.65868,8.4654,23.17324,19.82116,31.4569,34.2304l-86.89248,50L13.76346,50c4.24763-7.38835,9.79902-14.65466,16.28185-21.26976C48.23616,10.16824,73.32947,0,99.31898,0h3.49798c18.90865,0,37.55667,5.25839,53.27455,15.7696ZM125.64045,37.99689c-4.06928-18.76255-21.83127-27.41631-39.95887-22.98389,2.1418,1.46738,18.34623,1.82818,14.97095,6.9722-.46767.71275-7.4949.72665-7.98082,3.00277,11.54994,1.46079,20.9838-10.5973,20.96206,10.00637l-4.97627-2.99411c-2.28817,6.68536,11.86497,10.66128,11.99743,11.53649.95133,6.28604-9.54422,18.73218-6.0278,1.46349-5.23753,3.62636-1.6018,10.55371-4.21657,16.26681-2.98202,6.51551-12.8788,6.45303-12.59952,1.40884.14905-2.69204,14.62232-10.96206,11.82802-18.66988-4.40095,1.64855-8.22532,4.84382-13.13157,5.31691-7.56425.72939-10.67219-4.10984-19.32797,1.67168-10.26425,6.85587-10.46611,21.62807-1.87717,29.8904,7.9555,7.65298,29.3042,3.9771,39.32785,1.10068-1.36018-2.124-14.73494.75293-10.53315-5.0405,1.81229-2.49879,29.89-.96782,28.02536-15.93967-3.63849,4.20248-9.32222,5.65715-14.48692,6.98337,11.8704-12.44519,19.48146-22.65661,9.97272-39.98034-2.58438,1.65703,3.15274,10.5652-1.96773,9.98838ZM75.66106,26.00281c.14699.07936.48565,2.59684,1.52367,2.97586.97697-4.5038,9.57164-4.51775,8.41034-8.38488-2.3347-7.77455-14.98554,3.16201-15.89347,7.91348,1.6735,1.63933,4.96966-3.03881,5.95947-2.50445ZM103.64867,29.00209c-1.54219-1.5682-6.2383,1.89937-7.49229,1.95179-2.05576.08593-3.71023-2.88747-5.48251-1.45935,1.91794.90464,3.48674,4.85067,4.69562,5.55739,6.08765,3.55893,10.50392-3.78757,8.27918-6.04983Z"/>
  <g>
    <path class="cls-4" d="M132.12237,61.00549c-3.63849,4.20245-9.3222,5.6571-14.48694,6.98334,11.87042-12.44519,19.48151-22.65656,9.97272-39.98035-2.58435,1.65704,3.15277,10.56525-1.96771,9.9884-4.06927-18.76257-21.83124-27.41632-39.95886-22.98389,2.14178,1.46741,18.34625,1.82819,14.97095,6.97217-.46765.71277-7.49493.72668-7.98083,3.00281,11.54999,1.46082,20.98383-10.59729,20.9621,10.00635l-4.97632-2.99408c-2.28815,6.68536,11.86499,10.66125,11.99744,11.5365.95135,6.28601-9.54419,18.73218-6.02777,1.4635-5.23755,3.62634-1.60181,10.55365-4.21661,16.26678-2.98199,6.5155-12.87878,6.453-12.59949,1.40881.14905-2.69202,14.62231-10.96204,11.828-18.66986-4.40094,1.64856-8.22534,4.84381-13.13153,5.31689-7.56427.72943-10.67224-4.1098-19.328,1.67169-10.26422,6.8559-10.46613,21.62805-1.8772,29.89038,7.95551,7.65302,29.30426,3.97711,39.32788,1.10071-1.36017-2.12402-14.73492.75293-10.53314-5.04053,1.81226-2.49878,29.89001-.96777,28.02533-15.93964Z"/>
    <path class="cls-4" d="M75.66107,26.00281c.14697.07935.48566,2.59686,1.52368,2.97583.97693-4.50378,9.57159-4.5177,8.41034-8.38483-2.33472-7.7746-14.9856,3.16199-15.89349,7.91345,1.67352,1.63934,4.96967-3.03882,5.95947-2.50446Z"/>
    <path class="cls-4" d="M95.3695,35.05194c6.08765,3.5589,10.50391-3.7876,8.27917-6.04987-1.54218-1.56818-6.23828,1.89941-7.49231,1.95178-2.05573.08594-3.71021-2.88745-5.48248-1.45935,1.91791.90466,3.48669,4.85071,4.69562,5.55743Z"/>
  </g>
  <path d="M175.87491,102.70239c.3504.47177,2.54055.35183,3.63393,1.88527,1.61543,2.2656-.23487,4.50187.16329,5.23996.27113.5026,4.35689,1.60251,5.42326,5.12088,1.18577,3.91232-.32007,6.60273-.03787,9.55838.21351,2.23628,3.20118,3.45078,1.76787,7.1893-2.95042,7.69562-8.89149.45869-11.66318.21841-8.21093-.7118-16.80857,1.33085-17.57351,10.58222-1.12113,13.55921,3.37062,9.50608,12.67875,12.35364,1.64511.50327,2.78419-.7324,2.29363,2.14352l-4.98226.01764,1.98613,2.98213c-1.78796.8574-8.41135-1.46962-8.97921-.99341-.46746.39201,1.14658,3.66985-1.51038,3.01911-3.58825-.19119-6.40793-7.9353-8.50152-.0271-2.51923,1.52439-3.12161-7.90159-8.95605.00634.55717-8.39969-8.18523-3.99615-13.9895-5.01032,6.94024-8.05064,17.0544-.39192,14.99097-13.51383-.77106-4.90337-5.13903-8.56442-9.97923-9.10742-3.2693-.36677-7.00098,10.21637-15.09255,4.21714-7.46933-5.53788-1.40853-10.45628-1.07867-13.26023.1784-1.51649-3.06719-3.94267-1.39175-9.41472.95076-3.10522,3.37004-1.85965,4.6302-3.5926,3.05194-4.19701-.04432-10.53336,3.33107-14.41451,4.83451-5.55889,9.86263-.50385,11.97435-1.02781,2.05473-.50982,3.04059-10.20337,14.74691-9.30823,5.84774.44716,7.29315,4.736,9.55016,5.2934,3.14568.77687,5.03251-2.13048,10.17402.73657,4.01974,2.24152,4.23911,6.20887,6.39114,9.10628ZM148.5918,112.99462c-2.30099-2.4936-4.53522,2.54878-.48914,4.99986.8345-.51736.65939-4.81536.48914-4.99986ZM162.58331,115.01995l-4.98646-2.01951.00005,8.99921c2.86693-1.24951,4.0294-4.24347,4.98642-6.9797ZM141.60507,120.98845c-1.51835-3.49064-3.86845-3.22504-6.98264-1.97381l6.98264,1.97381ZM166.56889,124.99639l-6.98012,3.992c3.96978-.87846,9.65234.68472,6.98012-3.992ZM143.59127,133.99984c.76577-7.26791-6.43222-7.42773-11.96795-6.98819l11.96795,6.98819Z"/>
  <g>
    <path class="cls-3" d="M13.76349,50C7.19006,61.43384,2.04266,73.50067.77954,87,.00549,95.27203-.49543,106.33331.77954,113c4.70526,30.26184,21.97272,55.83972,46.4751,71.41705,15.39972,9.79034,33.29578,14.93695,51.53473,15.52295l1.86658.06v-100L13.76349,50ZM81.21618,125.97272c-3.19269.36627-3.19232,4.20374-5.20892,4.88531-3.27838,1.10815-5.93469-2.30975-7.5769,1.39496-3.3465,7.54956,7.10004,6.09119,8.14655,6.85449,1.89038,1.37872-.87177,13.16766-.90204,15.88641-2.09558-1.58057-1.9646-6.41559-4.43134-8.09448-2.6814-1.82501-4.48212.61725-6.83569-.02026-2.72894-.7392-2.96039-7.40619-8.00623-3.94751-5.36902,3.68018,2.28827,8.14679,2.38159,8.67133.60553,3.40302-12.02142,13.36969-12.0531,10.90436,7.12775-7.78552-.61359-9.32764-1.57532-13.45844-.41876-1.79871,1.24719-6.35962.57251-7.04681-.24786-.2525-6.15228-.19611-7.05896.43451-1.99805,1.38971-.22046,6.32404-1.05182,7.45013-1.6087,2.17914-16.49609.02313-14.86285-1.87433,9.41748-.48499,6.19336-5.81348,7.68854-9.71832,1.04987-2.74188,4.51721-2.68146,4.18396-4.61414-4.41449-9.65247-6.46069-1.65161-9.60242-.82172-4.6123,1.21832-9.35767-7.27344-11.25977-10.84705.66937-.54761,6.03687,3.02991,9.31836,2.04675,1.3819-.41406.82855-3.1543,2.36139-4.16522,2.84357-1.87537,6.28235,2.35278,8.57605-2.15887,3.62714-7.13452-7.69299-6.04236-8.60559-7.95367-1.88947-3.95721,2.08386-10.44318,1.34467-14.7746,2.26581,1.81049,1.31531,6.24347,4.44995,8.11047,2.39465,1.42627,4.32605-.70697,6.81219.01965,1.81396.53021,5.81049,9.69537,9.18085,1.83337,2.65271-6.18793-3.09961-6.37036-3.45947-7.00159-1.36853-2.40076,10.45435-11.58673,10.95929-10.96692-4.68152,8.58582,1.11725,8.22748,2.59589,12.96222.79266,2.53802-.49365,4.9895-.06323,6.10583.81433,2.11243,6.28955,3.64874,7.33051,1.78473.72046-1.29004-.38446-4.4519.27295-6.21692,1.51562-4.06903,13.21173.29132,16.83612-.62494-1.29913,2.23328-7.16284,1.65375-8.53589,3.98285-1.36285,2.31183,1.05975,4.94031.42603,7.29559-.72162,2.68188-5.60004,2.47827-4.75934,6.02612,1.74097,7.34705,8.02692-1.04041,8.54346-1.21893,4.79395-1.65692,9.49103,8.54047,12.31549,11.40869-2.95807,1.02344-5.22876-2.90234-8.44745-2.53308Z"/>
    <path class="cls-3" d="M51.2171,107.54718c-17.95892-.00244-23.96765,25.5741-7.17554,32.63812,27.1239,11.41034,33.37775-32.63452,7.17554-32.63812ZM55.97723,138.76306c-23.39441,4.89374-25.14581-25.92535-7.50317-28.52881,19.99341-2.95038,23.03162,25.28052,7.50317,28.52881Z"/>
  </g>
  <g>
    <path class="cls-1" d="M187.76367,50.37543c-.07141-.12494-.14319-.25006-.21527-.37543l-86.89246,50v100l1.68707-.03925c17.00769-.396,33.76257-4.80811,48.44678-13.39838,13.73865-8.03711,25.40472-19.16119,34.19958-32.50555,10.34692-15.69934,15.54297-34.23584,15.54297-53.03809v-2.20844c0-16.97827-4.33881-33.6972-12.76868-48.43488ZM186.82538,131.69617c-2.95038,7.69562-8.89148.45868-11.66315.21844-8.21094-.71179-16.80859,1.33081-17.57355,10.58221-1.12109,13.5592,3.37067,9.50604,12.67877,12.35364,1.64508.50323,2.78418-.73242,2.29364,2.14349l-4.9823.01764,1.98615,2.98212c-1.78796.85742-8.41138-1.4696-8.97919-.99341-.46747.39203,1.14655,3.66986-1.51038,3.01917-3.58826-.19122-6.40796-7.9353-8.50153-.0271-2.51923,1.52435-3.12164-7.90161-8.95605.00629.55713-8.39966-8.18524-3.99609-13.9895-5.01031,6.94025-8.0506,17.05438-.39191,14.99097-13.51379-.77106-4.90338-5.13904-8.56445-9.97925-9.10742-3.26929-.36676-7.00098,10.21637-15.09253,4.2171-7.46936-5.53784-1.40851-10.45624-1.07867-13.26019.17841-1.51648-3.0672-3.94269-1.39172-9.41473.95074-3.10522,3.37-1.85962,4.63019-3.59259,3.05194-4.19702-.04431-10.53339,3.33105-14.41455,4.83453-5.5589,9.86261-.50385,11.97437-1.02777,2.05469-.50983,3.04059-10.20337,14.74689-9.30823,5.84778.44714,7.29315,4.73596,9.55017,5.2934,3.14569.77686,5.03253-2.13049,10.17401.73657,4.01978,2.24152,4.23914,6.20886,6.39117,9.10626.3504.47174,2.54053.35181,3.63391,1.88525,1.61542,2.26562-.23486,4.50189.16327,5.23999.27112.50256,4.35687,1.60248,5.42328,5.12085,1.18579,3.91235-.32007,6.60272-.0379,9.55841.21356,2.23627,3.20123,3.45074,1.76788,7.18927Z"/>
    <path class="cls-1" d="M131.62335,127.01166l11.9679,6.98816c.76581-7.26788-6.43219-7.42767-11.9679-6.98816Z"/>
    <path class="cls-1" d="M157.59686,113.00043l.00006,8.99921c2.86688-1.24951,4.02936-4.24347,4.98639-6.97968l-4.98645-2.01953Z"/>
    <path class="cls-1" d="M159.58874,128.9884c3.96979-.87848,9.65234.68469,6.98016-3.992l-6.98016,3.992Z"/>
    <path class="cls-1" d="M134.62243,119.01465l6.98267,1.97382c-1.51837-3.49066-3.86847-3.22504-6.98267-1.97382Z"/>
    <path class="cls-1" d="M148.10266,117.99451c.83447-.5174.65936-4.81537.48914-4.99988-2.30096-2.49359-4.53522,2.54877-.48914,4.99988Z"/>
  </g>
  <g>
    <path d="M77.34814,117.09711c-.51654.17853-6.80249,8.56598-8.54346,1.21893-.8407-3.54785,4.03772-3.34424,4.75934-6.02612.63373-2.35529-1.78888-4.98376-.42603-7.29559,1.37305-2.3291,7.23676-1.74957,8.53589-3.98285-3.62439.91626-15.3205-3.44409-16.83612.62494-.65741,1.76501.44751,4.92688-.27295,6.21692-1.04095,1.86401-6.51617.3277-7.33051-1.78473-.43042-1.11633.8559-3.56781.06323-6.10583-1.47864-4.73474-7.2774-4.3764-2.59589-12.96222-.50494-.61981-12.32782,8.56616-10.95929,10.96692.35986.63123,6.11218.81366,3.45947,7.00159-3.37036,7.862-7.36688-1.30316-9.18085-1.83337-2.48615-.72662-4.41754,1.40662-6.81219-.01965-3.13464-1.867-2.18414-6.29999-4.44995-8.11047.7392,4.33142-3.23413,10.81738-1.34467,14.7746.9126,1.91132,12.23273.81915,8.60559,7.95367-2.2937,4.51166-5.73248.28351-8.57605,2.15887-1.53284,1.01093-.97949,3.75116-2.36139,4.16522-3.28149.98315-8.64899-2.59436-9.31836-2.04675,1.9021,3.57361,6.64746,12.06537,11.25977,10.84705,3.14172-.8299,5.18793-8.83075,9.60242.82172.33325,1.93268-3.13409,1.87225-4.18396,4.61414-1.49518,3.90485,1.72894,9.23334-7.68854,9.71832-1.63324,1.89746,13.25415,4.05347,14.86285,1.87433.83136-1.1261-.94623-6.06042,1.05182-7.45013.90668-.63062,6.8111-.68701,7.05896-.43451.67468.68719-.99127,5.24811-.57251,7.04681.96173,4.1308,8.70306,5.67291,1.57532,13.45844.03168,2.46533,12.65863-7.50134,12.0531-10.90436-.09332-.52454-7.75061-4.99115-2.38159-8.67133,5.04584-3.45868,5.27728,3.20831,8.00623,3.94751,2.35358.63751,4.1543-1.80475,6.83569.02026,2.46674,1.67889,2.33575,6.51392,4.43134,8.09448.03027-2.71875,2.79242-14.50769.90204-15.88641-1.04651-.76331-11.49304.69507-8.14655-6.85449,1.64221-3.70471,4.29852-.2868,7.5769-1.39496,2.0166-.68158,2.01624-4.51904,5.20892-4.88531,3.21869-.36926,5.48938,3.55652,8.44745,2.53308-2.82446-2.86823-7.52155-13.06561-12.31549-11.40869ZM44.04156,140.1853c-16.79211-7.06403-10.78339-32.64056,7.17554-32.63812,26.20221.0036,19.94836,44.04846-7.17554,32.63812Z"/>
    <path d="M48.47406,110.23425c-17.64264,2.60345-15.89124,33.42255,7.50317,28.52881,15.52844-3.24829,12.49023-31.47919-7.50317-28.52881Z"/>
  </g>
</svg>