<?xml version="1.0" encoding="UTF-8"?>
<svg id="Layer_1" data-name="Layer 1" xmlns="http://www.w3.org/2000/svg" viewBox="0 0 200.52089 200">
  <defs>
    <style>
      .cls-1 {
        fill: #a8dff8;
      }

      .cls-2 {
        fill: #febbbb;
      }

      .cls-3 {
        fill: #fcfcd8;
      }

      .cls-4 {
        fill: #020101;
      }
    </style>
  </defs>
  <path class="cls-2" d="M153.75178,14.26031c13.70258,8.60767,24.99882,20.45602,33.78518,35.73969l-86.89248,50L13.752,50c4.59984-8.00099,10.72863-15.85887,17.91353-22.90161C49.60768,9.51124,73.95177,0,99.07604,0h3.9349c17.90265,0,35.58112,4.7373,50.74084,14.26031ZM125.62899,37.99689c-4.06928-18.76255-21.83127-27.41631-39.95887-22.98389,2.1418,1.46738,18.34623,1.82818,14.97095,6.9722-.46767.71275-7.4949.72665-7.98082,3.00277,11.54994,1.46079,20.9838-10.5973,20.96206,10.00637l-4.97627-2.99411c-2.28817,6.68536,11.86497,10.66128,11.99743,11.53649.95133,6.28604-9.54422,18.73218-6.0278,1.46349-5.23753,3.62636-1.6018,10.55371-4.21657,16.26681-2.98202,6.51551-12.8788,6.45303-12.59952,1.40884.14905-2.69204,14.62232-10.96206,11.82802-18.66988-4.40095,1.64855-8.22532,4.84382-13.13157,5.31691-7.56425.72939-10.67219-4.10984-19.32797,1.67168-10.26425,6.85587-10.46611,21.62807-1.87717,29.8904,7.9555,7.65298,29.3042,3.9771,39.32785,1.10068-1.36018-2.124-14.73494.75293-10.53315-5.0405,1.81229-2.49879,29.89-.96782,28.02536-15.93967-3.63849,4.20248-9.32222,5.65715-14.48692,6.98337,11.8704-12.44519,19.48146-22.65661,9.97272-39.98034-2.58438,1.65703,3.15274,10.5652-1.96773,9.98838ZM75.6496,26.00281c.14699.07936.48565,2.59684,1.52367,2.97586.97697-4.5038,9.57164-4.51775,8.41034-8.38488-2.3347-7.77455-14.98554,3.16201-15.89347,7.91348,1.6735,1.63933,4.96966-3.03881,5.95947-2.50445ZM103.63721,29.00209c-1.54219-1.5682-6.2383,1.89937-7.49229,1.95179-2.05576.08593-3.71023-2.88747-5.48251-1.45935,1.91794.90464,3.48674,4.85067,4.69562,5.55739,6.08765,3.55893,10.50392-3.78757,8.27918-6.04983Z"/>
  <path d="M56.68753,93.00038c-8.81439,22.37858,25.04679,33.91258,11.83399,55.33698-10.19942,16.53825-34.75872,11.41575-37.52526-8.09812-2.59888-18.33127,12.89767-36.1167,25.69127-47.23885ZM63.6694,125.0095c-.1443-.11656-2.09667-.36763-1.98291.49353l-1.56381,14.55714c10.89273,5.58091,7.64506-11.74025,3.54672-15.05067Z"/>
  <g>
    <path class="cls-4" d="M132.11091,61.00549c-3.63849,4.20245-9.3222,5.6571-14.48694,6.98334,11.87042-12.44519,19.48151-22.65656,9.97272-39.98035-2.58435,1.65704,3.15277,10.56525-1.96771,9.9884-4.06927-18.76257-21.83124-27.41632-39.95886-22.98389,2.14178,1.46741,18.34625,1.82819,14.97095,6.97217-.46765.71277-7.49493.72668-7.98083,3.00281,11.54999,1.46082,20.98383-10.59729,20.9621,10.00635l-4.97632-2.99408c-2.28815,6.68536,11.86499,10.66125,11.99744,11.5365.95135,6.28601-9.54419,18.73218-6.02777,1.4635-5.23755,3.62634-1.60181,10.55365-4.21661,16.26678-2.98199,6.5155-12.87878,6.453-12.59949,1.40881.14905-2.69202,14.62231-10.96204,11.828-18.66986-4.40094,1.64856-8.22534,4.84381-13.13153,5.31689-7.56427.72943-10.67224-4.1098-19.328,1.67169-10.26422,6.8559-10.46613,21.62805-1.8772,29.89038,7.95551,7.65302,29.30426,3.97711,39.32788,1.10071-1.36017-2.12402-14.73492.75293-10.53314-5.04053,1.81226-2.49878,29.89001-.96777,28.02533-15.93964Z"/>
    <path class="cls-4" d="M75.64961,26.00281c.14697.07935.48566,2.59686,1.52368,2.97583.97693-4.50378,9.57159-4.5177,8.41034-8.38483-2.33472-7.7746-14.9856,3.16199-15.89349,7.91345,1.67352,1.63934,4.96967-3.03882,5.95947-2.50446Z"/>
    <path class="cls-4" d="M95.35805,35.05194c6.08765,3.5589,10.50391-3.7876,8.27917-6.04987-1.54218-1.56818-6.23828,1.89941-7.49231,1.95178-2.05573.08594-3.71021-2.88745-5.48248-1.45935,1.91791.90466,3.48669,4.85071,4.69562,5.55743Z"/>
  </g>
  <g>
    <path class="cls-1" d="M13.75203,50C7.1786,61.43384,2.0312,73.50067.76808,87-.00597,95.27203-.47911,105.44444.76808,113c4.85228,31.20752,23.018,57.41735,48.71817,72.82129,14.77459,8.85547,31.69113,13.50193,48.90593,14.10041l2.2523.0783v-100L13.75203,50ZM68.5215,148.33734c-10.1994,16.53827-34.75873,11.41577-37.52521-8.09808-2.59888-18.3313,12.89764-36.1167,25.69122-47.23889-8.81439,22.3786,25.04681,33.9126,11.83398,55.33698Z"/>
    <path class="cls-1" d="M63.66939,125.00952c-.14429-.11658-2.09662-.36768-1.98291.49353l-1.56378,14.55713c10.8927,5.58087,7.64508-11.7403,3.54669-15.05066Z"/>
  </g>
  <g>
    <path class="cls-3" d="M187.53694,50l-86.89246,50v100l2.09286-.05773c17.72955-.48903,35.15211-5.34991,50.23575-14.68051,12.68666-7.84785,23.49981-18.38968,31.81513-30.9181,10.46105-15.76132,15.73267-34.40137,15.73267-53.31837v-2.21496c0-16.97832-4.3388-33.69733-12.76873-48.43502-.07145-.12491-.14319-.25001-.21522-.37531ZM179.21687,125.93256c-1.33765.38367-1.09515,3.71033-2.64667,4.58862-2.2226,1.25818-5.50665-.55048-7.50916,1.47345-6.97943,7.05408,6.99957,6.52698,7.49579,7.00055.98633.94116-.97791,13.47736-1.01648,15.99927-2.20715-1.77637-1.57593-7.19299-5.02496-8.53693-2.31824-.90338-4.15588.9704-6.24286.42206-2.29254-.60242-3.95325-8.11902-8.43835-3.61859-4.02209,4.03577,2.91724,8.36884,2.66193,10.09528-.26996,1.82562-8.8952,8.1676-10.89825,9.64349,4.99939-9.14026-1.54382-9.58264-2.58545-13.95892-.59485-2.49921,1.78766-5.76251,1.57507-6.02844-.2525-.31592-6.84686-1.48633-8.06085-.59052-1.66595,1.22925-.31598,4.88385-1.38849,6.6098-1.87823,3.02246-16.0614.7442-14.51953-1.01929,9.35358-.45605,6.30231-5.84692,7.71484-9.74872,1.13416-3.13287,5.13611-2.3277,4.10901-5.56006-2.70239-8.50415-8.28931,1.1131-12.0921.14825-1.73779-.44086-8.55713-9.07123-7.71613-9.84711,9.11713,4.85931,8.78528-2.36041,11.99438-3.54224,2.13098-.78479,8.4328,2.92627,7.66785-4.79749-.61285-6.18799-7.49219-3.06201-8.57385-3.74609-2.93427-1.85583,1.9787-12.70844.90112-15.91345,2.26599,1.81042,1.31531,6.24347,4.45001,8.11053,2.39532,1.4267,4.32751-.70813,6.81262.01953,3.18085.9314,3.38135,9.39526,9.75806.32672.74084-4.20172-4.03217-6.18457-4.03516-6.96222-.00281-.72565,8.9469-9.12195,10.95734-9.49957-5.33966,8.03357,1.96405,9.35858,2.82361,13.77399.41168,2.11475-1.3075,5.4342-.76398,6.16113.14899.19922,4.40698,1.7218,4.65387,1.75079,5.26086.61713,2.42017-4.35748,3.42255-7.05005,1.51477-4.06879,13.2124.29126,16.83618-.62488-1.30048,2.24042-7.13647,1.63348-8.51453,3.97833-1.54382,2.62689.86719,5.3183.38586,7.32959-.60956,2.54706-5.57935,2.46057-4.7406,5.99658,1.74274,7.34747,8.02673-1.04102,8.54352-1.21887,4.65741-1.60284,9.98749,8.67169,12.32092,11.89166-1.06024.8598-6.76929-4.07385-10.31714-3.05621Z"/>
    <path class="cls-3" d="M150.34169,107.27893c-20.20203.82629-22.28668,30.5152-2.81616,34.27374,26.16473,5.05078,27.27307-35.27405,2.81616-34.27374ZM155.84163,138.76257c-22.68585,4.75232-25.54431-25.86597-7.50262-28.52832,20.17792-2.9776,22.76068,25.33197,7.50262,28.52832Z"/>
  </g>
  <g>
    <path d="M177.21309,117.09711c-.51678.17786-6.80078,8.56635-8.54352,1.21887-.83875-3.53601,4.13104-3.44952,4.7406-5.99658.48132-2.01129-1.92969-4.7027-.38586-7.32959,1.37805-2.34485,7.21405-1.73792,8.51453-3.97833-3.62378.91614-15.32141-3.44391-16.83618.62488-1.00238,2.69257,1.83832,7.66718-3.42255,7.05005-.24689-.02899-4.50488-1.55157-4.65387-1.75079-.54352-.72693,1.17566-4.04639.76398-6.16113-.85956-4.41541-8.16327-5.74042-2.82361-13.77399-2.01044.37762-10.96014,8.77393-10.95734,9.49957.00299.77765,4.776,2.7605,4.03516,6.96222-6.37671,9.06854-6.57721.60468-9.75806-.32672-2.48511-.72766-4.4173,1.40717-6.81262-.01953-3.1347-1.86707-2.18402-6.30011-4.45001-8.11053,1.07758,3.20502-3.83539,14.05762-.90112,15.91345,1.08167.68408,7.961-2.44189,8.57385,3.74609.76495,7.72375-5.53687,4.0127-7.66785,4.79749-3.20911,1.18182-2.87726,8.40155-11.99438,3.54224-.841.77588,5.97833,9.40625,7.71613,9.84711,3.8028.96484,9.38971-8.6524,12.0921-.14825,1.0271,3.23236-2.97485,2.42719-4.10901,5.56006-1.41254,3.90179,1.63873,9.29266-7.71484,9.74872-1.54187,1.76349,12.6413,4.04175,14.51953,1.01929,1.07251-1.72595-.27747-5.38055,1.38849-6.6098,1.21399-.89581,7.80835.2746,8.06085.59052.21259.26593-2.16992,3.52924-1.57507,6.02844,1.04163,4.37628,7.58484,4.81866,2.58545,13.95892,2.00305-1.47589,10.6283-7.81787,10.89825-9.64349.25531-1.72644-6.68402-6.05951-2.66193-10.09528,4.48511-4.50043,6.14581,3.01617,8.43835,3.61859,2.08698.54834,3.92462-1.32544,6.24286-.42206,3.44904,1.34393,2.81781,6.76056,5.02496,8.53693.03857-2.52191,2.00281-15.05811,1.01648-15.99927-.49622-.47357-14.47522.05353-7.49579-7.00055,2.0025-2.02393,5.28656-.21527,7.50916-1.47345,1.55151-.8783,1.30902-4.20496,2.64667-4.58862,3.54785-1.01764,9.2569,3.91602,10.31714,3.05621-2.33344-3.21997-7.66351-13.49451-12.32092-11.89166ZM147.52553,141.55267c-19.47052-3.75854-17.38586-33.44745,2.81616-34.27374,24.45691-1.00031,23.34857,39.32452-2.81616,34.27374Z"/>
    <path d="M148.339,110.23425c-18.04169,2.66235-15.18323,33.28064,7.50262,28.52832,15.25806-3.19635,12.67529-31.50592-7.50262-28.52832Z"/>
  </g>
</svg>