<?xml version="1.0" encoding="UTF-8"?>
<svg id="Layer_1" data-name="Layer 1" xmlns="http://www.w3.org/2000/svg" viewBox="0 0 200.47544 200">
  <defs>
    <style>
      .cls-1 {
        fill: #a8dff8;
      }

      .cls-2 {
        fill: #febbbb;
      }

      .cls-3 {
        fill: #b7b7b7;
      }

      .cls-4 {
        fill: #030202;
      }
    </style>
  </defs>
  <path class="cls-2" d="M100.59902,100v100l-4.41914-.26118c-10.9585-.64766-21.80615-2.83406-32.00832-6.88671C30.78648,179.59042,6.45714,149.88161.72261,113c-1.13607-8.84811-.77403-17.72797,0-26,1.26317-13.49934,6.41052-25.56616,12.98393-37l86.89248,50ZM75.64533,112.99688c-4.08157-18.9179-21.73221-27.35427-39.95887-22.98389,2.06102,1.79831,18.37998,1.70289,14.96972,6.97104-.56442.8719-7.38102.24074-7.98425,3.00356,6.03685,3.43262,11.95349-4.47287,16.51242-2.06279,3.85539,2.03815,5.13727,8.03463,4.4543,12.06953l-4.97627-2.99411c-2.2119,7.04342,11.86182,10.65865,11.99699,11.53767.96132,6.25131-9.54356,18.75288-6.02736,1.46231-5.23753,3.62637-1.6018,10.5537-4.21657,16.26681-2.96998,6.48921-12.85746,6.48099-12.59598,1.4111.12476-2.41894,14.89593-11.15998,11.82402-18.67259-13.05217,10.85068-30.86849-3.86815-38.84124,14.59979-2.76774,6.41114-2.4108,10.11233.40223,16.38669,7.46889,16.65906,29.61762,10.24682,43.4306,6.99364-1.36021-2.12398-14.73492.75292-10.53314-5.04049,1.81235-2.49887,29.88876-.96759,28.02578-15.93925-3.68182,3.81553-8.67978,5.23255-13.47791,6.99363,10.45305-13.79463,19.05864-22.05944,8.96328-39.99102-3.00737,1.67694,3.25154,10.55309-1.96773,9.98837ZM25.69593,104.00406l9.54377-5.97013c-1.0885-12.16778-13.81903-.25455-15.54007,5.9549,1.61452,1.39957,7.21432-6.86495,5.9963.01523ZM53.55607,104.09777c-2.06529-2.67634-6.01272,1.81974-7.3677,1.89706-1.96839.11233-3.75563-2.95424-5.50974-1.5002,3.07197,9.95698,17.60508,5.72955,12.87744-.39687Z"/>
  <path d="M106.58028,18.00038c-8.81439,22.37858,25.04679,33.91258,11.83399,55.33698-10.19942,16.53825-34.75872,11.41575-37.52526-8.09812-2.59888-18.33127,12.89767-36.1167,25.69127-47.23885ZM113.56215,50.0095c-.1443-.11656-2.09667-.36763-1.98291.49353l-1.56381,14.55714c10.89273,5.58091,7.64506-11.74025,3.54672-15.05067Z"/>
  <g>
    <path class="cls-4" d="M82.12771,136.00592c-3.68182,3.81549-8.67981,5.23254-13.47791,6.99359,10.453-13.79462,19.05859-22.05939,8.96326-39.99097-3.00739,1.67694,3.25153,10.55304-1.96771,9.98834-4.0816-18.91791-21.73224-27.35425-39.95892-22.98389,2.06104,1.79828,18.38,1.70288,14.96973,6.97107-.56439.87189-7.38098.24072-7.98425,3.00354,6.03687,3.43262,11.95349-4.4729,16.51245-2.06281,3.85541,2.03815,5.13727,8.03467,4.45428,12.06952l-4.97626-2.99408c-2.21191,7.0434,11.86182,10.65863,11.99695,11.53766.96136,6.25128-9.54352,18.75287-6.02734,1.46234-5.23755,3.62634-1.60181,10.55365-4.21655,16.26678-2.96997,6.4892-12.85748,6.48102-12.59601,1.41107.12476-2.41895,14.89594-11.15997,11.82404-18.67255-13.05219,10.85065-30.86847-3.86816-38.84125,14.59979-2.7677,6.41113-2.41077,10.1123.40222,16.38666,7.46893,16.65906,29.61761,10.24683,43.4306,6.99365-1.36017-2.12396-14.73492.75293-10.53314-5.04053,1.81238-2.49884,29.88879-.96759,28.02582-15.93921Z"/>
    <path class="cls-4" d="M25.69595,104.00403l9.54376-5.97009c-1.0885-12.16779-13.81903-.25458-15.5401,5.9549,1.61456,1.39954,7.21436-6.86493,5.99634.0152Z"/>
    <path class="cls-4" d="M53.55606,104.09778c-2.06531-2.67633-6.0127,1.8197-7.36768,1.89703-1.96838.11237-3.75568-2.95422-5.50977-1.50018,3.07196,9.95697,17.6051,5.72955,12.87744-.39685Z"/>
  </g>
  <path d="M171.50384,97.97976c-.18376.30999-5.81925,1.86037-5.98494,4.00874,7.5243.32252,7.09493-6.35699,12.80879.69113,5.28636,6.5208,9.58705,18.89215,6.40727,27.06012-2.72197,6.99197-15.85673,4.99892-17.7277,8.25064-2.09637,3.64349,1.26469,20.67499-1.41319,22.58293-8.26156,5.03277-2.07593-15.76238-8.06294-10.56538-.39024.33874,2.54528,6.88149-4.99028,6.98636l-.51712-8.00023c-4.90293,1.03389.29239,12.32621-5.96703,11.01435-1.74397-.3655-1.44545-10.05471-4.49595-11.00709-1.91984,3.68398,1.60815,14.1536-3.99789,11.48835-6.61129-3.14318.7386-17.46093-2.06966-21.84078-3.26304-5.08914-15.87052-.64765-18.44036-10.62245-2.85805-11.09346,3.41737-24.07331,12.0166-31.02088,1.48662,6.68363,1.93594,8.83072,9.4822,8.98311-25.8384-23.29458,38.21596-16.88822,32.95221-8.00894ZM129.27792,114.21859c-6.82347,1.58466-11.7733,14.44661-.20522,15.7733,28.60857,3.281,12.60106-18.65207.20522-15.7733ZM179.26009,128.76049c6.28881-6.32525-6.24933-22.45619-17.38793-11.41135-15.75812,15.62547,14.35823,14.4586,17.38793,11.41135ZM150.55021,140.99289l-1.50564-13.9873c-4.05572,4.59263-4.14961,11.33489-3.03251,17.05164l10.5125.94435c.44879-5.90986-.06529-12.22625-3.97836-16.99603l-1.99599,12.98735Z"/>
  <g>
    <path class="cls-1" d="M102.6704,0h-3.37746c-26.00928,0-51.12644,10.17125-69.32613,28.75227-6.47356,6.6092-12.01734,13.86758-16.26024,21.24773l86.89246,50,86.89246-50c-7.79639-13.56165-17.56892-24.41847-29.24528-32.70647C142.05972,5.80418,122.52002,0,102.6704,0ZM118.41427,73.33734c-10.1994,16.53827-34.75873,11.41577-37.52527-8.09808-2.59888-18.3313,12.89764-36.1167,25.69128-47.23889-8.81439,22.3786,25.04675,33.9126,11.83398,55.33698Z"/>
    <path class="cls-1" d="M113.56216,50.00952c-.14429-.11658-2.09668-.36768-1.98291.49353l-1.56384,14.55713c10.89276,5.58087,7.64508-11.7403,3.54675-15.05066Z"/>
  </g>
  <g>
    <path class="cls-3" d="M187.49148,50l-86.89246,50v100l4.06881-.21888c11.72066-.63051,23.31569-3.04136,34.15157-7.55302,18.991-7.90715,34.95987-21.19526,46.19372-38.29384,10.29962-15.67663,15.46231-34.17379,15.46231-52.93116v-2.19276c0-16.97832-4.3388-33.69733-12.76873-48.43502-.07145-.12491-.14319-.25001-.21522-.37531ZM184.73495,129.73975c-2.72198,6.992-15.85675,4.99896-17.72772,8.25067-2.09637,3.64349,1.26471,20.67499-1.41315,22.58289-8.2616,5.03278-2.07593-15.76233-8.06299-10.56537-.3902.33875,2.54529,6.88153-4.99023,6.98639l-.51715-8.00024c-4.90289,1.03387.29242,12.32623-5.96704,11.01434-1.74396-.36548-1.44543-10.05469-4.49591-11.00708-1.91986,3.68396,1.60815,14.15363-3.99792,11.48834-6.61127-3.14319.73859-17.46094-2.06964-21.84076-3.26306-5.08917-15.87054-.64764-18.44037-10.62244-2.85803-11.09351,3.41736-24.0733,12.0166-31.02087,1.48663,6.68359,1.93597,8.83069,9.48218,8.98309-25.83838-23.29456,38.216-16.88824,32.95221-8.00897-.18372.31-5.81921,1.86041-5.98492,4.00879,7.52429.32251,7.09491-6.35699,12.80878.6911,5.28638,6.52081,9.5871,18.89215,6.40729,27.06012Z"/>
    <path class="cls-3" d="M161.87216,117.34912c-15.75812,15.62549,14.35822,14.45862,17.38794,11.41138,6.28882-6.32526-6.24933-22.45618-17.38794-11.41138Z"/>
    <path class="cls-3" d="M129.27792,114.21857c-6.82349,1.58466-11.77332,14.44666-.2052,15.77332,28.60852,3.28101,12.60101-18.65204.2052-15.77332Z"/>
    <path class="cls-3" d="M150.5502,140.99292l-1.50562-13.9873c-4.05573,4.59259-4.14966,11.33484-3.03253,17.05164l10.51251.94434c.44879-5.90985-.06531-12.22626-3.97839-16.99603l-1.99597,12.98737Z"/>
  </g>
</svg>