<?xml version="1.0" encoding="UTF-8"?>
<svg id="Layer_1" data-name="Layer 1" xmlns="http://www.w3.org/2000/svg" viewBox="0 0 200.59013 200">
  <defs>
    <style>
      .cls-1 {
        fill: #a8dff8;
      }

      .cls-2 {
        fill: #9dc5bc;
      }

      .cls-3 {
        fill: #febbbb;
      }

      .cls-4 {
        fill: #020101;
      }
    </style>
  </defs>
  <path class="cls-3" d="M200.59013,98.86473v3.68228c0,15.53891-3.74915,30.90493-11.29073,44.49104-2.64647,4.7676-5.63802,9.30064-8.94383,13.5641-19.03461,24.54871-48.49747,38.74683-79.55443,39.39603l-.08742.00183v-100l86.89248-50c.0629.10942.12558.21868.18804.3278,8.45171,14.76628,12.7959,31.52298,12.7959,48.53693ZM175.63644,112.99689c-4.06928-18.76255-21.83127-27.41631-39.95887-22.98389,2.1418,1.46738,18.34623,1.82818,14.97095,6.9722-.46767.71275-7.4949.72665-7.98082,3.00277,11.54994,1.46079,20.9838-10.5973,20.96206,10.00637l-4.97627-2.99411c-2.28817,6.68536,11.86497,10.66128,11.99743,11.53649.95133,6.28604-9.54422,18.73218-6.0278,1.46349-5.23753,3.62636-1.6018,10.55371-4.21657,16.26681-2.98202,6.51551-12.8788,6.45303-12.59952,1.40884.14905-2.69204,14.62232-10.96206,11.82802-18.66988-4.40095,1.64855-8.22532,4.84382-13.13157,5.31691-7.56425.72939-10.67219-4.10984-19.32797,1.67168-10.26425,6.85587-10.46611,21.62807-1.87717,29.8904,7.9555,7.65298,29.3042,3.9771,39.32785,1.10068-1.36018-2.124-14.73494.75293-10.53315-5.0405,1.81229-2.49879,29.89-.96782,28.02536-15.93967-3.63849,4.20248-9.32222,5.65715-14.48692,6.98337,11.8704-12.44519,19.48146-22.65661,9.97272-39.98034-2.58438,1.65703,3.15274,10.5652-1.96773,9.98838ZM125.65704,101.00281c.14699.07936.48565,2.59684,1.52367,2.97586.97697-4.5038,9.57164-4.51775,8.41034-8.38488-2.3347-7.77455-14.98554,3.16201-15.89347,7.91348,1.6735,1.63933,4.96966-3.03881,5.95947-2.50445ZM153.64466,104.00209c-1.54219-1.5682-6.2383,1.89937-7.49229,1.95179-2.05576.08593-3.71023-2.88747-5.48251-1.45935,1.91794.90464,3.48674,4.85067,4.69562,5.55739,6.08765,3.55893,10.50392-3.78757,8.27918-6.04983Z"/>
  <path d="M106.69497,18.00038c-8.81439,22.37858,25.04679,33.91258,11.83399,55.33698-10.19942,16.53825-34.75872,11.41575-37.52526-8.09812-2.59888-18.33127,12.89767-36.1167,25.69127-47.23885ZM113.67685,50.0095c-.1443-.11656-2.09667-.36763-1.98291.49353l-1.56381,14.55714c10.89273,5.58091,7.64506-11.74025,3.54672-15.05067Z"/>
  <g>
    <path class="cls-4" d="M182.11839,136.00549c-3.63849,4.20245-9.3222,5.6571-14.48694,6.98334,11.87042-12.44519,19.48145-22.65656,9.97272-39.98035-2.58435,1.65704,3.15271,10.56525-1.96771,9.9884-4.06927-18.76257-21.8313-27.41632-39.95886-22.98389,2.14178,1.46741,18.34619,1.82819,14.97089,6.97217-.46765.71277-7.49487.72668-7.98077,3.00281,11.54993,1.46082,20.98376-10.59729,20.96204,10.00635l-4.97626-2.99408c-2.28815,6.68536,11.86499,10.66125,11.99744,11.5365.95129,6.28601-9.54425,18.73218-6.02783,1.4635-5.23749,3.62634-1.60181,10.55365-4.21655,16.26678-2.98199,6.5155-12.87878,6.453-12.59955,1.40881.14911-2.69202,14.62238-10.96204,11.82806-18.66986-4.40094,1.64856-8.22534,4.84381-13.13159,5.31689-7.56427.72943-10.67218-4.1098-19.32794,1.67169-10.26428,6.8559-10.46613,21.62805-1.8772,29.89038,7.95551,7.65302,29.3042,3.97711,39.32788,1.10071-1.36023-2.12402-14.73499.75293-10.5332-5.04053,1.81232-2.49878,29.89001-.96777,28.02539-15.93964Z"/>
    <path class="cls-4" d="M125.65702,101.00281c.14703.07935.48566,2.59686,1.52368,2.97583.97699-4.50378,9.57166-4.5177,8.41034-8.38483-2.33472-7.7746-14.98553,3.16199-15.89349,7.91345,1.67352,1.63934,4.96967-3.03882,5.95947-2.50446Z"/>
    <path class="cls-4" d="M145.36546,110.05194c6.08765,3.5589,10.50391-3.7876,8.27917-6.04987-1.54218-1.56818-6.23828,1.89941-7.49225,1.95178-2.05579.08594-3.71027-2.88745-5.48254-1.45935,1.91797.90466,3.48676,4.85071,4.69562,5.55743Z"/>
  </g>
  <path d="M76.05628,102.70239c.3504.47177,2.54055.35183,3.63393,1.88527,1.61543,2.2656-.23487,4.50187.16329,5.23996.27113.5026,4.35689,1.60251,5.42326,5.12088,1.18577,3.91232-.32007,6.60273-.03787,9.55838.21351,2.23628,3.20118,3.45078,1.76787,7.1893-2.95042,7.69562-8.89149.45869-11.66318.21841-8.21093-.7118-16.80857,1.33085-17.57351,10.58222-1.12113,13.55921,3.37062,9.50608,12.67875,12.35364,1.64511.50327,2.78419-.7324,2.29363,2.14352l-4.98226.01764,1.98613,2.98213c-1.78796.8574-8.41135-1.46962-8.97921-.99341-.46746.39201,1.14658,3.66985-1.51038,3.01911-3.58825-.19119-6.40793-7.9353-8.50152-.0271-2.51923,1.52439-3.12161-7.90159-8.95605.00634.55717-8.39969-8.18523-3.99615-13.9895-5.01032,6.94024-8.05064,17.0544-.39192,14.99097-13.51383-.77106-4.90337-5.13903-8.56442-9.97923-9.10742-3.2693-.36677-7.00098,10.21637-15.09255,4.21714-7.46933-5.53788-1.40853-10.45628-1.07867-13.26023.1784-1.51649-3.06719-3.94267-1.39175-9.41472.95076-3.10522,3.37004-1.85965,4.6302-3.5926,3.05194-4.19701-.04432-10.53336,3.33107-14.41451,4.83451-5.55889,9.86263-.50385,11.97435-1.02781,2.05473-.50982,3.04059-10.20337,14.74691-9.30823,5.84774.44716,7.29315,4.736,9.55016,5.2934,3.14568.77687,5.03251-2.13048,10.17402.73657,4.01974,2.24152,4.23911,6.20887,6.39114,9.10628ZM48.77317,112.99462c-2.30099-2.4936-4.53522,2.54878-.48914,4.99986.8345-.51736.65939-4.81536.48914-4.99986ZM62.76468,115.01995l-4.98646-2.01951.00005,8.99921c2.86693-1.24951,4.0294-4.24347,4.98642-6.9797ZM41.78644,120.98845c-1.51835-3.49064-3.86845-3.22504-6.98264-1.97381l6.98264,1.97381ZM66.75026,124.99639l-6.98012,3.992c3.96978-.87846,9.65234.68472,6.98012-3.992ZM43.77265,133.99984c.76577-7.26791-6.43222-7.42773-11.96795-6.98819l11.96795,6.98819Z"/>
  <g>
    <path class="cls-1" d="M102.87478,0h-3.49805c-25.98949,0-51.08279,10.16823-69.27362,28.73022-6.48283,6.6151-12.03422,13.88142-16.28184,21.26978l86.89246,50,86.89246-50c-8.28366-14.40925-18.79821-25.76501-31.45689-34.2304C140.43143,5.25839,121.78342,0,102.87478,0ZM118.52897,73.33734c-10.1994,16.53827-34.75873,11.41577-37.52527-8.09808-2.59888-18.3313,12.89764-36.1167,25.69128-47.23889-8.81439,22.3786,25.04675,33.9126,11.83398,55.33698Z"/>
    <path class="cls-1" d="M113.67686,50.00952c-.14429-.11658-2.09668-.36768-1.98291.49353l-1.56384,14.55713c10.89276,5.58087,7.64508-11.7403,3.54675-15.05066Z"/>
  </g>
  <g>
    <path class="cls-2" d="M13.82127,50C7.24784,61.43384,2.10044,73.50067.83732,87c-.77405,8.27203-1.41386,17.55556,0,26,5.88155,37.8273,31.32372,68.10924,66.03471,80.83965,9.38671,3.44262,19.2809,5.29979,29.26159,5.88966l4.58011.27069v-100L13.82127,50ZM87.00675,131.69617c-2.95038,7.69562-8.89148.45868-11.66315.21844-8.21094-.71179-16.80859,1.33081-17.57355,10.58221-1.12115,13.5592,3.37061,9.50604,12.67877,12.35364,1.64508.50323,2.78418-.73242,2.29358,2.14349l-4.98224.01764,1.98615,2.98212c-1.78796.85742-8.41138-1.4696-8.97925-.99341-.46741.39203,1.14661,3.66986-1.51038,3.01917-3.5882-.19122-6.4079-7.9353-8.50146-.0271-2.51923,1.52435-3.12164-7.90161-8.95605.00629.55713-8.39966-8.18524-3.99609-13.9895-5.01031,6.94025-8.0506,17.05438-.39191,14.99097-13.51379-.77106-4.90338-5.13904-8.56445-9.97925-9.10742-3.26929-.36676-7.00098,10.21637-15.09253,4.2171-7.46936-5.53784-1.40857-10.45624-1.07867-13.26019.17841-1.51648-3.0672-3.94269-1.39178-9.41473.95081-3.10522,3.37006-1.85962,4.63025-3.59259,3.05194-4.19702-.04437-10.53339,3.33105-14.41455,4.83447-5.5589,9.86261-.50385,11.97437-1.02777,2.05469-.50983,3.04059-10.20337,14.74689-9.30823,5.84772.44714,7.29315,4.73596,9.55017,5.2934,3.14569.77686,5.03253-2.13049,10.17401.73657,4.01971,2.24152,4.23907,6.20886,6.39111,9.10626.3504.47174,2.54059.35181,3.63397,1.88525,1.61542,2.26562-.23486,4.50189.16327,5.23999.27112.50256,4.35687,1.60248,5.42328,5.12085,1.18573,3.91235-.32007,6.60272-.0379,9.55841.21356,2.23627,3.20117,3.45074,1.76788,7.18927Z"/>
    <path class="cls-2" d="M31.80467,127.01166l11.96796,6.98816c.76581-7.26788-6.43219-7.42767-11.96796-6.98816Z"/>
    <path class="cls-2" d="M57.77824,113.00043v8.99921c2.86694-1.24951,4.02942-4.24347,4.98645-6.97968l-4.98645-2.01953Z"/>
    <path class="cls-2" d="M59.77012,128.9884c3.96979-.87848,9.65234.68469,6.98016-3.992l-6.98016,3.992Z"/>
    <path class="cls-2" d="M34.80381,119.01465l6.9826,1.97382c-1.51831-3.49066-3.86841-3.22504-6.9826-1.97382Z"/>
    <path class="cls-2" d="M48.28404,117.99451c.83447-.5174.65936-4.81537.48914-4.99988-2.30096-2.49359-4.53522,2.54877-.48914,4.99988Z"/>
  </g>
</svg>