<?xml version="1.0" encoding="UTF-8"?>
<svg id="Layer_1" data-name="Layer 1" xmlns="http://www.w3.org/2000/svg" viewBox="0 0 200.41965 200">
  <defs>
    <style>
      .cls-1 {
        fill: #febbbb;
      }

      .cls-2 {
        fill: #fcfcd8;
      }

      .cls-3 {
        fill: #b7b7b7;
      }

      .cls-4 {
        fill: #030202;
      }
    </style>
  </defs>
  <path class="cls-1" d="M100.54323,100v100l-3.68317-.1878c-13.05136-.66548-25.93998-3.57309-37.80773-9.04461C28.28427,176.58227,6.10727,147.99025.66682,113c-.99718-7.91667-.77403-17.72797,0-26,1.26317-13.49934,6.41052-25.56616,12.98393-37l86.89248,50ZM75.58954,112.99688c-4.08157-18.9179-21.73221-27.35427-39.95887-22.98389,2.06102,1.79831,18.37998,1.70289,14.96972,6.97104-.56442.8719-7.38102.24074-7.98425,3.00356,6.03685,3.43262,11.95349-4.47287,16.51242-2.06279,3.85539,2.03815,5.13727,8.03463,4.4543,12.06953l-4.97627-2.99411c-2.2119,7.04342,11.86182,10.65865,11.99699,11.53767.96132,6.25131-9.54356,18.75288-6.02736,1.46231-5.23753,3.62637-1.6018,10.5537-4.21657,16.26681-2.96998,6.48921-12.85746,6.48099-12.59598,1.4111.12476-2.41894,14.89593-11.15998,11.82402-18.67259-13.05217,10.85068-30.86849-3.86815-38.84124,14.59979-2.76774,6.41114-2.4108,10.11233.40223,16.38669,7.46889,16.65906,29.61762,10.24682,43.4306,6.99364-1.36021-2.12398-14.73492.75292-10.53314-5.04049,1.81235-2.49887,29.88876-.96759,28.02578-15.93925-3.68182,3.81553-8.67978,5.23255-13.47791,6.99363,10.45305-13.79463,19.05864-22.05944,8.96328-39.99102-3.00737,1.67694,3.25154,10.55309-1.96773,9.98837ZM25.64014,104.00406l9.54377-5.97013c-1.0885-12.16778-13.81903-.25455-15.54007,5.9549,1.61452,1.39957,7.21432-6.86495,5.9963.01523ZM53.50028,104.09777c-2.06529-2.67634-6.01272,1.81974-7.3677,1.89706-1.96839.11233-3.75563-2.95424-5.50974-1.5002,3.07197,9.95698,17.60508,5.72955,12.87744-.39687Z"/>
  <g>
    <path class="cls-4" d="M82.07192,136.00592c-3.68182,3.81549-8.67981,5.23254-13.47791,6.99359,10.453-13.79462,19.05859-22.05939,8.96326-39.99097-3.00739,1.67694,3.25153,10.55304-1.96771,9.98834-4.0816-18.91791-21.73224-27.35425-39.95892-22.98389,2.06104,1.79828,18.38,1.70288,14.96973,6.97107-.56439.87189-7.38098.24072-7.98425,3.00354,6.03687,3.43262,11.95349-4.4729,16.51245-2.06281,3.85541,2.03815,5.13727,8.03467,4.45428,12.06952l-4.97626-2.99408c-2.21191,7.0434,11.86182,10.65863,11.99695,11.53766.96136,6.25128-9.54352,18.75287-6.02734,1.46234-5.23755,3.62634-1.60181,10.55365-4.21655,16.26678-2.96997,6.4892-12.85748,6.48102-12.59601,1.41107.12476-2.41895,14.89594-11.15997,11.82404-18.67255-13.05219,10.85065-30.86847-3.86816-38.84125,14.59979-2.7677,6.41113-2.41077,10.1123.40222,16.38666,7.46893,16.65906,29.61761,10.24683,43.4306,6.99365-1.36017-2.12396-14.73492.75293-10.53314-5.04053,1.81238-2.49884,29.88879-.96759,28.02582-15.93921Z"/>
    <path class="cls-4" d="M25.64016,104.00403l9.54376-5.97009c-1.0885-12.16779-13.81903-.25458-15.5401,5.9549,1.61456,1.39954,7.21436-6.86493,5.99634.0152Z"/>
    <path class="cls-4" d="M53.50027,104.09778c-2.06531-2.67633-6.0127,1.8197-7.36768,1.89703-1.96838.11237-3.75568-2.95422-5.50977-1.50018,3.07196,9.95697,17.6051,5.72955,12.87744-.39685Z"/>
  </g>
  <path d="M171.44805,97.97976c-.18376.30999-5.81925,1.86037-5.98494,4.00874,7.5243.32252,7.09493-6.35699,12.80879.69113,5.28636,6.5208,9.58705,18.89215,6.40727,27.06012-2.72197,6.99197-15.85673,4.99892-17.7277,8.25064-2.09637,3.64349,1.26469,20.67499-1.41319,22.58293-8.26156,5.03277-2.07593-15.76238-8.06294-10.56538-.39024.33874,2.54528,6.88149-4.99028,6.98636l-.51712-8.00023c-4.90293,1.03389.29239,12.32621-5.96703,11.01435-1.74397-.3655-1.44545-10.05471-4.49595-11.00709-1.91984,3.68398,1.60815,14.1536-3.99789,11.48835-6.61129-3.14318.7386-17.46093-2.06966-21.84078-3.26304-5.08914-15.87052-.64765-18.44036-10.62245-2.85805-11.09346,3.41737-24.07331,12.0166-31.02088,1.48662,6.68363,1.93594,8.83072,9.4822,8.98311-25.8384-23.29458,38.21596-16.88822,32.95221-8.00894ZM129.22212,114.21859c-6.82347,1.58466-11.7733,14.44661-.20522,15.7733,28.60857,3.281,12.60106-18.65207.20522-15.7733ZM179.2043,128.76049c6.28881-6.32525-6.24933-22.45619-17.38793-11.41135-15.75812,15.62547,14.35823,14.4586,17.38793,11.41135ZM150.49442,140.99289l-1.50564-13.9873c-4.05572,4.59263-4.14961,11.33489-3.03251,17.05164l10.5125.94435c.44879-5.90986-.06529-12.22625-3.97836-16.99603l-1.99599,12.98735Z"/>
  <g>
    <path class="cls-2" d="M102.61461,0h-3.37746c-26.00928,0-51.12644,10.17125-69.32613,28.75227-6.47356,6.6092-12.01734,13.86758-16.26024,21.24773l86.89246,50,86.89246-50c-7.79639-13.56165-17.56892-24.41847-29.24528-32.70647C142.00393,5.80418,122.46423,0,102.61461,0ZM131.04165,50.97272c-3.19269.36627-3.19232,4.20374-5.20892,4.88531-3.27838,1.10815-5.93463-2.30975-7.57684,1.39496-3.34656,7.54956,7.09998,6.09119,8.14655,6.85449,1.89032,1.37872-.87177,13.16766-.9021,15.88641-2.09558-1.58057-1.9646-6.41559-4.43134-8.09448-2.6814-1.82501-4.48206.61725-6.83563-.02026-2.72894-.7392-2.96045-7.40619-8.00623-3.94751-5.36902,3.68018,2.28821,8.14679,2.38159,8.67133.60547,3.40302-12.02148,13.36969-12.0531,10.90436,7.12775-7.78552-.61359-9.32764-1.57538-13.45844-.41876-1.79871,1.24725-6.35962.57257-7.04681-.24792-.2525-6.15228-.19611-7.05896.43451-1.99811,1.38971-.22046,6.32404-1.05182,7.45013-1.60876,2.17914-16.49615.02313-14.86285-1.87433,9.41748-.48499,6.19336-5.81348,7.68854-9.71832,1.04987-2.74188,4.51721-2.68146,4.1839-4.61414-4.41443-9.65247-6.46063-1.65161-9.60242-.82172-4.61224,1.21832-9.35767-7.27344-11.2597-10.84705.66931-.54761,6.03687,3.02991,9.31836,2.04675,1.38184-.41406.82855-3.1543,2.36139-4.16522,2.84357-1.87537,6.28229,2.35278,8.57599-2.15887,3.62714-7.13452-7.69293-6.04236-8.60553-7.95367-1.88947-3.95721,2.08386-10.44318,1.34467-14.7746,2.26581,1.81049,1.31531,6.24347,4.44989,8.11047,2.39471,1.42627,4.32611-.70697,6.81219.01965,1.81396.53021,5.81049,9.69537,9.18091,1.83337,2.65271-6.18793-3.09967-6.37036-3.45947-7.00159-1.36853-2.40076,10.45435-11.58673,10.95929-10.96692-4.68158,8.58582,1.11719,8.22748,2.59589,12.96222.7926,2.53802-.49365,4.9895-.06329,6.10583.81439,2.11243,6.28955,3.64874,7.33057,1.78473.72046-1.29004-.38452-4.4519.27295-6.21692,1.51556-4.06903,13.21167.29132,16.83606-.62494-1.29907,2.23328-7.16284,1.65375-8.53589,3.98285-1.36279,2.31183,1.05975,4.94031.42609,7.29559-.72162,2.68188-5.6001,2.47827-4.7594,6.02612,1.74097,7.34705,8.02692-1.04041,8.54352-1.21893,4.79388-1.65692,9.49103,8.54047,12.31549,11.40869-2.95813,1.02344-5.22882-2.90234-8.44751-2.53308Z"/>
    <path class="cls-2" d="M101.04263,32.54718c-17.95892-.00244-23.96765,25.5741-7.1756,32.63812,27.1239,11.41034,33.37775-32.63452,7.1756-32.63812ZM105.8027,63.76306c-23.39441,4.89374-25.14575-25.92535-7.50317-28.52881,19.99347-2.95038,23.03168,25.28052,7.50317,28.52881Z"/>
  </g>
  <g>
    <path class="cls-3" d="M187.43569,50l-86.89246,50v100l4.37565-.24476c10.72017-.59966,21.33897-2.67363,31.35631-6.53816,20.05329-7.73624,36.89595-21.38514,48.62141-39.19049,10.33814-15.69869,15.52304-34.23316,15.52304-53.03013v-2.18858c0-16.97671-4.33856-33.69401-12.7675-48.43041-.07186-.12563-.14401-.25145-.21645-.37746ZM184.67916,129.73975c-2.72198,6.992-15.85675,4.99896-17.72772,8.25067-2.09637,3.64349,1.26471,20.67499-1.41315,22.58289-8.2616,5.03278-2.07593-15.76233-8.06299-10.56537-.3902.33875,2.54529,6.88153-4.99023,6.98639l-.51715-8.00024c-4.90289,1.03387.29242,12.32623-5.96704,11.01434-1.74396-.36548-1.44543-10.05469-4.49591-11.00708-1.91986,3.68396,1.60815,14.15363-3.99792,11.48834-6.61127-3.14319.73859-17.46094-2.06964-21.84076-3.26306-5.08917-15.87054-.64764-18.44037-10.62244-2.85803-11.09351,3.41736-24.0733,12.0166-31.02087,1.48663,6.68359,1.93597,8.83069,9.48218,8.98309-25.83838-23.29456,38.216-16.88824,32.95221-8.00897-.18372.31-5.81921,1.86041-5.98492,4.00879,7.52429.32251,7.09491-6.35699,12.80878.6911,5.28638,6.52081,9.5871,18.89215,6.40729,27.06012Z"/>
    <path class="cls-3" d="M161.81637,117.34912c-15.75812,15.62549,14.35822,14.45862,17.38794,11.41138,6.28882-6.32526-6.24933-22.45618-17.38794-11.41138Z"/>
    <path class="cls-3" d="M129.22213,114.21857c-6.82349,1.58466-11.77332,14.44666-.2052,15.77332,28.60852,3.28101,12.60101-18.65204.2052-15.77332Z"/>
    <path class="cls-3" d="M150.49441,140.99292l-1.50562-13.9873c-4.05573,4.59259-4.14966,11.33484-3.03253,17.05164l10.51251.94434c.44879-5.90985-.06531-12.22626-3.97839-16.99603l-1.99597,12.98737Z"/>
  </g>
  <g>
    <path d="M127.17367,42.09711c-.5166.17853-6.80255,8.56598-8.54352,1.21893-.8407-3.54785,4.03778-3.34424,4.7594-6.02612.63367-2.35529-1.78888-4.98376-.42609-7.29559,1.37305-2.3291,7.23682-1.74957,8.53589-3.98285-3.62439.91626-15.3205-3.44409-16.83606.62494-.65747,1.76501.44751,4.92688-.27295,6.21692-1.04102,1.86401-6.51617.3277-7.33057-1.78473-.43036-1.11633.8559-3.56781.06329-6.10583-1.4787-4.73474-7.27747-4.3764-2.59589-12.96222-.50494-.61981-12.32782,8.56616-10.95929,10.96692.3598.63123,6.11218.81366,3.45947,7.00159-3.37042,7.862-7.36694-1.30316-9.18091-1.83337-2.48608-.72662-4.41748,1.40662-6.81219-.01965-3.13458-1.867-2.18408-6.29999-4.44989-8.11047.7392,4.33142-3.23413,10.81738-1.34467,14.7746.9126,1.91132,12.23267.81915,8.60553,7.95367-2.2937,4.51166-5.73242.28351-8.57599,2.15887-1.53284,1.01093-.97955,3.75116-2.36139,4.16522-3.28149.98315-8.64905-2.59436-9.31836-2.04675,1.90204,3.57361,6.64746,12.06537,11.2597,10.84705,3.14178-.8299,5.18799-8.83075,9.60242.82172.33331,1.93268-3.13403,1.87225-4.1839,4.61414-1.49518,3.90485,1.72894,9.23334-7.68854,9.71832-1.6333,1.89746,13.25409,4.05347,14.86285,1.87433.83136-1.1261-.94629-6.06042,1.05182-7.45013.90668-.63062,6.81104-.68701,7.05896-.43451.67468.68719-.99133,5.24811-.57257,7.04681.96179,4.1308,8.70312,5.67291,1.57538,13.45844.03162,2.46533,12.65857-7.50134,12.0531-10.90436-.09338-.52454-7.75061-4.99115-2.38159-8.67133,5.04578-3.45868,5.27728,3.20831,8.00623,3.94751,2.35358.63751,4.15424-1.80475,6.83563.02026,2.46674,1.67889,2.33575,6.51392,4.43134,8.09448.03033-2.71875,2.79242-14.50769.9021-15.88641-1.04657-.76331-11.4931.69507-8.14655-6.85449,1.64221-3.70471,4.29846-.2868,7.57684-1.39496,2.0166-.68158,2.01624-4.51904,5.20892-4.88531,3.21869-.36926,5.48938,3.55652,8.44751,2.53308-2.82446-2.86823-7.52161-13.06561-12.31549-11.40869ZM93.86703,65.1853c-16.79205-7.06403-10.78333-32.64056,7.1756-32.63812,26.20215.0036,19.9483,44.04846-7.1756,32.63812Z"/>
    <path d="M98.29952,35.23425c-17.64258,2.60345-15.89124,33.42255,7.50317,28.52881,15.5285-3.24829,12.4903-31.47919-7.50317-28.52881Z"/>
  </g>
</svg>