<?xml version="1.0" encoding="UTF-8"?>
<svg id="Layer_1" data-name="Layer 1" xmlns="http://www.w3.org/2000/svg" viewBox="0 0 200.61344 200">
  <defs>
    <style>
      .cls-1 {
        fill: #a8dff8;
      }

      .cls-2 {
        fill: #bababa;
      }

      .cls-3 {
        fill: #fcfcd8;
      }

      .cls-4 {
        fill: none;
      }

      .cls-5 {
        fill: #b7b7b7;
      }
    </style>
  </defs>
  <path d="M156.65648,93.00038c-8.81439,22.37858,25.04679,33.91258,11.83399,55.33698-10.19942,16.53825-34.75872,11.41575-37.52526-8.09812-2.59888-18.33127,12.89767-36.1167,25.69127-47.23885ZM163.63836,125.0095c-.1443-.11656-2.09667-.36763-1.98291.49353l-1.56381,14.55714c10.89273,5.58091,7.64506-11.74025,3.54672-15.05067Z"/>
  <path d="M71.76543,97.97976c-.18376.30999-5.81925,1.86037-5.98494,4.00874,7.5243.32252,7.09493-6.35699,12.80879.69113,5.28636,6.5208,9.58705,18.89215,6.40727,27.06012-2.72197,6.99197-15.85673,4.99892-17.7277,8.25064-2.09637,3.64349,1.26469,20.67499-1.41319,22.58293-8.26156,5.03277-2.07593-15.76238-8.06294-10.56538-.39024.33874,2.54528,6.88149-4.99028,6.98636l-.51712-8.00023c-4.90293,1.03389.29239,12.32621-5.96703,11.01435-1.74397-.3655-1.44545-10.05471-4.49595-11.00709-1.91984,3.68398,1.60815,14.1536-3.99789,11.48835-6.61129-3.14318.7386-17.46093-2.06966-21.84078-3.26304-5.08914-15.87052-.64765-18.44036-10.62245-2.85805-11.09346,3.41737-24.07331,12.0166-31.02088,1.48662,6.68363,1.93594,8.83072,9.4822,8.98311-25.8384-23.29458,38.21596-16.88822,32.95221-8.00894ZM29.53951,114.21859c-6.82347,1.58466-11.7733,14.44661-.20522,15.7733,28.60857,3.281,12.60106-18.65207.20522-15.7733ZM79.52168,128.76049c6.28881-6.32525-6.24933-22.45619-17.38793-11.41135-15.75812,15.62547,14.35823,14.4586,17.38793,11.41135ZM50.8118,140.99289l-1.50564-13.9873c-4.05572,4.59263-4.14961,11.33489-3.03251,17.05164l10.5125.94435c.44879-5.90986-.06529-12.22625-3.97836-16.99603l-1.99599,12.98735Z"/>
  <g>
    <path class="cls-4" d="M156.65646,93.00037c-12.79358,11.12219-28.2901,28.90759-25.69122,47.23889,2.76654,19.51385,27.32581,24.63635,37.52527,8.09808,13.21277-21.42438-20.64844-32.95837-11.83405-55.33698ZM161.65543,125.50305c-.11371-.86121,1.83862-.61011,1.98291-.49353,4.09839,3.31036,7.34607,20.63153-3.54669,15.05066l1.56378-14.55713Z"/>
    <path class="cls-1" d="M187.62949,50l-86.89246,50v100l5.80745-.22256c5.62043-.21539,11.2221-.90532,16.68895-2.22791,25.85409-6.25484,47.5656-21.87034,61.79765-43.43298,10.37347-15.7166,15.58235-34.28173,15.58236-53.1131v-2.19312c0-16.97832-4.3388-33.69733-12.76873-48.43502-.07145-.12491-.14319-.25001-.21522-.37531ZM168.49051,148.33734c-10.19946,16.53827-34.75873,11.41577-37.52527-8.09808-2.59888-18.3313,12.89764-36.1167,25.69122-47.23889-8.81439,22.3786,25.04681,33.9126,11.83405,55.33698Z"/>
    <path class="cls-1" d="M163.63834,125.00952c-.14429-.11658-2.09662-.36768-1.98291.49353l-1.56378,14.55713c10.89276,5.58087,7.64508-11.7403,3.54669-15.05066Z"/>
  </g>
  <g>
    <path class="cls-4" d="M98.49332,35.23425c-17.64258,2.60345-15.89124,33.42255,7.50317,28.52881,15.5285-3.24829,12.4903-31.47919-7.50317-28.52881Z"/>
    <path class="cls-4" d="M127.36746,42.09711c-.5166.17853-6.80255,8.56598-8.54352,1.21893-.8407-3.54785,4.03778-3.34424,4.7594-6.02612.63367-2.35529-1.78888-4.98376-.42609-7.29559,1.37305-2.3291,7.23682-1.74957,8.53589-3.98285-3.62439.91626-15.3205-3.44409-16.83606.62494-.65747,1.76501.44751,4.92688-.27295,6.21692-1.04102,1.86401-6.51617.3277-7.33057-1.78473-.43036-1.11633.8559-3.56781.06329-6.10583-1.4787-4.73474-7.27747-4.3764-2.59589-12.96222-.50494-.61981-12.32782,8.56616-10.95929,10.96692.3598.63123,6.11218.81366,3.45947,7.00159-3.37042,7.862-7.36694-1.30316-9.18091-1.83337-2.48608-.72662-4.41748,1.40662-6.81219-.01965-3.13458-1.867-2.18408-6.29999-4.44989-8.11047.7392,4.33142-3.23413,10.81738-1.34467,14.7746.9126,1.91132,12.23267.81915,8.60553,7.95367-2.2937,4.51166-5.73242.28351-8.57599,2.15887-1.53284,1.01093-.97955,3.75116-2.36139,4.16522-3.28149.98315-8.64905-2.59436-9.31836-2.04675,1.90204,3.57361,6.64746,12.06537,11.2597,10.84705,3.14178-.8299,5.18799-8.83075,9.60242.82172.33331,1.93268-3.13403,1.87225-4.1839,4.61414-1.49518,3.90485,1.72894,9.23334-7.68854,9.71832-1.6333,1.89746,13.25409,4.05347,14.86285,1.87433.83136-1.1261-.94629-6.06042,1.05182-7.45013.90668-.63062,6.81104-.68701,7.05896-.43451.67468.68719-.99133,5.24811-.57257,7.04681.96179,4.1308,8.70312,5.67291,1.57538,13.45844.03162,2.46533,12.65857-7.50134,12.0531-10.90436-.09338-.52454-7.75061-4.99115-2.38159-8.67133,5.04578-3.45868,5.27728,3.20831,8.00623,3.94751,2.35358.63751,4.15424-1.80475,6.83563.02026,2.46674,1.67889,2.33575,6.51392,4.43134,8.09448.03033-2.71875,2.79242-14.50769.9021-15.88641-1.04657-.76331-11.4931.69507-8.14655-6.85449,1.64221-3.70471,4.29846-.2868,7.57684-1.39496,2.0166-.68158,2.01624-4.51904,5.20892-4.88531,3.21869-.36926,5.48938,3.55652,8.44751,2.53308-2.82446-2.86823-7.52161-13.06561-12.31549-11.40869ZM94.06082,65.1853c-16.79205-7.06403-10.78333-32.64056,7.1756-32.63812,26.20215.0036,19.9483,44.04846-7.1756,32.63812Z"/>
    <path class="cls-3" d="M103.10351,0h-3.93495c-25.12425,0-49.46834,9.51124-67.41048,27.09838-7.18489,7.04274-13.31368,14.90062-17.91351,22.90162l86.89246,50,86.89246-50c-8.78636-15.28368-20.08259-27.13203-33.78516-35.73969C138.68462,4.7373,121.00615,0,103.10351,0ZM131.23544,50.97272c-3.19269.36627-3.19232,4.20374-5.20892,4.88531-3.27838,1.10815-5.93463-2.30975-7.57684,1.39496-3.34656,7.54956,7.09998,6.09119,8.14655,6.85449,1.89032,1.37872-.87177,13.16766-.9021,15.88641-2.09558-1.58057-1.9646-6.41559-4.43134-8.09448-2.6814-1.82501-4.48206.61725-6.83563-.02026-2.72894-.7392-2.96045-7.40619-8.00623-3.94751-5.36902,3.68018,2.28821,8.14679,2.38159,8.67133.60547,3.40302-12.02148,13.36969-12.0531,10.90436,7.12775-7.78552-.61359-9.32764-1.57538-13.45844-.41876-1.79871,1.24725-6.35962.57257-7.04681-.24792-.2525-6.15228-.19611-7.05896.43451-1.99811,1.38971-.22046,6.32404-1.05182,7.45013-1.60876,2.17914-16.49615.02313-14.86285-1.87433,9.41748-.48499,6.19336-5.81348,7.68854-9.71832,1.04987-2.74188,4.51721-2.68146,4.1839-4.61414-4.41443-9.65247-6.46063-1.65161-9.60242-.82172-4.61224,1.21832-9.35767-7.27344-11.2597-10.84705.66931-.54761,6.03687,3.02991,9.31836,2.04675,1.38184-.41406.82855-3.1543,2.36139-4.16522,2.84357-1.87537,6.28229,2.35278,8.57599-2.15887,3.62714-7.13452-7.69293-6.04236-8.60553-7.95367-1.88947-3.95721,2.08386-10.44318,1.34467-14.7746,2.26581,1.81049,1.31531,6.24347,4.44989,8.11047,2.39471,1.42627,4.32611-.70697,6.81219.01965,1.81396.53021,5.81049,9.69537,9.18091,1.83337,2.65271-6.18793-3.09967-6.37036-3.45947-7.00159-1.36853-2.40076,10.45435-11.58673,10.95929-10.96692-4.68158,8.58582,1.11719,8.22748,2.59589,12.96222.7926,2.53802-.49365,4.9895-.06329,6.10583.81439,2.11243,6.28955,3.64874,7.33057,1.78473.72046-1.29004-.38452-4.4519.27295-6.21692,1.51556-4.06903,13.21167.29132,16.83606-.62494-1.29907,2.23328-7.16284,1.65375-8.53589,3.98285-1.36279,2.31183,1.05975,4.94031.42609,7.29559-.72162,2.68188-5.6001,2.47827-4.7594,6.02612,1.74097,7.34705,8.02692-1.04041,8.54352-1.21893,4.79388-1.65692,9.49103,8.54047,12.31549,11.40869-2.95813,1.02344-5.22882-2.90234-8.44751-2.53308Z"/>
    <path class="cls-3" d="M101.23642,32.54718c-17.95892-.00244-23.96765,25.5741-7.1756,32.63812,27.1239,11.41034,33.37775-32.63452,7.1756-32.63812ZM105.99649,63.76306c-23.39441,4.89374-25.14575-25.92535-7.50317-28.52881,19.99347-2.95038,23.03168,25.28052,7.50317,28.52881Z"/>
  </g>
  <g>
    <path class="cls-4" d="M65.78049,101.98853c.16571-2.14838,5.80121-3.69879,5.98492-4.00879,5.26379-8.87927-58.79059-15.28558-32.95221,8.00897-7.54626-.1524-7.99554-2.2995-9.48218-8.98309-8.59924,6.94757-14.87463,19.92737-12.0166,31.02087,2.56982,9.97479,15.17731,5.53326,18.44037,10.62244,2.80823,4.37982-4.54163,18.69757,2.06964,21.84076,5.60602,2.66528,2.07806-7.80438,3.99792-11.48834,3.05048.95239,2.75195,10.6416,4.49591,11.00708,6.2594,1.31189,1.06409-9.98047,5.96704-11.01434l.51709,8.00024c7.53558-.10486,4.6001-6.64764,4.9903-6.98639,5.987-5.19696-.19861,15.59814,8.06293,10.56537,2.67792-1.9079-.68317-18.93939,1.41321-22.58289,1.87097-3.25171,15.00574-1.25867,17.72772-8.25067,3.17975-8.16797-1.12091-20.53931-6.40729-27.06012-5.71387-7.0481-5.28448-.36859-12.80878-.6911ZM29.33432,129.99188c-11.56812-1.32666-6.61829-14.18866.2052-15.77332,12.39581-2.87872,28.40332,19.05432-.2052,15.77332ZM56.78616,145.00159l-10.51251-.94434c-1.11713-5.7168-1.02319-12.45905,3.03253-17.05164l1.50562,13.9873,1.99597-12.98737c3.91309,4.76978,4.42719,11.08618,3.97839,16.99603ZM79.5217,128.7605c-3.02972,3.04724-33.14606,4.21411-17.38794-11.41138,11.13861-11.0448,23.67676,5.08612,17.38794,11.41138Z"/>
    <path class="cls-2" d="M13.84457,50C7.27115,61.43384,2.12375,73.50067.86063,87c-.77405,8.27203-1.46941,17.11111,0,26,6.03065,38.78626,32.49478,69.51806,68.52253,81.61673,8.2919,2.78455,16.94527,4.34691,25.66969,4.97443l5.68418.40884v-100L13.84457,50ZM84.99655,129.73975c-2.72198,6.992-15.85675,4.99896-17.72772,8.25067-2.09637,3.64349,1.26471,20.67499-1.41321,22.58289-8.26154,5.03278-2.07593-15.76233-8.06293-10.56537-.3902.33875,2.54529,6.88153-4.9903,6.98639l-.51709-8.00024c-4.90295,1.03387.29236,12.32623-5.96704,11.01434-1.74396-.36548-1.44543-10.05469-4.49591-11.00708-1.91986,3.68396,1.60809,14.15363-3.99792,11.48834-6.61127-3.14319.73859-17.46094-2.06964-21.84076-3.26306-5.08917-15.87054-.64764-18.44037-10.62244-2.85803-11.09351,3.41736-24.0733,12.0166-31.02087,1.48663,6.68359,1.93591,8.83069,9.48218,8.98309-25.83838-23.29456,38.216-16.88824,32.95221-8.00897-.18372.31-5.81921,1.86041-5.98492,4.00879,7.52429.32251,7.09491-6.35699,12.80878.6911,5.28638,6.52081,9.58704,18.89215,6.40729,27.06012Z"/>
    <path class="cls-2" d="M62.13376,117.34912c-15.75812,15.62549,14.35822,14.45862,17.38794,11.41138,6.28882-6.32526-6.24933-22.45618-17.38794-11.41138Z"/>
    <path class="cls-2" d="M29.53952,114.21857c-6.82349,1.58466-11.77332,14.44666-.2052,15.77332,28.60852,3.28101,12.60101-18.65204.2052-15.77332Z"/>
    <path class="cls-5" d="M50.8118,140.99292l-1.50562-13.9873c-4.05573,4.59259-4.14966,11.33484-3.03253,17.05164l10.51251.94434c.44879-5.90985-.06531-12.22626-3.97839-16.99603l-1.99597,12.98737Z"/>
  </g>
  <g>
    <path class="cls-4" d="M101.23642,32.54718c-17.95892-.00244-23.96765,25.5741-7.1756,32.63812,27.1239,11.41034,33.37775-32.63452,7.1756-32.63812ZM105.99649,63.76306c-23.39441,4.89374-25.14575-25.92535-7.50317-28.52881,19.99347-2.95038,23.03168,25.28052,7.50317,28.52881Z"/>
    <path d="M127.36746,42.09711c-.5166.17853-6.80255,8.56598-8.54352,1.21893-.8407-3.54785,4.03778-3.34424,4.7594-6.02612.63367-2.35529-1.78888-4.98376-.42609-7.29559,1.37305-2.3291,7.23682-1.74957,8.53589-3.98285-3.62439.91626-15.3205-3.44409-16.83606.62494-.65747,1.76501.44751,4.92688-.27295,6.21692-1.04102,1.86401-6.51617.3277-7.33057-1.78473-.43036-1.11633.8559-3.56781.06329-6.10583-1.4787-4.73474-7.27747-4.3764-2.59589-12.96222-.50494-.61981-12.32782,8.56616-10.95929,10.96692.3598.63123,6.11218.81366,3.45947,7.00159-3.37042,7.862-7.36694-1.30316-9.18091-1.83337-2.48608-.72662-4.41748,1.40662-6.81219-.01965-3.13458-1.867-2.18408-6.29999-4.44989-8.11047.7392,4.33142-3.23413,10.81738-1.34467,14.7746.9126,1.91132,12.23267.81915,8.60553,7.95367-2.2937,4.51166-5.73242.28351-8.57599,2.15887-1.53284,1.01093-.97955,3.75116-2.36139,4.16522-3.28149.98315-8.64905-2.59436-9.31836-2.04675,1.90204,3.57361,6.64746,12.06537,11.2597,10.84705,3.14178-.8299,5.18799-8.83075,9.60242.82172.33331,1.93268-3.13403,1.87225-4.1839,4.61414-1.49518,3.90485,1.72894,9.23334-7.68854,9.71832-1.6333,1.89746,13.25409,4.05347,14.86285,1.87433.83136-1.1261-.94629-6.06042,1.05182-7.45013.90668-.63062,6.81104-.68701,7.05896-.43451.67468.68719-.99133,5.24811-.57257,7.04681.96179,4.1308,8.70312,5.67291,1.57538,13.45844.03162,2.46533,12.65857-7.50134,12.0531-10.90436-.09338-.52454-7.75061-4.99115-2.38159-8.67133,5.04578-3.45868,5.27728,3.20831,8.00623,3.94751,2.35358.63751,4.15424-1.80475,6.83563.02026,2.46674,1.67889,2.33575,6.51392,4.43134,8.09448.03033-2.71875,2.79242-14.50769.9021-15.88641-1.04657-.76331-11.4931.69507-8.14655-6.85449,1.64221-3.70471,4.29846-.2868,7.57684-1.39496,2.0166-.68158,2.01624-4.51904,5.20892-4.88531,3.21869-.36926,5.48938,3.55652,8.44751,2.53308-2.82446-2.86823-7.52161-13.06561-12.31549-11.40869ZM94.06082,65.1853c-16.79205-7.06403-10.78333-32.64056,7.1756-32.63812,26.20215.0036,19.9483,44.04846-7.1756,32.63812Z"/>
    <path d="M98.49332,35.23425c-17.64258,2.60345-15.89124,33.42255,7.50317,28.52881,15.5285-3.24829,12.4903-31.47919-7.50317-28.52881Z"/>
  </g>
</svg>