<svg xmlns="http://www.w3.org/2000/svg" xml:space="preserve" width="1500" height="2100" fill-rule="evenodd" stroke-linejoin="round" stroke-miterlimit="2" clip-rule="evenodd"><path fill="none" d="M0 0h1500v2100H0z"/><path fill="#fff" fill-rule="nonzero" d="M70.46 2030.68c.09-.15.1-.33.13-.5.13-.89.18-1.78.25-2.68.16-2.4.28-4.79.43-7.18.25-3.9.54-7.82 1.1-11.7.28-1.83.61-3.66 1.17-5.43.75-.05 1.49-.1 2.23-.19.36 1.08.54 2.21.73 3.34.17 1.05.31 2.1.44 3.16.5 4.12.85 8.26 1.23 12.39.1.85.15 1.7.29 2.55.07-.18.08-.38.11-.57.09-.58.15-1.16.21-1.74.4-3.87.75-7.74 1.25-11.59.22-1.77.48-3.54.81-5.29.23-1.14.47-2.29.88-3.39.69-.2 1.37-.44 2.03-.72.21.47.37.97.51 1.47.37 1.29.63 2.6.85 3.93.48 2.85.77 5.72 1.15 8.59.1.65.16 1.32.37 1.95.1-.27.13-.56.18-.84.18-1.3.3-2.6.43-3.9.13-1.41.27-2.82.38-4.24l.02.07.03-.6c.3-3.4.57-6.8.82-10.22a23.39 23.39 0 0 1-5.44-2.96 26.11 26.11 0 0 1-5.82-5.89 30.36 30.36 0 0 1-3.98-7.66A46.03 46.03 0 0 1 71 1970.2c-.12-1.11-.19-2.23-.3-3.33-.04-.3-.05-.61-.2-.88h-.06c-.13.2-.14.44-.18.67-.09.74-.13 1.48-.2 2.21a58.6 58.6 0 0 1-.79 5.94 36.8 36.8 0 0 1-2.96 9.31 28.15 28.15 0 0 1-6.75 8.93 23.7 23.7 0 0 1-7.12 4.3c.36 4.74.74 9.48 1.18 14.22.15 1.54.3 3.08.5 4.61.05.28.08.57.17.84l.04-.01c.17-.56.24-1.14.33-1.7.3-2.22.52-4.45.84-6.66.25-1.78.54-3.55.97-5.3.2-.75.4-1.5.72-2.22.66.28 1.34.5 2.03.72.26.68.44 1.4.6 2.1.26 1.1.45 2.21.63 3.33.72 4.6 1.14 9.24 1.61 13.88.09.83.17 1.67.28 2.5.04.26.06.53.15.78.09-.58.14-1.16.2-1.75.37-3.93.7-7.87 1.14-11.8.22-1.86.45-3.73.78-5.58.15-.78.3-1.57.57-2.32l2.22.18c.55 1.75.88 3.55 1.15 5.36.3 2.02.52 4.05.7 6.08.3 3.48.5 6.95.7 10.43.1 1.54.17 3.08.33 4.61.05.35.08.7.18 1.02z"/></svg>