<svg xmlns="http://www.w3.org/2000/svg" xml:space="preserve" width="1500" height="2100" fill-rule="evenodd" stroke-linejoin="round" stroke-miterlimit="2" clip-rule="evenodd"><path fill="none" d="M0 0h1500v2100H0z"/><path d="M78.73 1957a35.51 35.51 0 0 1 35.27 35.5V2100H0v-143h78.5z"/><path fill="#fff" fill-rule="nonzero" d="M78.02 2046.68c.1-.18.12-.4.15-.6.17-1.09.23-2.18.31-3.27.19-2.91.34-5.82.52-8.73.3-4.76.66-9.52 1.35-14.24.34-2.22.74-4.45 1.42-6.6.9-.07 1.8-.13 2.7-.23.45 1.31.67 2.7.9 4.06.2 1.27.37 2.56.53 3.84.61 5.01 1.04 10.05 1.5 15.08.1 1.03.17 2.07.34 3.1.09-.22.11-.46.15-.7.1-.7.17-1.4.25-2.11.48-4.7.9-9.41 1.51-14.1.28-2.15.59-4.3 1-6.43.27-1.4.57-2.79 1.06-4.13a24.4 24.4 0 0 0 2.48-.88c.25.58.44 1.18.62 1.79.45 1.57.76 3.17 1.03 4.78.59 3.47.93 6.97 1.39 10.45.12.8.2 1.6.45 2.37.13-.33.16-.68.22-1.02.22-1.58.37-3.16.53-4.74.16-1.72.33-3.43.46-5.15l.02.08a1165.79 1165.79 0 0 0 1.04-13.16 28.45 28.45 0 0 1-6.62-3.6 31.76 31.76 0 0 1-7.07-7.17 36.4 36.4 0 0 1-4.84-9.32 55.99 55.99 0 0 1-2.74-12.93c-.15-1.35-.24-2.7-.37-4.05-.05-.36-.06-.74-.24-1.07H78c-.16.24-.17.54-.22.82-.1.9-.16 1.8-.24 2.69-.2 2.42-.5 4.83-.96 7.22a44.77 44.77 0 0 1-3.6 11.32c-2 4.1-4.76 7.87-8.2 10.87a28.82 28.82 0 0 1-8.67 5.22c.43 5.77.9 11.54 1.43 17.3.19 1.88.36 3.75.62 5.62.05.34.1.68.2 1.01l.05-.01c.2-.67.29-1.38.4-2.07.36-2.7.63-5.4 1.02-8.1.3-2.16.65-4.32 1.18-6.43.23-.92.5-1.84.87-2.72.8.35 1.64.62 2.47.88.31.83.54 1.7.74 2.56.3 1.34.55 2.69.76 4.05.88 5.6 1.39 11.24 1.96 16.88.1 1.01.2 2.03.34 3.04.05.32.07.65.18.96.1-.71.17-1.42.24-2.13.45-4.79.85-9.58 1.4-14.36.26-2.27.54-4.54.94-6.8.18-.94.36-1.9.69-2.81.9.08 1.8.16 2.7.22a42.89 42.89 0 0 1 1.4 6.51c.37 2.46.64 4.93.85 7.4.38 4.23.61 8.46.86 12.69.11 1.87.2 3.75.4 5.61.05.42.1.84.22 1.24z"/></svg>