<svg xmlns="http://www.w3.org/2000/svg" xmlns:xlink="http://www.w3.org/1999/xlink" width="96" height="120"><defs><linearGradient id="a"><stop offset=".05" stop-color="#632f77"/><stop offset="1" stop-color="#be98c2"/></linearGradient><linearGradient xlink:href="#a" id="b" x1="3.03" x2="51.58" y1="60.74" y2="60.74" gradientUnits="userSpaceOnUse" spreadMethod="reflect"/></defs><path fill="url(#b)" stroke="#000" stroke-linecap="round" stroke-linejoin="round" stroke-width="4.06" d="m42.7 1.76-37.64 59 37.64 58.96a26.48 26.48 0 0 0 5.96-14.84c.4-5.4-.94-10.9-3.76-15.54-2.28-3.74-5.45-6.86-8.31-10.2-2.86-3.34-5.5-7.07-6.35-11.36a15.53 15.53 0 0 1 8.2-16.8 15.58 15.58 0 0 0-3.6 12.03c.58 4.4 3.04 8.35 5.94 11.74 2.9 3.4 6.27 6.36 9.15 9.75a46.18 46.18 0 0 1 10.53 35.21l37.65-58.99L60.47 1.76A26.48 26.48 0 0 0 54.5 16.6c-.4 5.4.94 10.9 3.76 15.53 2.28 3.75 5.45 6.87 8.31 10.2 2.86 3.34 5.5 7.07 6.35 11.37a15.53 15.53 0 0 1-8.2 16.8 15.58 15.58 0 0 0 3.6-12.03c-.58-4.4-3.04-8.36-5.94-11.75-2.9-3.38-6.27-6.35-9.15-9.75a46.15 46.15 0 0 1-10.52-35.2" transform="matrix(.989 0 0 .984 -3 .26)"/></svg>