<svg xmlns="http://www.w3.org/2000/svg" xmlns:xlink="http://www.w3.org/1999/xlink" width="192" height="120"><defs><linearGradient id="a"><stop offset=".06" stop-color="#536e78"/><stop offset="1" stop-color="#d4e5ee"/></linearGradient><linearGradient xlink:href="#a" id="b" x1="3.03" x2="100.14" y1="60.74" y2="60.74" gradientUnits="userSpaceOnUse" spreadMethod="reflect"/></defs><path fill="url(#b)" stroke="#000" stroke-linecap="round" stroke-linejoin="round" stroke-width="4.06" d="M100.27 1.76A69.27 70.69 0 0 0 72.9 57.82a69.27 70.69 0 0 0 27.24 55.97 69.27 70.69 0 0 0 27.24-55.97 69.27 70.69 0 0 0-27.1-56.06Zm51.53 2.49a275.2 275.2 0 0 0-24.88 13.38 71.84 71.84 0 0 1-2.53 85.34 69.34 69.34 0 0 0 17.1-12.61c22.32-22.93 26.57-58.38 10.31-86.11zM48.02 4.7C32.15 32.4 36.53 67.51 58.7 90.24a69.34 69.34 0 0 0 17.1 12.62 71.84 71.84 0 0 1-2.8-84.9A275.14 275.14 0 0 0 48.02 4.72Zm120.34 53.07a69.27 70.69 0 0 1-60.93 58.52 69.27 70.69 0 0 0 20.83 3.42 69.27 70.69 0 0 0 66.97-53.45 277.09 282.75 0 0 0-26.87-8.5zm-136.46.5a277.09 282.75 0 0 0-26.84 8.65 69.27 70.69 0 0 0 66.8 52.79 69.27 70.69 0 0 0 20.84-3.42A69.27 70.69 0 0 1 31.9 58.3Z" transform="matrix(.9885 0 0 .9835 -3 .26)"/></svg>