<svg id="svg" xmlns="http://www.w3.org/2000/svg" xmlns:xlink="http://www.w3.org/1999/xlink" width="400" height="400" viewBox="0, 0, 400,400"><g id="svgg"><path id="path0" d="M199.736 0.193 C 199.736 1.421,187.187 25.083,181.016 35.491 C 139.369 105.728,76.648 163.197,3.480 198.162 C -0.112 199.879,-0.269 199.982,0.396 200.185 C 1.152 200.416,14.203 206.960,18.846 209.437 C 88.358 246.517,146.200 302.836,184.985 371.202 C 189.492 379.145,197.225 394.015,199.299 398.723 C 199.926 400.147,199.775 400.288,201.483 396.692 C 234.830 326.533,289.758 265.183,356.407 223.659 C 369.515 215.492,387.942 205.415,398.547 200.614 C 399.907 199.998,400.059 199.830,399.428 199.641 C 397.681 199.116,379.017 189.454,371.554 185.211 C 299.364 144.167,241.414 83.100,204.489 9.159 C 202.674 5.526,200.930 1.979,200.613 1.277 C 200.090 0.121,199.736 -0.318,199.736 0.193 M201.584 78.732 C 225.769 130.675,268.834 173.632,321.610 198.459 L 324.683 199.904 322.139 201.086 C 268.609 225.959,223.071 271.937,200.141 324.262 C 199.962 324.673,199.873 324.540,198.841 322.325 C 174.016 269.005,131.241 226.195,77.772 201.157 L 75.139 199.924 77.508 198.829 C 130.695 174.248,174.951 129.832,199.130 76.769 C 199.512 75.932,199.879 75.298,199.946 75.360 C 200.012 75.422,200.750 76.940,201.584 78.732 " stroke="none" fill="#000000" fill-rule="evenodd"></path></g></svg>